/* XPM */
static char * icewm_xpm[] = {
"34 20 522 2",
"  	c #686868",
". 	c #505153",
"+ 	c #34404B",
"@ 	c #416075",
"# 	c #97B4C5",
"$ 	c #C4D2DC",
"% 	c #B4C5D2",
"& 	c #AABECD",
"* 	c #A9BCCB",
"= 	c #A5BACA",
"- 	c #A4BAC9",
"; 	c #A3B7C7",
"> 	c #A6BBCA",
", 	c #A6BBCB",
"' 	c #ADC0CD",
") 	c #B3C4D1",
"! 	c #BFCED8",
"~ 	c #B6C7D4",
"{ 	c #547A96",
"] 	c #314858",
"^ 	c #373B3F",
"/ 	c #626363",
"( 	c #878787",
"_ 	c #7A7A7B",
": 	c #24313B",
"< 	c #305775",
"[ 	c #A3B8C8",
"} 	c #AFC1CE",
"| 	c #A0B5C5",
"1 	c #96ADBE",
"2 	c #8EA7B9",
"3 	c #87A3B6",
"4 	c #889FB2",
"5 	c #89A1B3",
"6 	c #8DA5B8",
"7 	c #8FA8BC",
"8 	c #93ACBF",
"9 	c #93AEC2",
"0 	c #98AFC0",
"a 	c #9CB2C3",
"b 	c #AABDCB",
"c 	c #5F819A",
"d 	c #153044",
"e 	c #4E5458",
"f 	c #858585",
"g 	c #757575",
"h 	c #656565",
"i 	c #1E2B37",
"j 	c #2C506D",
"k 	c #9EB2C2",
"l 	c #9BAFBF",
"m 	c #88A0B3",
"n 	c #7B97AC",
"o 	c #827885",
"p 	c #916362",
"q 	c #A25148",
"r 	c #A25047",
"s 	c #99655D",
"t 	c #807A83",
"u 	c #7794A9",
"v 	c #7B96AB",
"w 	c #809CB1",
"x 	c #819EB4",
"y 	c #85A2B7",
"z 	c #87A2B6",
"A 	c #93AABC",
"B 	c #A6B8C6",
"C 	c #5C809A",
"D 	c #192E40",
"E 	c #4A4B4B",
"F 	c #747474",
"G 	c #6E6E6E",
"H 	c #726D72",
"I 	c #737073",
"J 	c #696769",
"K 	c #323435",
"L 	c #153048",
"M 	c #829CB0",
"N 	c #92A9BB",
"O 	c #6E8BA2",
"P 	c #6B7587",
"Q 	c #B23B2C",
"R 	c #C2391D",
"S 	c #CC4A20",
"T 	c #CF5022",
"U 	c #D05624",
"V 	c #C9592E",
"W 	c #7C7477",
"X 	c #628194",
"Y 	c #6B889F",
"Z 	c #6C8AA1",
"` 	c #6F8EA4",
" .	c #6F8DA3",
"..	c #7590A5",
"+.	c #7F98AA",
"@.	c #97AEBF",
"#.	c #335773",
"$.	c #222930",
"%.	c #686469",
"&.	c #727072",
"*.	c #515253",
"=.	c #0B1C2C",
"-.	c #486B87",
";.	c #8CA4B7",
">.	c #6D8AA1",
",.	c #618098",
"'.	c #547690",
").	c #785D65",
"!.	c #C54121",
"~.	c #D25825",
"{.	c #D86929",
"].	c #DD752B",
"^.	c #DE7B2C",
"/.	c #DE772C",
"(.	c #676B5E",
"_.	c #779B60",
":.	c #5F8472",
"<.	c #55788C",
"[.	c #53788F",
"}.	c #4F7382",
"|.	c #496E6F",
"1.	c #5A7F77",
"2.	c #728B9E",
"3.	c #7591A8",
"4.	c #1A3950",
"5.	c #3D4144",
"6.	c #5E5E5E",
"7.	c #303337",
"8.	c #153046",
"9.	c #7390A6",
"0.	c #658399",
"a.	c #577893",
"b.	c #4E728D",
"c.	c #456780",
"d.	c #965645",
"e.	c #D35B26",
"f.	c #DC732B",
"g.	c #E1872E",
"h.	c #E4912D",
"i.	c #EB9E2E",
"j.	c #C68738",
"k.	c #5E7B60",
"l.	c #9ABD53",
"m.	c #87B042",
"n.	c #6F9F46",
"o.	c #568D49",
"p.	c #428241",
"q.	c #337D38",
"r.	c #46715A",
"s.	c #506B7E",
"t.	c #7590A4",
"u.	c #395F7C",
"v.	c #29333A",
"w.	c #545454",
"x.	c #505050",
"y.	c #4B4B4B",
"z.	c #161D22",
"A.	c #2D516D",
"B.	c #6F8CA1",
"C.	c #507088",
"D.	c #436C88",
"E.	c #3D6785",
"F.	c #445D75",
"G.	c #B45433",
"H.	c #DB6E29",
"I.	c #E28A2D",
"J.	c #E9A02D",
"K.	c #ECAA2E",
"L.	c #F1B92E",
"M.	c #927744",
"N.	c #80A26E",
"O.	c #ADCA66",
"P.	c #9CBF4E",
"Q.	c #8AB43E",
"R.	c #6BA03B",
"S.	c #4F8D3D",
"T.	c #3C813A",
"U.	c #365B58",
"V.	c #3D5B6C",
"W.	c #5F7D95",
"X.	c #577B97",
"Y.	c #1F2F3C",
"Z.	c #434444",
"`.	c #4A4A4A",
" +	c #494949",
".+	c #393C3D",
"++	c #101D27",
"@+	c #446F8C",
"#+	c #5E7D95",
"$+	c #3F6580",
"%+	c #366282",
"&+	c #2D6185",
"*+	c #565A60",
"=+	c #D15F2A",
"-+	c #D87D2E",
";+	c #D9912C",
">+	c #E3A72E",
",+	c #EFBE2D",
"'+	c #E8C031",
")+	c #5F6450",
"!+	c #B3CA7E",
"~+	c #B9D277",
"{+	c #AAC862",
"]+	c #97BD49",
"^+	c #7CAC3B",
"/+	c #5E963E",
"(+	c #437B47",
"_+	c #29535F",
":+	c #345C75",
"<+	c #4C708A",
"[+	c #6A889F",
"}+	c #17364F",
"|+	c #3E3F3F",
"1+	c #414141",
"2+	c #2D2D2E",
"3+	c #0B1F30",
"4+	c #456F8D",
"5+	c #3B6583",
"6+	c #2C6286",
"7+	c #1E567C",
"8+	c #5D4F4F",
"9+	c #804F3B",
"0+	c #515050",
"a+	c #44555A",
"b+	c #4F534B",
"c+	c #7D6A35",
"d+	c #BB9838",
"e+	c #557061",
"f+	c #CDDE8D",
"g+	c #C1D781",
"h+	c #B0CC6B",
"i+	c #9EC151",
"j+	c #87B23E",
"k+	c #659C3B",
"l+	c #396E49",
"m+	c #21516F",
"n+	c #315C7A",
"o+	c #496D88",
"p+	c #61839D",
"q+	c #14415E",
"r+	c #353839",
"s+	c #424242",
"t+	c #404040",
"u+	c #2B2B2B",
"v+	c #272828",
"w+	c #19191A",
"x+	c #061E32",
"y+	c #154F76",
"z+	c #2D5979",
"A+	c #184E75",
"B+	c #0B4A72",
"C+	c #05466F",
"D+	c #0C5D8E",
"E+	c #1780B7",
"F+	c #50A2D3",
"G+	c #7CB9E0",
"H+	c #97C7E5",
"I+	c #7EA8C1",
"J+	c #274B66",
"K+	c #4A7063",
"L+	c #C4D98E",
"M+	c #C4D884",
"N+	c #B9D175",
"O+	c #A7C65E",
"P+	c #8DB641",
"Q+	c #679B3E",
"R+	c #205554",
"S+	c #084066",
"T+	c #12496E",
"U+	c #275678",
"V+	c #23597B",
"W+	c #0C3F60",
"X+	c #262A2D",
"Y+	c #292929",
"Z+	c #2A2A2A",
"`+	c #090909",
" @	c #070707",
".@	c #060606",
"+@	c #051D31",
"@@	c #03416D",
"#@	c #033B64",
"$@	c #033F68",
"%@	c #034571",
"&@	c #0A4B74",
"*@	c #1982B9",
"=@	c #1F98D0",
"-@	c #5AA9D8",
";@	c #7FBCE3",
">@	c #AAD5EE",
",@	c #C8E6F6",
"'@	c #537A91",
")@	c #4A6867",
"!@	c #3D6C61",
"~@	c #6F956E",
"{@	c #88AB6C",
"]@	c #76A254",
"^@	c #50814B",
"/@	c #306351",
"(@	c #094767",
"_@	c #034671",
":@	c #02446F",
"<@	c #033C64",
"[@	c #083D62",
"}@	c #0E1216",
"|@	c #050505",
"1@	c #051A2B",
"2@	c #034774",
"3@	c #033E67",
"4@	c #02426B",
"5@	c #03446E",
"6@	c #125D8D",
"7@	c #1480BC",
"8@	c #1490C9",
"9@	c #47A3D5",
"0@	c #74B5DC",
"a@	c #97CAEA",
"b@	c #AAD0E9",
"c@	c #527677",
"d@	c #E7DD9F",
"e@	c #CDC593",
"f@	c #8A8F71",
"g@	c #737D5B",
"h@	c #7D804D",
"i@	c #A58E3D",
"j@	c #877A46",
"k@	c #034972",
"l@	c #044E7D",
"m@	c #034876",
"n@	c #02416B",
"o@	c #083E62",
"p@	c #0B0F13",
"q@	c #0A0A0A",
"r@	c #050E15",
"s@	c #044C7C",
"t@	c #03406A",
"u@	c #05456F",
"v@	c #146497",
"w@	c #147CBA",
"x@	c #128AC4",
"y@	c #2E9CD2",
"z@	c #5BAAD9",
"A@	c #81BDE4",
"B@	c #73A7CB",
"C@	c #778670",
"D@	c #F9E297",
"E@	c #FBE291",
"F@	c #FCDC7C",
"G@	c #F9D358",
"H@	c #FCCC35",
"I@	c #F8BA28",
"J@	c #6A7553",
"K@	c #044F7D",
"L@	c #055484",
"M@	c #034B7A",
"N@	c #044D7C",
"O@	c #0B3959",
"P@	c #111314",
"Q@	c #07090B",
"R@	c #050A0F",
"S@	c #034572",
"T@	c #034775",
"U@	c #02446E",
"V@	c #064873",
"W@	c #1172AA",
"X@	c #0B76B4",
"Y@	c #1382BF",
"Z@	c #1891CA",
"`@	c #349ED3",
" #	c #377AA4",
".#	c #BDAF67",
"+#	c #FBDC7B",
"@#	c #F9D76C",
"##	c #FBD55A",
"$#	c #FACF3D",
"%#	c #FCC029",
"&#	c #DFA92E",
"*#	c #33616E",
"=#	c #05588B",
"-#	c #04598D",
";#	c #044F7F",
">#	c #045689",
",#	c #122A3C",
"'#	c #0D0D0D",
")#	c #080808",
"!#	c #05070A",
"~#	c #043251",
"{#	c #045384",
"]#	c #034069",
"^#	c #10517B",
"/#	c #1070AA",
"(#	c #076CA7",
"_#	c #0B6EA7",
":#	c #0D77AE",
"<#	c #1187C0",
"[#	c #2994CA",
"}#	c #2E6D7F",
"|#	c #EFCB4B",
"1#	c #FCD557",
"2#	c #FAD24A",
"3#	c #FCCD39",
"4#	c #FAC12C",
"5#	c #F7B025",
"6#	c #B88E35",
"7#	c #1B5F7D",
"8#	c #096593",
"9#	c #055C8F",
"0#	c #034F7F",
"a#	c #045383",
"b#	c #141B21",
"c#	c #070B0D",
"d#	c #041520",
"e#	c #035685",
"f#	c #034875",
"g#	c #0C4D76",
"h#	c #0A517C",
"i#	c #0A4D76",
"j#	c #095683",
"k#	c #0A5A88",
"l#	c #085F90",
"m#	c #0B6AA0",
"n#	c #5D7C68",
"o#	c #FBCC2F",
"p#	c #FCC72B",
"q#	c #FAC12D",
"r#	c #F8BA29",
"s#	c #F6AB26",
"t#	c #F3A022",
"u#	c #827C4C",
"v#	c #0E628D",
"w#	c #0C6799",
"x#	c #085F91",
"y#	c #045181",
"z#	c #046199",
"A#	c #0F3F5D",
"B#	c #080A0B",
"C#	c #070809",
"D#	c #042944",
"E#	c #085684",
"F#	c #0C6596",
"G#	c #0D71A7",
"H#	c #0D78AA",
"I#	c #076E99",
"J#	c #2D7182",
"K#	c #B19B42",
"L#	c #E1AB2F",
"M#	c #EDAA29",
"N#	c #EBA226",
"O#	c #E09625",
"P#	c #C68F2D",
"Q#	c #3D7178",
"R#	c #0B6DA1",
"S#	c #0D6CA2",
"T#	c #085E91",
"U#	c #056196",
"V#	c #075B86",
"W#	c #0E1A24",
"X#	c #050606",
"Y#	c #050A0E",
"Z#	c #05517F",
"`#	c #076CA2",
" $	c #0B6292",
".$	c #0F75AF",
"+$	c #0D84BD",
"@$	c #0F8EC7",
"#$	c #0E92C5",
"$$	c #088EB8",
"%$	c #0686B0",
"&$	c #10799A",
"*$	c #3A7C7E",
"=$	c #54816F",
"-$	c #557C6D",
";$	c #3E7578",
">$	c #1E6C7F",
",$	c #0B71A2",
"'$	c #0B78AC",
")$	c #0D6DA3",
"!$	c #0C6B9E",
"~$	c #076FA7",
"{$	c #13364D",
"]$	c #0E1011",
"^$	c #091620",
"/$	c #086490",
"($	c #0F80B7",
"_$	c #0D7EB7",
":$	c #0D89C2",
"<$	c #0F98D0",
"[$	c #0DA2D6",
"}$	c #0CAEDE",
"|$	c #0BB3DD",
"1$	c #0BA8D2",
"2$	c #0BA0C9",
"3$	c #0897C0",
"4$	c #0893BC",
"5$	c #0687B1",
"6$	c #0986B7",
"7$	c #0C85BD",
"8$	c #0E83BB",
"9$	c #0D82B7",
"0$	c #0E7EB5",
"a$	c #17425C",
"b$	c #1D1F22",
"c$	c #040404",
"d$	c #0C0D0E",
"e$	c #0C2332",
"f$	c #0C6594",
"g$	c #0D98CA",
"h$	c #0E98D0",
"i$	c #0F9BD3",
"j$	c #0CA6DA",
"k$	c #0CBFE8",
"l$	c #0BC6EC",
"m$	c #0BC8EC",
"n$	c #0AC4E9",
"o$	c #0BC1E7",
"p$	c #0CB7E0",
"q$	c #0BABD4",
"r$	c #0D9DCE",
"s$	c #0E97CC",
"t$	c #0D9ACF",
"u$	c #0D85B7",
"v$	c #15435D",
"w$	c #1C2125",
"              . + @ # $ % & * = - ; > , ' ) ! ~ { ] ^ /             ",
"( ( ( ( ( ( _ : < [ } | 1 2 3 4 5 6 7 8 9 0 a b % c d e f ( ( ( ( ( ",
"g g g g g h i j k l m n o p q r s t u v w x y z A B C D E F g g g g ",
"G H G I J K L M N v O P Q R S T U V W X Y Z `  ...+.@.#.$.%.G &.I G ",
"        *.=.-.;.>.,.'.).!.~.{.].^./.(._.:.<.[.}.|.1.2.3.4.5.        ",
"6.6.6.6.7.8.9.0.a.b.c.d.e.f.g.h.i.j.k.l.m.n.o.p.q.r.s.t.u.v.w.6.6.6.",
"x.x.x.y.z.A.B.C.D.E.F.G.H.I.J.K.L.M.N.O.P.Q.R.S.T.U.V.W.X.Y.Z.x.x.x.",
"`. +`..+++@+#+$+%+&+*+=+-+;+>+,+'+)+!+~+{+]+^+/+(+_+:+<+[+}+|+ + +`.",
"1+1+1+2+3+4+'.5+6+7+8+9+0+a+b+c+d+e+f+g+h+i+j+k+l+m+n+o+p+q+r+s+t+1+",
"u+v+u+w+x+y+z+A+B+C+D+E+F+G+H+I+J+K+L+M+N+O+P+Q+R+S+T+U+V+W+X+Y+Z+u+",
"`+ @`+.@+@@@#@$@%@&@*@=@-@;@>@,@'@)@!@~@{@]@^@/@(@_@:@#@<@[@}@`+ @`+",
" @`+ @|@1@2@3@4@5@6@7@8@9@0@a@b@c@d@e@f@g@h@i@j@k@l@m@n@%@o@p@`+ @ @",
"`+q@`+ @r@s@t@4@u@v@w@x@y@z@A@B@C@D@E@F@G@H@I@J@K@L@M@4@N@O@P@ @`+`+",
"`+`+`+Q@R@S@T@U@V@W@X@Y@Z@`@z@ #.#+#@###$#%#&#*#=#-#;#_@>#,#'#`+ @`+",
" @ @ @)#!#~#{#]#^#/#(#_#:#<#[#}#|#1#2#3#4#5#6#7#8#9#l@0#a#b#)#`+ @ @",
"`+`+`+)#c#d#e#f#g#h#i#j#k#l#m#n#o#p#q#r#s#t#u#v#w#x#y#z#A#B#`+)#q@`+",
")#.@)#|@)#C#D#z#N@E#F#G#:#H#I#J#K#L#M#N#O#P#Q#R#S#T#U#V#W#X#.@|@|@)#",
" @`+ @)#.@`+Y#Z#`# $.$+$@$#$$$%$&$*$=$-$;$>$,$'$)$!$~${$]$.@)#)#)# @",
")#)#)#)#)#)#)#^$/$($_$:$<$[$}$|$1$2$3$4$5$6$7$8$9$0$a$b$)#)#)#)#)#)#",
"c$c$c$c$c$c$c$d$e$f$g$h$i$j$k$l$m$n$o$p$q$r$s$t$u$v$w$.@c$c$c$c$c$c$"};
