/* XPM */
static char * icewm_win_xpm[] = {
"90 30 162 2",
"  	c None",
". 	c #50566A",
"+ 	c #565C6B",
"@ 	c #4C5265",
"# 	c #5A5D6A",
"$ 	c #494F61",
"% 	c #757575",
"& 	c #7A7A7A",
"* 	c #76787B",
"= 	c #828383",
"- 	c #838489",
"; 	c #8B8C8C",
"> 	c #929292",
", 	c #989A9D",
"' 	c #999CA5",
") 	c #6C7283",
"! 	c #7A7E8E",
"~ 	c #98A3BB",
"{ 	c #9EABC4",
"] 	c #333333",
"^ 	c #3A3A3A",
"/ 	c #434343",
"( 	c #4A4A4B",
"_ 	c #535353",
": 	c #575758",
"< 	c #5B5B5B",
"[ 	c #616161",
"} 	c #939599",
"| 	c #818695",
"1 	c #4F525C",
"2 	c #6C707D",
"3 	c #363636",
"4 	c #373737",
"5 	c #383838",
"6 	c #666768",
"7 	c #8B8C90",
"8 	c #717481",
"9 	c #444854",
"0 	c #5B6375",
"a 	c #393939",
"b 	c #4F5154",
"c 	c #4B4D54",
"d 	c #747989",
"e 	c #2B2B2B",
"f 	c #2E2E31",
"g 	c #323232",
"h 	c #2F2F31",
"i 	c #313131",
"j 	c #6A6B6B",
"k 	c #757A85",
"l 	c #3D424B",
"m 	c #2B2B2C",
"n 	c #5E5F60",
"o 	c #636673",
"p 	c #3C3F49",
"q 	c #656B7A",
"r 	c #434652",
"s 	c #474B58",
"t 	c #232324",
"u 	c #26282A",
"v 	c #333360",
"w 	c #AAE3FF",
"x 	c #E3A965",
"y 	c #44446B",
"z 	c #E5AD6C",
"A 	c #676B74",
"B 	c #31363C",
"C 	c #526076",
"D 	c #343485",
"E 	c #C9FFFF",
"F 	c #44448E",
"G 	c #7E8083",
"H 	c #343843",
"I 	c #3C3C8A",
"J 	c #252A30",
"K 	c #3E4043",
"L 	c #48488F",
"M 	c #AF714C",
"N 	c #60A7E3",
"O 	c #FEFEFE",
"P 	c #FFE2A5",
"Q 	c #633737",
"R 	c #64A9E3",
"S 	c #FFE4AC",
"T 	c #653C3C",
"U 	c #2D3034",
"V 	c #84C5FF",
"W 	c #FFFFC5",
"X 	c #893C3C",
"Y 	c #8C418C",
"Z 	c #6AACE5",
"` 	c #FFFFC9",
" .	c #8F4848",
"..	c #0A0A0A",
"+.	c #131313",
"@.	c #832C2C",
"#.	c #282859",
"$.	c #A4C4A4",
"%.	c #5A2929",
"&.	c #E5AF70",
"*.	c #1E202E",
"=.	c #1B1B1B",
"-.	c #3586C6",
";.	c #FFC37D",
">.	c #A6E3FF",
",.	c #54A2E2",
"'.	c #FFFFE4",
").	c #E3E4E4",
"!.	c #A55D2E",
"~.	c #22242B",
"{.	c #020202",
"].	c #1D1D7C",
"^.	c #C4FFFF",
"/.	c #E3A760",
"(.	c #A96337",
"_.	c #5DA6E2",
":.	c #0F1013",
"<.	c #191A25",
"[.	c #03060A",
"}.	c #232356",
"|.	c #6D4848",
"1.	c #486DAE",
"2.	c #E4FFFF",
"3.	c #C98D43",
"4.	c #13141B",
"5.	c #CA8F48",
"6.	c #914B4B",
"7.	c #365482",
"8.	c #592626",
"9.	c #3E67AA",
"0.	c #8AC8FF",
"a.	c #050505",
"b.	c #3C89C8",
"c.	c #C8883A",
"d.	c #FFCA8F",
"e.	c #295AA4",
"f.	c #2E2E83",
"g.	c #080808",
"h.	c #070707",
"i.	c #C3E2A2",
"j.	c #683F3F",
"k.	c #17177A",
"l.	c #853333",
"m.	c #6262A8",
"n.	c #7C1D1D",
"o.	c #16181F",
"p.	c #1B1D29",
"q.	c #060606",
"r.	c #020306",
"s.	c #020B16",
"t.	c #020304",
"u.	c #020204",
"v.	c #020409",
"w.	c #020A15",
"x.	c #041328",
"y.	c #020203",
"z.	c #161821",
"A.	c #161621",
"B.	c #12192F",
"C.	c #151E3D",
"D.	c #092042",
"E.	c #0E213C",
". . . . + . . . . . . . . . . . @ . . . . . . . . . . . . . . . . . . . . . . . . . . . . . + . . . . . . . . . . . . . . + . . . . . . . . # . . . . . # . . . $ @ . . . . . . . . ",
"% % % % % % % % % % % & % % % % % % % % * % % % % % % & & & % & % & & & & % & & & & & & & & & & & & & & = & & = = = = = = = - = = ; ; ; ; ; ; > ; > > > > > , ' ) # ! ~ { { { { { { ",
"] ^ ^ ^ ^ ] ^ ^ ] ^ ^ ^ ^ ^ ^ ^ ^ ^ ^ ^ ^ ^ ^ ^ ^ ^ ^ ^ ^ ^ ^ ^ ^ ^ ^ ^ ^ ^ ^ ^ ^ / ^ ^ ^ ^ / / / / / / / / / / / ( ( ( ( _ _ ( _ _ _ _ : : < < < < < [ [ [ % = } | # 1 2 | | | | | ",
"] ^ ] ] ] ^ ] 3 ] 3 ] ] 3 ] 4 ] 4 ] ^ ^ ^ 5 ^ ] 3 5 ^ ^ ^ ^ ^ ^ ^ ^ ^ ^ ^ ^ ^ ^ ^ ^ ^ ^ ^ ^ ^ ^ ^ ^ / / / / / / / ( / ( ( ( ( ( ( _ _ _ _ : : : < < < < < [ [ 6 % & 7 8 9 0 ! ! ! ! ",
"] ] ] ] ] ] ] ] ] ] ] ] ] ] ] ] ] ] ] ] ] ] ] ] ] ] ] a ] ] ] ] ] ^ ] ] ^ ] ^ ] ^ ] ^ ^ ^ ] ^ ^ ^ ^ ^ ^ ^ / / / ^ / / / ( ( ( ( ( ( ( b _ _ _ _ : : : < < [ < [ [ [ % ; ! c # d d d ",
"] e f f f ] ] e f f f ] e f f f g h ] e f ] e f f f ] ] i ] ] ] ] ] ] ] ] ] ] ] ] ] ] ] ] ] ] ] ] ^ ^ ^ ^ ^ ^ ^ / / / / / / / / ( ( ( b ( b _ _ _ _ : : : < < < [ [ [ j - k l # ) ) ",
"e ] e ] f f e ] e ] f e ] e ] f f m e ] e e ] e ] f f e h ] f ] ] e ] ] f ] ] ] ] e ] e ] f ] ] ] ] ] ] ] ^ ^ ^ ^ ^ / / / / / / ( / ( ( ( ( b _ _ _ _ _ : : < < < < n [ j - o p o q ",
"e e e e e e e e e e e e e e e e e e e e e e e e e e e e m e e e e e e e e e e e e ] ] ] ] ] f f ] ] ] ] ] ] ] ^ ^ ^ ^ ^ ^ ^ / / / / / ( ( ( ( ( ( _ ( _ _ : : : < < < n [ j - r s 0 ",
"t e t e e t t e t e e t e t e e t t t e t t e t e e t t e e u e e e e e e e u e e v w x ] ] e e ] ] ] e ] ] e ^ ] ^ ^ ^ ^ ^ ^ / y w z / ( ( ( ( ( _ ( _ _ _ _ _ < < < < n n & A B C ",
"e e t e t e e e t e t e e t e t e e e e t e e t e t e e e t t e e t t t e u t u e D E x ] f e e u e e f e e ] ] ] ] ^ ^ ^ ^ ^ / F E z ( ( / / ( ( ( ( _ ( _ _ _ : : < < < n j G H l ",
"t t u t t u t t u t t t t u t t u t t t u t t u t t u t t u t t t e e e f e ] e ^ I E z / ^ f J ] ] ] ] ^ ] e ] ] ] ^ ^ K ^ ^ / L E z ( / / ( ( / ( ( ( _ _ _ _ _ _ : < < < C M 1 H ",
"t t t t t t t t t t t t t t t t t t t t t t t t t t t t t t t t e e N O O O P Q R O O O O S T U V O O O W X ^ ^ ^ R W Y E O x Z O O O O `  .( ( ( ( ( ( ( _ _ _ : : : < < < C % o f ",
"..............................................................+.+.V W @.e #.$.%.f F E &.Q *.=.-.;.t t #.>.P %.t =.,.'.).!.e =.e I E &.^ e +.+.....+.+.=.+.=.=.e e e ^ ^ ( < < j k ~.",
"............................................................{.+.].^./.^ ] u t e ] I E z ^ J =.t =.=.t e -.'.(.u e _.O z ^ u t e I E &.^ e =.+.:.............................=.] % <.",
"..........[.....................[...................[.........+.}.>.P |./ ^ e e ] I E z ^ e =.=.t u e ^ 1.2.3.e e N '.M / e =.e I E &.%.e =.+..................................._ 4.",
"{.....{.....{.....{...{.....{.....{.{.....{.....{.....{.....{.+.t -.O O P T u t e D E z ] =.+.=.t V O O O O 5.] ] N W 6.] t :.=.7.w &.] =.....{.....{.......................:.+.b +.",
"........{...........{.........{...................{...........+.=.e ^ R O O ;.t u D E z f t +.,.O P 8.f 9.2.5.f ] N `  .] =...=.D E z f =...{.........{.............:...:.....=.( 4.",
"{.{.{.....{.{.{.{.....{.{.{.....{.{.{.{.{.{.{.{.....{.{.{.{.{...+.=.e e ^ 0.'.!.] I E z ] t ].^./.] e ] 9.2.5.] f N `  .] =...=.D E z U =.......{.................+.....:.:.+.t ^ 4.",
"..{...{.{.....{...{.{...{...{.{.......{.....{...{.{.....{.a.....+.=.t u ] b.O c.^ I E d.] e e.2.3.^ ] ^ Z O 5.] ] N W  .] =.[.=.f.E d.] t ......................+...:.+.+.+.+.] f <.",
"{...{...{.[.{...{...{.{...{...{.[.{.{...{.{...{...{.[.{.g.h.{.:.].i.%.t ^ 0.` X ] ] 0.S j.^ I ^.S |.^ b.O O 5.] f N `  .f =...+.e 0.S j.e =.+.:...:.......+.+.+.+.+.+.+.+.+.+.K ~.<.",
"{.{.{.{.{.{.{.{.{.{.{.{.{.{.{.{.{.{.{.{.{.{.{.{.{.{.{.{.{.{.{...k.^.O O O P T ] e e D E O W l.1.2.O O P m.2.c.u e _.W X e =.{.+.t D E O W n.+.+.:.:...+.+.+.+.+.+.+.+.+.=.=.t ^ o.p.",
"..{.......{...{.........{.......{.....{.....{.......{.q.g.{...:.+.t t t e u e e t =.t e e e e ] ^ e e u e ^ e =.=.t e ] t =...:.=.u f ] e t +.+...+.+.+.+.+.+.+.+.=.=.=.=.=.^ t 4.*.",
"{.{.{.{.{.{.{.{.{.{.{.{.{.{.{.{.r.s.{.{.{.{.{.{.{.t.{.{.{.{.{...+.t t =.t =.=.=.+.+.=.=.t t t t e t t t t e =.=.=.=.t t =.+.....+.=.t e t t =.+.+.+.+.+.+.+.=.=.=.=.=.=.=.e ^ <.<.*.",
"{.{.{.{.{.{.{.{.{.{.{.{.{.{.u.v.w.x.{.{.{.{.{.y.q.{.{.{.{.{.{.....+.+.+.+.+.+.........+.=.+.=.+.+.=.=.+.=.=.=.+.+.+.=.=.+.+...:.+.=.=.t t =.=.=.+.=.=.+.=.=.=.=.=.=.t =.t K =.4.p.*.",
"{.{.{.{.{.{.{.{.{.{.{.{.{.{.{.{.{.{.{.{.{.{.{.{.{.{.{.{.{.{.{.{.{.{.{.{.{.{.{.{.{.[.{...{.........................:.:...+.+.+.+.+.+.=.+.+.=.=.=.=.=.=.=.=.=.=.=.t t *.u ^ =.o.o.p.p.",
"{.{.{.{.{.{.{.{.{.{.{.{.{.{.{.{.{.{.{.{.{.{.{.{.{.{.{.{.{.{.{.{.{.{.{.{.{...{.....{...{.....................+...:.+.+.+.+.+.+.+.+.+.+.=.=.=.=.=.=.=.=.=.=.t t t t t J Q =.o.4.*.p.p.",
"{.{.{.{.{.{.{.{.{.{.{.{.{.{.{.{.{.{.{.{.{.{.{.{.{.{.{.{.{.{.{.{.[.{.{.{...{...........[.........:.:.+...+.+.+.+.+.+.+.+.+.+.+.=.=.=.=.=.=.=.t =.t =.t t t t t e e ] ] =.4.z.*.z.<.<.",
"{.{.{.{.{.{.{.{.{.{.{.{.{.{.{.{.{.{.{.{.{.{.{.{.{.{.{.{.{.{.[.{.{...........{...............+...:.:...+.+.+.+.+.+.+.=.=.=.=.=.=.=.=.=.=.=.t t t t t t t e e e e e =.+.=.z.z.z.z.<.A.",
"B B B B B B B B B B B B B B B B B B B B B B B B B B B B B B B B B B B B B B B B B B B B B B B B ^ B B B B B B B B B B B ^ B B B B B B B B B B B B B B B B B f *.4.B.C.C.D.E.E.C.C.C.",
"{.{.{.{.{.{.{.{.{.{.{.{.{.{.{.{.{.{.{.{.{.{.{.{.{.{.{.{.{.{.{.{.{.{.{.{.{.{.{.{.{.{.{.{.{.{.{.{.{.{.{.{.{.{.{.{.{.{.{.{.{.{.{.{.{.{.{.{.{.{.{.{.{.{.{.{.{.{.{.{.{.{.{.{.{.{.{.{.{.{."};
