/* XPM */
static char * archblack_xpm[] = {
"83 20 297 2",
"  	c None",
". 	c #949494",
"+ 	c #A7A7A7",
"@ 	c #A9A9A9",
"# 	c #AAAAAA",
"$ 	c #ABABAB",
"% 	c #ACACAC",
"& 	c #ADACAC",
"* 	c #ADADAD",
"= 	c #AEADAD",
"- 	c #AEAEAE",
"; 	c #AFAEAE",
"> 	c #AFAFAF",
", 	c #B0AFAF",
"' 	c #B0B0B0",
") 	c #B1B0B0",
"! 	c #B1B1B1",
"~ 	c #B2B1B1",
"{ 	c #B2B2B2",
"] 	c #B3B2B2",
"^ 	c #B3B3B3",
"/ 	c #B4B3B3",
"( 	c #B6B5B5",
"_ 	c #BBB9B9",
": 	c #8D8D8D",
"< 	c #959595",
"[ 	c #A2A2A2",
"} 	c #979797",
"| 	c #A5A4A4",
"1 	c #B7B7B7",
"2 	c #8E8E8E",
"3 	c #D2D2D2",
"4 	c #8F8F8F",
"5 	c #A8A6A6",
"6 	c #868686",
"7 	c #9A9A9A",
"8 	c #FDFDFD",
"9 	c #CBCBCB",
"0 	c #919191",
"a 	c #9D9D9D",
"b 	c #A1A1A1",
"c 	c #858585",
"d 	c #878787",
"e 	c #9F9F9F",
"f 	c #838383",
"g 	c #7F7F7F",
"h 	c #B8B8B8",
"i 	c #FFFFFF",
"j 	c #929292",
"k 	c #7E7E7E",
"l 	c #C9C9C9",
"m 	c #8C8C8C",
"n 	c #858484",
"o 	c #808080",
"p 	c #787878",
"q 	c #F2F2F2",
"r 	c #797979",
"s 	c #828282",
"t 	c #888888",
"u 	c #777777",
"v 	c #7B7B7B",
"w 	c #7A7A7A",
"x 	c #A3A3A3",
"y 	c #C7C7C7",
"z 	c #939292",
"A 	c #707070",
"B 	c #C1C1C1",
"C 	c #F5F5F5",
"D 	c #DBDBDB",
"E 	c #FBFBFB",
"F 	c #FAFAFA",
"G 	c #D8D8D8",
"H 	c #E0E0E0",
"I 	c #C6C6C6",
"J 	c #D4D4D4",
"K 	c #BBBBBB",
"L 	c #999999",
"M 	c #737373",
"N 	c #F9F9F9",
"O 	c #B9B9B9",
"P 	c #757575",
"Q 	c #6F6F6F",
"R 	c #C3C3C3",
"S 	c #717171",
"T 	c #A4A4A4",
"U 	c #A0A0A0",
"V 	c #818181",
"W 	c #848484",
"X 	c #7D7D7D",
"Y 	c #727272",
"Z 	c #767676",
"` 	c #696969",
" .	c #E3E3E3",
"..	c #939393",
"+.	c #F1F1F1",
"@.	c #CECECE",
"#.	c #E6E6E6",
"$.	c #E5E5E5",
"%.	c #FEFEFE",
"&.	c #DDDDDD",
"*.	c #9E9E9E",
"=.	c #F7F7F7",
"-.	c #D3D3D3",
";.	c #F0F0F0",
">.	c #CCCCCC",
",.	c #686868",
"'.	c #C0C0C0",
").	c #676767",
"!.	c #6E6E6E",
"~.	c #B5B5B5",
"{.	c #969696",
"].	c #A5A5A5",
"^.	c #BEBEBE",
"/.	c #6D6D6D",
"(.	c #8A8A8A",
"_.	c #908E8E",
":.	c #626262",
"<.	c #F4F4F4",
"[.	c #6A6A6A",
"}.	c #9C9C9C",
"|.	c #747474",
"1.	c #F6F6F6",
"2.	c #F3F3F3",
"3.	c #E8E8E8",
"4.	c #4D4D4D",
"5.	c #C8C8C8",
"6.	c #585858",
"7.	c #4A4A4A",
"8.	c #CDCDCD",
"9.	c #454545",
"0.	c #555555",
"a.	c #BABABA",
"b.	c #5A5A5A",
"c.	c #616161",
"d.	c #6B6B6B",
"e.	c #B6B6B6",
"f.	c #8D8C8C",
"g.	c #E9E9E9",
"h.	c #A6A6A6",
"i.	c #4F4F4F",
"j.	c #494949",
"k.	c #434343",
"l.	c #3D3D3D",
"m.	c #3A3A3A",
"n.	c #202020",
"o.	c #121212",
"p.	c #1D1D1D",
"q.	c #EEEEEE",
"r.	c #303030",
"s.	c #656565",
"t.	c #3E3E3E",
"u.	c #101010",
"v.	c #0F0F0F",
"w.	c #4B4B4B",
"x.	c #1E1E1E",
"y.	c #262626",
"z.	c #2C2C2C",
"A.	c #323232",
"B.	c #464646",
"C.	c #606060",
"D.	c #807F7F",
"E.	c #646464",
"F.	c #535353",
"G.	c #343434",
"H.	c #414141",
"I.	c #DEDEDE",
"J.	c #505050",
"K.	c #3B3B3B",
"L.	c #161616",
"M.	c #4E4E4E",
"N.	c #151515",
"O.	c #232323",
"P.	c #2A2A2A",
"Q.	c #131313",
"R.	c #181818",
"S.	c #272727",
"T.	c #2E2E2E",
"U.	c #373737",
"V.	c #404040",
"W.	c #525252",
"X.	c #787777",
"Y.	c #3C3C3C",
"Z.	c #2B2B2B",
"`.	c #242424",
" +	c #1C1C1C",
".+	c #292929",
"++	c #BFBFBF",
"@+	c #424242",
"#+	c #FCFCFC",
"$+	c #898989",
"%+	c #111111",
"&+	c #515151",
"*+	c #222222",
"=+	c #191919",
"-+	c #383838",
";+	c #353535",
">+	c #393939",
",+	c #D7D7D7",
"'+	c #4C4C4C",
")+	c #2D2D2D",
"!+	c #8B8B8B",
"~+	c #2F2F2F",
"{+	c #3F3F3F",
"]+	c #141414",
"^+	c #565454",
"/+	c #B4B4B4",
"(+	c #474747",
"_+	c #252525",
":+	c #909090",
"<+	c #5E5E5E",
"[+	c #1B1B1B",
"}+	c #636363",
"|+	c #363636",
"1+	c #171717",
"2+	c #454444",
"3+	c #2A2929",
"4+	c #4A4949",
"5+	c #5D5D5D",
"6+	c #292828",
"7+	c #393838",
"8+	c #E7E7E7",
"9+	c #6C6C6C",
"0+	c #262525",
"a+	c #272626",
"b+	c #312F2F",
"c+	c #252424",
"d+	c #3A3939",
"e+	c #383737",
"f+	c #4D4C4C",
"g+	c #363535",
"h+	c #666565",
"i+	c #3B3A3A",
"j+	c #615E5E",
"k+	c #2E2D2D",
"l+	c #4B4949",
"m+	c #5E5D5D",
"n+	c #504F4F",
"o+	c #494747",
"p+	c #464545",
"q+	c #686767",
"r+	c #474545",
"s+	c #4C4A4A",
"t+	c #636262",
"u+	c #353434",
"v+	c #575555",
"w+	c #585656",
"x+	c #5B5959",
"y+	c #535252",
"z+	c #636161",
"A+	c #737171",
"B+	c #2D2C2C",
"C+	c #464444",
"D+	c #474646",
"E+	c #484747",
"F+	c #494848",
"G+	c #4C4B4B",
"H+	c #4F4C4C",
"I+	c #4F4D4D",
"J+	c #514F4F",
"K+	c #515050",
"L+	c #525050",
"M+	c #525151",
"N+	c #545151",
"O+	c #545252",
"P+	c #555252",
"Q+	c #555454",
"R+	c #565555",
"S+	c #585555",
"T+	c #595656",
"U+	c #595858",
"V+	c #5A5858",
"W+	c #5A5959",
"X+	c #5B5A5A",
"Y+	c #5D5A5A",
"Z+	c #5D5B5B",
"`+	c #5E5B5B",
" @	c #5F5D5D",
".@	c #5F5E5E",
"+@	c #615F5F",
"@@	c #625F5F",
"#@	c #626161",
"$@	c #646262",
"%@	c #666363",
"&@	c #676464",
"*@	c #686666",
"=@	c #6A6767",
"-@	c #6B6868",
";@	c #6C6A6A",
">@	c #6D6B6B",
",@	c #6F6C6C",
"'@	c #706D6D",
")@	c #716F6F",
"!@	c #736F6F",
"~@	c #737070",
"{@	c #747070",
"]@	c #767272",
"^@	c #787474",
". + @ @ @ @ @ @ # # @ # $ $ $ $ % % % % % % & * * * = - - - - - ; > > > > , ' ' ' ) ! ! ! ! ! ~ { { { ] ] ^ ^ ^ ^ / - * * * * = = - - ; ; > > , , , ^ ( _             ",
": < < < < < < < < < [ } < < < < < < < < < < < < < < < < < < < < < < < < < < < < < < < < < < < < < < < < < < < < < < < < < < < < < < < < < < < < < < < < < | 1         ",
": 2 2 2 2 2 2 2 2 2 3 @ 2 2 2 2 2 2 2 2 2 2 2 2 2 2 2 2 2 2 2 2 2 2 2 2 2 2 2 2 2 2 2 2 2 2 2 2 2 2 2 2 2 2 2 2 2 2 2 2 2 2 2 2 2 2 2 2 2 2 2 2 2 2 2 2 2 2 4 5       ",
"6 6 6 6 6 6 6 6 6 7 8 9 6 6 6 6 6 6 6 6 6 6 6 6 6 6 6 6 6 6 6 6 6 6 6 6 6 6 6 6 6 0 # a 6 6 6 6 6 6 6 b c 0 0 6 6 6 6 6 6 6 6 6 6 6 6 6 6 6 6 6 6 6 6 6 6 6 6 d e     ",
"f g g g g g g g g h i 8 j g g g g g g g g g g g g g g g g g g g g g g g g g g g g + i ! g g g g g g k l k m : g g g g g g g g g g g g g g g g g g g g g g g g g n }   ",
"o p p p p p p p f q i i ^ p p p p p p p p r s t s p p p p u v p u w p p p u p p p x i * p p p p p p u y u p p p p p p p p p p p p p p p p p p p p p p p p p p p p z   ",
"r A A A A A A A w B i i C o A A A A A A p D E i F l d A < G m ' H } 6 ' I J K L M [ N d @ O ' L P A Q R Q u v S s Q : T U V A A W M A A A A X Q p A A A A Y A A A P   ",
"Z ` ` ` ` ` ` M  .7 ..i i # ` ` ` ` ` ` c +.@.K #.i y ` # i $.%.&.: C i i i i i m *.2 #.=.-.;.i >.A ,.'.).: : !.~.{.].4 L 3 o ` ^.Y ` ` ` /.^ ` } (.` ` c . ` ` ` ` _.",
"A :.:.:.:.:.:.7 i i <.i i =.Z :.:.:.:.:.[.P 0 }.|.1.2.).x i 3.u 4.~.i 5./.6.Q d 7.d i 8.6.9.0.-.i S 0.a.b.6 t ).3 W :.:.:.X [ :.O A :.:.:.).> c.).! P d.e.!.:.:.:.:.f.",
"` b.b.b.b.b.,.g.i i i i i i h.i.j.k.l.m.e %.i i C %.;.n.r i M o.p.q.N r.o.o.o.o.o.s.i Q o.o.o.m i t.u.2 v.w.w.x.+ x.y.z.A.B.d k.- C.0.b.b.C.$ b.b./.{ e w b.b.b.b.b.D.",
"E.F.F.F.F.i.: i i i i i i i =.G.o.o.o.H.i I.J.K.d i ;.n.r i Q o.y.8 H L.o.o.o.o.o.s.i Q o.o.o.m i t.u.2 v.M.w.N.}.u.o.o.o.O./.o.0 P.o.Q.R.S.7 T.U.V.X [ W.F.F.F.F.F.X.",
"Y.Z.`. +L..+$.i i ++@+s.#+i i $+%+o.o.&+i M o.o.*+C ;.n.r i Q o.=+I.%.t.o.o.o.Q.o.s.i [.o.o.o.V i t.u.2 v.W.w.v.}.u.o.o.o.O./.o.(.P.o.o.o. +L %+o.y.j ` V. +O.P.A.-+E.",
"%+o.o.o.o.u i i N ;+o.o.o i i F >+o.o.K.i ,+k.z.v #+[ n.r i Q o.o.X i >.'+Z.i.} )+s.i s.o.o.o.V i t.u.2 v.W.w.v.}.u.o.o.o.O./.o.!+~+o.o.o.{+- %+]+s >+p.f `.o.o.o.o.^+",
"%+o.o.o.G.C i i /+%+o.o.(+i 2.c m o.o.]+j i i i 8 H.5.n.r i Q o.o._+# i i i i 1.7.s.i s.o.o.o.V i t.u.j v.W.w.v.}.u.o.o.o.O.S o.[.!+x.L.H.4.:+%+0.<+o.o.;+r Q.o.o.[+  ",
"]+=+=+=+2 i i i ..=+=+=+m.i i ! A.x.=+=+p.F.X k j.G.C.x.H.}+|+=+=+=+x.J.Y V /.|+=+9.u m.=+=+=+(+P )+1+(+L.;+G.N.j.1+=+=+=+*+B.=+x.!.b {.Y  +W.1+(+ +=+=+=+j.Z.=+=+2+  ",
"p.3+3+4+#+i %.O 5+6+3+3+7+0 8+i F 9+6+3+3+3+3+3+3+3+3+3+3+3+3+3+3+3+3+3+3+3+3+3+3+3+3+3+3+3+3+3+3+3+3+3+3+3+3+3+3+3+3+3+3+3+3+3+3+3+0+a+3+3+3+3+3+3+3+3+3+6+3+3+b+    ",
"c+d+e+# <.c f+g+d+d+d+d+d+7+K.h+++i 6.d+d+d+d+d+d+d+d+d+d+d+d+d+d+d+d+d+d+d+d+d+d+d+d+d+d+d+d+d+d+d+d+d+d+d+d+d+d+d+d+d+d+d+d+d+d+d+d+d+d+d+d+d+d+d+d+d+d+d+d+i+j+    ",
"k+l+m+: n+o+l+l+l+l+l+l+l+l+l+l+p+q+$+r+l+l+l+l+l+l+l+l+l+l+l+l+l+l+l+l+l+l+l+l+l+l+l+l+l+l+l+l+l+l+l+l+l+l+l+l+l+l+l+l+l+l+l+l+l+l+l+l+l+l+l+l+l+l+l+l+l+l+s+t+      ",
"u+v+t.w+x+x+x+x+x+x+x+x+x+x+x+x+x+x+y+k.x+x+x+x+x+x+x+x+x+x+x+x+x+x+x+x+x+x+x+x+x+x+x+x+x+x+x+x+x+x+x+x+x+x+x+x+x+x+x+x+x+x+x+x+x+x+x+x+x+x+x+x+x+x+x+x+x+z+A+        ",
"B+C+D+D+E+E+F+F+l+l+G+G+f+f+H+I+n+n+J+K+L+M+N+O+P+Q+^+R+S+w+T+U+V+W+x+x+X+Y+Z+`+m+ @.@j++@@@#@z+t+$@$@%@%@&@&@*@*@=@=@-@-@;@;@>@>@,@,@'@'@)@)@!@~@{@~@]@^@            "};
