/* XPM */
static char * icewm_xpm[] = {
"60 20 481 2",
"  	c None",
". 	c #224F74",
"+ 	c #255175",
"@ 	c #285376",
"# 	c #2A5578",
"$ 	c #2A5478",
"% 	c #2B5579",
"& 	c #2D577A",
"* 	c #2C5679",
"= 	c #265172",
"- 	c #275173",
"; 	c #265072",
"> 	c #275172",
", 	c #285172",
"' 	c #214A6C",
") 	c #234862",
"! 	c #484B45",
"~ 	c #767974",
"{ 	c #688AA4",
"] 	c #7291A8",
"^ 	c #7D98AD",
"/ 	c #7D98AE",
"( 	c #7793AA",
"_ 	c #708FA6",
": 	c #6F90A7",
"< 	c #7092AA",
"[ 	c #7192A9",
"} 	c #7693AA",
"| 	c #7996AC",
"1 	c #7896AD",
"2 	c #7190A7",
"3 	c #7391A9",
"4 	c #7E9BB0",
"5 	c #85A0B4",
"6 	c #5E7E97",
"7 	c #62839D",
"8 	c #214A6B",
"9 	c #272F33",
"0 	c #666965",
"a 	c #9FB2C0",
"b 	c #96ACBC",
"c 	c #8EA5B7",
"d 	c #7F99AC",
"e 	c #7C8899",
"f 	c #886E74",
"g 	c #975D5A",
"h 	c #9F564C",
"i 	c #9A6158",
"j 	c #837A81",
"k 	c #778C9E",
"l 	c #7C98AD",
"m 	c #7F9CB2",
"n 	c #829FB5",
"o 	c #83A0B6",
"p 	c #87A3B6",
"q 	c #8EA6B9",
"r 	c #9FB2C1",
"s 	c #9CB2C1",
"t 	c #1D405D",
"u 	c #232A2D",
"v 	c #6E716A",
"w 	c #787D74",
"x 	c #777C73",
"y 	c #819BAE",
"z 	c #7B96AA",
"A 	c #7591A6",
"B 	c #697F93",
"C 	c #9B4A4A",
"D 	c #BE3520",
"E 	c #C63F1E",
"F 	c #CC491F",
"G 	c #CD4F21",
"H 	c #C6542A",
"I 	c #9E6957",
"J 	c #5E7F98",
"K 	c #6A89A1",
"L 	c #7090A7",
"M 	c #7292A9",
"N 	c #7591A7",
"O 	c #7E97A9",
"P 	c #94A8B6",
"Q 	c #6D8BA1",
"R 	c #1A3041",
"S 	c #444642",
"T 	c #73776F",
"U 	c #73786E",
"V 	c #73776E",
"W 	c #96AAB9",
"X 	c #7590A4",
"Y 	c #65859C",
"Z 	c #5B7C94",
"` 	c #656470",
" .	c #BA422A",
"..	c #CD5123",
"+.	c #D46127",
"@.	c #DA702A",
"#.	c #DD762B",
"$.	c #DF772C",
"%.	c #92654F",
"&.	c #6F9363",
"*.	c #678C6B",
"=.	c #577A87",
"-.	c #56798E",
";.	c #56778B",
">.	c #527480",
",.	c #537971",
"'.	c #889DAD",
").	c #3E6685",
"!.	c #242D30",
"~.	c #5B5F58",
"{.	c #6B7066",
"].	c #6A6F65",
"^.	c #718CA0",
"/.	c #5D7D95",
"(.	c #537791",
"_.	c #486F8A",
":.	c #755959",
"<.	c #CB4F25",
"[.	c #D76829",
"}.	c #DD7C2B",
"|.	c #E28C2D",
"1.	c #E4932D",
"2.	c #DE9032",
"3.	c #695F52",
"4.	c #94B655",
"5.	c #8CB542",
"6.	c #6F9C47",
"7.	c #5C8B4E",
"8.	c #487F49",
"9.	c #36783E",
"0.	c #397C40",
"a.	c #6C8496",
"b.	c #718EA4",
"c.	c #142E43",
"d.	c #41443F",
"e.	c #686E63",
"f.	c #61675B",
"g.	c #52738C",
"h.	c #476E89",
"i.	c #406B89",
"j.	c #346281",
"k.	c #9F563F",
"l.	c #D86226",
"m.	c #DF832C",
"n.	c #E5972E",
"o.	c #EAA92E",
"p.	c #ECB12D",
"q.	c #C99838",
"r.	c #5D6D5A",
"s.	c #B1CC68",
"t.	c #A1C256",
"u.	c #8EB742",
"v.	c #78A83B",
"w.	c #58933A",
"x.	c #3F8537",
"y.	c #3C7448",
"z.	c #4D6C82",
"A.	c #7991A4",
"B.	c #234967",
"C.	c #262E30",
"D.	c #63685E",
"E.	c #585E51",
"F.	c #446A86",
"G.	c #3A6685",
"H.	c #336484",
"I.	c #2E5978",
"J.	c #C25A2F",
"K.	c #DF7229",
"L.	c #EB962C",
"M.	c #F1AC2D",
"N.	c #F0BE2D",
"O.	c #F2C62B",
"P.	c #A48B3F",
"Q.	c #748C6A",
"R.	c #BCD479",
"S.	c #ADC968",
"T.	c #9BBF4F",
"U.	c #87B33F",
"V.	c #659B3B",
"W.	c #4C8D38",
"X.	c #386651",
"Y.	c #40657F",
"Z.	c #668297",
"`.	c #446883",
" +	c #222E35",
".+	c #555851",
"++	c #54594D",
"@+	c #3C6684",
"#+	c #306283",
"$+	c #235A7F",
"%+	c #465362",
"&+	c #B2562E",
"*+	c #8D5A3C",
"=+	c #6B5A48",
"-+	c #715E46",
";+	c #A47C34",
">+	c #E0B62A",
",+	c #6A6E4C",
"'+	c #9BB480",
")+	c #C3D787",
"!+	c #B7CF77",
"~+	c #A5C45C",
"{+	c #93BA46",
"]+	c #71A33B",
"^+	c #56923C",
"/+	c #26525E",
"(+	c #3B6481",
"_+	c #55778F",
":+	c #467390",
"<+	c #1B313E",
"[+	c #494C45",
"}+	c #4E5448",
"|+	c #2D5C7E",
"1+	c #1B537A",
"2+	c #0D4A72",
"3+	c #17496A",
"4+	c #226084",
"5+	c #2E7AA6",
"6+	c #5494BC",
"7+	c #679EC0",
"8+	c #567C94",
"9+	c #4B5755",
"0+	c #3E5D58",
"a+	c #BFD290",
"b+	c #C8DA8D",
"c+	c #BBD27D",
"d+	c #A9C762",
"e+	c #97BD4A",
"f+	c #78A93B",
"g+	c #528B42",
"h+	c #0B3F62",
"i+	c #2D5D7D",
"j+	c #486E88",
"k+	c #235A81",
"l+	c #173344",
"m+	c #444740",
"n+	c #4A4F43",
"o+	c #013D67",
"p+	c #02436E",
"q+	c #064770",
"r+	c #1674AC",
"s+	c #1A96D0",
"t+	c #47A4D7",
"u+	c #7DB9E1",
"v+	c #A1CDEA",
"w+	c #C4E5F7",
"x+	c #90B7CC",
"y+	c #214956",
"z+	c #4A7561",
"A+	c #95B47A",
"B+	c #A7C379",
"C+	c #9BBD63",
"D+	c #83AD4D",
"E+	c #598C43",
"F+	c #296151",
"G+	c #02416B",
"H+	c #013F69",
"I+	c #033A60",
"J+	c #004271",
"K+	c #0D2E41",
"L+	c #32362D",
"M+	c #212917",
"N+	c #03416A",
"O+	c #03456F",
"P+	c #0A4E78",
"Q+	c #187BB5",
"R+	c #1790CA",
"S+	c #3EA0D4",
"T+	c #74B4DE",
"U+	c #96C8E8",
"V+	c #B6DAF1",
"W+	c #608FAC",
"X+	c #9CA179",
"Y+	c #A3AB8A",
"Z+	c #4C6C64",
"`+	c #3B645E",
" @	c #3C6557",
".@	c #45644E",
"+@	c #6F6D42",
"@@	c #27515B",
"#@	c #024A76",
"$@	c #03436D",
"%@	c #023B62",
"&@	c #024677",
"*@	c #10303F",
"=@	c #353930",
"-@	c #03426C",
";@	c #02436D",
">@	c #115B8A",
",@	c #167CBA",
"'@	c #138BC6",
")@	c #2899D0",
"!@	c #5FABD9",
"~@	c #7EBAE1",
"{@	c #92C3E3",
"]@	c #426E80",
"^@	c #EFDA94",
"/@	c #FBE6A4",
"(@	c #FCE18B",
"_@	c #F8D56F",
":@	c #F8CD47",
"<@	c #FEC92D",
"[@	c #CEA22E",
"}@	c #27596A",
"|@	c #045381",
"1@	c #034671",
"2@	c #023E67",
"3@	c #024C7D",
"4@	c #182E37",
"5@	c #383D33",
"6@	c #1E2715",
"7@	c #03436C",
"8@	c #024269",
"9@	c #15679B",
"0@	c #0F77B6",
"a@	c #1384C1",
"b@	c #1791CB",
"c@	c #41A1D4",
"d@	c #63ADDA",
"e@	c #68A4CE",
"f@	c #57766C",
"g@	c #FCE28D",
"h@	c #F8DC88",
"i@	c #FAD975",
"j@	c #FBD55D",
"k@	c #FCCF37",
"l@	c #FDBF28",
"m@	c #A28B3D",
"n@	c #0F567B",
"o@	c #034873",
"p@	c #024570",
"q@	c #044C7B",
"r@	c #1E2E32",
"s@	c #393E33",
"t@	c #1A2311",
"u@	c #07456B",
"v@	c #1370AC",
"w@	c #0670B1",
"x@	c #107AB6",
"y@	c #1083BE",
"z@	c #1892CB",
"A@	c #339FD4",
"B@	c #3982AA",
"C@	c #969960",
"D@	c #FDDA67",
"E@	c #FAD55F",
"F@	c #FBD34D",
"G@	c #FCCE38",
"H@	c #F9BF29",
"I@	c #FAAE22",
"J@	c #627359",
"K@	c #075B8D",
"L@	c #034975",
"M@	c #025285",
"N@	c #0A4364",
"O@	c #2A302C",
"P@	c #393F31",
"Q@	c #111A08",
"R@	c #02426A",
"S@	c #104E75",
"T@	c #12689B",
"U@	c #065887",
"V@	c #095984",
"W@	c #0A5C88",
"X@	c #096A9C",
"Y@	c #1287BF",
"Z@	c #2E748C",
"`@	c #C3B247",
" #	c #FCD13E",
".#	c #FCCF3A",
"+#	c #FBC930",
"@#	c #FABF29",
"##	c #F6AE25",
"$#	c #EC9F20",
"%#	c #306673",
"&#	c #096296",
"*#	c #034E7C",
"=#	c #015E98",
"-#	c #163441",
";#	c #383B34",
">#	c #2D3425",
",#	c #0D1603",
"'#	c #025A8E",
")#	c #04466E",
"!#	c #064A72",
"~#	c #0A5580",
"{#	c #0C6493",
"]#	c #0B6B9A",
"^#	c #0B6893",
"/#	c #0A648D",
"(#	c #306C75",
"_#	c #CCAB37",
":#	c #FCBA26",
"<#	c #FBB825",
"[#	c #F8AF24",
"}#	c #F6A721",
"|#	c #F59C1D",
"1#	c #C18D2F",
"2#	c #0D648F",
"3#	c #0D6B9F",
"4#	c #0A659A",
"5#	c #075888",
"6#	c #036097",
"7#	c #05517C",
"8#	c #2E302B",
"9#	c #42463D",
"0#	c #121A09",
"a#	c #0C1403",
"b#	c #095987",
"c#	c #0B6091",
"d#	c #0D679B",
"e#	c #0D7AB0",
"f#	c #0C82B9",
"g#	c #0E82B7",
"h#	c #0A7DAD",
"i#	c #0B7399",
"j#	c #387878",
"k#	c #999048",
"l#	c #CA9D31",
"m#	c #D79B2A",
"n#	c #C9942F",
"o#	c #948245",
"p#	c #48726D",
"q#	c #086D9E",
"r#	c #0E70A5",
"s#	c #0C659A",
"t#	c #086295",
"u#	c #0568A0",
"v#	c #183744",
"w#	c #3C3F39",
"x#	c #33382D",
"y#	c #0B1202",
"z#	c #0C6EA3",
"A#	c #0D70A6",
"B#	c #0E73AA",
"C#	c #0D87C1",
"D#	c #0F91CC",
"E#	c #0E99D2",
"F#	c #0A9ED2",
"G#	c #099CC9",
"H#	c #0895BC",
"I#	c #0387AD",
"J#	c #047FA2",
"K#	c #05789B",
"L#	c #03739A",
"M#	c #0371A0",
"N#	c #0977A9",
"O#	c #0C7DB2",
"P#	c #0D76AD",
"Q#	c #0E74A8",
"R#	c #0A7AB5",
"S#	c #153E51",
"T#	c #353833",
"U#	c #3E4238",
"V#	c #141A0C",
"W#	c #0A1101",
"X#	c #0B1102",
"Y#	c #0D86C0",
"Z#	c #0E87BE",
"`#	c #1088BC",
" $	c #0D88C4",
".$	c #1094D0",
"+$	c #0EA2DB",
"@$	c #0BAFE2",
"#$	c #0BB8E4",
"$$	c #0AB8DF",
"%$	c #09B1D3",
"&$	c #08A9CB",
"*$	c #09A0C5",
"=$	c #0898C3",
"-$	c #0890C1",
";$	c #0C8CC2",
">$	c #0D86BF",
",$	c #0E8ABD",
"'$	c #0F86BD",
")$	c #104E70",
"!$	c #2D3130",
"~$	c #434442",
"{$	c #22241F",
"]$	c #050802",
"^$	c #040700",
". . + @ @ @ @ @ @ @ . @ @ @ @ . @ @ # $ $ % & & & & * = - ; > , ' . . . + @ @ @ @ @ @ @ . @ @ @ @ ) ! ~ ~ ~ ~ ~ ~ ~ ~ ~ ",
"@ { ] ^ ^ ^ ^ ^ ^ ^ { ^ ^ ^ ^ { ^ ^ / ( _ : < [ } | 1 2 3 4 5 6 7 { { { ] ^ ^ ^ ^ ^ ^ ^ { ^ ^ ^ ^ 8 9 0 ~ ~ ~ ~ ~ ~ ~ ~ ",
"@ a b c c c c c c c a c c c c a c c d e f g h i j k l m n o p q r a a a b c c c c c c c a c c c c s t u v w x x x x x x ",
"@ y z A A A A A A A y A A A A y A A B C D E F G H I J K L [ M N O y y y z A A A A A A A y A A A A P Q R S T U V V V V V ",
"@ W W W W W W W W W W W W W W X Y Z `  ...+.@.#.$.%.&.*.=.-.;.>.,.W W W W W W W W W W W W W W W W W '.).!.~.{.].].].].].",
"@ ^.^.^.^.^.^.^.^.^.^.^.^.^.^./.(._.:.<.[.}.|.1.2.3.4.5.6.7.8.9.0.^.^.^.^.^.^.^.^.^.^.^.^.^.^.^.^.^.a.b.c.d.e.f.f.f.f.f.",
"@ g.g.g.g.g.g.g.g.g.g.g.g.g.g.h.i.j.k.l.m.n.o.p.q.r.s.t.u.v.w.x.y.g.g.g.g.g.g.g.g.g.g.g.g.g.g.g.g.g.z.A.B.C.D.E.E.E.E.E.",
"@ F.F.F.F.F.F.F.F.F.F.F.F.F.F.G.H.I.J.K.L.M.N.O.P.Q.R.S.T.U.V.W.X.F.F.F.F.F.F.F.F.F.F.F.F.F.F.F.F.F.Y.Z.`. +.+++++++++++",
"@ @+@+@+@+@+@+@+@+@+@+@+@+@+@+#+$+%+&+*+=+-+;+>+,+'+)+!+~+{+]+^+/+@+@+@+@+@+@+@+@+@+@+@+@+@+@+@+@+@+(+_+:+<+[+}+}+}+}+}+",
"@ |+|+|+|+|+|+|+|+|+|+|+|+|+|+1+2+3+4+5+6+7+8+9+0+a+b+c+d+e+f+g+h+|+|+|+|+|+|+|+|+|+|+|+|+|+|+|+|+|+i+j+k+l+m+n+n+n+n+n+",
"@ o+o+o+o+o+o+o+o+o+o+o+o+o+o+p+q+r+s+t+u+v+w+x+y+z+A+B+C+D+E+F+G+o+o+o+o+o+o+o+o+o+o+o+o+o+o+o+o+o+H+I+J+K+L+M+M+M+M+M+",
"@ N+N+N+N+N+N+N+N+N+N+N+N+N+N+O+P+Q+R+S+T+U+V+W+X+Y+Z+`+ @.@+@@@#@N+N+N+N+N+N+N+N+N+N+N+N+N+N+N+N+N+$@%@&@*@=@M+M+M+M+M+",
"@ -@-@-@-@-@-@-@-@-@-@-@-@-@-@;@>@,@'@)@!@~@{@]@^@/@(@_@:@<@[@}@|@-@-@-@-@-@-@-@-@-@-@-@-@-@-@-@-@-@1@2@3@4@5@6@6@6@6@6@",
"@ 7@7@7@7@7@7@7@7@7@7@7@7@7@7@8@9@0@a@b@c@d@e@f@g@h@i@j@k@l@m@n@7@7@7@7@7@7@7@7@7@7@7@7@7@7@7@7@7@7@o@p@q@r@s@t@t@t@t@t@",
"@ 8@8@8@8@8@8@8@8@8@8@8@8@8@8@u@v@w@x@y@z@A@B@C@D@E@F@G@H@I@J@K@8@8@8@8@8@8@8@8@8@8@8@8@8@8@8@8@8@8@L@M@N@O@P@Q@Q@Q@Q@Q@",
"@ R@R@R@R@R@R@R@R@R@R@R@R@R@R@S@T@U@V@W@X@Y@Z@`@ #.#+#@###$#%#&#R@R@R@R@R@R@R@R@R@R@R@R@R@R@R@R@R@R@*#=#-#;#>#,#,#,#,#,#",
"@ '#'#'#'#'#'#'#'#'#'#'#'#'#'#)#!#~#{#]#^#/#(#_#:#<#[#}#|#1#2#3#4#'#'#'#'#'#'#'#'#'#'#'#'#'#'#'#'#5#6#7#8#9#0#a#a#a#a#a#",
"@ b#c#d#d#d#d#d#d#d#d#d#d#d#d#d#d#d#e#f#g#h#i#j#k#l#m#n#o#p#q#r#s#b#b#b#c#d#d#d#d#d#d#d#b#d#d#d#d#t#u#v#w#x#y#y#y#y#y#y#",
"@ z#A#B#B#B#B#B#B#B#z#B#B#B#B#B#B#B#C#D#E#F#G#H#I#J#K#L#M#N#O#P#Q#z#z#z#A#B#B#B#B#B#B#B#z#B#B#B#B#R#S#T#U#V#W#X#X#X#X#X#",
"@ Y#Z#`#`#`#`#`#`#`#Y#`#`#`#`#`#`#`# $.$+$@$#$$$%$&$*$=$-$;$>$,$'$Y#Y#Y#Z#`#`#`#`#`#`#`#Y#`#`#`#`#)$!$~${$]$^$^$^$^$^$^$"};
