/* XPM */
static char * taskbuttonbg_xpm[] = {
"1 30 21 1",
" 	c None",
".	c #4A4C48",
"+	c #A1A39F",
"@	c #797C77",
"#	c #767974",
"$	c #737671",
"%	c #6E716B",
"&	c #696C66",
"*	c #63655F",
"=	c #5C5F59",
"-	c #555852",
";	c #4E514B",
">	c #494C46",
",	c #42453F",
"'	c #3B3E38",
")	c #363933",
"!	c #060A01",
"~	c #060901",
"{	c #050901",
"]	c #050801",
"^	c #010100",
".",
"+",
"@",
"#",
"$",
"%",
"&",
"*",
"=",
"-",
";",
">",
",",
"'",
")",
"!",
"!",
"!",
"!",
"!",
"~",
"!",
"~",
"!",
"~",
"~",
"{",
"{",
"]",
"^"};
