/* XPM */
static char * closeI_xpm[] = {
"28 54 314 2",
"  	c None",
". 	c #0D1E2C",
"+ 	c #0D1E2D",
"@ 	c #0C1D2C",
"# 	c #0C1D2B",
"$ 	c #0C1C2A",
"% 	c #0B1C2A",
"& 	c #595959",
"* 	c #3B8A99",
"= 	c #3A8999",
"- 	c #398898",
"; 	c #398797",
"> 	c #3A8797",
", 	c #3A8897",
"' 	c #3A8998",
") 	c #3C8A9A",
"! 	c #3C8B9A",
"~ 	c #3C8B99",
"{ 	c #398897",
"] 	c #398899",
"^ 	c #398697",
"/ 	c #388495",
"( 	c #378191",
"_ 	c #368090",
": 	c #378293",
"< 	c #3A8899",
"[ 	c #398693",
"} 	c #388592",
"| 	c #37828F",
"1 	c #357D89",
"2 	c #327581",
"3 	c #30707B",
"4 	c #30717D",
"5 	c #317480",
"6 	c #327481",
"7 	c #357C89",
"8 	c #378290",
"9 	c #388593",
"0 	c #398694",
"a 	c #398392",
"b 	c #3A8392",
"c 	c #388190",
"d 	c #367C8B",
"e 	c #327380",
"f 	c #2C6570",
"g 	c #FFFFFF",
"h 	c #275A64",
"i 	c #285E68",
"j 	c #367D8B",
"k 	c #388290",
"l 	c #398492",
"m 	c #397F8E",
"n 	c #39808F",
"o 	c #39818F",
"p 	c #387F8D",
"q 	c #357987",
"r 	c #306C79",
"s 	c #1D424A",
"t 	c #306F7B",
"u 	c #377F8E",
"v 	c #37808F",
"w 	c #367E8D",
"x 	c #347988",
"y 	c #2E6C7A",
"z 	c #255863",
"A 	c #2E6D7A",
"B 	c #347A88",
"C 	c #367F8E",
"D 	c #388392",
"E 	c #388292",
"F 	c #388393",
"G 	c #126274",
"H 	c #126374",
"I 	c #116273",
"J 	c #116070",
"K 	c #0E5766",
"L 	c #0C4753",
"M 	c #08323B",
"N 	c #08323C",
"O 	c #0C4854",
"P 	c #0E5868",
"Q 	c #106172",
"R 	c #106476",
"S 	c #116577",
"T 	c #116678",
"U 	c #116779",
"V 	c #11687A",
"W 	c #106779",
"X 	c #106375",
"Y 	c #0E5B6A",
"Z 	c #0C4A57",
"` 	c #08353E",
" .	c #0C4B58",
"..	c #0E5C6C",
"+.	c #106577",
"@.	c #10697B",
"#.	c #106A7C",
"$.	c #0F7081",
"%.	c #0F6F81",
"&.	c #0F6F82",
"*.	c #0E6E80",
"=.	c #0E6A7C",
"-.	c #0C5F6F",
";.	c #0A4D5A",
">.	c #0A4D5B",
",.	c #0C5F70",
"'.	c #0E6A7D",
").	c #0E6E82",
"!.	c #0F7184",
"~.	c #0F7084",
"{.	c #0F7285",
"].	c #0E778A",
"^.	c #0E778B",
"/.	c #0D7589",
"(.	c #0D7082",
"_.	c #0B6475",
":.	c #073D46",
"<.	c #0B6575",
"[.	c #0D7689",
"}.	c #0E798C",
"|.	c #0E7A8D",
"1.	c #0D7E92",
"2.	c #0C7C90",
"3.	c #0C798B",
"4.	c #0B6F80",
"5.	c #0A6270",
"6.	c #085764",
"7.	c #095B69",
"8.	c #085765",
"9.	c #096272",
"0.	c #0A6F82",
"a.	c #0B798D",
"b.	c #0B7D92",
"c.	c #0C7F94",
"d.	c #0C8094",
"e.	c #0C8195",
"f.	c #0C8599",
"g.	c #0C869A",
"h.	c #0B8599",
"i.	c #0B8296",
"j.	c #0B7D8F",
"k.	c #0A7587",
"l.	c #0A7081",
"m.	c #0A7283",
"n.	c #0A7687",
"o.	c #0A7182",
"p.	c #0A7688",
"q.	c #0B7E90",
"r.	c #0B8397",
"s.	c #0B869A",
"t.	c #0C889C",
"u.	c #0C899C",
"v.	c #0C8CA1",
"w.	c #0B8DA1",
"x.	c #0A8BA0",
"y.	c #0A899E",
"z.	c #0A869A",
"A.	c #0A8498",
"B.	c #0A8599",
"C.	c #0A879B",
"D.	c #0A8A9F",
"E.	c #0A8CA1",
"F.	c #0B8EA3",
"G.	c #0B8FA4",
"H.	c #19788B",
"I.	c #0B93A8",
"J.	c #0B94A8",
"K.	c #0A93A8",
"L.	c #0A92A7",
"M.	c #0A92A8",
"N.	c #0994A9",
"O.	c #0A95AA",
"P.	c #0A95AB",
"Q.	c #197A8B",
"R.	c #212121",
"S.	c #232429",
"T.	c #232327",
"U.	c #222328",
"V.	c #1B1C1F",
"W.	c #000000",
"X.	c #52BECD",
"Y.	c #51BDCC",
"Z.	c #51BCCB",
"`.	c #51BBCA",
" +	c #53BECE",
".+	c #53BECD",
"++	c #52BDCC",
"@+	c #52BDCD",
"#+	c #51BBCB",
"$+	c #50B8C8",
"%+	c #4EB4C3",
"&+	c #4DB1C0",
"*+	c #4DB3C2",
"=+	c #4EB5C4",
"-+	c #50B8C7",
";+	c #4CB0BE",
">+	c #48A6B3",
",+	c #459FAC",
"'+	c #45A0AD",
")+	c #47A5B2",
"!+	c #52BCCC",
"~+	c #51B9C9",
"{+	c #4EB3C2",
"]+	c #48A5B3",
"^+	c #3F919D",
"/+	c #38818C",
"(+	c #3A8692",
"_+	c #3F929D",
":+	c #4EB4C2",
"<+	c #51BAC9",
"[+	c #52B9C9",
"}+	c #52BACA",
"|+	c #52BBCA",
"1+	c #51B8C7",
"2+	c #4DB0BE",
"3+	c #459DAA",
"4+	c #295F68",
"5+	c #51BACA",
"6+	c #50B7C7",
"7+	c #4CB0BF",
"8+	c #449EAB",
"9+	c #37808B",
"0+	c #449FAB",
"a+	c #4CB1BF",
"b+	c #52BBCC",
"c+	c #40ACBD",
"d+	c #3FAABB",
"e+	c #3DA6B5",
"f+	c #3797A5",
"g+	c #2D7B86",
"h+	c #205860",
"i+	c #2D7C87",
"j+	c #3798A6",
"k+	c #3DA7B6",
"l+	c #3FACBC",
"m+	c #40AEBE",
"n+	c #40AFBF",
"o+	c #40AFC0",
"p+	c #3FADBE",
"q+	c #3DA8B8",
"r+	c #3799A7",
"s+	c #2D7C89",
"t+	c #205961",
"u+	c #2D7D89",
"v+	c #3DA9B8",
"w+	c #3FAEBE",
"x+	c #40B0C0",
"y+	c #3FB2C3",
"z+	c #3FB2C4",
"A+	c #3EAFC1",
"B+	c #3BA8BA",
"C+	c #3597A7",
"D+	c #2B7A87",
"E+	c #3EAFC2",
"F+	c #3FB2C5",
"G+	c #3FB3C5",
"H+	c #3FB6C7",
"I+	c #3EB3C4",
"J+	c #3BABBB",
"K+	c #3599A7",
"L+	c #205C65",
"M+	c #3FB7C7",
"N+	c #3FB7C8",
"O+	c #3EB8CC",
"P+	c #3DB5C9",
"Q+	c #3BB0C2",
"R+	c #36A2B3",
"S+	c #2F8E9D",
"T+	c #2A7F8C",
"U+	c #2C8492",
"V+	c #3DB6C9",
"W+	c #3EB9CC",
"X+	c #3EBACC",
"Y+	c #3EBBCC",
"Z+	c #3EBDCD",
"`+	c #3EBDCE",
" @	c #3DBCCD",
".@	c #3CB8C9",
"+@	c #39B0C0",
"@@	c #36A6B4",
"#@	c #349FAD",
"$@	c #34A0B0",
"%@	c #36A5B5",
"&@	c #349FAE",
"*@	c #36A6B5",
"=@	c #39B0C1",
"-@	c #3CB8CA",
";@	c #3DBCCE",
">@	c #3EBDD0",
",@	c #3EBED0",
"'@	c #3EBFD2",
")@	c #3DC0D2",
"!@	c #3CBED0",
"~@	c #3BBBCD",
"{@	c #3AB6C8",
"]@	c #39B4C5",
"^@	c #39B6C7",
"/@	c #3AB8C9",
"(@	c #3AB7C8",
"_@	c #3BBCCD",
":@	c #3CBFD0",
"<@	c #3DC1D2",
"[@	c #3DC2D3",
"}@	c #43B6C7",
"|@	c #3DC2D5",
"1@	c #3DC3D5",
"2@	c #3CC2D5",
"3@	c #3CC1D4",
"4@	c #3CC0D3",
"5@	c #3CC1D5",
"6@	c #3CC0D4",
"7@	c #3CC3D6",
"8@	c #3DC4D7",
"9@	c #43B7C7",
". . + + + + + + + + + + . @ @ @ @ @ # # $ $ % % % % % % ",
"& * * * * * = = = - ; > ; ; > > > , ' * ) ) ) ) ! ) ~ & ",
"& { { { - - - ] ^ / ( _ ( : : ( _ ( / ^ < < < - - - - & ",
"& [ [ [ [ [ [ } | 1 2 3 4 5 5 4 3 6 7 8 9 0 0 0 0 0 0 & ",
"& a a a a b a c d e f g h i i h g f e j k l l l l l l & ",
"& m m m n o o p q r g g g s s g g g t 7 k l l l a a a & ",
"& u u u v v v w x y z g g g g g g z A B C D E D F F F & ",
"& G G G H H H I J K L M g g g g N O P Q R S S S S T T & ",
"& U U U U U V W X Y Z ` g g g g `  ...+.@.#.#.#.#.#.#.& ",
"& $.%.$.$.&.&.*.=.-.;.g g g g g g >.,.'.).!.~.!.~.!.{.& ",
"& ].].].^.].^./.(._.g g g :.:.g g g <.(.[.}.}.}.|.|.|.& ",
"& 1.1.1.1.1.1.2.3.4.5.g 6.7.7.8.g 9.0.a.b.c.d.d.d.d.e.& ",
"& f.f.f.f.g.g.h.i.j.k.l.m.n.n.m.o.p.q.r.s.t.t.t.t.t.u.& ",
"& v.v.v.v.w.w.w.x.y.z.A.B.C.C.B.A.C.D.E.F.G.G.G.G.G.G.& ",
"& H.I.I.I.J.J.J.J.K.L.L.L.M.M.M.M.M.N.O.O.O.P.P.P.P.Q.& ",
"R.& & & & & & & & & & & & & & & & & & & & & & & & & & R.",
"S.S.S.S.S.S.S.S.S.S.S.S.S.S.S.S.S.S.S.S.S.S.S.S.S.S.S.S.",
"S.S.S.S.S.S.S.S.S.S.S.S.S.S.S.S.S.S.S.S.S.S.S.S.S.S.S.S.",
"S.S.S.S.S.S.S.S.S.S.S.S.S.S.S.S.S.S.S.S.S.S.S.S.S.S.S.S.",
"S.S.S.S.S.S.S.S.S.S.S.S.S.S.S.S.S.S.S.S.S.S.S.S.S.S.S.S.",
"S.S.S.S.S.S.S.S.S.S.S.S.S.S.S.S.S.S.S.S.S.S.S.S.S.S.S.S.",
"T.T.T.T.T.T.T.T.T.T.T.T.T.T.T.T.T.T.T.T.T.T.T.T.T.T.T.T.",
"U.U.U.U.U.U.U.U.U.U.U.U.U.U.U.U.U.U.U.U.U.U.U.U.U.U.U.U.",
"T.T.T.T.T.T.T.T.T.T.T.T.T.T.T.T.T.T.T.T.T.T.T.T.T.T.T.T.",
"U.U.U.U.U.U.U.U.U.U.U.U.U.U.U.U.U.U.U.U.U.U.U.U.U.U.U.U.",
"T.T.T.T.T.T.T.T.T.T.T.T.T.T.T.T.T.T.T.T.T.T.T.T.T.T.T.T.",
"V.V.V.V.V.V.V.V.V.V.V.V.V.V.V.V.V.V.V.V.V.V.V.V.V.V.V.V.",
"W.W.W.W.W.W.W.W.W.W.W.W.W.W.W.W.W.W.W.W.W.W.W.W.W.W.W.W.",
". . + + + + + + + + + + . @ @ @ @ @ # # $ $ % % % % % % ",
"& X.X.X.X.X.X.X.X.Y.Z.`.`.Z.Z.`.`.Z.Y.X. + + + + + +.+& ",
"& ++++++@+@+@+@+#+$+%+&+*+=+=+*+&+%+$+#+@+@+@+@+@+@+@+& ",
"& ++++++++++++Z.-+;+>+,+'+)+)+'+,+>+;+-+Z.++++++++++++& ",
"& !+!+!+!+!+!+~+{+]+^+g /+(+(+/+g _+>+:+<+++++++++++++& ",
"& [+[+[+}+|+|+1+2+3+g g g 4+4+g g g ,+&+<+++++++!+!+!+& ",
"& ~+~+~+5+5+5+6+7+8+9+g g g g g g 9+0+a+-+!+b+!+!+!+!+& ",
"& c+c+c+c+c+c+d+e+f+g+h+g g g g h+i+j+k+l+m+m+m+m+m+m+& ",
"& n+n+n+n+n+o+p+q+r+s+t+g g g g t+u+r+v+w+x+x+x+x+x+x+& ",
"& y+y+y+y+z+z+A+B+C+D+g g g g g g D+C+B+E+F+F+F+F+F+G+& ",
"& H+H+H+H+H+H+I+J+K+g g g L+L+g g g K+J+I+M+M+M+N+N+N+& ",
"& O+O+O+O+O+O+P+Q+R+S+g T+U+U+T+g S+R+Q+V+W+X+X+X+X+Y+& ",
"& Z+Z+Z+Z+`+`+ @.@+@@@#@$@%@%@$@&@*@=@-@;@>@>@>@>@>@,@& ",
"& '@'@'@'@)@)@)@!@~@{@]@^@/@/@^@]@(@_@:@<@[@[@[@[@[@[@& ",
"& }@|@|@|@1@1@1@1@2@3@4@4@5@5@6@6@5@7@8@8@8@8@8@8@8@9@& ",
"R.& & & & & & & & & & & & & & & & & & & & & & & & & & R.",
"S.S.S.S.S.S.S.S.S.S.S.S.S.S.S.S.S.S.S.S.S.S.S.S.S.S.S.S.",
"S.S.S.S.S.S.S.S.S.S.S.S.S.S.S.S.S.S.S.S.S.S.S.S.S.S.S.S.",
"S.S.S.S.S.S.S.S.S.S.S.S.S.S.S.S.S.S.S.S.S.S.S.S.S.S.S.S.",
"S.S.S.S.S.S.S.S.S.S.S.S.S.S.S.S.S.S.S.S.S.S.S.S.S.S.S.S.",
"S.S.S.S.S.S.S.S.S.S.S.S.S.S.S.S.S.S.S.S.S.S.S.S.S.S.S.S.",
"T.T.T.T.T.T.T.T.T.T.T.T.T.T.T.T.T.T.T.T.T.T.T.T.T.T.T.T.",
"U.U.U.U.U.U.U.U.U.U.U.U.U.U.U.U.U.U.U.U.U.U.U.U.U.U.U.U.",
"T.T.T.T.T.T.T.T.T.T.T.T.T.T.T.T.T.T.T.T.T.T.T.T.T.T.T.T.",
"U.U.U.U.U.U.U.U.U.U.U.U.U.U.U.U.U.U.U.U.U.U.U.U.U.U.U.U.",
"V.V.V.V.V.V.V.V.V.V.V.V.V.V.V.V.V.V.V.V.V.V.V.V.V.V.V.V."};
