/* XPM */
static char * closeIO_xpm[] = {
"28 54 371 2",
"  	c None",
". 	c #0D1E2C",
"+ 	c #0D1E2D",
"@ 	c #0C1D2C",
"# 	c #0C1D2B",
"$ 	c #0C1C2A",
"% 	c #0B1C2A",
"& 	c #C4B7B4",
"* 	c #C5B7B4",
"= 	c #C6B7B4",
"- 	c #C7B7B4",
"; 	c #C7B8B4",
"> 	c #BBA9A6",
", 	c #BCA9A6",
"' 	c #BDA9A6",
") 	c #BEA9A6",
"! 	c #BEAAA6",
"~ 	c #B29B97",
"{ 	c #B49B97",
"] 	c #B59B97",
"^ 	c #B69C97",
"/ 	c #B79C97",
"( 	c #96807B",
"_ 	c #7F6C68",
": 	c #B89C97",
"< 	c #B39B97",
"[ 	c #AD8E89",
"} 	c #AE8E89",
"| 	c #B18E89",
"1 	c #B18F89",
"2 	c #B18F88",
"3 	c #B38F88",
"4 	c #7C635E",
"5 	c #FFFFFF",
"6 	c #93766F",
"7 	c #B28F88",
"8 	c #B08E89",
"9 	c #AD8E8A",
"0 	c #AB847D",
"a 	c #AC847D",
"b 	c #AF847D",
"c 	c #B0847D",
"d 	c #B2847D",
"e 	c #B2857D",
"f 	c #B3857D",
"g 	c #936D66",
"h 	c #7C5C56",
"i 	c #FDFDFD",
"j 	c #B1847D",
"k 	c #AE847D",
"l 	c #AE7F76",
"m 	c #B17F76",
"n 	c #B38076",
"o 	c #B68176",
"p 	c #B78176",
"q 	c #B88176",
"r 	c #BA8176",
"s 	c #986960",
"t 	c #805951",
"u 	c #FAFAFA",
"v 	c #B98176",
"w 	c #B58176",
"x 	c #B28076",
"y 	c #B07F77",
"z 	c #771403",
"A 	c #7D1503",
"B 	c #821603",
"C 	c #861703",
"D 	c #891702",
"E 	c #8B1802",
"F 	c #8D1802",
"G 	c #8E1801",
"H 	c #8F1801",
"I 	c #751401",
"J 	c #631101",
"K 	c #E9E9E9",
"L 	c #871702",
"M 	c #851703",
"N 	c #7F1603",
"O 	c #7B1504",
"P 	c #811704",
"Q 	c #881903",
"R 	c #8F1A03",
"S 	c #931A03",
"T 	c #961B02",
"U 	c #981B02",
"V 	c #9A1C02",
"W 	c #9C1C02",
"X 	c #9D1C02",
"Y 	c #801701",
"Z 	c #6C1301",
"` 	c #9B1C02",
" .	c #991C02",
"..	c #941B02",
"+.	c #911A03",
"@.	c #8C1903",
"#.	c #891904",
"$.	c #861905",
"%.	c #891F05",
"&.	c #902105",
"*.	c #972204",
"=.	c #9B2304",
"-.	c #9E2304",
";.	c #A12403",
">.	c #A32503",
",.	c #A52603",
"'.	c #881F02",
").	c #731A02",
"!.	c #E2E2E2",
"~.	c #A62603",
"{.	c #A42503",
"].	c #A22403",
"^.	c #9F2403",
"/.	c #9D2304",
"(.	c #972304",
"_.	c #952205",
":.	c #912105",
"<.	c #8F2106",
"[.	c #8D2807",
"}.	c #962B07",
"|.	c #9C2C06",
"1.	c #9F2E07",
"2.	c #A33007",
"3.	c #A53206",
"4.	c #A73206",
"5.	c #8A2A05",
"6.	c #752304",
"7.	c #DCDCDC",
"8.	c #8B2A05",
"9.	c #A83206",
"0.	c #A63206",
"a.	c #A43106",
"b.	c #A22F07",
"c.	c #9C2D07",
"d.	c #992B07",
"e.	c #972B07",
"f.	c #932908",
"g.	c #8F350B",
"h.	c #97390A",
"i.	c #9D3A0A",
"j.	c #A23D0A",
"k.	c #A53E09",
"l.	c #A74109",
"m.	c #A94209",
"n.	c #762E06",
"o.	c #D7D7D7",
"p.	c #772E06",
"q.	c #8D3707",
"r.	c #AA4208",
"s.	c #A84209",
"t.	c #A53F09",
"u.	c #A33E0A",
"v.	c #9D3A0B",
"w.	c #9C390B",
"x.	c #98370C",
"y.	c #96350C",
"z.	c #8F410F",
"A.	c #98460F",
"B.	c #9E4910",
"C.	c #A24D10",
"D.	c #A64E10",
"E.	c #A75110",
"F.	c #A9520F",
"G.	c #8C450C",
"H.	c #763A0A",
"I.	c #AB540F",
"J.	c #AA530F",
"K.	c #A85110",
"L.	c #A65010",
"M.	c #A44D10",
"N.	c #A24C10",
"O.	c #9D4810",
"P.	c #994310",
"Q.	c #974311",
"R.	c #8F5014",
"S.	c #975514",
"T.	c #9E5C14",
"U.	c #A26014",
"V.	c #A56414",
"W.	c #A76814",
"X.	c #A86A13",
"Y.	c #A96D13",
"Z.	c #AB6D13",
"`.	c #AA6D13",
" +	c #A96B13",
".+	c #A76913",
"++	c #A56514",
"@+	c #A46214",
"#+	c #A15F14",
"$+	c #9F5B15",
"%+	c #9C5815",
"&+	c #9A5415",
"*+	c #975016",
"=+	c #CB9455",
"-+	c #D29B55",
";+	c #D9A255",
">+	c #DCA855",
",+	c #DEAC55",
"'+	c #E0AF55",
")+	c #E2B355",
"!+	c #E2B655",
"~+	c #E4B755",
"{+	c #E3B655",
"]+	c #E2B455",
"^+	c #E0B255",
"/+	c #DEAD55",
"(+	c #DDAA55",
"_+	c #DBA555",
":+	c #D9A155",
"<+	c #D79C55",
"[+	c #D59855",
"}+	c #D29355",
"|+	c #6E3F07",
"1+	c #744507",
"2+	c #7A4A07",
"3+	c #7C4F07",
"4+	c #7E5307",
"5+	c #805507",
"6+	c #815907",
"7+	c #825C07",
"8+	c #835C07",
"9+	c #825907",
"0+	c #805707",
"a+	c #7E5407",
"b+	c #7E5107",
"c+	c #7B4D07",
"d+	c #7A4907",
"e+	c #784507",
"f+	c #764108",
"g+	c #743D08",
"h+	c #232429",
"i+	c #232327",
"j+	c #222328",
"k+	c #1B1C1F",
"l+	c #000000",
"m+	c #595959",
"n+	c #52BECD",
"o+	c #51BDCC",
"p+	c #51BCCB",
"q+	c #51BBCA",
"r+	c #53BECE",
"s+	c #53BECD",
"t+	c #52BDCC",
"u+	c #52BDCD",
"v+	c #51BBCB",
"w+	c #50B8C8",
"x+	c #4EB4C3",
"y+	c #4DB1C0",
"z+	c #4DB3C2",
"A+	c #4EB5C4",
"B+	c #50B8C7",
"C+	c #4CB0BE",
"D+	c #48A6B3",
"E+	c #459FAC",
"F+	c #45A0AD",
"G+	c #47A5B2",
"H+	c #52BCCC",
"I+	c #51B9C9",
"J+	c #4EB3C2",
"K+	c #48A5B3",
"L+	c #3F919D",
"M+	c #38818C",
"N+	c #3A8692",
"O+	c #3F929D",
"P+	c #4EB4C2",
"Q+	c #51BAC9",
"R+	c #52B9C9",
"S+	c #52BACA",
"T+	c #52BBCA",
"U+	c #51B8C7",
"V+	c #4DB0BE",
"W+	c #459DAA",
"X+	c #295F68",
"Y+	c #51BACA",
"Z+	c #50B7C7",
"`+	c #4CB0BF",
" @	c #449EAB",
".@	c #37808B",
"+@	c #449FAB",
"@@	c #4CB1BF",
"#@	c #52BBCC",
"$@	c #40ACBD",
"%@	c #3FAABB",
"&@	c #3DA6B5",
"*@	c #3797A5",
"=@	c #2D7B86",
"-@	c #205860",
";@	c #2D7C87",
">@	c #3798A6",
",@	c #3DA7B6",
"'@	c #3FACBC",
")@	c #40AEBE",
"!@	c #40AFBF",
"~@	c #40AFC0",
"{@	c #3FADBE",
"]@	c #3DA8B8",
"^@	c #3799A7",
"/@	c #2D7C89",
"(@	c #205961",
"_@	c #2D7D89",
":@	c #3DA9B8",
"<@	c #3FAEBE",
"[@	c #40B0C0",
"}@	c #3FB2C3",
"|@	c #3FB2C4",
"1@	c #3EAFC1",
"2@	c #3BA8BA",
"3@	c #3597A7",
"4@	c #2B7A87",
"5@	c #3EAFC2",
"6@	c #3FB2C5",
"7@	c #3FB3C5",
"8@	c #3FB6C7",
"9@	c #3EB3C4",
"0@	c #3BABBB",
"a@	c #3599A7",
"b@	c #205C65",
"c@	c #3FB7C7",
"d@	c #3FB7C8",
"e@	c #3EB8CC",
"f@	c #3DB5C9",
"g@	c #3BB0C2",
"h@	c #36A2B3",
"i@	c #2F8E9D",
"j@	c #2A7F8C",
"k@	c #2C8492",
"l@	c #3DB6C9",
"m@	c #3EB9CC",
"n@	c #3EBACC",
"o@	c #3EBBCC",
"p@	c #3EBDCD",
"q@	c #3EBDCE",
"r@	c #3DBCCD",
"s@	c #3CB8C9",
"t@	c #39B0C0",
"u@	c #36A6B4",
"v@	c #349FAD",
"w@	c #34A0B0",
"x@	c #36A5B5",
"y@	c #349FAE",
"z@	c #36A6B5",
"A@	c #39B0C1",
"B@	c #3CB8CA",
"C@	c #3DBCCE",
"D@	c #3EBDD0",
"E@	c #3EBED0",
"F@	c #3EBFD2",
"G@	c #3DC0D2",
"H@	c #3CBED0",
"I@	c #3BBBCD",
"J@	c #3AB6C8",
"K@	c #39B4C5",
"L@	c #39B6C7",
"M@	c #3AB8C9",
"N@	c #3AB7C8",
"O@	c #3BBCCD",
"P@	c #3CBFD0",
"Q@	c #3DC1D2",
"R@	c #3DC2D3",
"S@	c #43B6C7",
"T@	c #3DC2D5",
"U@	c #3DC3D5",
"V@	c #3CC2D5",
"W@	c #3CC1D4",
"X@	c #3CC0D3",
"Y@	c #3CC1D5",
"Z@	c #3CC0D4",
"`@	c #3CC3D6",
" #	c #3DC4D7",
".#	c #43B7C7",
"+#	c #212121",
". . + + + + + + + + + + . @ @ @ @ @ # # $ $ % % % % % % ",
"& * * * = = = - ; ; ; ; ; ; ; ; ; ; ; - = = * * * * * & ",
"> , ' ' ) ! ! ! ! ! ! ! ! ! ! ! ! ! ! ! ! ) ) ' , , > > ",
"~ { ] ^ ^ ^ ^ / ( _ _ _ ( : ( _ _ _ ( : ^ ^ ^ ^ ] { < < ",
"[ } | 1 2 3 3 3 4 5 5 5 4 6 4 5 5 5 4 3 3 7 2 1 8 } } 9 ",
"0 a b c d e e f g h i i i h i i i h g f f d j b b k a a ",
"l m n o o p p q r s t u u u u u t s r v p p o w n x m y ",
"z A B C D E E F G H I J K K K J I H H F E D L M B N A O ",
"P Q R S T U U V W X Y Z K K K Z Y X W `  .T ..+.R @.#.$.",
"%.&.*.=.-.;.;.>.,.'.).!.!.!.!.!.).'.~.{.].^./.=.(._.:.<.",
"[.}.|.1.2.3.3.4.5.6.7.7.7.6.7.7.7.6.8.9.0.a.b.1.c.d.e.f.",
"g.h.i.j.k.l.l.m.n.o.o.o.p.q.p.o.o.o.p.r.s.t.u.j.v.w.x.y.",
"z.A.B.C.D.E.E.F.G.H.H.H.G.I.G.H.H.H.G.J.K.L.M.N.B.O.P.Q.",
"R.S.T.U.V.W.W.X.Y.Z.Z.Z.Z.Z.Z.Z.Z.Z.`. +.+++@+#+$+%+&+*+",
"=+-+;+>+,+'+'+)+!+~+~+~+~+~+~+~+~+~+{+]+^+/+(+_+:+<+[+}+",
"|+1+2+3+4+5+5+6+7+8+8+8+8+8+8+8+8+8+7+9+0+a+b+c+d+e+f+g+",
"h+h+h+h+h+h+h+h+h+h+h+h+h+h+h+h+h+h+h+h+h+h+h+h+h+h+h+h+",
"h+h+h+h+h+h+h+h+h+h+h+h+h+h+h+h+h+h+h+h+h+h+h+h+h+h+h+h+",
"h+h+h+h+h+h+h+h+h+h+h+h+h+h+h+h+h+h+h+h+h+h+h+h+h+h+h+h+",
"h+h+h+h+h+h+h+h+h+h+h+h+h+h+h+h+h+h+h+h+h+h+h+h+h+h+h+h+",
"h+h+h+h+h+h+h+h+h+h+h+h+h+h+h+h+h+h+h+h+h+h+h+h+h+h+h+h+",
"i+i+i+i+i+i+i+i+i+i+i+i+i+i+i+i+i+i+i+i+i+i+i+i+i+i+i+i+",
"j+j+j+j+j+j+j+j+j+j+j+j+j+j+j+j+j+j+j+j+j+j+j+j+j+j+j+j+",
"i+i+i+i+i+i+i+i+i+i+i+i+i+i+i+i+i+i+i+i+i+i+i+i+i+i+i+i+",
"j+j+j+j+j+j+j+j+j+j+j+j+j+j+j+j+j+j+j+j+j+j+j+j+j+j+j+j+",
"i+i+i+i+i+i+i+i+i+i+i+i+i+i+i+i+i+i+i+i+i+i+i+i+i+i+i+i+",
"k+k+k+k+k+k+k+k+k+k+k+k+k+k+k+k+k+k+k+k+k+k+k+k+k+k+k+k+",
"l+l+l+l+l+l+l+l+l+l+l+l+l+l+l+l+l+l+l+l+l+l+l+l+l+l+l+l+",
". . + + + + + + + + + + . @ @ @ @ @ # # $ $ % % % % % % ",
"m+n+n+n+n+n+n+n+n+o+p+q+q+p+p+q+q+p+o+n+r+r+r+r+r+r+s+m+",
"m+t+t+t+u+u+u+u+v+w+x+y+z+A+A+z+y+x+w+v+u+u+u+u+u+u+u+m+",
"m+t+t+t+t+t+t+p+B+C+D+E+F+G+G+F+E+D+C+B+p+t+t+t+t+t+t+m+",
"m+H+H+H+H+H+H+I+J+K+L+5 M+N+N+M+5 O+D+P+Q+t+t+t+t+t+t+m+",
"m+R+R+R+S+T+T+U+V+W+5 5 5 X+X+5 5 5 E+y+Q+t+t+t+H+H+H+m+",
"m+I+I+I+Y+Y+Y+Z+`+ @.@5 5 5 5 5 5 .@+@@@B+H+#@H+H+H+H+m+",
"m+$@$@$@$@$@$@%@&@*@=@-@5 5 5 5 -@;@>@,@'@)@)@)@)@)@)@m+",
"m+!@!@!@!@!@~@{@]@^@/@(@5 5 5 5 (@_@^@:@<@[@[@[@[@[@[@m+",
"m+}@}@}@}@|@|@1@2@3@4@5 5 5 5 5 5 4@3@2@5@6@6@6@6@6@7@m+",
"m+8@8@8@8@8@8@9@0@a@5 5 5 b@b@5 5 5 a@0@9@c@c@c@d@d@d@m+",
"m+e@e@e@e@e@e@f@g@h@i@5 j@k@k@j@5 i@h@g@l@m@n@n@n@n@o@m+",
"m+p@p@p@p@q@q@r@s@t@u@v@w@x@x@w@y@z@A@B@C@D@D@D@D@D@E@m+",
"m+F@F@F@F@G@G@G@H@I@J@K@L@M@M@L@K@N@O@P@Q@R@R@R@R@R@R@m+",
"m+S@T@T@T@U@U@U@U@V@W@X@X@Y@Y@Z@Z@Y@`@ # # # # # # #.#m+",
"+#m+m+m+m+m+m+m+m+m+m+m+m+m+m+m+m+m+m+m+m+m+m+m+m+m+m++#",
"h+h+h+h+h+h+h+h+h+h+h+h+h+h+h+h+h+h+h+h+h+h+h+h+h+h+h+h+",
"h+h+h+h+h+h+h+h+h+h+h+h+h+h+h+h+h+h+h+h+h+h+h+h+h+h+h+h+",
"h+h+h+h+h+h+h+h+h+h+h+h+h+h+h+h+h+h+h+h+h+h+h+h+h+h+h+h+",
"h+h+h+h+h+h+h+h+h+h+h+h+h+h+h+h+h+h+h+h+h+h+h+h+h+h+h+h+",
"h+h+h+h+h+h+h+h+h+h+h+h+h+h+h+h+h+h+h+h+h+h+h+h+h+h+h+h+",
"i+i+i+i+i+i+i+i+i+i+i+i+i+i+i+i+i+i+i+i+i+i+i+i+i+i+i+i+",
"j+j+j+j+j+j+j+i+i+i+i+i+i+i+i+j+j+j+j+j+j+j+j+j+j+j+j+j+",
"i+i+i+i+i+i+i+i+i+i+i+i+i+i+i+i+i+i+i+i+i+i+i+i+i+i+i+i+",
"j+j+j+j+j+j+j+j+j+j+j+j+j+j+j+j+j+j+j+j+j+j+j+j+j+j+j+j+",
"k+k+k+k+k+k+k+k+k+k+k+k+k+k+k+k+k+k+k+k+k+k+k+k+k+k+k+k+"};
