/* XPM */
static char * frameITL_xpm[] = {
"11 30 24 1",
" 	c None",
".	c #000000",
"+	c #010101",
"@	c #5D5D5F",
"#	c #262627",
"$	c #5F6063",
"%	c #050505",
"&	c #5A5B5E",
"*	c #56575A",
"=	c #525356",
"-	c #040404",
";	c #4F5053",
">	c #151515",
",	c #4C4D50",
"'	c #2A2A2A",
")	c #4A4B4E",
"!	c #282828",
"~	c #494A4D",
"{	c #2B2B2B",
"]	c #3E3F42",
"^	c #292929",
"/	c #24252A",
"(	c #232429",
"_	c #232327",
"           ",
"           ",
"           ",
"  .......  ",
" +@@@@@@@  ",
" #$$$$$$$  ",
"%@@@@@@@@  ",
".&&&&&&&&  ",
"+********  ",
"+========  ",
"-;;;;;;;;  ",
">,,,,,,,,  ",
"'))))))))  ",
"!~~~~~~~~  ",
"'~~~~~~~~  ",
"{]]]]]]]]  ",
"^////////  ",
"^((((((((  ",
"^((((((((  ",
"^((((((((  ",
"^((((((((  ",
"'////////  ",
"{((((((((  ",
"{((((((((  ",
"'((((((((  ",
"'((((((((  ",
"^((((((((  ",
"'(((_____  ",
"^((((((((  ",
"'((((((((  "};
