/* XPM */
static char * frameAL_xpm[] = {
"8 1 3 1",
" 	c None",
".	c #292929",
"+	c #222328",
".++.++++"};
