/* XPM */
static char * maximizeA_xpm[] = {
"28 54 434 2",
"  	c None",
". 	c #0D1E2C",
"+ 	c #0D1E2D",
"@ 	c #0C1D2C",
"# 	c #0C1D2B",
"$ 	c #0C1C2A",
"% 	c #0B1C2A",
"& 	c #595959",
"* 	c #3B8A99",
"= 	c #398898",
"- 	c #388696",
"; 	c #388595",
"> 	c #378494",
", 	c #378393",
"' 	c #398797",
") 	c #398999",
"! 	c #3A8898",
"~ 	c #3A8999",
"{ 	c #3A8899",
"] 	c #3C8B99",
"^ 	c #398897",
"/ 	c #3A8998",
"( 	c #398696",
"_ 	c #388393",
": 	c #367E8C",
"< 	c #337988",
"[ 	c #337785",
"} 	c #347989",
"| 	c #357E8C",
"1 	c #378392",
"2 	c #398595",
"3 	c #3A8797",
"4 	c #398796",
"5 	c #398697",
"6 	c #398693",
"7 	c #388695",
"8 	c #388495",
"9 	c #36818F",
"0 	c #337987",
"a 	c #2E6D7A",
"b 	c #2A636F",
"c 	c #285F6B",
"d 	c #337787",
"e 	c #36808E",
"f 	c #388494",
"g 	c #398695",
"h 	c #398594",
"i 	c #388594",
"j 	c #398694",
"k 	c #398392",
"l 	c #367F8D",
"m 	c #317683",
"n 	c #2C6773",
"o 	c #24565F",
"p 	c #FFFFFF",
"q 	c #24555F",
"r 	c #2B6772",
"s 	c #317582",
"t 	c #357E8D",
"u 	c #378291",
"v 	c #398493",
"w 	c #388493",
"x 	c #388492",
"y 	c #398492",
"z 	c #397F8E",
"A 	c #398494",
"B 	c #327482",
"C 	c #2B6470",
"D 	c #22515A",
"E 	c #225059",
"F 	c #307480",
"G 	c #347C8B",
"H 	c #378090",
"I 	c #378190",
"J 	c #388292",
"K 	c #377F8E",
"L 	c #388392",
"M 	c #388291",
"N 	c #368090",
"O 	c #357C8A",
"P 	c #307380",
"Q 	c #2B636F",
"R 	c #224F58",
"S 	c #214E58",
"T 	c #2A626E",
"U 	c #31727F",
"V 	c #357B88",
"W 	c #37818F",
"X 	c #37808F",
"Y 	c #126274",
"Z 	c #116172",
"` 	c #115F6F",
" .	c #0F5866",
"..	c #0D4C58",
"+.	c #0A3C46",
"@.	c #07282E",
"#.	c #0B3E49",
"$.	c #0D4E5B",
"%.	c #105A69",
"&.	c #116273",
"*.	c #116576",
"=.	c #116778",
"-.	c #116577",
";.	c #116678",
">.	c #116779",
",.	c #106678",
"'.	c #106475",
").	c #0F5D6E",
"!.	c #0D505E",
"~.	c #0B404B",
"{.	c #093942",
"].	c #0A3F49",
"^.	c #093A43",
"/.	c #0A434E",
"(.	c #0D5563",
"_.	c #0F6372",
":.	c #0F6A7B",
"<.	c #116E7F",
"[.	c #106A7C",
"}.	c #0F7081",
"|.	c #0F6F81",
"1.	c #0E6E7F",
"2.	c #0E6A7A",
"3.	c #0C5F6F",
"4.	c #0B4B57",
"5.	c #09424D",
"6.	c #0B505D",
"7.	c #0C5765",
"8.	c #0B525F",
"9.	c #0A505C",
"0.	c #0D6272",
"a.	c #0F6E7F",
"b.	c #107486",
"c.	c #0F7084",
"d.	c #0F7184",
"e.	c #0F7285",
"f.	c #0E778A",
"g.	c #0D7588",
"h.	c #0D7082",
"i.	c #0B6373",
"j.	c #094753",
"k.	c #0B5967",
"l.	c #0D6676",
"m.	c #0E6B7B",
"n.	c #0D6776",
"o.	c #0B5B69",
"p.	c #094954",
"q.	c #0C6574",
"r.	c #0E7283",
"s.	c #0F7A8C",
"t.	c #0E7A8D",
"u.	c #0D7E92",
"v.	c #0C7C90",
"w.	c #0C788B",
"x.	c #0B6D7E",
"y.	c #0B5966",
"z.	c #09505D",
"A.	c #0A606E",
"B.	c #0D6D7D",
"C.	c #0D7586",
"D.	c #0E778B",
"E.	c #0E7688",
"F.	c #0C6F7F",
"G.	c #0A6270",
"H.	c #09535F",
"I.	c #0A5D6B",
"J.	c #0C6E7E",
"K.	c #0D798C",
"L.	c #0D8093",
"M.	c #0C8094",
"N.	c #0C8195",
"O.	c #0C8599",
"P.	c #0B8498",
"Q.	c #0B8195",
"R.	c #0B7C8E",
"S.	c #0B6B7C",
"T.	c #0B6473",
"U.	c #0A6372",
"V.	c #0B6A7A",
"W.	c #0C7485",
"X.	c #0D7B8D",
"Y.	c #0D7F92",
"Z.	c #0C8093",
"`.	c #0D8092",
" +	c #0C7D8F",
".+	c #0B7787",
"++	c #0A6C7C",
"@+	c #0A6775",
"#+	c #0B6877",
"$+	c #0B7181",
"%+	c #0C7B8C",
"&+	c #0C8295",
"*+	c #0D879A",
"=+	c #0C889C",
"-+	c #0C899C",
";+	c #0C8CA1",
">+	c #0B8A9F",
",+	c #0A899C",
"'+	c #0B7A8B",
")+	c #0C7D90",
"!+	c #0C8698",
"~+	c #0C889B",
"{+	c #0D889B",
"]+	c #0D889C",
"^+	c #0C879A",
"/+	c #0C8598",
"(+	c #0B8193",
"_+	c #0A7F90",
":+	c #0B7F90",
"<+	c #0B8294",
"[+	c #0B889B",
"}+	c #0B8A9D",
"|+	c #0C8DA0",
"1+	c #0B8FA4",
"2+	c #19788B",
"3+	c #0B93A8",
"4+	c #0A93A7",
"5+	c #0B8A9C",
"6+	c #0B899B",
"7+	c #0B899C",
"8+	c #0B899E",
"9+	c #0B8B9E",
"0+	c #0C8DA1",
"a+	c #0C8EA2",
"b+	c #0C8FA2",
"c+	c #0C8FA3",
"d+	c #0C90A3",
"e+	c #0A8EA2",
"f+	c #0A8DA1",
"g+	c #0A8DA0",
"h+	c #0B8FA1",
"i+	c #0A8FA3",
"j+	c #0B91A5",
"k+	c #0B93A7",
"l+	c #0A95AB",
"m+	c #197A8B",
"n+	c #212121",
"o+	c #232429",
"p+	c #232327",
"q+	c #222328",
"r+	c #1B1C1F",
"s+	c #000000",
"t+	c #52BECD",
"u+	c #51BCCB",
"v+	c #50BBC9",
"w+	c #50B9C8",
"x+	c #4FB8C6",
"y+	c #51BECD",
"z+	c #53BECE",
"A+	c #53BECD",
"B+	c #52BDCC",
"C+	c #52BDCD",
"D+	c #51BACA",
"E+	c #4CB1BF",
"F+	c #49ABB8",
"G+	c #48A7B4",
"H+	c #4CB0BF",
"I+	c #4FB7C5",
"J+	c #51BAC9",
"K+	c #51BDCD",
"L+	c #51BDCC",
"M+	c #4DB4C3",
"N+	c #49AAB8",
"O+	c #439AA7",
"P+	c #3D8C98",
"Q+	c #3A8691",
"R+	c #3C8C98",
"S+	c #429AA7",
"T+	c #4EB4C3",
"U+	c #51B9C9",
"V+	c #50BBCB",
"W+	c #51BCCC",
"X+	c #52BCCC",
"Y+	c #4EB3C2",
"Z+	c #3F929F",
"`+	c #357984",
" @	c #347984",
".@	c #3F929E",
"+@	c #4DB3C2",
"@@	c #50B8C9",
"#@	c #50BBCA",
"$@	c #52B9C9",
"%@	c #52BACA",
"&@	c #47A6B3",
"*@	c #3E909C",
"=@	c #31737C",
"-@	c #47A5B3",
";@	c #4DB2C2",
">@	c #50B8C8",
",@	c #50BACA",
"'@	c #50B7C7",
")@	c #48A5B3",
"!@	c #3E8F9C",
"~@	c #31727C",
"{@	c #31717B",
"]@	c #4DB1C2",
"^@	c #52BBCC",
"/@	c #40ACBD",
"(@	c #3FA9BA",
"_@	c #3DA6B6",
":@	c #389AA9",
"<@	c #318492",
"[@	c #276A74",
"}@	c #1A454C",
"|@	c #266974",
"1@	c #308492",
"2@	c #3899A8",
"3@	c #3CA5B5",
"4@	c #3EA9BA",
"5@	c #3FACBD",
"6@	c #40AEBE",
"7@	c #40AFBF",
"8@	c #3FAEBE",
"9@	c #3EAAB9",
"0@	c #39A0AF",
"a@	c #318B99",
"b@	c #276F79",
"c@	c #226069",
"d@	c #256973",
"e@	c #236069",
"f@	c #286D79",
"g@	c #328997",
"h@	c #3A9EAD",
"i@	c #3EA9B9",
"j@	c #40AEBF",
"k@	c #40ADBF",
"l@	c #40B0C0",
"m@	c #3FB2C3",
"n@	c #3EAFC0",
"o@	c #3BA8B9",
"p@	c #3699A8",
"q@	c #2B7C88",
"r@	c #266B75",
"s@	c #2E828F",
"t@	c #318C99",
"u@	c #2B7B87",
"v@	c #3698A7",
"w@	c #3CA7B8",
"x@	c #3FB1C2",
"y@	c #40B1C2",
"z@	c #3FB2C5",
"A@	c #3FB3C5",
"B@	c #3FB6C7",
"C@	c #3EB3C4",
"D@	c #3BABBB",
"E@	c #3398A7",
"F@	c #26707B",
"G@	c #308B98",
"H@	c #369EAE",
"I@	c #39A4B5",
"J@	c #379EAD",
"K@	c #27707A",
"L@	c #3496A4",
"M@	c #3BA9B9",
"N@	c #3FB4C5",
"O@	c #3FB7C8",
"P@	c #3EB8CC",
"Q@	c #3DB5C9",
"R@	c #3BAFC2",
"S@	c #35A0AF",
"T@	c #2D8895",
"U@	c #297985",
"V@	c #30919E",
"W@	c #38A4B3",
"X@	c #3BAFC0",
"Y@	c #3CB2C4",
"Z@	c #3BAFBF",
"`@	c #37A3B3",
" #	c #30909D",
".#	c #2D8694",
"+#	c #3CAEBE",
"@#	c #3EBACC",
"##	c #3EBBCC",
"$#	c #3EBDCD",
"%#	c #3DBCCC",
"&#	c #3CB8C8",
"*#	c #39ADBE",
"=#	c #349FAF",
"-#	c #3094A2",
";#	c #30929F",
">#	c #339CAB",
",#	c #37A9B8",
"'#	c #3BB3C4",
")#	c #3DB9C9",
"!#	c #3DB9CB",
"~#	c #3DB8C9",
"{#	c #3BB2C3",
"]#	c #37A8B8",
"^#	c #339BAA",
"/#	c #30919F",
"(#	c #3093A0",
"_#	c #349FAC",
":#	c #39ACBC",
"<#	c #3CB5C7",
"[#	c #3EB9CB",
"}#	c #3FBACB",
"|#	c #3EBDD0",
"1#	c #3EBED0",
"2#	c #3EBFD2",
"3#	c #3DBDD0",
"4#	c #3CBACB",
"5#	c #39B3C4",
"6#	c #37AFBF",
"7#	c #37AEBE",
"8#	c #39B3C2",
"9#	c #3CB9C9",
"0#	c #3CBBCD",
"a#	c #3EBFD0",
"b#	c #3DBED0",
"c#	c #3AB2C2",
"d#	c #38ADBD",
"e#	c #3AB1C2",
"f#	c #3CB7C9",
"g#	c #3CBBCC",
"h#	c #3EBCCF",
"i#	c #3EBDCE",
"j#	c #3DC2D3",
"k#	c #43B6C7",
"l#	c #3DC2D5",
"m#	c #3CC1D3",
"n#	c #3CBFD1",
"o#	c #3BBECF",
"p#	c #3CBDCF",
"q#	c #3CC0D1",
"r#	c #3DC1D4",
"s#	c #3EC1D3",
"t#	c #3DC1D3",
"u#	c #3DBCCF",
"v#	c #3CBDCE",
"w#	c #3BBCCD",
"x#	c #3DC0D2",
"y#	c #3DBFD1",
"z#	c #3DC4D7",
"A#	c #43B7C7",
". . + + + + + + + + + + . @ @ @ @ @ # # $ $ % % % % % % ",
"& * * = = = = = = = - ; > , > ; ' ) ! ~ ~ ! { = = = ] & ",
"& ^ ^ { / ! ! ! ! ( _ : < [ } | 1 2 3 4 3 ' 4 5 4 5 = & ",
"& 6 6 ' ' 4 ( 7 8 9 0 a b c b a d e f f 2 2 g h i 2 j & ",
"& k k ; 2 2 f , l m n o p p p q r s t u 1 v w w x _ y & ",
"& z z A f 1 u : B C D p p p p p E C F G H I J J u u k & ",
"& K K L M N O P Q R p p p p p p p S T U V l W W X H _ & ",
"& Y Y Y Z `  ...+.p p p p @.p p p p #.$.%.&.*.=.-.;.;.& ",
"& >.>.,.'.).!.~.p p p p {.].^.p p p p /.(._.:.<.[.[.[.& ",
"& }.|.1.2.3.4.p p p p 5.6.7.8./.p p p p 9.0.a.b.c.d.e.& ",
"& f.f.g.h.i.p p p p j.k.l.m.n.o.p.p p p p q.r.s.t.t.t.& ",
"& u.u.v.w.x.y.p p z.A.B.C.D.E.F.G.H.p p I.J.K.L.M.M.N.& ",
"& O.O.P.Q.R.S.T.U.V.W.X.Y.Z.`. +.+++@+#+$+%+&+*+=+=+-+& ",
"& ;+;+;+>+,+ +'+'+)+N.!+~+{+]+^+/+(+_+:+<+[+}+|+1+1+1+& ",
"& 2+3+3+3+4+5+6+7+8+9+0+a+b+c+d+e+f+g+h+i+j+k+k+l+l+m+& ",
"n+& & & & & & & & & & & & & & & & & & & & & & & & & & n+",
"o+o+o+o+o+o+o+o+o+o+o+o+o+o+o+o+o+o+o+o+o+o+o+o+o+o+o+o+",
"o+o+o+o+o+o+o+o+o+o+o+o+o+o+o+o+o+o+o+o+o+o+o+o+o+o+o+o+",
"o+o+o+o+o+o+o+o+o+o+o+o+o+o+o+o+o+o+o+o+o+o+o+o+o+o+o+o+",
"o+o+o+o+o+o+o+o+o+o+o+o+o+o+o+o+o+o+o+o+o+o+o+o+o+o+o+o+",
"o+o+o+o+o+o+o+o+o+o+o+o+o+o+o+o+o+o+o+o+o+o+o+o+o+o+o+o+",
"p+p+p+p+p+p+p+p+p+p+p+p+p+p+p+p+p+p+p+p+p+p+p+p+p+p+p+p+",
"q+q+q+q+q+q+q+q+q+q+q+q+q+q+q+q+q+q+q+q+q+q+q+q+q+q+q+q+",
"p+p+p+p+p+p+p+p+p+p+p+p+p+p+p+p+p+p+p+p+p+p+p+p+p+p+p+p+",
"q+q+q+q+q+q+q+q+q+q+q+q+q+q+q+q+q+q+q+q+q+q+q+q+q+q+q+q+",
"p+p+p+p+p+p+p+p+p+p+p+p+p+p+p+p+p+p+p+p+p+p+p+p+p+p+p+p+",
"r+r+r+r+r+r+r+r+r+r+r+r+r+r+r+r+r+r+r+r+r+r+r+r+r+r+r+r+",
"s+s+s+s+s+s+s+s+s+s+s+s+s+s+s+s+s+s+s+s+s+s+s+s+s+s+s+s+",
". . + + + + + + + + + + . @ @ @ @ @ # # $ $ % % % % % % ",
"& t+t+t+t+t+t+t+t+t+u+v+w+x+w+v+u+t+y+t+t+t+z+z+z+z+A+& ",
"& B+B+B+C+C+t+C+t+D+x+E+F+G+F+H+I+J+B+B+K+L+C+C+C+C+C+& ",
"& B+B+B+B+B+B+u+J+M+N+O+P+Q+R+S+N+T+U+V+W+B+B+B+B+B+B+& ",
"& X+X+X+X+X+V+U+Y+G+Z+`+p p p  @.@G++@@@#@u+B+B+B+B+B+& ",
"& $@$@$@%@J+w++@&@*@=@p p p p p =@*@-@;@>@,@B+B+X+X+X+& ",
"& U+U+U+D+'@+@)@!@~@p p p p p p p {@!@-@]@'@^@X+X+X+X+& ",
"& /@/@/@(@_@:@<@[@p p p p }@p p p p |@1@2@3@4@5@5@6@6@& ",
"& 7@7@8@9@0@a@b@p p p p c@d@e@p p p p f@g@h@i@j@k@l@l@& ",
"& m@m@n@o@p@q@p p p p r@s@t@s@r@p p p p u@v@w@x@y@z@A@& ",
"& B@B@C@D@E@p p p p F@G@H@I@J@G@K@p p p p L@M@N@N@O@O@& ",
"& P@P@Q@R@S@T@p p U@V@W@X@Y@Z@`@ #U@p p .#H@+#O@O@@###& ",
"& $#$#%#&#*#=#-#;#>#,#'#)#!#~#{#]#^#/#(#_#:#<#[#}#|#1#& ",
"& 2#2#2#3#4#5#6#7#8#9#0#a#1#b#0#&#c#d#d#e#f#g#h#i#j#j#& ",
"& k#l#l#l#m#n#o#o#p#q#r#r#j#s#t#n#u#v#w#p#n#x#x#y#z#A#& ",
"n+& & & & & & & & & & & & & & & & & & & & & & & & & & n+",
"o+o+o+o+o+o+o+o+o+o+o+o+o+o+o+o+o+o+o+o+o+o+o+o+o+o+o+o+",
"o+o+o+o+o+o+o+o+o+o+o+o+o+o+o+o+o+o+o+o+o+o+o+o+o+o+o+o+",
"o+o+o+o+o+o+o+o+o+o+o+o+o+o+o+o+o+o+o+o+o+o+o+o+o+o+o+o+",
"o+o+o+o+o+o+o+o+o+o+o+o+o+o+o+o+o+o+o+o+o+o+o+o+o+o+o+o+",
"o+o+o+o+o+o+o+o+o+o+o+o+o+o+o+o+o+o+o+o+o+o+o+o+o+o+o+o+",
"p+p+p+p+p+p+p+p+p+p+p+p+p+p+p+p+p+p+p+p+p+p+p+p+p+p+p+p+",
"q+q+q+q+q+q+p+p+p+p+q+q+q+q+q+q+q+q+q+q+q+q+q+q+q+q+q+q+",
"p+p+p+p+p+p+p+p+p+p+p+p+p+p+p+p+p+p+p+p+p+p+p+p+p+p+p+p+",
"q+q+q+q+q+q+q+q+q+q+q+q+q+q+q+q+q+q+q+q+q+q+q+q+q+q+q+q+",
"r+r+r+r+r+r+r+r+r+r+r+r+r+r+r+r+r+r+r+r+r+r+r+r+r+r+r+r+"};
