/* XPM */
static char * menubg_xpm[] = {
"5 513 71 1",
" 	c None",
".	c #253036",
"+	c #838D97",
"@	c #69707A",
"#	c #69727A",
"$	c #3F434A",
"%	c #2F3339",
"&	c #2D3237",
"*	c #2B3235",
"=	c #293133",
"-	c #293233",
";	c #283131",
">	c #253031",
",	c #253130",
"'	c #253131",
")	c #243030",
"!	c #24302F",
"~	c #293132",
"{	c #293232",
"]	c #283031",
"^	c #272F30",
"/	c #252D31",
"(	c #242C30",
"_	c #242B2F",
":	c #23292D",
"<	c #21292C",
"[	c #20292B",
"}	c #1F2829",
"|	c #1F2729",
"1	c #1D2528",
"2	c #1C2427",
"3	c #1C2425",
"4	c #1B2324",
"5	c #1A2124",
"6	c #192023",
"7	c #192024",
"8	c #171F23",
"9	c #161F21",
"0	c #161D20",
"a	c #151C1F",
"b	c #141C1F",
"c	c #141B1D",
"d	c #131A1C",
"e	c #12191C",
"f	c #121A1C",
"g	c #11191A",
"h	c #101719",
"i	c #101619",
"j	c #0F1617",
"k	c #0E1516",
"l	c #0E1416",
"m	c #0D1415",
"n	c #0D1314",
"o	c #0C1314",
"p	c #0D1414",
"q	c #0B1214",
"r	c #0B1212",
"s	c #0A1112",
"t	c #0A1011",
"u	c #091011",
"v	c #091010",
"w	c #080F10",
"x	c #080E0F",
"y	c #070E0E",
"z	c #070D0E",
"A	c #060C0D",
"B	c #070D0D",
"C	c #090F10",
"D	c #080D0E",
"E	c #070B0C",
"F	c #143933",
".....",
"+++++",
"@####",
"$$$$$",
"%&&&&",
"*=--=",
";;>>;",
",''',",
")!!!)",
">>,>>",
"~{;;{",
"-----",
"**-**",
"*****",
"*****",
"*****",
"*****",
"*****",
"*****",
"*****",
"*****",
"*****",
"*****",
"*****",
"*****",
"*****",
"*****",
"*****",
"*****",
"*****",
"*****",
"*****",
"*****",
"*****",
"*****",
"*****",
"*****",
"*****",
"*****",
"*****",
"*****",
"*****",
"*****",
"*****",
"*****",
"*****",
"*****",
"*****",
"*****",
"*****",
"*****",
"*****",
"*****",
"*****",
"*****",
"*****",
"*****",
"*****",
"*****",
"*****",
"*****",
"*****",
"*****",
"*****",
"*****",
"*****",
"*****",
"*****",
"*****",
"*****",
"*****",
"*****",
"*****",
"*****",
"*****",
"*****",
"*****",
"*****",
"*****",
"*****",
"*****",
"*****",
"*****",
"*****",
"*****",
"-----",
"-----",
"-----",
"-----",
"-----",
"-----",
"-----",
"-----",
"-----",
"-----",
"-----",
"-----",
"-----",
"-----",
"-----",
"-----",
"-----",
"-----",
"~~~~~",
"~~~~~",
"~~~~~",
"-----",
"-----",
"-----",
"~~~~~",
"~~~~~",
"~~~~~",
"~~~~~",
"~~~~~",
"~~~~~",
"~~~~~",
"]]]]]",
"]]]]]",
"]]]]]",
"]]]]]",
"^^^^^",
"^^^^^",
"^^^^^",
"^^^^^",
"^^^^^",
"^^^^^",
"^^^^^",
"/////",
"/////",
"/////",
"/////",
"/////",
"/////",
"/////",
"(((((",
"(((((",
"(((((",
"(((((",
"(((((",
"_____",
"_____",
"_____",
"_____",
"_____",
"_____",
"_____",
":::::",
":::::",
":::::",
":::::",
":::::",
":::::",
":::::",
"<<<<<",
"<<<<<",
"<<<<<",
"<<<<<",
"[[[[[",
"[[[[[",
"[[[[[",
"[[[[[",
"[[[[[",
"[[[[[",
"[[[[[",
"}}}}}",
"|||||",
"|||||",
"|||||",
"|||||",
"|||||",
"|||||",
"11111",
"11111",
"11111",
"11111",
"11111",
"22222",
"22222",
"22222",
"22222",
"22222",
"22222",
"22222",
"33333",
"33333",
"33333",
"33333",
"33333",
"33333",
"33333",
"44444",
"44444",
"44444",
"44444",
"55555",
"55555",
"55555",
"55555",
"55555",
"55555",
"55555",
"66666",
"77778",
"77788",
"77888",
"78888",
"88889",
"88889",
"99999",
"99999",
"99999",
"00000",
"00000",
"00aaa",
"0aaaa",
"aaaaa",
"aaaab",
"aaabb",
"aabbb",
"abbbb",
"bbbbb",
"bbbbb",
"ccccc",
"ccccc",
"ccccc",
"ddddd",
"ddddd",
"eeeee",
"eeeee",
"eeeee",
"eeeee",
"eeeee",
"eeeee",
"eeeee",
"ddddd",
"ddddd",
"ddddd",
"ddddd",
"fffff",
"ggggg",
"ggggg",
"ggggg",
"ggggg",
"ggggg",
"ggggg",
"ggggg",
"hhhhh",
"hhhhh",
"hhhhh",
"hhhhh",
"iiiii",
"iiiii",
"iiiii",
"iiiii",
"iiiii",
"iiiii",
"iiiii",
"jjjjj",
"jjjjj",
"jjjjj",
"jjjjj",
"jjjjj",
"kkkkk",
"kkkkk",
"lllll",
"lllll",
"lllll",
"lllll",
"lllll",
"mmmmm",
"mmmmm",
"nnnnn",
"nnnnn",
"nnnnn",
"nnopn",
"nooop",
"ooooo",
"ooooo",
"ooooo",
"ooooo",
"ooooo",
"ooooo",
"ooooo",
"ooooo",
"ooooo",
"ooooo",
"ooooo",
"ooooo",
"ooooo",
"ooooo",
"ooooo",
"ooooo",
"ooooo",
"ooooo",
"qqqqq",
"qqqqq",
"qqqqq",
"qqqqq",
"qqqqq",
"qqqqq",
"qqqqq",
"qqqqq",
"qqqqq",
"qqqqq",
"qqqqq",
"qqqqq",
"qqqqq",
"qqqqq",
"qqqqq",
"qqqqq",
"qqqqq",
"qqqqq",
"qqqqq",
"qqqqq",
"qqqqq",
"qqqqq",
"qqqqq",
"qqqqq",
"qqqqq",
"qqqqq",
"rrrrr",
"rrrrr",
"rrrrr",
"rrrrr",
"sssss",
"sssss",
"sssss",
"sssss",
"sssss",
"sssss",
"sssss",
"rrrrr",
"rrrrr",
"rrrrr",
"rrrrr",
"rrrrr",
"rrrrr",
"rrrrr",
"sssss",
"sssss",
"sssss",
"sssss",
"sssss",
"ttttt",
"ttttt",
"ttttt",
"ttttt",
"ttttt",
"ttttt",
"ttttt",
"ttttt",
"ttttt",
"ttttt",
"ttttt",
"ttttt",
"ttttt",
"ttttt",
"ttttt",
"ttttt",
"ttttt",
"ttttt",
"ttttt",
"ttttt",
"ttttt",
"ttttt",
"ttttt",
"ttttt",
"ttttt",
"ttttt",
"ttttt",
"ttttt",
"ttttt",
"ttttt",
"ttttt",
"ttttt",
"ttttt",
"ttttt",
"ttttt",
"ttttt",
"ttttt",
"ttttt",
"ttttt",
"ttttt",
"ttttt",
"ttttt",
"ttttt",
"ttttt",
"uuuuu",
"uuuuv",
"uuuuv",
"uuuuv",
"uuuuv",
"uuuuv",
"uuuuv",
"uuuuv",
"uuuuv",
"uuuuv",
"uuuuv",
"uuuuv",
"uuuuv",
"uuuuv",
"uuuuv",
"uuuuv",
"uuuuv",
"uuuuv",
"uuuvv",
"vvvvw",
"vvvvw",
"vvvvw",
"vvvvw",
"vvvvw",
"vvvvw",
"vvvvw",
"vvvvw",
"vvvvw",
"vvvvw",
"vvvvw",
"vvvvw",
"vvvvw",
"vvvvw",
"vvvvw",
"vvvvw",
"vvvvw",
"vvvvw",
"vvvvv",
"vvvvv",
"vvvvv",
"vvvvv",
"vvvvv",
"vvvvv",
"vvvvv",
"wwwww",
"wwwww",
"wwwww",
"wwwww",
"wwwww",
"xxxxx",
"xxxxx",
"xxxxx",
"xxxxx",
"xxxxx",
"xxxxx",
"xxxxx",
"xxxxx",
"xxxxx",
"xxxxx",
"xxxxx",
"xxxxx",
"xxxxx",
"xxxxx",
"xxxxx",
"xxxxx",
"xxxxx",
"xxxxx",
"xxxxx",
"xxxxx",
"xxxxx",
"xxxxx",
"xxxxx",
"xxxxx",
"xxxxx",
"yyyyy",
"zzzzy",
"zzzzy",
"zzzzy",
"zzzzy",
"zzzzy",
"zzzzy",
"zzzzy",
"zzzzy",
"zzzzy",
"zzzzy",
"zzzzy",
"zzzzy",
"zzzzy",
"zzzzy",
"zzzzy",
"zzzzy",
"zzzzy",
"zzzzy",
"zzzzy",
"zzzzy",
"zzzzy",
"zzzzy",
"zzzzy",
"zzzzy",
"zzzzy",
"zzzzy",
"zzzzy",
"zzzzy",
"zzzzy",
"zzzzy",
"zzzzy",
"zzzzy",
"zzzzy",
"zzzzy",
"zzzzy",
"zzzzy",
"zzzzz",
"AAAAA",
"zBBBB",
"yyzyy",
"xxyxx",
"xyyyx",
"xzyyx",
"zzzzz",
"zzzzz",
"xxxxx",
"CCCCC",
"CCCCC",
"DDDDD",
"EEEEE",
"FFFFF"};
