/* XPM */
static char * minimizeA_xpm[] = {
"28 54 428 2",
"  	c None",
". 	c #0D1E2C",
"+ 	c #0D1E2D",
"@ 	c #0C1D2C",
"# 	c #0C1D2B",
"$ 	c #0C1C2A",
"% 	c #0B1C2A",
"& 	c #595959",
"* 	c #3B8A99",
"= 	c #398898",
"- 	c #388797",
"; 	c #388696",
"> 	c #378595",
", 	c #388595",
"' 	c #398797",
") 	c #3A8899",
"! 	c #3C8B99",
"~ 	c #398897",
"{ 	c #398796",
"] 	c #388493",
"^ 	c #36808F",
"/ 	c #357C8B",
"( 	c #347C8A",
"_ 	c #367F8E",
": 	c #388393",
"< 	c #398695",
"[ 	c #3A8797",
"} 	c #3A8798",
"| 	c #388695",
"1 	c #378392",
"2 	c #367E8D",
"3 	c #347B89",
"4 	c #388594",
"5 	c #398697",
"6 	c #398693",
"7 	c #378393",
"8 	c #30727F",
"9 	c #2C6A76",
"0 	c #2C6875",
"a 	c #2F707C",
"b 	c #337987",
"c 	c #388494",
"d 	c #388392",
"e 	c #36808E",
"f 	c #337787",
"g 	c #2F6F7B",
"h 	c #30717E",
"i 	c #378291",
"j 	c #398594",
"k 	c #398595",
"l 	c #398694",
"m 	c #398392",
"n 	c #317381",
"o 	c #2A626D",
"p 	c #FFFFFF",
"q 	c #255862",
"r 	c #2C6874",
"s 	c #327683",
"t 	c #367D8D",
"u 	c #36818F",
"v 	c #357E8D",
"w 	c #327583",
"x 	c #2B6773",
"y 	c #255761",
"z 	c #29616C",
"A 	c #31727F",
"B 	c #357D8C",
"C 	c #388492",
"D 	c #398492",
"E 	c #397F8E",
"F 	c #388292",
"G 	c #347C8B",
"H 	c #2E6E7A",
"I 	c #22515B",
"J 	c #2B6470",
"K 	c #307280",
"L 	c #327785",
"M 	c #22505A",
"N 	c #2E6C79",
"O 	c #347A89",
"P 	c #377F8E",
"Q 	c #378190",
"R 	c #357B89",
"S 	c #2F6F7D",
"T 	c #275A65",
"U 	c #214D57",
"V 	c #295F69",
"W 	c #2C6572",
"X 	c #285E69",
"Y 	c #275A63",
"Z 	c #2F6E7A",
"` 	c #347A87",
" .	c #37818F",
"..	c #37808F",
"+.	c #378090",
"@.	c #126274",
"#.	c #116173",
"$.	c #116070",
"%.	c #105A69",
"&.	c #0D4E5B",
"*.	c #0A3E48",
"=.	c #09363F",
"-.	c #0A3B45",
";.	c #0B3F4A",
">.	c #0E505E",
",.	c #105C6D",
"'.	c #116474",
").	c #116778",
"!.	c #116577",
"~.	c #116678",
"{.	c #116779",
"].	c #106577",
"^.	c #106274",
"/.	c #0F5A69",
"(.	c #0A3F49",
"_.	c #072A31",
":.	c #0A414C",
"<.	c #0C5260",
"[.	c #0F606F",
"}.	c #106879",
"|.	c #0F6B7D",
"1.	c #116E7F",
"2.	c #106A7C",
"3.	c #0F7081",
"4.	c #0F6F81",
"5.	c #0E6D80",
"6.	c #106778",
"7.	c #0E5F6F",
"8.	c #0D5361",
"9.	c #0A424D",
"0.	c #094550",
"a.	c #0C5764",
"b.	c #0E6574",
"c.	c #0E6E7E",
"d.	c #0F7183",
"e.	c #107486",
"f.	c #0F7084",
"g.	c #0F7184",
"h.	c #0F7285",
"i.	c #0E778A",
"j.	c #0E778B",
"k.	c #0D7689",
"l.	c #0F7082",
"m.	c #0E6D7E",
"n.	c #0E6675",
"o.	c #0C5966",
"p.	c #094752",
"q.	c #094954",
"r.	c #0B5B6A",
"s.	c #0D6A7A",
"t.	c #0E7285",
"u.	c #0E7689",
"v.	c #0E788B",
"w.	c #0F7A8C",
"x.	c #0E7A8D",
"y.	c #0D7E92",
"z.	c #0E788A",
"A.	c #0E7789",
"B.	c #0E7385",
"C.	c #0D6C7D",
"D.	c #0A5F6E",
"E.	c #094F5B",
"F.	c #09505C",
"G.	c #0A616F",
"H.	c #0D7080",
"I.	c #0D7889",
"J.	c #0D7C8F",
"K.	c #0D7E91",
"L.	c #0E7F92",
"M.	c #0E8093",
"N.	c #0D8093",
"O.	c #0C8094",
"P.	c #0C8195",
"Q.	c #0C8599",
"R.	c #0C869A",
"S.	c #0E7E92",
"T.	c #0D7A8C",
"U.	c #0C7485",
"V.	c #0B6979",
"W.	c #0A606F",
"X.	c #095C6A",
"Y.	c #0A6B7A",
"Z.	c #0B7787",
"`.	c #0C7D8F",
" +	c #0C8395",
".+	c #0D8497",
"++	c #0D8598",
"@+	c #0D8699",
"#+	c #0D879A",
"$+	c #0C889C",
"%+	c #0C899C",
"&+	c #0C8CA1",
"*+	c #0B8DA1",
"=+	c #0D8698",
"-+	c #0C8498",
";+	c #0C7E8F",
">+	c #0A7A8B",
",+	c #0B7889",
"'+	c #0B7A8C",
")+	c #0C7F91",
"!+	c #0C8598",
"~+	c #0B889B",
"{+	c #0C8B9E",
"]+	c #0D8B9E",
"^+	c #0C8CA0",
"/+	c #0C8C9F",
"(+	c #0C8DA0",
"_+	c #0B8FA4",
":+	c #19788B",
"<+	c #0B93A8",
"[+	c #0B94A8",
"}+	c #0C8C9E",
"|+	c #0B8B9E",
"1+	c #0B8A9E",
"2+	c #0B8A9C",
"3+	c #0B8B9F",
"4+	c #0B8DA0",
"5+	c #0A8EA2",
"6+	c #0B90A4",
"7+	c #0C92A5",
"8+	c #0B91A5",
"9+	c #0C92A6",
"0+	c #0B93A7",
"a+	c #0A95AB",
"b+	c #197A8B",
"c+	c #212121",
"d+	c #585858",
"e+	c #232429",
"f+	c #232327",
"g+	c #222328",
"h+	c #1B1C1F",
"i+	c #000000",
"j+	c #52BECD",
"k+	c #51BDCC",
"l+	c #51BBCA",
"m+	c #50BAC8",
"n+	c #50BBC9",
"o+	c #51BCCB",
"p+	c #4FBAC8",
"q+	c #53BECE",
"r+	c #53BECD",
"s+	c #52BDCC",
"t+	c #51BBCB",
"u+	c #4FB7C7",
"v+	c #4DB2C0",
"w+	c #4BADBC",
"x+	c #4AADBB",
"y+	c #4CB1C0",
"z+	c #4FB8C6",
"A+	c #51BACA",
"B+	c #4FB7C5",
"C+	c #4CB1BF",
"D+	c #4AACBA",
"E+	c #4BADBB",
"F+	c #4EB7C6",
"G+	c #52BDCD",
"H+	c #50B8C7",
"I+	c #4BAEBC",
"J+	c #45A0AD",
"K+	c #4094A0",
"L+	c #3F939F",
"M+	c #439DA9",
"N+	c #49AAB8",
"O+	c #4EB4C3",
"P+	c #4FB9C8",
"Q+	c #4DB3C3",
"R+	c #449DA9",
"S+	c #3F929F",
"T+	c #3F94A0",
"U+	c #449FAD",
"V+	c #52BCCC",
"W+	c #51B9C9",
"X+	c #4EB3C2",
"Y+	c #47A2B0",
"Z+	c #3B8A96",
"`+	c #357C86",
" @	c #3F93A0",
".@	c #48A7B5",
"+@	c #4FB7C6",
"@@	c #4DB3C2",
"#@	c #3B8A95",
"$@	c #46A2AF",
"%@	c #4EB4C2",
"&@	c #52B9C9",
"*@	c #51B6C6",
"=@	c #4DAFBE",
"-@	c #449CA8",
";@	c #32747D",
">@	c #3E8F9C",
",@	c #46A4B1",
"'@	c #4AABB8",
")@	c #32737D",
"!@	c #439CA9",
"~@	c #4DB1C0",
"{@	c #50B6C6",
"]@	c #4CB0BF",
"^@	c #459FAD",
"/@	c #38838D",
"(@	c #307079",
"_@	c #3B8894",
":@	c #3B8994",
"<@	c #30707A",
"[@	c #38818D",
"}@	c #4DB1C1",
"|@	c #40ACBD",
"1@	c #3FABBC",
"2@	c #3EA7B7",
"3@	c #3A9DAC",
"4@	c #328996",
"5@	c #286C77",
"6@	c #235E68",
"7@	c #266771",
"8@	c #225E67",
"9@	c #276C77",
"0@	c #318895",
"a@	c #399CAB",
"b@	c #3DA7B7",
"c@	c #3FACBD",
"d@	c #40AEBE",
"e@	c #40AFBF",
"f@	c #3FACBC",
"g@	c #3CA9B9",
"h@	c #389CAC",
"i@	c #308795",
"j@	c #276C76",
"k@	c #19464D",
"l@	c #276B75",
"m@	c #318694",
"n@	c #389AAA",
"o@	c #40AEBF",
"p@	c #40ADBF",
"q@	c #40B0C0",
"r@	c #3FB2C3",
"s@	c #3EB0C1",
"t@	c #3CABBB",
"u@	c #379EAE",
"v@	c #308896",
"w@	c #266C77",
"x@	c #389CAB",
"y@	c #3EAEC0",
"z@	c #40B0C2",
"A@	c #3FB1C2",
"B@	c #40B1C2",
"C@	c #3FB2C5",
"D@	c #3FB3C5",
"E@	c #3FB6C7",
"F@	c #3DB5C7",
"G@	c #3EB3C5",
"H@	c #3BAEBE",
"I@	c #37A1B1",
"J@	c #308B98",
"K@	c #266F7A",
"L@	c #266F79",
"M@	c #2F8B98",
"N@	c #37A0AF",
"O@	c #3BACBD",
"P@	c #3EB1C2",
"Q@	c #3EB3C4",
"R@	c #3FB4C5",
"S@	c #3FB7C8",
"T@	c #3EB8CC",
"U@	c #3EB9CB",
"V@	c #3DB8CA",
"W@	c #3DB6C8",
"X@	c #3BB1C1",
"Y@	c #37A3B3",
"Z@	c #30909D",
"`@	c #287782",
" #	c #308F9C",
".#	c #38A2B2",
"+#	c #3CB0C0",
"@#	c #3EB4C6",
"##	c #3FB7C9",
"$#	c #3EBACC",
"%#	c #3EBBCC",
"&#	c #3EBDCD",
"*#	c #3EBCCE",
"=#	c #3DBBCD",
"-#	c #3DB9CA",
";#	c #3BB3C5",
">#	c #37A9B8",
",#	c #329AA8",
"'#	c #2E8C98",
")#	c #2C8592",
"!#	c #2E8B98",
"~#	c #3299A7",
"{#	c #37A8B8",
"]#	c #3BB2C4",
"^#	c #3DB7C9",
"/#	c #3DBACB",
"(#	c #3EBBCB",
"_#	c #3FBACB",
":#	c #3EBDD0",
"<#	c #3EBED0",
"[#	c #3EBFD2",
"}#	c #3EC0D1",
"|#	c #3DBFD1",
"1#	c #3DBFD0",
"2#	c #3CBCCD",
"3#	c #3CB9C9",
"4#	c #38B1C2",
"5#	c #37ACBB",
"6#	c #36A8B8",
"7#	c #37ABBB",
"8#	c #3CB8C8",
"9#	c #3DBBCC",
"0#	c #3EBECF",
"a#	c #3EBDCF",
"b#	c #3DBDCE",
"c#	c #3EBCCF",
"d#	c #3EBDCE",
"e#	c #3DC2D3",
"f#	c #43B6C7",
"g#	c #3DC2D5",
"h#	c #3DC2D4",
"i#	c #3DC1D3",
"j#	c #3CC0D1",
"k#	c #3CBDD0",
"l#	c #3BBCCF",
"m#	c #3BBBCC",
"n#	c #3CBCCE",
"o#	c #3CBDCF",
"p#	c #3CBFD1",
"q#	c #3EC0D3",
"r#	c #3EC1D3",
"s#	c #3DC0D2",
"t#	c #3DC4D7",
"u#	c #43B7C7",
". . + + + + + + + + + + . @ @ @ @ @ # # $ $ % % % % % % ",
"& * * = = - ; > > , ; = = = = = ' ; , ; ' ' ) = = = ! & ",
"& ~ ~ ) { ] ^ / ( _ : < ' [ } | 1 2 3 3 _ 1 4 5 { 5 = & ",
"& 6 6 ; 7 ( 8 9 0 a b ^ : c d e f g 0 0 h 3 i j 4 k l & ",
"& m m 7 2 n o p p q r s t u v w x y p p z A B ] C : D & ",
"& E E F G H p p p p I J K L 8 J M p p p p N O F i i m & ",
"& P P Q R S T p p p p U V W X U p p p p Y Z `  ...+.: & ",
"& @.@.#.$.%.&.*.p p p p =.-.=.p p p p ;.>.,.'.).!.~.~.& ",
"& {.{.{.].^./.&.(.p p p p _.p p p p :.<.[.}.|.1.2.2.2.& ",
"& 3.4.3.3.5.6.7.8.9.p p p p p p p 0.a.b.c.d.e.e.f.g.h.& ",
"& i.i.i.j.k.l.m.n.o.p.p p p p p q.r.s.t.u.v.w.w.x.x.x.& ",
"& y.y.y.y.y.z.A.B.C.D.E.p p p F.G.H.I.J.K.L.M.N.O.O.P.& ",
"& Q.Q.Q.Q.R.S.K.K.T.U.V.W.X.G.Y.Z.`. +.+++++@+#+$+$+%+& ",
"& &+&+&+&+*+++=+@+-+P.;+>+,+'+)+!+~+{+]+{+^+/+(+_+_+_+& ",
"& :+<+<+<+[+}+/+^+&+|+1+1+2+3+4+5+6+6+7+8+9+0+0+a+a+b+& ",
"c+& & & & & & & & & & & d+d+d+& & & & & & & & & & & & c+",
"e+e+e+e+e+e+e+e+e+e+e+e+e+e+e+e+e+e+e+e+e+e+e+e+e+e+e+e+",
"e+e+e+e+e+e+e+e+e+e+e+e+e+e+e+e+e+e+e+e+e+e+e+e+e+e+e+e+",
"e+e+e+e+e+e+e+e+e+e+e+e+e+e+e+e+e+e+e+e+e+e+e+e+e+e+e+e+",
"e+e+e+e+e+e+e+e+e+e+e+e+e+e+e+e+e+e+e+e+e+e+e+e+e+e+e+e+",
"e+e+e+e+e+e+e+e+e+e+e+e+e+e+e+e+e+e+e+e+e+e+e+e+e+e+e+e+",
"f+f+f+f+f+f+f+f+f+f+f+f+f+f+f+f+f+f+f+f+f+f+f+f+f+f+f+f+",
"g+g+g+g+g+g+g+g+g+g+g+g+g+g+g+g+g+g+g+g+g+g+g+g+g+g+g+g+",
"f+f+f+f+f+f+f+f+f+f+f+f+f+f+f+f+f+f+f+f+f+f+f+f+f+f+f+f+",
"g+g+g+g+g+g+g+g+g+g+g+g+g+g+g+g+g+g+g+g+g+g+g+g+g+g+g+g+",
"f+f+f+f+f+f+f+f+f+f+f+f+f+f+f+f+f+f+f+f+f+f+f+f+f+f+f+f+",
"h+h+h+h+h+h+h+h+h+h+h+h+h+h+h+h+h+h+h+h+h+h+h+h+h+h+h+h+",
"i+i+i+i+i+i+i+i+i+i+i+i+i+i+i+i+i+i+i+i+i+i+i+i+i+i+i+i+",
". . + + + + + + + + + + . @ @ @ @ @ # # $ $ % % % % % % ",
"& j+j+j+j+k+l+m+m+n+o+j+j+j+j+j+o+n+p+m+l+k+q+q+q+q+r+& ",
"& s+s+s+t+u+v+w+x+y+z+l+j+s+j+A+B+C+D+E+y+F+t+G+G+G+G+& ",
"& s+s+o+H+I+J+K+L+M+N+O+m+l+P+Q+N+R+S+T+U+I+H+s+s+s+s+& ",
"& V+V+W+X+Y+Z+p p `+ @.@X++@@@.@L+`+p p #@$@%@s+s+s+s+& ",
"& &@&@*@=@-@p p p p ;@>@,@'@,@>@)@p p p p !@~@s+V+V+V+& ",
"& W+W+{@]@^@/@p p p p (@_@L+:@<@p p p p [@^@}@V+V+V+V+& ",
"& |@|@1@2@3@4@5@p p p p 6@7@8@p p p p 9@0@a@b@c@c@d@d@& ",
"& e@e@e@f@g@h@i@j@p p p p k@p p p p l@m@n@b@1@o@p@q@q@& ",
"& r@r@r@r@s@t@u@v@w@p p p p p p p 9@0@x@g@y@z@A@B@C@D@& ",
"& E@E@E@E@F@G@H@I@J@K@p p p p p L@M@N@O@P@Q@R@R@R@S@S@& ",
"& T@T@T@T@U@V@W@X@Y@Z@`@p p p `@ #.#+#@#W@##S@S@S@$#%#& ",
"& &#&#&#&#*#*#=#-#;#>#,#'#)#!#~#{#]#^#/#(#$#$#U@_#:#<#& ",
"& [#[#[#[#}#|#|#1#2#3#4#5#6#7#4#8#9#0#a#a#a#b#c#d#e#e#& ",
"& f#g#g#g#h#h#h#h#i#j#k#l#m#n#o#p#q#r#s#s#s#s#s#|#t#u#& ",
"c+& & & & & & & & & & & d+d+d+& & & & & & & & & & & & c+",
"e+e+e+e+e+e+e+e+e+e+e+e+e+e+e+e+e+e+e+e+e+e+e+e+e+e+e+e+",
"e+e+e+e+e+e+e+e+e+e+e+e+e+e+e+e+e+e+e+e+e+e+e+e+e+e+e+e+",
"e+e+e+e+e+e+e+e+e+e+e+e+e+e+e+e+e+e+e+e+e+e+e+e+e+e+e+e+",
"e+e+e+e+e+e+e+e+e+e+e+e+e+e+e+e+e+e+e+e+e+e+e+e+e+e+e+e+",
"e+e+e+e+e+e+e+e+e+e+e+e+e+e+e+e+e+e+e+e+e+e+e+e+e+e+e+e+",
"f+f+f+f+f+f+f+f+f+f+f+f+f+f+f+f+f+f+f+f+f+f+f+f+f+f+f+f+",
"g+g+g+g+g+g+f+f+f+f+g+g+g+g+g+g+g+g+g+g+g+g+g+g+g+g+g+g+",
"f+f+f+f+f+f+f+f+f+f+f+f+f+f+f+f+f+f+f+f+f+f+f+f+f+f+f+f+",
"g+g+g+g+g+g+g+g+g+g+g+g+g+g+g+g+g+g+g+g+g+g+g+g+g+g+g+g+",
"h+h+h+h+h+h+h+h+h+h+h+h+h+h+h+h+h+h+h+h+h+h+h+h+h+h+h+h+"};
