/* XPM */
static char * minimizeI_xpm[] = {
"28 54 271 2",
"  	c None",
". 	c #0D1E2C",
"+ 	c #0D1E2D",
"@ 	c #0C1D2C",
"# 	c #0C1D2B",
"$ 	c #0C1C2A",
"% 	c #0B1C2A",
"& 	c #595959",
"* 	c #6A6A6A",
"= 	c #686868",
"- 	c #676767",
"; 	c #666666",
"> 	c #696969",
", 	c #656565",
"' 	c #626262",
") 	c #606060",
"! 	c #5F5F5F",
"~ 	c #646464",
"{ 	c #616161",
"] 	c #5E5E5E",
"^ 	c #575757",
"/ 	c #515151",
"( 	c #505050",
"_ 	c #555555",
": 	c #5D5D5D",
"< 	c #4B4B4B",
"[ 	c #FFFFFF",
"} 	c #434343",
"| 	c #5A5A5A",
"1 	c #4F4F4F",
"2 	c #4A4A4A",
"3 	c #585858",
"4 	c #636363",
"5 	c #545454",
"6 	c #3E3E3E",
"7 	c #4D4D4D",
"8 	c #5B5B5B",
"9 	c #535353",
"0 	c #565656",
"a 	c #464646",
"b 	c #3C3C3C",
"c 	c #494949",
"d 	c #484848",
"e 	c #454545",
"f 	c #424242",
"g 	c #404040",
"h 	c #343434",
"i 	c #292929",
"j 	c #242424",
"k 	c #272727",
"l 	c #2A2A2A",
"m 	c #363636",
"n 	c #444444",
"o 	c #1C1C1C",
"p 	c #2B2B2B",
"q 	c #3F3F3F",
"r 	c #474747",
"s 	c #373737",
"t 	c #2C2C2C",
"u 	c #383838",
"v 	c #414141",
"w 	c #4C4C4C",
"x 	c #393939",
"y 	c #2D2D2D",
"z 	c #2E2E2E",
"A 	c #3A3A3A",
"B 	c #323232",
"C 	c #4E4E4E",
"D 	c #525252",
"E 	c #212121",
"F 	c #232429",
"G 	c #232327",
"H 	c #222328",
"I 	c #1B1C1F",
"J 	c #000000",
"K 	c #52BECD",
"L 	c #51BDCC",
"M 	c #51BBCA",
"N 	c #50BAC8",
"O 	c #50BBC9",
"P 	c #51BCCB",
"Q 	c #4FBAC8",
"R 	c #53BECE",
"S 	c #53BECD",
"T 	c #52BDCC",
"U 	c #51BBCB",
"V 	c #4FB7C7",
"W 	c #4DB2C0",
"X 	c #4BADBC",
"Y 	c #4AADBB",
"Z 	c #4CB1C0",
"` 	c #4FB8C6",
" .	c #51BACA",
"..	c #4FB7C5",
"+.	c #4CB1BF",
"@.	c #4AACBA",
"#.	c #4BADBB",
"$.	c #4EB7C6",
"%.	c #52BDCD",
"&.	c #50B8C7",
"*.	c #4BAEBC",
"=.	c #45A0AD",
"-.	c #4094A0",
";.	c #3F939F",
">.	c #439DA9",
",.	c #49AAB8",
"'.	c #4EB4C3",
").	c #4FB9C8",
"!.	c #4DB3C3",
"~.	c #449DA9",
"{.	c #3F929F",
"].	c #3F94A0",
"^.	c #449FAD",
"/.	c #52BCCC",
"(.	c #51B9C9",
"_.	c #4EB3C2",
":.	c #47A2B0",
"<.	c #3B8A96",
"[.	c #357C86",
"}.	c #3F93A0",
"|.	c #48A7B5",
"1.	c #4FB7C6",
"2.	c #4DB3C2",
"3.	c #3B8A95",
"4.	c #46A2AF",
"5.	c #4EB4C2",
"6.	c #52B9C9",
"7.	c #51B6C6",
"8.	c #4DAFBE",
"9.	c #449CA8",
"0.	c #32747D",
"a.	c #3E8F9C",
"b.	c #46A4B1",
"c.	c #4AABB8",
"d.	c #32737D",
"e.	c #439CA9",
"f.	c #4DB1C0",
"g.	c #50B6C6",
"h.	c #4CB0BF",
"i.	c #459FAD",
"j.	c #38838D",
"k.	c #307079",
"l.	c #3B8894",
"m.	c #3B8994",
"n.	c #30707A",
"o.	c #38818D",
"p.	c #4DB1C1",
"q.	c #40ACBD",
"r.	c #3FABBC",
"s.	c #3EA7B7",
"t.	c #3A9DAC",
"u.	c #328996",
"v.	c #286C77",
"w.	c #235E68",
"x.	c #266771",
"y.	c #225E67",
"z.	c #276C77",
"A.	c #318895",
"B.	c #399CAB",
"C.	c #3DA7B7",
"D.	c #3FACBD",
"E.	c #40AEBE",
"F.	c #40AFBF",
"G.	c #3FACBC",
"H.	c #3CA9B9",
"I.	c #389CAC",
"J.	c #308795",
"K.	c #276C76",
"L.	c #19464D",
"M.	c #276B75",
"N.	c #318694",
"O.	c #389AAA",
"P.	c #40AEBF",
"Q.	c #40ADBF",
"R.	c #40B0C0",
"S.	c #3FB2C3",
"T.	c #3EB0C1",
"U.	c #3CABBB",
"V.	c #379EAE",
"W.	c #308896",
"X.	c #266C77",
"Y.	c #389CAB",
"Z.	c #3EAEC0",
"`.	c #40B0C2",
" +	c #3FB1C2",
".+	c #40B1C2",
"++	c #3FB2C5",
"@+	c #3FB3C5",
"#+	c #3FB6C7",
"$+	c #3DB5C7",
"%+	c #3EB3C5",
"&+	c #3BAEBE",
"*+	c #37A1B1",
"=+	c #308B98",
"-+	c #266F7A",
";+	c #266F79",
">+	c #2F8B98",
",+	c #37A0AF",
"'+	c #3BACBD",
")+	c #3EB1C2",
"!+	c #3EB3C4",
"~+	c #3FB4C5",
"{+	c #3FB7C8",
"]+	c #3EB8CC",
"^+	c #3EB9CB",
"/+	c #3DB8CA",
"(+	c #3DB6C8",
"_+	c #3BB1C1",
":+	c #37A3B3",
"<+	c #30909D",
"[+	c #287782",
"}+	c #308F9C",
"|+	c #38A2B2",
"1+	c #3CB0C0",
"2+	c #3EB4C6",
"3+	c #3FB7C9",
"4+	c #3EBACC",
"5+	c #3EBBCC",
"6+	c #3EBDCD",
"7+	c #3EBCCE",
"8+	c #3DBBCD",
"9+	c #3DB9CA",
"0+	c #3BB3C5",
"a+	c #37A9B8",
"b+	c #329AA8",
"c+	c #2E8C98",
"d+	c #2C8592",
"e+	c #2E8B98",
"f+	c #3299A7",
"g+	c #37A8B8",
"h+	c #3BB2C4",
"i+	c #3DB7C9",
"j+	c #3DBACB",
"k+	c #3EBBCB",
"l+	c #3FBACB",
"m+	c #3EBDD0",
"n+	c #3EBED0",
"o+	c #3EBFD2",
"p+	c #3EC0D1",
"q+	c #3DBFD1",
"r+	c #3DBFD0",
"s+	c #3CBCCD",
"t+	c #3CB9C9",
"u+	c #38B1C2",
"v+	c #37ACBB",
"w+	c #36A8B8",
"x+	c #37ABBB",
"y+	c #3CB8C8",
"z+	c #3DBBCC",
"A+	c #3EBECF",
"B+	c #3EBDCF",
"C+	c #3DBDCE",
"D+	c #3EBCCF",
"E+	c #3EBDCE",
"F+	c #3DC2D3",
"G+	c #43B6C7",
"H+	c #3DC2D5",
"I+	c #3DC2D4",
"J+	c #3DC1D3",
"K+	c #3CC0D1",
"L+	c #3CBDD0",
"M+	c #3BBCCF",
"N+	c #3BBBCC",
"O+	c #3CBCCE",
"P+	c #3CBDCF",
"Q+	c #3CBFD1",
"R+	c #3EC0D3",
"S+	c #3EC1D3",
"T+	c #3DC0D2",
"U+	c #3DC4D7",
"V+	c #43B7C7",
". . + + + + + + + + + + . @ @ @ @ @ # # $ $ % % % % % % ",
"& * * = = - - ; ; ; - = = = = = = - ; - = = > = = = * & ",
"& = = > - , ' ) ! ' , - = = > ; ~ { ] ] ' ~ ; = - = = & ",
"& ; ; - , ! ^ / ( _ : ' , ; , ' : _ ( ( ^ ] ~ ; ; - ; & ",
"& , , , { & < [ [ } ( | { ' { | 1 } [ [ 2 3 ) , , , , & ",
"& 4 4 , ! 5 [ [ [ [ 6 7 3 8 ^ 7 6 [ [ [ [ 9 ] , ~ ~ , & ",
"& ' ' 4 ! 0 a [ [ [ [ b c 1 d b [ [ [ [ e 5 : 4 4 4 , & ",
"& } } f g b h i [ [ [ [ j k j [ [ [ [ l m 6 f n n n n & ",
"& e e e } f b h i [ [ [ [ o [ [ [ [ p m q n a d a a a & ",
"& d d d d r n 6 s p [ [ [ [ [ [ [ t u v a c < < c c 2 & ",
"& w w w w < d a v x y [ [ [ [ [ z A } c < w 7 7 7 7 7 & ",
"& 1 1 1 1 1 w < c e b B [ [ [ B b a < C 1 ( ( ( ( ( ( & ",
"& D D D D 9 ( 1 1 w d f b x b f c 7 ( D D D 9 9 5 5 5 & ",
"& 0 0 0 0 0 D D 9 D ( 7 2 2 < C D 9 _ _ _ 0 _ 0 ^ ^ ^ & ",
"& D & & & & _ _ 0 0 5 5 5 9 _ _ 0 ^ ^ 3 3 & & & | | D & ",
"E & & & & & & & & & & & 3 3 3 & & & & & & & & & & & & E ",
"F F F F F F F F F F F F F F F F F F F F F F F F F F F F ",
"F F F F F F F F F F F F F F F F F F F F F F F F F F F F ",
"F F F F F F F F F F F F F F F F F F F F F F F F F F F F ",
"F F F F F F F F F F F F F F F F F F F F F F F F F F F F ",
"F F F F F F F F F F F F F F F F F F F F F F F F F F F F ",
"G G G G G G G G G G G G G G G G G G G G G G G G G G G G ",
"H H H H H H H H H H H H H H H H H H H H H H H H H H H H ",
"G G G G G G G G G G G G G G G G G G G G G G G G G G G G ",
"H H H H H H H H H H H H H H H H H H H H H H H H H H H H ",
"G G G G G G G G G G G G G G G G G G G G G G G G G G G G ",
"I I I I I I I I I I I I I I I I I I I I I I I I I I I I ",
"J J J J J J J J J J J J J J J J J J J J J J J J J J J J ",
". . + + + + + + + + + + . @ @ @ @ @ # # $ $ % % % % % % ",
"& K K K K L M N N O P K K K K K P O Q N M L R R R R S & ",
"& T T T U V W X Y Z ` M K T K  ...+.@.#.Z $.U %.%.%.%.& ",
"& T T P &.*.=.-.;.>.,.'.N M ).!.,.~.{.].^.*.&.T T T T & ",
"& /./.(._.:.<.[ [ [.}.|._.1.2.|.;.[.[ [ 3.4.5.T T T T & ",
"& 6.6.7.8.9.[ [ [ [ 0.a.b.c.b.a.d.[ [ [ [ e.f.T /././.& ",
"& (.(.g.h.i.j.[ [ [ [ k.l.;.m.n.[ [ [ [ o.i.p././././.& ",
"& q.q.r.s.t.u.v.[ [ [ [ w.x.y.[ [ [ [ z.A.B.C.D.D.E.E.& ",
"& F.F.F.G.H.I.J.K.[ [ [ [ L.[ [ [ [ M.N.O.C.r.P.Q.R.R.& ",
"& S.S.S.S.T.U.V.W.X.[ [ [ [ [ [ [ z.A.Y.H.Z.`. +.+++@+& ",
"& #+#+#+#+$+%+&+*+=+-+[ [ [ [ [ ;+>+,+'+)+!+~+~+~+{+{+& ",
"& ]+]+]+]+^+/+(+_+:+<+[+[ [ [ [+}+|+1+2+(+3+{+{+{+4+5+& ",
"& 6+6+6+6+7+7+8+9+0+a+b+c+d+e+f+g+h+i+j+k+4+4+^+l+m+n+& ",
"& o+o+o+o+p+q+q+r+s+t+u+v+w+x+u+y+z+A+B+B+B+C+D+E+F+F+& ",
"& G+H+H+H+I+I+I+I+J+K+L+M+N+O+P+Q+R+S+T+T+T+T+T+q+U+V+& ",
"E & & & & & & & & & & & 3 3 3 & & & & & & & & & & & & E ",
"F F F F F F F F F F F F F F F F F F F F F F F F F F F F ",
"F F F F F F F F F F F F F F F F F F F F F F F F F F F F ",
"F F F F F F F F F F F F F F F F F F F F F F F F F F F F ",
"F F F F F F F F F F F F F F F F F F F F F F F F F F F F ",
"F F F F F F F F F F F F F F F F F F F F F F F F F F F F ",
"G G G G G G G G G G G G G G G G G G G G G G G G G G G G ",
"H H H H H H G G G G H H H H H H H H H H H H H H H H H H ",
"G G G G G G G G G G G G G G G G G G G G G G G G G G G G ",
"H H H H H H H H H H H H H H H H H H H H H H H H H H H H ",
"I I I I I I I I I I I I I I I I I I I I I I I I I I I I "};
