/* XPM */
static char * restoreI_xpm[] = {
"28 54 269 2",
"  	c None",
". 	c #0D1E2C",
"+ 	c #0D1E2D",
"@ 	c #0C1D2C",
"# 	c #0C1D2B",
"$ 	c #0C1C2A",
"% 	c #0B1C2A",
"& 	c #595959",
"* 	c #6A6A6A",
"= 	c #686868",
"- 	c #676767",
"; 	c #666666",
"> 	c #656565",
", 	c #696969",
"' 	c #616161",
") 	c #5D5D5D",
"! 	c #5C5C5C",
"~ 	c #5E5E5E",
"{ 	c #606060",
"] 	c #646464",
"^ 	c #626262",
"/ 	c #545454",
"( 	c #4C4C4C",
"_ 	c #494949",
": 	c #5A5A5A",
"< 	c #4F4F4F",
"[ 	c #414141",
"} 	c #FFFFFF",
"| 	c #4E4E4E",
"1 	c #636363",
"2 	c #4D4D4D",
"3 	c #3E3E3E",
"4 	c #3D3D3D",
"5 	c #585858",
"6 	c #5F5F5F",
"7 	c #3C3C3C",
"8 	c #434343",
"9 	c #404040",
"0 	c #3A3A3A",
"a 	c #323232",
"b 	c #282828",
"c 	c #1A1A1A",
"d 	c #2A2A2A",
"e 	c #343434",
"f 	c #424242",
"g 	c #444444",
"h 	c #454545",
"i 	c #353535",
"j 	c #2B2B2B",
"k 	c #252525",
"l 	c #292929",
"m 	c #262626",
"n 	c #2C2C2C",
"o 	c #383838",
"p 	c #484848",
"q 	c #464646",
"r 	c #313131",
"s 	c #333333",
"t 	c #3F3F3F",
"u 	c #474747",
"v 	c #4B4B4B",
"w 	c #4A4A4A",
"x 	c #2E2E2E",
"y 	c #393939",
"z 	c #505050",
"A 	c #525252",
"B 	c #515151",
"C 	c #535353",
"D 	c #565656",
"E 	c #555555",
"F 	c #575757",
"G 	c #212121",
"H 	c #232429",
"I 	c #232327",
"J 	c #222328",
"K 	c #1B1C1F",
"L 	c #000000",
"M 	c #52BECD",
"N 	c #51BCCB",
"O 	c #50BBC9",
"P 	c #50B9C8",
"Q 	c #4FB8C6",
"R 	c #51BECD",
"S 	c #53BECE",
"T 	c #53BECD",
"U 	c #52BDCC",
"V 	c #52BDCD",
"W 	c #51BACA",
"X 	c #4CB1BF",
"Y 	c #49ABB8",
"Z 	c #48A7B4",
"` 	c #4CB0BF",
" .	c #4FB7C5",
"..	c #51BAC9",
"+.	c #51BDCD",
"@.	c #51BDCC",
"#.	c #4DB4C3",
"$.	c #49AAB8",
"%.	c #439AA7",
"&.	c #3D8C98",
"*.	c #3A8691",
"=.	c #3C8C98",
"-.	c #429AA7",
";.	c #4EB4C3",
">.	c #51B9C9",
",.	c #50BBCB",
"'.	c #51BCCC",
").	c #52BCCC",
"!.	c #4EB3C2",
"~.	c #3F929F",
"{.	c #357984",
"].	c #347984",
"^.	c #3F929E",
"/.	c #4DB3C2",
"(.	c #50B8C9",
"_.	c #50BBCA",
":.	c #52B9C9",
"<.	c #52BACA",
"[.	c #47A6B3",
"}.	c #3E909C",
"|.	c #31737C",
"1.	c #47A5B3",
"2.	c #4DB2C2",
"3.	c #50B8C8",
"4.	c #50BACA",
"5.	c #50B7C7",
"6.	c #48A5B3",
"7.	c #3E8F9C",
"8.	c #31727C",
"9.	c #31717B",
"0.	c #4DB1C2",
"a.	c #52BBCC",
"b.	c #40ACBD",
"c.	c #3FA9BA",
"d.	c #3DA6B6",
"e.	c #389AA9",
"f.	c #318492",
"g.	c #276A74",
"h.	c #1A454C",
"i.	c #266974",
"j.	c #308492",
"k.	c #3899A8",
"l.	c #3CA5B5",
"m.	c #3EA9BA",
"n.	c #3FACBD",
"o.	c #40AEBE",
"p.	c #40AFBF",
"q.	c #3FAEBE",
"r.	c #3EAAB9",
"s.	c #39A0AF",
"t.	c #318B99",
"u.	c #276F79",
"v.	c #226069",
"w.	c #256973",
"x.	c #236069",
"y.	c #286D79",
"z.	c #328997",
"A.	c #3A9EAD",
"B.	c #3EA9B9",
"C.	c #40AEBF",
"D.	c #40ADBF",
"E.	c #40B0C0",
"F.	c #3FB2C3",
"G.	c #3EAFC0",
"H.	c #3BA8B9",
"I.	c #3699A8",
"J.	c #2B7C88",
"K.	c #266B75",
"L.	c #2E828F",
"M.	c #318C99",
"N.	c #2B7B87",
"O.	c #3698A7",
"P.	c #3CA7B8",
"Q.	c #3FB1C2",
"R.	c #40B1C2",
"S.	c #3FB2C5",
"T.	c #3FB3C5",
"U.	c #3FB6C7",
"V.	c #3EB3C4",
"W.	c #3BABBB",
"X.	c #3398A7",
"Y.	c #26707B",
"Z.	c #308B98",
"`.	c #369EAE",
" +	c #39A4B5",
".+	c #379EAD",
"++	c #27707A",
"@+	c #3496A4",
"#+	c #3BA9B9",
"$+	c #3FB4C5",
"%+	c #3FB7C8",
"&+	c #3EB8CC",
"*+	c #3DB5C9",
"=+	c #3BAFC2",
"-+	c #35A0AF",
";+	c #2D8895",
">+	c #297985",
",+	c #30919E",
"'+	c #38A4B3",
")+	c #3BAFC0",
"!+	c #3CB2C4",
"~+	c #3BAFBF",
"{+	c #37A3B3",
"]+	c #30909D",
"^+	c #2D8694",
"/+	c #3CAEBE",
"(+	c #3EBACC",
"_+	c #3EBBCC",
":+	c #3EBDCD",
"<+	c #3DBCCC",
"[+	c #3CB8C8",
"}+	c #39ADBE",
"|+	c #349FAF",
"1+	c #3094A2",
"2+	c #30929F",
"3+	c #339CAB",
"4+	c #37A9B8",
"5+	c #3BB3C4",
"6+	c #3DB9C9",
"7+	c #3DB9CB",
"8+	c #3DB8C9",
"9+	c #3BB2C3",
"0+	c #37A8B8",
"a+	c #339BAA",
"b+	c #30919F",
"c+	c #3093A0",
"d+	c #349FAC",
"e+	c #39ACBC",
"f+	c #3CB5C7",
"g+	c #3EB9CB",
"h+	c #3FBACB",
"i+	c #3EBDD0",
"j+	c #3EBED0",
"k+	c #3EBFD2",
"l+	c #3DBDD0",
"m+	c #3CBACB",
"n+	c #39B3C4",
"o+	c #37AFBF",
"p+	c #37AEBE",
"q+	c #39B3C2",
"r+	c #3CB9C9",
"s+	c #3CBBCD",
"t+	c #3EBFD0",
"u+	c #3DBED0",
"v+	c #3AB2C2",
"w+	c #38ADBD",
"x+	c #3AB1C2",
"y+	c #3CB7C9",
"z+	c #3CBBCC",
"A+	c #3EBCCF",
"B+	c #3EBDCE",
"C+	c #3DC2D3",
"D+	c #43B6C7",
"E+	c #3DC2D5",
"F+	c #3CC1D3",
"G+	c #3CBFD1",
"H+	c #3BBECF",
"I+	c #3CBDCF",
"J+	c #3CC0D1",
"K+	c #3DC1D4",
"L+	c #3EC1D3",
"M+	c #3DC1D3",
"N+	c #3DBCCF",
"O+	c #3CBDCE",
"P+	c #3BBCCD",
"Q+	c #3DC0D2",
"R+	c #3DBFD1",
"S+	c #3DC4D7",
"T+	c #43B7C7",
". . + + + + + + + + + + . @ @ @ @ @ # # $ $ % % % % % % ",
"& * * = = = = = = = - ; > > > ; = , , , , , , = = = * & ",
"& = = , , , , , , - > ' ) ! ~ { ] - = - = = - = - = = & ",
"& ; ; = = - - ; ; ^ ) / ( _ ( / ) ^ ; ; - - - ; ; - ; & ",
"& > > ; - - ; > ' : < [ } } } [ | & ' ] ] ; > > > > > & ",
"& 1 1 ; ; ] ] ' : 2 3 } } } } } 4 2 5 6 1 1 > > ] ] > & ",
"& ^ ^ > ] 1 6 5 2 4 } } } } } } } 7 ( 5 ~ ' 1 1 1 1 > & ",
"& 8 8 8 [ 9 0 a b } } } } c } } } } d e 7 f 8 g g g g & ",
"& h h g f 3 i j } } } } k l m } } } } n o 9 h p q q q & ",
"& p p q g 4 r } } } } j e o i n } } } } s t u v _ _ w & ",
"& ( ( w u t } } } } x y [ g [ 0 x } } } } 9 p 2 2 2 2 & ",
"& < < | v g o } } s 7 h _ ( v h 4 e } } 0 h ( z z z z & ",
"& A A B z ( 8 t 3 f p 2 < < < 2 _ 8 t [ q ( z C / / / & ",
"& D D D E C 2 v v | z A C / / C A < 2 2 < C / D F F F & ",
"& A & & & 5 C C C / / D F F F F D E E D D 5 & & : : A & ",
"G & & & & & & & & & & & & & & & & & & & & & & & & & & G ",
"H H H H H H H H H H H H H H H H H H H H H H H H H H H H ",
"H H H H H H H H H H H H H H H H H H H H H H H H H H H H ",
"H H H H H H H H H H H H H H H H H H H H H H H H H H H H ",
"H H H H H H H H H H H H H H H H H H H H H H H H H H H H ",
"H H H H H H H H H H H H H H H H H H H H H H H H H H H H ",
"I I I I I I I I I I I I I I I I I I I I I I I I I I I I ",
"J J J J J J J J J J J J J J J J J J J J J J J J J J J J ",
"H H H H H H H H H H H H H H H H H H H H H H H H H H H H ",
"J J J J J J J J J J J J J J J J J J J J J J J J J J J J ",
"H H H H H H H H H H H H H H H H H H H H H H H H H H H H ",
"K K K K K K K K K K K K K K K K K K K K K K K K K K K K ",
"L L L L L L L L L L L L L L L L L L L L L L L L L L L L ",
". . + + + + + + + + + + . @ @ @ @ @ # # $ $ % % % % % % ",
"& M M M M M M M M M N O P Q P O N M R M M M S S S S T & ",
"& U U U V V M V M W Q X Y Z Y `  ...U U +.@.V V V V V & ",
"& U U U U U U N ..#.$.%.&.*.=.-.$.;.>.,.'.U U U U U U & ",
"& ).).).).).,.>.!.Z ~.{.} } } ].^.Z /.(._.N U U U U U & ",
"& :.:.:.<...P /.[.}.|.} } } } } |.}.1.2.3.4.U U ).).).& ",
"& >.>.>.W 5./.6.7.8.} } } } } } } 9.7.1.0.5.a.).).).).& ",
"& b.b.b.c.d.e.f.g.} } } } h.} } } } i.j.k.l.m.n.n.o.o.& ",
"& p.p.q.r.s.t.u.} } } } v.w.x.} } } } y.z.A.B.C.D.E.E.& ",
"& F.F.G.H.I.J.} } } } K.L.M.L.K.} } } } N.O.P.Q.R.S.T.& ",
"& U.U.V.W.X.} } } } Y.Z.`. +.+Z.++} } } } @+#+$+$+%+%+& ",
"& &+&+*+=+-+;+} } >+,+'+)+!+~+{+]+>+} } ^+`./+%+%+(+_+& ",
"& :+:+<+[+}+|+1+2+3+4+5+6+7+8+9+0+a+b+c+d+e+f+g+h+i+j+& ",
"& k+k+k+l+m+n+o+p+q+r+s+t+j+u+s+[+v+w+w+x+y+z+A+B+C+C+& ",
"& D+E+E+E+F+G+H+H+I+J+K+K+C+L+M+G+N+O+P+I+G+Q+Q+R+S+T+& ",
"G & & & & & & & & & & & & & & & & & & & & & & & & & & G ",
"H H H H H H H H H H H H H H H H H H H H H H H H H H H H ",
"H H H H H H H H H H H H H H H H H H H H H H H H H H H H ",
"H H H H H H H H H H H H H H H H H H H H H H H H H H H H ",
"H H H H H H H H H H H H H H H H H H H H H H H H H H H H ",
"H H H H H H H H H H H H H H H H H H H H H H H H H H H H ",
"I I I I I I I I I I I I I I I I I I I I I I I I I I I I ",
"J J J J J J J J J J J J J J J J J H H H H H H H H H H J ",
"H H H H H H H H H H H H H H H H H H H H H H H H H H H H ",
"J J J J J J J J J J J J J J J J J J J J J J J J J J J J ",
"K K K K K K K K K K K K K K K K K K K K K K K K K K K K "};
