/* XPM */
static char * titleAM_xpm[] = {
"4 27 17 1",
" 	c None",
".	c #000000",
"+	c #5D5D5F",
"@	c #5F6063",
"#	c #5A5B5E",
"$	c #56575A",
"%	c #525356",
"&	c #4F5053",
"*	c #4C4D50",
"=	c #4A4B4E",
"-	c #494A4D",
";	c #3E3F42",
">	c #24252A",
",	c #232429",
"'	c #232327",
")	c #222328",
"!	c #1B1C1F",
"....",
"++++",
"@@@@",
"++++",
"####",
"$$$$",
"%%%%",
"&&&&",
"****",
"====",
"----",
"----",
";;;;",
">>>>",
",,,,",
",,,,",
",,,,",
",,,,",
">>>>",
",,,,",
",,,,",
",,,,",
",,,,",
",,,,",
"''''",
"))))",
"!!!!"};
