/* XPM */
static char * desktop_xpm[] = {
"18 18 129 2",
"  	c None",
". 	c #0F7305",
"+ 	c #138706",
"@ 	c #106C06",
"# 	c #0B7000",
"$ 	c #0D8100",
"% 	c #23A515",
"& 	c #127F06",
"* 	c #0C8100",
"= 	c #0D8700",
"- 	c #1CA50E",
"; 	c #158C09",
"> 	c #0F9700",
", 	c #0E9000",
"' 	c #19A70B",
") 	c #1C9310",
"! 	c #15A606",
"~ 	c #0F9C01",
"{ 	c #1AA90B",
"] 	c #269B1A",
"^ 	c #1EAE0F",
"/ 	c #14A505",
"( 	c #1AAA0B",
"_ 	c #2D9F22",
": 	c #26B717",
"< 	c #19AA0A",
"[ 	c #1BAA0C",
"} 	c #6F976B",
"| 	c #6FAE68",
"1 	c #264423",
"2 	c #319F25",
"3 	c #2FC020",
"4 	c #1CAC0D",
"5 	c #1CA70D",
"6 	c #40CB32",
"7 	c #4AD43B",
"8 	c #6A8268",
"9 	c #C5FFBF",
"0 	c #A0FF96",
"a 	c #73DE68",
"b 	c #1D3719",
"c 	c #339D27",
"d 	c #36C627",
"e 	c #1DAE0E",
"f 	c #1BA40D",
"g 	c #37C629",
"h 	c #44D434",
"i 	c #50E041",
"j 	c #4DD63F",
"k 	c #7C9E78",
"l 	c #BEFFB7",
"m 	c #9BFF90",
"n 	c #78FE6A",
"o 	c #5ACC4E",
"p 	c #174213",
"q 	c #34A229",
"r 	c #22B213",
"s 	c #199F0B",
"t 	c #0F6F06",
"u 	c #2BB21C",
"v 	c #34C425",
"w 	c #40D131",
"x 	c #4CDC3D",
"y 	c #59DC4B",
"z 	c #77B170",
"A 	c #A0F397",
"B 	c #8DFF81",
"C 	c #6FFC60",
"D 	c #5EEF4F",
"E 	c #4EC941",
"F 	c #49CE3C",
"G 	c #33C424",
"H 	c #24B515",
"I 	c #21AB12",
"J 	c #28B219",
"K 	c #25B516",
"L 	c #30C021",
"M 	c #3CCC2D",
"N 	c #48D839",
"O 	c #2FB321",
"P 	c #49BA3E",
"Q 	c #7BFB6E",
"R 	c #65F656",
"S 	c #57E848",
"T 	c #4ADA3B",
"U 	c #2EBF1F",
"V 	c #21B212",
"W 	c #26B317",
"X 	c #16A607",
"Y 	c #1FB010",
"Z 	c #2BBB1C",
"` 	c #37C728",
" .	c #2BA71E",
"..	c #6DE360",
"+.	c #63EE55",
"@.	c #4EDF3F",
"#.	c #41D232",
"$.	c #34C424",
"%.	c #27B818",
"&.	c #1BAC0C",
"*.	c #119F02",
"=.	c #27B718",
"-.	c #25951A",
";.	c #78E96C",
">.	c #49D73A",
",.	c #2ABB1B",
"'.	c #17A707",
").	c #1BAB0C",
"!.	c #14A005",
"~.	c #15A506",
"{.	c #1F8414",
"].	c #52D144",
"^.	c #2FBE20",
"/.	c #1FAF10",
"(.	c #19A90A",
"_.	c #1BA80C",
":.	c #18750F",
"<.	c #2EAE21",
"[.	c #14A406",
"}.	c #10A001",
"|.	c #13A304",
"1.	c #17A808",
"2.	c #208116",
"3.	c #2B9220",
"4.	c #14A205",
"5.	c #12A303",
"6.	c #1E8614",
"7.	c #38992E",
"8.	c #196012",
"                . +                 ",
"              @ # $ %               ",
"              & * = -               ",
"              ; > , '               ",
"              ) ! ~ {               ",
"              ] ^ / (               ",
"              _ : < [               ",
"    } | 1     2 3 4 5       6 7     ",
"  8 9 0 a b   c d e f     g h i j   ",
"  k l m n o p q d r s t u v w x y   ",
"  z A B C D E F G H I J K L M N O   ",
"    P Q R S T 7 U V W X Y Z `  .    ",
"      ..+.@.#.$.%.&.{ *.( =.-.      ",
"        ;.>.` ,.^ '.).!.~.{.        ",
"          ].^././ / (._.:.          ",
"            <.[.}.|.1.2.            ",
"              3.4.5.6.              ",
"                7.8.                "};
