/* XPM */
static char * start_xpm[] = {
"39 22 212 2",
"  	c None",
". 	c #27221F",
"+ 	c #26221F",
"@ 	c #27211F",
"# 	c #28201E",
"$ 	c #2B2322",
"% 	c #2B2523",
"& 	c #381918",
"* 	c #520505",
"= 	c #570606",
"- 	c #5B0606",
"; 	c #590606",
"> 	c #31201E",
", 	c #2C2321",
"' 	c #2C2623",
") 	c #2F2928",
"! 	c #3A201E",
"~ 	c #560505",
"{ 	c #610606",
"] 	c #750808",
"^ 	c #AE0B0B",
"/ 	c #E00F0F",
"( 	c #D90E0E",
"_ 	c #A00B0B",
": 	c #790808",
"< 	c #650606",
"[ 	c #342523",
"} 	c #2F2A28",
"| 	c #37312F",
"1 	c #402322",
"2 	c #950A0A",
"3 	c #F03131",
"4 	c #F46767",
"5 	c #F35C5C",
"6 	c #F13838",
"7 	c #F35050",
"8 	c #F35A5A",
"9 	c #EF1A1A",
"0 	c #860909",
"a 	c #5F0606",
"b 	c #3D2826",
"c 	c #36302F",
"d 	c #3A3533",
"e 	c #462725",
"f 	c #A80B0B",
"g 	c #F46161",
"h 	c #F46B6B",
"i 	c #EE1515",
"j 	c #BE0D0D",
"k 	c #CD0E0E",
"l 	c #CB0E0E",
"m 	c #A40B0B",
"n 	c #E40F0F",
"o 	c #F35E5E",
"p 	c #F35656",
"q 	c #910A0A",
"r 	c #452D2B",
"s 	c #403C39",
"t 	c #482A27",
"u 	c #F35858",
"v 	c #F46565",
"w 	c #E80F0F",
"x 	c #F14242",
"y 	c #F57676",
"z 	c #F35252",
"A 	c #F24949",
"B 	c #F24747",
"C 	c #EE1111",
"D 	c #F24F4F",
"E 	c #810808",
"F 	c #630606",
"G 	c #462E2C",
"H 	c #423B39",
"I 	c #47423F",
"J 	c #4E0505",
"K 	c #F02D2D",
"L 	c #F57070",
"M 	c #F02727",
"N 	c #E91010",
"O 	c #EF2424",
"P 	c #E20F0F",
"Q 	c #F03333",
"R 	c #E60F0F",
"S 	c #5A0B0A",
"T 	c #48423E",
"U 	c #4A2927",
"V 	c #470404",
"W 	c #770808",
"X 	c #F35454",
"Y 	c #EF2222",
"Z 	c #C40D0D",
"` 	c #F02F2F",
" .	c #EF2020",
"..	c #EF1C1C",
"+.	c #F13A3A",
"@.	c #F56E6E",
"#.	c #F24D4D",
"$.	c #7F0808",
"%.	c #590908",
"&.	c #4F3634",
"*.	c #544F4D",
"=.	c #F46D6D",
"-.	c #F14040",
";.	c #DE0F0F",
">.	c #511111",
",.	c #55504D",
"'.	c #5B5755",
").	c #490707",
"!.	c #F67D7D",
"~.	c #F57474",
"{.	c #DC0F0F",
"].	c #500505",
"^.	c #521614",
"/.	c #5B5655",
"(.	c #635E5B",
"_.	c #F46969",
":.	c #F13434",
"<.	c #F57878",
"[.	c #F57272",
"}.	c #5C2421",
"|.	c #635D5B",
"1.	c #6B6562",
"2.	c #D70E0E",
"3.	c #ED1010",
"4.	c #F57A7A",
"5.	c #F24545",
"6.	c #CF0E0E",
"7.	c #4A0505",
"8.	c #5F2421",
"9.	c #6C6663",
"0.	c #726B69",
"a.	c #490808",
"b.	c #8C0909",
"c.	c #F46363",
"d.	c #930A0A",
"e.	c #4C0505",
"f.	c #61342F",
"g.	c #716B6A",
"h.	c #796F6D",
"i.	c #5E2D2A",
"j.	c #F24B4B",
"k.	c #F45F5F",
"l.	c #EE1313",
"m.	c #EB1010",
"n.	c #560907",
"o.	c #714D4B",
"p.	c #7B6D6B",
"q.	c #807371",
"r.	c #6A231A",
"s.	c #F02929",
"t.	c #712D23",
"u.	c #857D7C",
"v.	c #815C54",
"w.	c #BB0C0C",
"x.	c #F02525",
"y.	c #B70C0C",
"z.	c #85625B",
"A.	c #847E7D",
"B.	c #8B8281",
"C.	c #8E827F",
"D.	c #854639",
"E.	c #480505",
"F.	c #A20B0B",
"G.	c #EF1818",
"H.	c #EF1616",
"I.	c #9D0A0A",
"J.	c #86483C",
"K.	c #8C8582",
"L.	c #8B8382",
"M.	c #938282",
"N.	c #957F7C",
"O.	c #803629",
"P.	c #948481",
"Q.	c #938583",
"R.	c #988986",
"S.	c #998B88",
"T.	c #944B3F",
"U.	c #650D0A",
"V.	c #954F41",
"W.	c #988D8A",
"X.	c #968F8D",
"Y.	c #999391",
"Z.	c #9C9290",
"`.	c #9B756D",
" +	c #91392D",
".+	c #70120D",
"++	c #781811",
"@+	c #5F0909",
"#+	c #5F0908",
"$+	c #821D15",
"%+	c #8E281B",
"&+	c #944033",
"*+	c #9A7971",
"=+	c #9C9391",
"-+	c #97908F",
";+	c #A09A99",
">+	c #A19492",
",+	c #A5918E",
"'+	c #A46966",
")+	c #9D7069",
"!+	c #9D6D64",
"~+	c #9A5E56",
"{+	c #9E766E",
"]+	c #A28783",
"^+	c #A49895",
"/+	c #A29A99",
"(+	c #9C9493",
"_+	c #A7A09F",
":+	c #A6A1A0",
"<+	c #A7A1A0",
"[+	c #A8A3A0",
"}+	c #A7A19F",
"                                . . . + @ #                                   ",
"                          $ % & * = = - - ; > , '                             ",
"                        ) ! ~ { ] ^ / ( _ : < - [ }                           ",
"                      | 1 ; 2 3 4 5 6 3 7 8 9 0 a b c                         ",
"                    d e ~ f g h i j k l m n o p q < r d                       ",
"                  s t - q u v w x y z A z B C 8 D E F G H                     ",
"                  I J F K L M 6 8 n N O P k Q C y R - S T                     ",
"                  U V W X v Y 5 Z x v `  ...+.3 @.#.$.%.&.                    ",
"                *.V V Z g =.-.i 6 B ;.K o y L L h u j * >.,.                  ",
"                '.).V R o L #.;.h N 6 !.~.L L =.h 8 {.].^./.                  ",
"                (.).V N u _.x M :./ <.[.L @.=.=.v z / J }.|.                  ",
"                1.).V 2.D v D Q 3.n 4.@.@.=._.v g 5.6.7.8.9.                  ",
"                0.a.V b.x c.v x n C y =.h v v g 8 Q d.e.f.g.                  ",
"                h.i.V J i j.k.4 l.( L v v g k.5 B m.~ n.o.p.                  ",
"                  q.r.V d.:.D v +. .v k.o 5 8 D s.q J t.q.                    ",
"                  u.v.V 7.w.3 B 8 x.3 g 8 X B K y.J 7.z.A.                    ",
"                  B.C.D.V E.F.G.6 5.5.5.-.Q H.I.~ V J.K.L.                    ",
"                    M.N.O.V V F w.{.R n ;.w.- V e.- P.Q.                      ",
"                      R.S.T.U.V V V ].J V V 7.- V.W.X.                        ",
"                        Y.Z.`. +.+++@+#+$+%+&+*+=+-+                          ",
"                          ;+>+,+'+)+!+~+{+]+^+/+(+                            ",
"                                _+:+<+[+}+:+                                  "};
