/* XPM */
static char * windows_xpm[] = {
"18 18 139 2",
"  	c None",
". 	c #C6CFD8",
"+ 	c #C0C8D5",
"@ 	c #BAC3D0",
"# 	c #B3BECD",
"$ 	c #AEB9C9",
"% 	c #A8B5C5",
"& 	c #A4B0C2",
"* 	c #A0ADBF",
"= 	c #9CA9BC",
"- 	c #9DAABC",
"; 	c #A9B5C5",
"> 	c #B2BCCB",
", 	c #BCC5D2",
"' 	c #C2CAD5",
") 	c #C7CED8",
"! 	c #C4CDD6",
"~ 	c #D2D7DA",
"{ 	c #D7D8DB",
"] 	c #D7D8DC",
"^ 	c #D6D8DC",
"/ 	c #D5D8DB",
"( 	c #D4D7DB",
"_ 	c #D5D7DC",
": 	c #D6D9DD",
"< 	c #D8DADE",
"[ 	c #DADCE0",
"} 	c #DCDEE1",
"| 	c #DEE0E3",
"1 	c #E0E2E4",
"2 	c #DFE1E3",
"3 	c #D4D8DC",
"4 	c #DDE0E3",
"5 	c #F3F3F4",
"6 	c #F7F7F7",
"7 	c #F7F8F8",
"8 	c #F8F8F8",
"9 	c #F8F8F9",
"0 	c #F9F9F9",
"a 	c #F9F9FA",
"b 	c #FAFAFA",
"c 	c #F6F7F7",
"d 	c #DBE0E2",
"e 	c #E0E3E6",
"f 	c #FBFBFB",
"g 	c #FFFFFF",
"h 	c #FAFBFB",
"i 	c #DDE1E4",
"j 	c #FEFEFE",
"k 	c #EBF0EB",
"l 	c #C7D4C6",
"m 	c #C9D3C8",
"n 	c #E7EBE7",
"o 	c #FDFDFC",
"p 	c #FBFCFB",
"q 	c #CADDC9",
"r 	c #7AAB76",
"s 	c #80A87C",
"t 	c #BDCDBC",
"u 	c #F6F7F6",
"v 	c #FEFFFE",
"w 	c #FAFCF9",
"x 	c #C8E5C6",
"y 	c #7BC975",
"z 	c #7BBB75",
"A 	c #B4CCB2",
"B 	c #F3F5F3",
"C 	c #DCE0E3",
"D 	c #DFE3E6",
"E 	c #FDFDFD",
"F 	c #ECF1EB",
"G 	c #DCECDA",
"H 	c #DDF0DB",
"I 	c #B9E6B6",
"J 	c #7DD675",
"K 	c #75C26E",
"L 	c #A3C6A1",
"M 	c #D6E2D6",
"N 	c #DCE2DC",
"O 	c #C6CCCB",
"P 	c #DFE2E5",
"Q 	c #FCFDFD",
"R 	c #A4BEA2",
"S 	c #61B859",
"T 	c #79D372",
"U 	c #81DD78",
"V 	c #6FD465",
"W 	c #64BB5C",
"X 	c #72B06C",
"Y 	c #7FB17A",
"Z 	c #85AC80",
"` 	c #718B73",
" .	c #DEE2E5",
"..	c #F8F9F8",
"+.	c #7FA27C",
"@.	c #1B9D0F",
"#.	c #35BF28",
"$.	c #46C939",
"%.	c #43B738",
"&.	c #48A93E",
"*.	c #5AB451",
"=.	c #66BD5E",
"-.	c #6BB864",
";.	c #477E45",
">.	c #DEE1E4",
",.	c #F6F6F6",
"'.	c #AFC1AD",
").	c #62AA5C",
"!.	c #65B75E",
"~.	c #56B64F",
"{.	c #2DA425",
"].	c #38AE2D",
"^.	c #70C968",
"/.	c #8FD289",
"(.	c #92CC8D",
"_.	c #7AA77B",
":.	c #D9DDE1",
"<.	c #E4E6E9",
"[.	c #E1E3E7",
"}.	c #DEE1E6",
"|.	c #DBDFE4",
"1.	c #D9DDE2",
"2.	c #D6DBE1",
"3.	c #C8CFD4",
"4.	c #B8C2C2",
"5.	c #B6C3C0",
"6.	c #8BB591",
"7.	c #34A82E",
"8.	c #3ABB2E",
"9.	c #87CC85",
"0.	c #BED5C3",
"a.	c #C7D6CC",
"b.	c #C1CEC9",
"c.	c #68A06F",
"d.	c #2EA528",
"e.	c #39BE2C",
"f.	c #6BC366",
"g.	c #2C8926",
"h.	c #309F24",
"                                    ",
". + @ # $ % & * = - * & ; > , ' ) ! ",
"~ { ] ^ ^ / ( ( ( _ : < [ } | 1 2 3 ",
"4 5 6 6 7 8 8 8 8 9 0 0 0 a b b c d ",
"e f g g g g g g g g g g g g g g h i ",
"e f g g g g g g g g g g g g g g h i ",
"e f g g g g g g g g g g g g g g h i ",
"e f g g g g g g g g j k l m n o h i ",
"e f g g g g g g g g p q r s t u h i ",
"e f g g g g g g v j w x y z A B a C ",
"D b j j j j j E F G H I J K L M N O ",
"P 0 Q Q Q Q Q h R S T U V W X Y Z ` ",
" .7 p p p p p ..+.@.#.$.%.&.*.=.-.;.",
">.,.0 0 0 0 0 7 '.).!.~.{.].^./.(._.",
":.<.<.[.}.|.1.2.3.4.5.6.7.8.9.0.a.b.",
"                      c.d.e.f.      ",
"                        g.h.        ",
"                                    "};
