/* XPM */
static char * linux_xpm[] = {
"32 24 236 2",
"  	c None",
". 	c #1B76B0",
"+ 	c #298AC2",
"@ 	c #7DD2F0",
"# 	c #207BB3",
"$ 	c #1E85C7",
"% 	c #69BBE9",
"& 	c #217FB8",
"* 	c #1A75AF",
"= 	c #1A74AF",
"- 	c #1A76B1",
"; 	c #2798DA",
"> 	c #1B7EBF",
", 	c #1973AF",
"' 	c #4EBCE8",
") 	c #4BB6E7",
"! 	c #1870AE",
"~ 	c #166DAD",
"{ 	c #56C3E8",
"] 	c #6AD1F0",
"^ 	c #1977B9",
"/ 	c #166CAC",
"( 	c #176EAD",
"_ 	c #176FAD",
": 	c #1D80BE",
"< 	c #47ABE3",
"[ 	c #B5E4F6",
"} 	c #1875B9",
"| 	c #1876B8",
"1 	c #5DBFEA",
"2 	c #7AE0F4",
"3 	c #88CCEE",
"4 	c #1268AE",
"5 	c #1162A9",
"6 	c #4AC1F0",
"7 	c #53C5EA",
"8 	c #9BE1F5",
"9 	c #2491DB",
"0 	c #1265AA",
"a 	c #1366AA",
"b 	c #1467AB",
"c 	c #176DAD",
"d 	c #1871AE",
"e 	c #1972AE",
"f 	c #1C7BB7",
"g 	c #379ED1",
"h 	c #9BDAF3",
"i 	c #156BAC",
"j 	c #4DAEE5",
"k 	c #47AFDE",
"l 	c #1173B7",
"m 	c #0F62AE",
"n 	c #0F5DA7",
"o 	c #1175CA",
"p 	c #55BFEC",
"q 	c #2E95D4",
"r 	c #72CAEE",
"s 	c #0F62B0",
"t 	c #0D59A6",
"u 	c #0E5CA7",
"v 	c #0F5EA8",
"w 	c #64CBEE",
"x 	c #7BD2F0",
"y 	c #1A78BA",
"z 	c #62B2E5",
"A 	c #1264AA",
"B 	c #0E5BA7",
"C 	c #47B5F0",
"D 	c #41B3EA",
"E 	c #3A9FDF",
"F 	c #1065B3",
"G 	c #0C57A5",
"H 	c #0C58A5",
"I 	c #0E5BA6",
"J 	c #0F5EA7",
"K 	c #3DA1E0",
"L 	c #2494DC",
"M 	c #1B88D5",
"N 	c #52ABE3",
"O 	c #156AAC",
"P 	c #46A3E1",
"Q 	c #2A96DD",
"R 	c #146BAF",
"S 	c #0D5AA6",
"T 	c #1062AD",
"U 	c #5AAFE4",
"V 	c #1F8FD9",
"W 	c #228EDA",
"X 	c #2A92DB",
"Y 	c #59AEE4",
"Z 	c #117CC2",
"` 	c #209BE7",
" .	c #1069B8",
"..	c #40A1E0",
"+.	c #197EC8",
"@.	c #36A9E3",
"#.	c #239CE3",
"$.	c #6CB7E7",
"%.	c #369BDE",
"&.	c #1671B5",
"*.	c #1983CF",
"=.	c #69B6E7",
"-.	c #4BA7E2",
";.	c #47BCED",
">.	c #2B96DA",
",.	c #2E93DC",
"'.	c #409FDF",
").	c #43A2E1",
"!.	c #218DD0",
"~.	c #0B5FAB",
"{.	c #1C7CBB",
"].	c #1773B8",
"^.	c #166EB0",
"/.	c #0E5FAC",
"(.	c #0F63B3",
"_.	c #136CB5",
":.	c #146CB2",
"<.	c #1576B9",
"[.	c #1678BC",
"}.	c #B2E9F7",
"|.	c #88D3F1",
"1.	c #1492E5",
"2.	c #A4DDF3",
"3.	c #0C5DAE",
"4.	c #9DD6F1",
"5.	c #61BFEA",
"6.	c #278DDA",
"7.	c #A2DDF3",
"8.	c #9FD6F1",
"9.	c #60B1E5",
"0.	c #48ACE7",
"a.	c #45A3E1",
"b.	c #89D1EF",
"c.	c #B0E5F6",
"d.	c #58B5E7",
"e.	c #1975B2",
"f.	c #A3E3F6",
"g.	c #93D7F2",
"h.	c #ABE6F7",
"i.	c #A0D5F1",
"j.	c #1A81CB",
"k.	c #218AD9",
"l.	c #AFDDF4",
"m.	c #158DD9",
"n.	c #53B1ED",
"o.	c #A8E9F7",
"p.	c #37A9E0",
"q.	c #4BA6E1",
"r.	c #B6E3F5",
"s.	c #4BADE5",
"t.	c #1C89D7",
"u.	c #4AB0EA",
"v.	c #7DC2EB",
"w.	c #1E8DD6",
"x.	c #84D0EF",
"y.	c #90D4F1",
"z.	c #167DCE",
"A.	c #6AB7E7",
"B.	c #6EB8E7",
"C.	c #1A84CF",
"D.	c #0C70BB",
"E.	c #71BCE9",
"F.	c #4AA6E2",
"G.	c #1176CF",
"H.	c #6BB7E7",
"I.	c #208FD9",
"J.	c #1060A8",
"K.	c #5DD0EF",
"L.	c #78BFEA",
"M.	c #1E8ED8",
"N.	c #1D89D2",
"O.	c #2392DB",
"P.	c #42A2E1",
"Q.	c #53AAE3",
"R.	c #3CA0DF",
"S.	c #68B6E7",
"T.	c #1D8BD8",
"U.	c #32A4E4",
"V.	c #7DC2EA",
"W.	c #0E6DC4",
"X.	c #248AD8",
"Y.	c #1066B4",
"Z.	c #2F97DD",
"`.	c #1A7FC7",
" +	c #2895DC",
".+	c #1D86CD",
"++	c #339BDE",
"@+	c #177FD5",
"#+	c #64B3E5",
"$+	c #1571B9",
"%+	c #62B3E6",
"&+	c #2C96DD",
"*+	c #61B1E5",
"=+	c #3E9FE0",
"-+	c #50A8E3",
";+	c #56ACE3",
">+	c #64B4E6",
",+	c #47A6E2",
"'+	c #1975B3",
")+	c #66B4E6",
"!+	c #50A9E2",
"~+	c #248FDA",
"{+	c #56ADE4",
"]+	c #5DB0E4",
"^+	c #52AAE2",
"/+	c #126CB8",
"(+	c #1268B2",
"_+	c #64B3E6",
":+	c #2B91DB",
"<+	c #1263A9",
"[+	c #1368AF",
"}+	c #65B5E7",
"|+	c #45A4E1",
"1+	c #59ADE4",
"2+	c #51AAE3",
"3+	c #1F8ACE",
"4+	c #68B5E6",
"5+	c #50A9E3",
"6+	c #1874B2",
"7+	c #43A3E1",
"8+	c #65B4E6",
"9+	c #1E8CD8",
"0+	c #1C87D0",
"a+	c #1F8EDA",
"b+	c #1C84CA",
"c+	c #2996DD",
"d+	c #6AB6E7",
"e+	c #1C7AB5",
"f+	c #1C7DBB",
"g+	c #1D84C6",
"h+	c #1E88CB",
"i+	c #1F8DD2",
"j+	c #1B7BB8",
"k+	c #1D7EBC",
"l+	c #1D7DBA",
"m+	c #208BCF",
". . . . . . . . . . . . . . . . . . . . . . . . . . . . . . . . ",
". . . . . . . . . . . . . . . . . . . . . . . . . . . . . . . . ",
". . . . + @ # . . . . . . . . . . . . . . . . . . . . . . . . . ",
". . . . $ % & . . . . . . . . . . . . . . . . . . . . . . . . . ",
". . . . . . . . * = = = = = = = = = = = = = = = . . . . . . . . ",
". . . - ; > , , , ' ) ! ~ ~ { ] ^ / ~ ( ( ( _ , * * * * * * . . ",
". . : < [ } ~ | 1 2 3 4 5 6 7 8 9 5 0 a a a b c d d d d d e * . ",
". . f g h i i j k l m n o p q r s t u n n n v b i i i i i d * . ",
". . . w x i y z / A B B C D E F G H I B B B J b i i i i i d * . ",
". . . K L i M N O A B B P Q R S T H I B B B J b i i i i i d * . ",
". . . U V W X Y ~ Z `  ...+.A @.#.H I B B B J b i i i i i d * . ",
". . f $.%.&.*.=.-.;.>.B ,.'.).!.~.H I B B B J b i i i i i d * . ",
". . . {._ i i ].^.A B B /.(.A S G H I B B B J b i i i i i d * . ",
". . . = _ i i i O A B B B v a S G H n B B B _.:.i i <.[.i d * . ",
". . . = _ i i i }.|.B B 1.2.+.S 3.4.5.B 6.7.8.9.0.a.b.c.d.e.* . ",
". . . = _ i i i f.g.B B h.i.j.S k.l.m.(.n.o.p.q.r.s.t.u.v.w.* . ",
". . . = _ i i i x.y.B z.A.B.C.D.E.F.I G.H.I.J.K.L.M.i N.B.O.* . ",
". . . = _ i i i P.9.B Q.R.S.T.U.V.W.I X.B.Y.J Z.B.`.i  +B..+* . ",
". . . = _ i i i ++S.@+#+$+%+&+*+=+S n -+;+v J.F.>+i i ,+A.'+* . ",
". . . = e d d d O.)+!+~+a {+]+^+/+J.(+_+:+<+[+}+|+~ ~ 1+2+d * . ",
". . . * * * * * 3+4+5+6+d 7+8+9+_ _ 0+z a+_ b+4+c+, > d+++, * . ",
". . . . . . . . e+3+f+* * g+h+* * * f+i+j+* j+3+k+. l+m+k+. . . ",
". . . . . . . . . . . . . . . . . . . . . . . . . . . . . . . . ",
". . . . . . . . . . . . . . . . . . . . . . . . . . . . . . . . "};
