/* XPM */
static char * windows_xpm[] = {
"24 24 43 1",
" 	c None",
".	c #605F58",
"+	c #5D5C54",
"@	c #5A5951",
"#	c #74B6C5",
"$	c #5DA7BA",
"%	c #57554E",
"&	c #5EA8BA",
"*	c #006680",
"=	c #54524B",
"-	c #A0D1DE",
";	c #C8EDF7",
">	c #514F47",
",	c #A4D4E0",
"'	c #D5F6FF",
")	c #4E4C45",
"!	c #4B4942",
"~	c #A3D3DF",
"{	c #94CAD8",
"]	c #5BA4B6",
"^	c #59A3B5",
"/	c #6FB1C0",
"(	c #474640",
"_	c #A2D3DF",
":	c #8BC4D4",
"<	c #559FB3",
"[	c #44433D",
"}	c #A2D2DF",
"|	c #9DD1DE",
"1	c #C7EDF7",
"2	c #9DCEDC",
"3	c #41403B",
"4	c #A1D2DE",
"5	c #9DD1DD",
"6	c #3E3D38",
"7	c #A1D1DE",
"8	c #9CD0DD",
"9	c #3C3B37",
"0	c #87BECC",
"a	c #A2D0DD",
"b	c #94CBD9",
"c	c #9CCEDD",
"d	c #83BAC9",
"                        ",
"                        ",
"........................",
"++++++++++++++++++++++++",
"@@@@#$$$$$$$$$$#@@@@@@@@",
"%%%%&**********&%%%%%%%%",
"====-;;;;;;;;;;-========",
">>>>,'''''''''',>>>>>>>>",
")))),'''''''''',))))))))",
"!!!!~''''''''''{]^^/!!!!",
"((((_'''''''''':***<(([(",
"[[[[}''''''''''|1112[[[[",
"33334''''''''''5'''4[333",
"66667''''''''''8'''76666",
"99990a77bcccc8cd'''79999",
"999999997''''''''''79999",
"999999997''''''''''79999",
"999999997''''''''''79999",
"99999999c''''''''''79999",
"99999999daaa7aaaaacd9999",
"999999999999999999999999",
"999999999999999999999999",
"999999999999999999999999",
"999999999999999999999999"};
