/* XPM */
static char * closeA_xpm[] = {
"27 32 230 2",
"  	c None",
". 	c #000000",
"+ 	c #010101",
"@ 	c #9F9F9F",
"# 	c #A1A1A1",
"$ 	c #848484",
"% 	c #818181",
"& 	c #161616",
"* 	c #111111",
"= 	c #171717",
"- 	c #0E0E0E",
"; 	c #0B0B0B",
"> 	c #141414",
", 	c #1B1B1B",
"' 	c #4F4F4F",
") 	c #656565",
"! 	c #444444",
"~ 	c #3D3D3D",
"{ 	c #383838",
"] 	c #303030",
"^ 	c #2B2B2B",
"/ 	c #282828",
"( 	c #222222",
"_ 	c #1C1C1C",
": 	c #202020",
"< 	c #070707",
"[ 	c #191919",
"} 	c #181818",
"| 	c #5E5E5E",
"1 	c #515151",
"2 	c #414141",
"3 	c #424242",
"4 	c #565656",
"5 	c #5F5F5F",
"6 	c #0F0F0F",
"7 	c #3B3B3B",
"8 	c #343434",
"9 	c #101010",
"0 	c #2C2C2C",
"a 	c #0A0A0A",
"b 	c #3A3A3A",
"c 	c #3C3C3C",
"d 	c #212121",
"e 	c #252525",
"f 	c #090909",
"g 	c #121212",
"h 	c #323232",
"i 	c #080808",
"j 	c #151515",
"k 	c #464646",
"l 	c #0D0D0D",
"m 	c #4B4B4B",
"n 	c #3E3E3E",
"o 	c #1A1A1A",
"p 	c #0C0C0C",
"q 	c #474747",
"r 	c #4C4C4C",
"s 	c #9D9D9F",
"t 	c #9B9CA1",
"u 	c #9B9C9F",
"v 	c #828384",
"w 	c #7E8288",
"x 	c #777D89",
"y 	c #141E36",
"z 	c #0F1A37",
"A 	c #0F1A35",
"B 	c #141D34",
"C 	c #797E87",
"D 	c #808386",
"E 	c #7C818A",
"F 	c #787F8E",
"G 	c #141D36",
"H 	c #0F1D3F",
"I 	c #0C1E4A",
"J 	c #091C4D",
"K 	c #091D51",
"L 	c #0C1C44",
"M 	c #0F1A39",
"N 	c #151E33",
"O 	c #17223D",
"P 	c #0E1E46",
"Q 	c #0F265F",
"R 	c #324E94",
"S 	c #3B5AA9",
"T 	c #395AAD",
"U 	c #3C5AA6",
"V 	c #344D8E",
"W 	c #102456",
"X 	c #172037",
"Y 	c #40444A",
"Z 	c #191B1B",
"` 	c #15191F",
" .	c #071027",
"..	c #15244B",
"+.	c #122964",
"@.	c #3656A8",
"#.	c #274EB3",
"$.	c #1C48B8",
"%.	c #1C49BC",
"&.	c #1E49B6",
"*.	c #2C51B0",
"=.	c #3A57A0",
"-.	c #13275B",
";.	c #152143",
">.	c #070E21",
",.	c #070909",
"'.	c #070B17",
").	c #071333",
"!.	c #0C2258",
"~.	c #234393",
"{.	c #1E48B4",
"].	c #1446C4",
"^.	c #1148D3",
"/.	c #1048D8",
"(.	c #1248D0",
"_.	c #1645BE",
":.	c #2349A9",
"<.	c #274287",
"[.	c #0D1F4B",
"}.	c #071129",
"|.	c #070A11",
"1.	c #07090D",
"2.	c #070D1D",
"3.	c #233259",
"4.	c #082162",
"5.	c #1F44A3",
"6.	c #1243BE",
"7.	c #0D47D9",
"8.	c #0B49E7",
"9.	c #0B4AEB",
"0.	c #0C49E4",
"a.	c #0F46D1",
"b.	c #1441B2",
"c.	c #234497",
"d.	c #081E54",
"e.	c #25314F",
"f.	c #070A13",
"g.	c #070F23",
"h.	c #23335D",
"i.	c #08246A",
"j.	c #1C45AC",
"k.	c #1044CA",
"l.	c #0A4BF0",
"m.	c #094BF3",
"n.	c #0A4AEE",
"o.	c #0D47DB",
"p.	c #21459F",
"q.	c #081F5A",
"r.	c #243254",
"s.	c #070C1B",
"t.	c #07090F",
"u.	c #070B15",
"v.	c #293963",
"w.	c #123BA2",
"x.	c #0E42C8",
"y.	c #0B48E3",
"z.	c #094AF1",
"A.	c #0A4AEC",
"B.	c #0C46DA",
"C.	c #1041BC",
"D.	c #133791",
"E.	c #2B395B",
"F.	c #070D1F",
"G.	c #2D3C63",
"H.	c #0E2768",
"I.	c #0B308F",
"J.	c #0B3CB9",
"K.	c #0A44D6",
"L.	c #0947E5",
"M.	c #0948E9",
"N.	c #0946E1",
"O.	c #0A41CC",
"P.	c #0C39AC",
"Q.	c #0B2B7D",
"R.	c #0E235A",
"S.	c #2F3B59",
"T.	c #2A3656",
"U.	c #263C72",
"V.	c #082776",
"W.	c #0D37A1",
"X.	c #0C3EBC",
"Y.	c #0A41CE",
"Z.	c #0A42D2",
"`.	c #0B41C9",
" +	c #0C3BB4",
".+	c #0D3393",
"++	c #082366",
"@+	c #283A66",
"#+	c #2C364E",
"$+	c #37476F",
"%+	c #1D346F",
"&+	c #08297C",
"*+	c #0B3397",
"=+	c #0C38A8",
"-+	c #0C39AA",
";+	c #0C37A4",
">+	c #0B308D",
",+	c #082570",
"'+	c #1D3165",
")+	c #394769",
"!+	c #0B1221",
"~+	c #0B1631",
"{+	c #3A4B74",
"]+	c #2C437C",
"^+	c #122E74",
"/+	c #092877",
"(+	c #09297B",
"_+	c #0A2874",
":+	c #132C6D",
"<+	c #2E4274",
"[+	c #3D4B6D",
"}+	c #0A132A",
"|+	c #0A101C",
"1+	c #0B0C0D",
"2+	c #0B0F15",
"3+	c #00030E",
"4+	c #000718",
"5+	c #010B23",
"6+	c #2F3D61",
"7+	c #364874",
"8+	c #384B7C",
"9+	c #384C80",
"0+	c #394C7B",
"a+	c #384870",
"b+	c #303E5C",
"c+	c #00091E",
"d+	c #000614",
"e+	c #00020A",
"f+	c #0A0B0E",
"g+	c #000204",
". . . . . . . . . . . . . . . . . . . . . . + . + + . ",
"@ @ @ @ @ @ @ @ @ @ @ @ @ @ # # # # # # # # # # # # # ",
"$ % $ $ $ % % & * * * & % % $ $ $ $ $ $ $ $ $ $ $ $ $ ",
"$ $ $ $ $ = * - ; ; ; - * = $ $ $ $ $ $ $ $ $ $ $ $ $ ",
"$ $ $ > , * > ' ) ) ) ' > * , ! ~ { ] ^ / ( _ & * * * ",
": , < < [ } | 1 2 3 3 4 5 [ [ < < < < < < < < < < < < ",
"< < < < 6 7 2 8 8 8 8 8 ! 7 9 < < < < < < < < < < < < ",
"< < < 0 a b ^ ^ ^ ^ ^ ^ 0 c a 0 < < < < < < < < < < < ",
"< < < 0 a b ^ ^ ^ ^ ^ ^ 0 c a 0 < < < < < < < < < < < ",
"< < < 8 a d e e e e e e e d f 8 < < < < < < < < < < < ",
"< < < { g 9 & = & & & & & 9 g { < < < < < < < < < < < ",
"< < < h 8 i j = = = = = j i 8 h < < < < < < < < < < < ",
"< < < < k / a 9 > > > 9 a / k < < < < < < < < < < < < ",
"< < l l l m n o p p p o n m p p < < < < < < < < < < < ",
"l l . . . . b q r r r q b . . . p p p p p p p p p l l ",
". . . . . . . . . . . . . . . . . . . . . . . . . . . ",
". . . . . . . . . . . . . . . . . . . . . . + . + + . ",
"@ @ @ @ @ @ s t t t t u @ @ # # # # # # # # # # # # # ",
"$ % % v w x % y z z A B % C D v $ $ $ $ $ $ $ $ $ $ $ ",
"$ $ v E F G H I J K J L M N $ $ $ $ $ $ $ $ $ $ $ $ $ ",
"$ $ v v O P Q R S T U V W H X Y ~ { ] ^ / ( _ & * * * ",
": Z `  ...+.@.#.$.%.&.*.=.-.;.>.,.< < < < < < < < < < ",
"< ,.'.).!.~.{.].^./.(._.:.<.[.}.|.< < < < < < < < < < ",
"< 1.2.3.4.5.6.7.8.9.0.a.b.c.d.e.'.,.< < < < < < < < < ",
"< f.g.h.i.j.k.0.l.m.n.o.6.p.q.r.s.t.< < < < < < < < < ",
",.u. .v.i.w.x.y.z.m.A.B.C.D.q.E.F.t.< < < < < < < < < ",
",.u. .G.H.I.J.K.L.M.N.O.P.Q.R.S.F.t.< < < < < < < < < ",
"< f.g.T.U.V.W.X.Y.Z.`. +.+++@+#+s.t.< < < < < < < < < ",
"< 1.2. .$+%+&+*+=+-+;+>+,+'+)+>.'.,.< < < < < < < < < ",
"< ,.'.!+~+{+]+^+/+(+_+:+<+[+}+|+|.< < < < < < < < < < ",
"l 1+2+3+4+5+6+7+8+9+0+a+b+c+d+e+f+p p p p p p p p l l ",
". . g+3+c+d+e+. . . . . . . . . . . . . . . . . . . . "};
