/* XPM */
static char * closeO_xpm[] = {
"27 32 140 2",
"  	c None",
". 	c #000000",
"+ 	c #010101",
"@ 	c #9F9F9F",
"# 	c #999BA1",
"$ 	c #A1A1A1",
"% 	c #848484",
"& 	c #818181",
"* 	c #808386",
"= 	c #7E8288",
"- 	c #777C8B",
"; 	c #717785",
"> 	c #131E3B",
", 	c #0F1B3D",
"' 	c #0F1D3F",
") 	c #7C818A",
"! 	c #777E8F",
"~ 	c #131E39",
"{ 	c #0E1D44",
"] 	c #0C1F50",
"^ 	c #092059",
"/ 	c #09205B",
"( 	c #454D5F",
"_ 	c #17223D",
": 	c #0E1F4A",
"< 	c #0F2763",
"[ 	c #2F4E9B",
"} 	c #3658B0",
"| 	c #3458B4",
"1 	c #40434E",
"2 	c #3D3D3D",
"3 	c #383838",
"4 	c #303030",
"5 	c #2B2B2B",
"6 	c #282828",
"7 	c #222222",
"8 	c #1C1C1C",
"9 	c #161616",
"0 	c #111111",
"a 	c #202020",
"b 	c #1B1B1B",
"c 	c #070B15",
"d 	c #071027",
"e 	c #15244B",
"f 	c #112967",
"g 	c #3455AA",
"h 	c #254FB9",
"i 	c #1A4AC2",
"j 	c #1849C6",
"k 	c #2650BC",
"l 	c #3456AC",
"m 	c #122A68",
"n 	c #07090F",
"o 	c #070707",
"p 	c #070C1B",
"q 	c #07122F",
"r 	c #0C2054",
"s 	c #244392",
"t 	c #1D47B3",
"u 	c #1346C9",
"v 	c #0F49DB",
"w 	c #0E49E0",
"x 	c #1F49B5",
"y 	c #0D2155",
"z 	c #070E21",
"A 	c #243254",
"B 	c #08205C",
"C 	c #1F439F",
"D 	c #1243BE",
"E 	c #0D47DB",
"F 	c #0B4AEB",
"G 	c #0A4BF0",
"H 	c #2044A0",
"I 	c #070A11",
"J 	c #233259",
"K 	c #082162",
"L 	c #1E44A6",
"M 	c #1144C5",
"N 	c #0C48E2",
"O 	c #094CF5",
"P 	c #1E45A8",
"Q 	c #2A385C",
"R 	c #082160",
"S 	c #133897",
"T 	c #1042C0",
"U 	c #0C47DE",
"V 	c #094AEF",
"W 	c #094BF3",
"X 	c #070D1D",
"Y 	c #2E3B5C",
"Z 	c #0E235A",
"` 	c #0B2C81",
" .	c #0C39AC",
"..	c #0B42CD",
"+.	c #0945DF",
"@.	c #0947E5",
"#.	c #0A41CC",
"$.	c #070C19",
"%.	c #2C364E",
"&.	c #283A66",
"*.	c #082366",
"=.	c #0D3291",
"-.	c #0C3AB0",
";.	c #0B3FC3",
">.	c #0B41C9",
",.	c #070A13",
"'.	c #050B1D",
").	c #3A4666",
"!.	c #1E3264",
"~.	c #08246A",
"{.	c #0B2E87",
"].	c #0C3398",
"^.	c #0C36A0",
"/.	c #070D1F",
"(.	c #0B0C0F",
"_.	c #0B111D",
":.	c #030A1F",
"<.	c #3E4A6A",
"[.	c #2F4271",
"}.	c #132A65",
"|.	c #0A256A",
"1.	c #0A266E",
"2.	c #0A1328",
"3.	c #0A101C",
"4.	c #0D0D0D",
"5.	c #00040C",
"6.	c #000412",
"7.	c #00081C",
"8.	c #313C59",
"9.	c #3A496A",
"0.	c #3B4C75",
"a.	c #3A4C78",
"b.	c #0A0B0E",
"c.	c #0C0C0C",
"d.	c #000002",
"e.	c #000204",
"f.	c #00030E",
"g.	c #000614",
"h.	c #00091E",
"i.	c #000922",
". . . . . . . . . . . . . . . . . . . . . . + . + + . ",
"@ @ @ @ @ @ @ # # # # # @ @ $ $ $ $ $ $ $ $ $ $ $ $ $ ",
"% & % * = - ; > , ' , > ; - = * % % % % % % % % % % % ",
"% % % ) ! ~ { ] ^ / ^ ] { ~ ( % % % % % % % % % % % % ",
"% % % % _ : < [ } | } [ < : _ 1 2 3 4 5 6 7 8 9 0 0 0 ",
"a b c d e f g h i j i k l m e d n o o o o o o o o o o ",
"o o p q r s t u v w v u x s y q c o o o o o o o o o o ",
"o n z A B C D E F G F E D H B A p n o o o o o o o o o ",
"o I z J K L M N G O G N M P K J z I o o o o o o o o o ",
"o I z Q R S T U V W V U T S R Q z I o o o o o o o o o ",
"o I X Y Z `  ...+.@.+.#. .` Z Y z I o o o o o o o o o ",
"o I $.%.&.*.=.-.;.>.;.-.=.*.&.%.X I o o o o o o o o o ",
"o o ,.'.).!.~.{.].^.].{.~.!.)./.$.o o o o o o o o o o ",
"o o (._.:.<.[.}.|.1.|.}.[.<.2.3.,.o o o o o o o o o o ",
"4.4.. 5.6.7.8.9.0.a.0.9.8.7.6.5.b.c.c.c.c.c.c.c.c.4.4.",
". . . d.e.f.g.7.h.i.h.7.g.f.e.d.. . . . . . + . + + . ",
". . . . . . . . . . . . . . . . . . . . . . + . + + . ",
"@ @ @ @ @ @ @ # # # # # @ @ $ $ $ $ $ $ $ $ $ $ $ $ $ ",
"% & % * = - ; > , ' , > ; - = * % % % % % % % % % % % ",
"% % % ) ! ~ { ] ^ / ^ ] { ~ ( % % % % % % % % % % % % ",
"% % % % _ : < [ } | } [ < : _ 1 2 3 4 5 6 7 8 9 0 0 0 ",
"a b c d e f g h i j i k l m e d n o o o o o o o o o o ",
"o o p q r s t u v w v u x s y q c o o o o o o o o o o ",
"o n z A B C D E F G F E D H B A p n o o o o o o o o o ",
"o I z J K L M N G O G N M P K J z I o o o o o o o o o ",
"o I z Q R S T U V W V U T S R Q z I o o o o o o o o o ",
"o I X Y Z `  ...+.@.+.#. .` Z Y z I o o o o o o o o o ",
"o I $.%.&.*.=.-.;.>.;.-.=.*.&.%.X I o o o o o o o o o ",
"o o ,.'.).!.~.{.].^.].{.~.!.)./.$.o o o o o o o o o o ",
"o o (._.:.<.[.}.|.1.|.}.[.<.2.3.,.o o o o o o o o o o ",
"4.4.. 5.6.7.8.9.0.a.0.9.8.7.6.5.b.c.c.c.c.c.c.c.c.4.4.",
". . . d.e.f.g.7.h.i.h.7.g.f.e.d.. . . . . . + . + + . "};
