/* XPM */
static char * dframeIT_xpm[] = {
"6 21 5 1",
" 	c None",
".	c #000000",
"+	c #0C0C0C",
"@	c #161616",
"#	c #262626",
"      ",
"      ",
"      ",
"      ",
"      ",
"      ",
"      ",
"......",
"......",
"......",
"......",
"......",
"......",
"......",
"......",
"......",
"......",
"......",
"++++@.",
"++++@.",
"#+++@."};
