/* XPM */
static char * maximizeO_xpm[] = {
"19 32 130 2",
"  	c None",
". 	c #000000",
"+ 	c #9F9F9F",
"@ 	c #9B9C9F",
"# 	c #9D9EA3",
"$ 	c #9D9EA1",
"% 	c #A1A1A1",
"& 	c #7E7E7E",
"* 	c #7C7D80",
"= 	c #7B7D81",
"- 	c #767A86",
"; 	c #717785",
"> 	c #141E36",
", 	c #0F1A35",
"' 	c #0F1A37",
") 	c #777D89",
"! 	c #7D8083",
"~ 	c #7F8181",
"{ 	c #818181",
"] 	c #848484",
"^ 	c #797C83",
"/ 	c #757A87",
"( 	c #151E35",
"_ 	c #0F1B3D",
": 	c #0C1C46",
"< 	c #091C4D",
"[ 	c #091D51",
"} 	c #7B7F85",
"| 	c #172139",
"1 	c #0F1E43",
"2 	c #10255A",
"3 	c #334E91",
"4 	c #3B5AA9",
"5 	c #395AAD",
"6 	c #152345",
"7 	c #12275E",
"8 	c #3756A5",
"9 	c #284EB0",
"0 	c #1D49B7",
"a 	c #1C49BC",
"b 	c #2A50B2",
"c 	c #3857A6",
"d 	c #13285F",
"e 	c #343A46",
"f 	c #313337",
"g 	c #2F2F2F",
"h 	c #282828",
"i 	c #161616",
"j 	c #141414",
"k 	c #070C19",
"l 	c #07112B",
"m 	c #0C204E",
"n 	c #25438D",
"o 	c #2048AE",
"p 	c #1546C1",
"q 	c #1148D3",
"r 	c #1048D8",
"s 	c #2149AF",
"t 	c #0D204F",
"u 	c #070A13",
"v 	c #070707",
"w 	c #070909",
"x 	c #070D1F",
"y 	c #243252",
"z 	c #081F58",
"A 	c #20439C",
"B 	c #1342B9",
"C 	c #0E46D6",
"D 	c #0B49E7",
"E 	c #0B4AEB",
"F 	c #21449D",
"G 	c #070A11",
"H 	c #070E21",
"I 	c #243358",
"J 	c #082160",
"K 	c #1E44A4",
"L 	c #1144C5",
"M 	c #0C48E0",
"N 	c #0A4BF0",
"O 	c #094CF5",
"P 	c #1F45A5",
"Q 	c #2A395E",
"R 	c #123898",
"S 	c #0F42C3",
"T 	c #094AEF",
"U 	c #2E3B5C",
"V 	c #0E255E",
"W 	c #0B2E87",
"X 	c #0C3BB2",
"Y 	c #0A42D2",
"Z 	c #0946E3",
"` 	c #0948E9",
" .	c #0A42D0",
"..	c #2B3651",
"+.	c #273A6B",
"@.	c #08256E",
"#.	c #0D359B",
"$.	c #0C3DB8",
"%.	c #0B42CD",
"&.	c #394669",
"*.	c #1D336B",
"=.	c #082776",
"-.	c #0B3193",
";.	c #0C38A6",
">.	c #0C39AC",
",.	c #080F22",
"'.	c #0A0D10",
").	c #0A0F1E",
"!.	c #000922",
"~.	c #3C4B70",
"{.	c #2D4277",
"].	c #132E71",
"^.	c #092775",
"/.	c #09297B",
"(.	c #000614",
"_.	c #0C0C0C",
":.	c #00040C",
"<.	c #000A20",
"[.	c #303C5E",
"}.	c #384872",
"|.	c #384B7C",
"1.	c #384C80",
"2.	c #0B0E11",
"3.	c #0D0D0D",
"4.	c #000204",
"5.	c #000308",
"6.	c #000412",
"7.	c #00061A",
"8.	c #000A26",
"9.	c #000B2A",
". . . . . . . . . . . . . . . . . . . ",
"+ + + + + + + @ # # # $ % % + + + + + ",
"& & & * = - ; > , ' , > ; ) ! ~ { ] ] ",
"& & & ^ / ( _ : < [ < : _ ( ) } { ] ] ",
"& & & & | 1 2 3 4 5 4 3 2 1 | { { ] ] ",
"& & & & 6 7 8 9 0 a 0 b c d 6 e f g h ",
"i j k l m n o p q r q p s n t l u v v ",
"v w x y z A B C D E D C B F z y k w v ",
"v G H I J K L M N O N M L P J I x G v ",
"v G H Q J R S M T O T M S R J Q H G v ",
"v G x U V W X Y Z ` Z  .X W V U H G v ",
"v G k ..+.@.#.$.%.Y %.$.#.@.+...x G v ",
"v w u H &.*.=.-.;.>.;.-.=.*.&.,.k w v ",
"v v '.).!.~.{.].^./.^.].{.~.!.(.u v v ",
"_._.. :.(.<.[.}.|.1.|.}.[.<.(.:.2.3.3.",
". . . 4.5.6.7.!.8.9.8.!.7.6.5.4.. . . ",
". . . . . . . . . . . . . . . . . . . ",
"+ + + + + + + @ # # # $ % % + + + + + ",
"& & & * = - ; > , ' , > ; ) ! ~ { ] ] ",
"& & & ^ / ( _ : < [ < : _ ( ) } { ] ] ",
"& & & & | 1 2 3 4 5 4 3 2 1 | { { ] ] ",
"& & & & 6 7 8 9 0 a 0 b c d 6 e f g h ",
"i j k l m n o p q r q p s n t l u v v ",
"v w x y z A B C D E D C B F z y k w v ",
"v G H I J K L M N O N M L P J I x G v ",
"v G H Q J R S M T O T M S R J Q H G v ",
"v G x U V W X Y Z ` Z  .X W V U H G v ",
"v G k ..+.@.#.$.%.Y %.$.#.@.+...x G v ",
"v w u H &.*.=.-.;.>.;.-.=.*.&.,.k w v ",
"v v '.).!.~.{.].^./.^.].{.~.!.(.u v v ",
"_._.. :.(.<.[.}.|.1.|.}.[.<.(.:.2.3.3.",
". . . 4.5.6.7.!.8.9.8.!.7.6.5.4.. . . "};
