/* XPM */
static char * maximizeI_xpm[] = {
"19 32 235 2",
"  	c None",
". 	c #000000",
"+ 	c #9F9F9F",
"@ 	c #A1A1A1",
"# 	c #7E7E7E",
"$ 	c #818181",
"% 	c #161616",
"& 	c #111111",
"* 	c #848484",
"= 	c #171717",
"- 	c #0E0E0E",
"; 	c #0B0B0B",
"> 	c #1B1B1B",
", 	c #141414",
"' 	c #4F4F4F",
") 	c #656565",
"! 	c #070707",
"~ 	c #191919",
"{ 	c #181818",
"] 	c #5E5E5E",
"^ 	c #515151",
"/ 	c #414141",
"( 	c #424242",
"_ 	c #565656",
": 	c #5F5F5F",
"< 	c #2F2F2F",
"[ 	c #282828",
"} 	c #0F0F0F",
"| 	c #3B3B3B",
"1 	c #343434",
"2 	c #444444",
"3 	c #101010",
"4 	c #2C2C2C",
"5 	c #0A0A0A",
"6 	c #3A3A3A",
"7 	c #2B2B2B",
"8 	c #3C3C3C",
"9 	c #212121",
"0 	c #252525",
"a 	c #090909",
"b 	c #383838",
"c 	c #121212",
"d 	c #323232",
"e 	c #080808",
"f 	c #151515",
"g 	c #0C0C0C",
"h 	c #464646",
"i 	c #4B4B4B",
"j 	c #3E3E3E",
"k 	c #1A1A1A",
"l 	c #0D0D0D",
"m 	c #474747",
"n 	c #4C4C4C",
"o 	c #9D9FA3",
"p 	c #9B9FA3",
"q 	c #9F9FA1",
"r 	c #7A7E80",
"s 	c #787E83",
"t 	c #747E87",
"u 	c #75818B",
"v 	c #132638",
"w 	c #0F263B",
"x 	c #0F273E",
"y 	c #0F263D",
"z 	c #12283C",
"A 	c #798187",
"B 	c #7B8185",
"C 	c #737E88",
"D 	c #142536",
"E 	c #0F2840",
"F 	c #0C2D4D",
"G 	c #093156",
"H 	c #09345B",
"I 	c #093359",
"J 	c #0C2F51",
"K 	c #0E2B46",
"L 	c #13283D",
"M 	c #73818D",
"N 	c #778189",
"O 	c #828484",
"P 	c #172939",
"Q 	c #0E2B45",
"R 	c #0F385F",
"S 	c #316697",
"T 	c #3775AF",
"U 	c #3476B4",
"V 	c #3576B2",
"W 	c #2E679C",
"X 	c #0F3D68",
"Y 	c #0E2F4E",
"Z 	c #172C40",
"` 	c #7A7E81",
" .	c #071522",
"..	c #152E46",
"+.	c #123B61",
"@.	c #3670A6",
"#.	c #2670B5",
"$.	c #1B6FBE",
"%.	c #1972C5",
"&.	c #1A71C2",
"*.	c #2574BD",
"=.	c #3273AF",
"-.	c #12426F",
";.	c #143351",
">.	c #2D3B46",
",.	c #2D3337",
"'.	c #262828",
").	c #0C1218",
"!.	c #071A2B",
"~.	c #0D2E4D",
"{.	c #255A8C",
"].	c #1F6AAF",
"^.	c #1470C4",
"/.	c #1077D7",
"(.	c #0E7ADE",
"_.	c #0F79DB",
":.	c #1273CD",
"<.	c #1D6FBB",
"[.	c #215F98",
"}.	c #0C365C",
"|.	c #071F36",
"1.	c #071019",
"2.	c #070909",
"3.	c #07090B",
"4.	c #243B51",
"5.	c #083055",
"6.	c #215F99",
"7.	c #1368B7",
"8.	c #0E75D5",
"9.	c #0B7DE7",
"0.	c #0A80EE",
"a.	c #0A7FEB",
"b.	c #0D79DE",
"c.	c #116EC5",
"d.	c #1E66A8",
"e.	c #083966",
"f.	c #233F5A",
"g.	c #071420",
"h.	c #070C11",
"i.	c #070B0F",
"j.	c #07121D",
"k.	c #243D54",
"l.	c #08335B",
"m.	c #1F619F",
"n.	c #126BBE",
"o.	c #0D79DD",
"p.	c #0983F5",
"q.	c #0982F2",
"r.	c #0C7CE5",
"s.	c #1071CC",
"t.	c #1D68AD",
"u.	c #083C6C",
"v.	c #22415E",
"w.	c #071624",
"x.	c #070E15",
"y.	c #07131F",
"z.	c #2B4359",
"A.	c #083258",
"B.	c #145490",
"C.	c #1168B8",
"D.	c #0C76D9",
"E.	c #0981F1",
"F.	c #0980EF",
"G.	c #0B7AE1",
"H.	c #0F6EC6",
"I.	c #125B9F",
"J.	c #083967",
"K.	c #294763",
"L.	c #071726",
"M.	c #2F4458",
"N.	c #0E3354",
"O.	c #0B4479",
"P.	c #0C5CA5",
"Q.	c #0B6CC7",
"R.	c #0976DA",
"S.	c #097AE3",
"T.	c #0978E0",
"U.	c #0A70CF",
"V.	c #0B63B3",
"W.	c #0B4D8A",
"X.	c #0E3A62",
"Y.	c #2D4760",
"Z.	c #07111B",
"`.	c #2C3C4B",
" +	c #294661",
".+	c #083560",
"++	c #0E4F8B",
"@+	c #0D5FAB",
"#+	c #0B69BF",
"$+	c #0B6AC3",
"%+	c #0C63B3",
"&+	c #0D5497",
"*+	c #083D6E",
"=+	c #274A6B",
"-+	c #2A3F53",
";+	c #070D13",
">+	c #0A1621",
",+	c #3B5063",
"'+	c #1F4060",
")+	c #0B4982",
"!+	c #0D5496",
"~+	c #0C579D",
"{+	c #0C569A",
"]+	c #083D6F",
"^+	c #1D4468",
"/+	c #395269",
"(+	c #00060D",
"_+	c #010F1B",
":+	c #3F5468",
"<+	c #2F4F6D",
"[+	c #133D63",
"}+	c #0A3A67",
"|+	c #0A3D6D",
"1+	c #0A3B69",
"2+	c #133E68",
"3+	c #2E5272",
"4+	c #3D566D",
"5+	c #001120",
"6+	c #0B151F",
"7+	c #0A0C0C",
"8+	c #000409",
"9+	c #000811",
"0+	c #010D19",
"a+	c #324455",
"b+	c #3A5369",
"c+	c #3C5973",
"d+	c #3B5977",
"e+	c #3B5975",
"f+	c #39546D",
"g+	c #314659",
"h+	c #000F1D",
"i+	c #000A13",
"j+	c #00060B",
"k+	c #0B0D0F",
"l+	c #000001",
". . . . . . . . . . . . . . . . . . . ",
"+ + + + + + + + @ @ @ @ @ @ + + + + + ",
"# # # # # # # $ % & & & % $ $ $ $ * * ",
"# # # # # # = & - ; ; ; - & = $ $ * * ",
"# # # # # > & , ' ) ) ) ' , & > * * * ",
"# # # # ! ~ { ] ^ / ( ( _ : ~ ~ ! < [ ",
"% , & - ! } | / 1 1 1 1 1 2 | 3 ! ! ! ",
"! ! ! ! 4 5 6 7 7 7 7 7 7 4 8 5 4 ! ! ",
"! ! ! ! 4 5 6 7 7 7 7 7 7 4 8 5 4 ! ! ",
"! ! ! ! 1 5 9 0 0 0 0 0 0 0 9 a 1 ! ! ",
"! ! ! ! b c 3 % = % % % % % 3 c b ! ! ",
"! ! ! ! d 1 e f = = = = = f e 1 d ! ! ",
"! ! ! ! g h [ 5 3 , , , 3 5 [ h ! ! ! ",
"! ! ! ! . . i j k g g g k j i . l ! ! ",
"g g g g . . . 6 m n n n m 6 . . . l l ",
". . . . . . . . . . . . . . . . . . . ",
". . . . . . . . . . . . . . . . . . . ",
"+ + + + + + + + o p p p p q + + + + + ",
"# # # # r s t u v w x y z u u A B * * ",
"# # # # s C D E F G H I J K L M N O * ",
"# # # # t P Q R S T U V W X Y Z O O * ",
"# # # `  ...+.@.#.$.%.&.*.=.-.;.>.,.'.",
"% , & ).!.~.{.].^./.(._.:.<.[.}.|.1.2.",
"! ! 3.1.4.5.6.7.8.9.0.a.b.c.d.e.f.g.h.",
"! ! i.j.k.l.m.n.o.0.p.q.r.s.t.u.v.w.x.",
"! ! i.y.z.A.B.C.D.a.E.F.G.H.I.J.K.L.x.",
"! ! i.j.M.N.O.P.Q.R.S.T.U.V.W.X.Y.L.x.",
"! ! i.Z.`. +.+++@+#+Q.$+%+&+*+=+-+g.;+",
"! ! ! x.>+,+'+e.)+!+~+{+W.]+^+/+ .Z.2.",
"! ! ! h.(+_+:+<+[+}+|+1+2+3+4+5+6+x.2.",
"g g g 7+8+9+0+a+b+c+d+e+f+g+h+i+j+k+l ",
". . . . 8+9+0+a+b+c+d+e+f+g+h+i+j+l+. "};
