/* XPM */
static char * restoreO_xpm[] = {
"19 32 194 2",
"  	c None",
". 	c #000000",
"+ 	c #9F9F9F",
"@ 	c #9D9D9F",
"# 	c #999CA5",
"$ 	c #9B9DA3",
"% 	c #A1A1A1",
"& 	c #7E7E7E",
"* 	c #797C83",
"= 	c #767A86",
"- 	c #72798A",
"; 	c #717785",
"> 	c #121E3E",
", 	c #0F1D41",
"' 	c #0E1D44",
") 	c #0F1D3F",
"! 	c #121E3C",
"~ 	c #777C8B",
"{ 	c #797E87",
"] 	c #7D8083",
"^ 	c #848484",
"/ 	c #7C7D7E",
"( 	c #70778C",
"_ 	c #131F3F",
": 	c #0E204C",
"< 	c #0B2057",
"[ 	c #092261",
"} 	c #092263",
"| 	c #09205B",
"1 	c #0C2054",
"2 	c #0E1E46",
"3 	c #131E39",
"4 	c #757C8D",
"5 	c #7B7F85",
"6 	c #7C7D80",
"7 	c #71788B",
"8 	c #172343",
"9 	c #0D2153",
"0 	c #0F2A6D",
"a 	c #2D4EA3",
"b 	c #3257B6",
"c 	c #3157B9",
"d 	c #3458B4",
"e 	c #2E4D9C",
"f 	c #0F2765",
"g 	c #0E1F4A",
"h 	c #17223D",
"i 	c #767B84",
"j 	c #07112D",
"k 	c #142654",
"l 	c #112D73",
"m 	c #2F54B3",
"n 	c #214EC1",
"o 	c #184AC8",
"p 	c #174ACB",
"q 	c #194AC5",
"r 	c #2650BC",
"s 	c #3456AC",
"t 	c #122A68",
"u 	c #15244B",
"v 	c #2F3443",
"w 	c #2D2F37",
"x 	c #282828",
"y 	c #161616",
"z 	c #141414",
"A 	c #0F1013",
"B 	c #0C1120",
"C 	c #071537",
"D 	c #0C235E",
"E 	c #21449B",
"F 	c #1B49BD",
"G 	c #1148D3",
"H 	c #0E49E0",
"I 	c #0D4AE3",
"J 	c #0F49DD",
"K 	c #1346C9",
"L 	c #1F49B3",
"M 	c #244390",
"N 	c #0D2051",
"O 	c #070A13",
"P 	c #070707",
"Q 	c #070E21",
"R 	c #23335B",
"S 	c #082368",
"T 	c #1D45A9",
"U 	c #1044C8",
"V 	c #0C48E2",
"W 	c #0A4AEE",
"X 	c #0A4BF0",
"Y 	c #0B4AEB",
"Z 	c #0D47D9",
"` 	c #1342BB",
" .	c #21449D",
"..	c #081F58",
"+.	c #243252",
"@.	c #070C19",
"#.	c #07090F",
"$.	c #070909",
"%.	c #070B15",
"&.	c #071025",
"*.	c #223360",
"=.	c #08246C",
"-.	c #1B45AF",
";.	c #0F45CD",
">.	c #0B49E7",
",.	c #094BF3",
"'.	c #094CF5",
").	c #0D48DF",
"!.	c #1243C0",
"~.	c #2044A0",
"{.	c #08205C",
"].	c #243254",
"^.	c #070D1D",
"/.	c #071129",
"(.	c #293961",
"_.	c #123A9E",
":.	c #0F42C5",
"<.	c #0B47E1",
"[.	c #094AEF",
"}.	c #094AF1",
"|.	c #0A49EA",
"1.	c #0D46D7",
"2.	c #1140B9",
"3.	c #14368E",
"4.	c #2B3859",
"5.	c #070D1F",
"6.	c #2E3C5E",
"7.	c #0E2560",
"8.	c #0B2E87",
"9.	c #0C3AAE",
"0.	c #0B42CD",
"a.	c #0944DB",
"b.	c #0946E1",
"c.	c #0A44D8",
"d.	c #0B3FC3",
"e.	c #0D37A1",
"f.	c #0C2B78",
"g.	c #0E2254",
"h.	c #303B58",
"i.	c #2A3652",
"j.	c #273A69",
"k.	c #08246A",
"l.	c #0D3291",
"m.	c #0C39AC",
"n.	c #0C3EBC",
"o.	c #0B3EBF",
"p.	c #0C3DB8",
"q.	c #0D37A3",
"r.	c #0E3086",
"s.	c #29385F",
"t.	c #2C354A",
"u.	c #3A4666",
"v.	c #1E3264",
"w.	c #0B2C81",
"x.	c #0D3395",
"y.	c #0D318D",
"z.	c #0B2A79",
"A.	c #082160",
"B.	c #1F305B",
"C.	c #3C4762",
"D.	c #070C1B",
"E.	c #000412",
"F.	c #00081E",
"G.	c #3E4A6A",
"H.	c #2F416D",
"I.	c #132961",
"J.	c #0A2362",
"K.	c #0A2364",
"L.	c #0A215C",
"M.	c #14285C",
"N.	c #314169",
"O.	c #404A66",
"P.	c #00061A",
"Q.	c #0B0E17",
"R.	c #0C0C0C",
"S.	c #0A0B0E",
"T.	c #00040C",
"U.	c #323D54",
"V.	c #3B4767",
"W.	c #3D4B6F",
"X.	c #3D4C73",
"Y.	c #3E4C6E",
"Z.	c #3C4764",
"`.	c #323C54",
" +	c #000516",
".+	c #00030E",
"++	c #000308",
"@+	c #0D0D0D",
"#+	c #000204",
"$+	c #000614",
"%+	c #000718",
"&+	c #00081C",
"*+	c #000510",
"=+	c #00020A",
". . . . . . . . . . . . . . . . . . . ",
"+ + + + + + + @ # # # # $ % + + + + + ",
"& & & & * = - ; > , ' ) ! ; ~ { ] ^ ^ ",
"& & & / = ( _ : < [ } | 1 2 3 4 5 ^ ^ ",
"& & & 6 7 8 9 0 a b c d e f g h ^ ^ ^ ",
"& & 6 i j k l m n o p q r s t u v w x ",
"y z A B C D E F G H I J K L M N j O P ",
"P P O Q R S T U V W X Y Z `  ...+.@.#.",
"P $.%.&.*.=.-.;.>.,.'.X ).!.~.{.].^.#.",
"P $.%./.(.S _.:.<.[.}.|.1.2.3...4.5.#.",
"P $.%.&.6.7.8.9.0.a.b.c.d.e.f.g.h.^.#.",
"P P O Q i.j.k.l.m.n.o.p.q.r.{.s.t.@.#.",
"P P $.@.Q u.v.S w.l.x.y.z.A.B.C.D.O P ",
"P P $.O E.F.G.H.I.J.K.L.M.N.O.P.Q.#.P ",
"R.R.R.S.T.E.P.U.V.W.X.Y.Z.`. +.+++@+@+",
". . . . . #+.+$+%+&+&+&+ +*+=+. . . . ",
". . . . . . . . . . . . . . . . . . . ",
"+ + + + + + + @ # # # # $ % + + + + + ",
"& & & & * = - ; > , ' ) ! ; ~ { ] ^ ^ ",
"& & & / = ( _ : < [ } | 1 2 3 4 5 ^ ^ ",
"& & & 6 7 8 9 0 a b c d e f g h ^ ^ ^ ",
"& & 6 i j k l m n o p q r s t u v w x ",
"y z A B C D E F G H I J K L M N j O P ",
"P P O Q R S T U V W X Y Z `  ...+.@.#.",
"P $.%.&.*.=.-.;.>.,.'.X ).!.~.{.].^.#.",
"P $.%./.(.S _.:.<.[.}.|.1.2.3...4.5.#.",
"P $.%.&.6.7.8.9.0.a.b.c.d.e.f.g.h.^.#.",
"P P O Q i.j.k.l.m.n.o.p.q.r.{.s.t.@.#.",
"P P $.@.Q u.v.S w.l.x.y.z.A.B.C.D.O P ",
"P P $.O E.F.G.H.I.J.K.L.M.N.O.P.Q.#.P ",
"R.R.R.S.T.E.P.U.V.W.X.Y.Z.`. +.+++@+@+",
". . . . . #+.+$+%+&+&+&+ +*+=+. . . . "};
