/* XPM */
static char * folder_24x24_xpm[] = {
"24 24 101 2",
"  	c None",
". 	c #617A7A",
"+ 	c #5D7979",
"@ 	c #5B7777",
"# 	c #5D7A7A",
"$ 	c #817C7C",
"% 	c #B27070",
"& 	c #BD6B6B",
"* 	c #BB6B6B",
"= 	c #BC6B6B",
"- 	c #B56C6C",
"; 	c #796E6E",
"> 	c #767676",
", 	c #6B5757",
"' 	c #6C4C4C",
") 	c #6C4F4F",
"! 	c #6B4F4F",
"~ 	c #694C4C",
"{ 	c #575454",
"] 	c #717171",
"^ 	c #7E7E7E",
"/ 	c #636565",
"( 	c #5B5F5F",
"_ 	c #5D5D5D",
": 	c #636363",
"< 	c #737373",
"[ 	c #747474",
"} 	c #777777",
"| 	c #868686",
"1 	c #878787",
"2 	c #6E6E6E",
"3 	c #707070",
"4 	c #6C6C6C",
"5 	c #858585",
"6 	c #797979",
"7 	c #898989",
"8 	c #B1B1B1",
"9 	c #AEAEAE",
"0 	c #AFAFAF",
"a 	c #B2B2B2",
"b 	c #B0B0B0",
"c 	c #ADADAD",
"d 	c #ABABAB",
"e 	c #A8A8A8",
"f 	c #A7A7A7",
"g 	c #A6A6A6",
"h 	c #A5A5A5",
"i 	c #A3A3A3",
"j 	c #A0A0A0",
"k 	c #9F9F9F",
"l 	c #A4A4A4",
"m 	c #B3B3B3",
"n 	c #AAAAAA",
"o 	c #9C9C9C",
"p 	c #989898",
"q 	c #939393",
"r 	c #8B8B8B",
"s 	c #8E8E8E",
"t 	c #ACACAC",
"u 	c #A9A9A9",
"v 	c #9D9D9D",
"w 	c #949494",
"x 	c #9E9E9E",
"y 	c #9B9B9B",
"z 	c #959595",
"A 	c #8F8F8F",
"B 	c #828282",
"C 	c #A1A1A1",
"D 	c #A2A2A2",
"E 	c #999999",
"F 	c #979797",
"G 	c #8C8C8C",
"H 	c #848484",
"I 	c #7A7A7A",
"J 	c #676767",
"K 	c #656565",
"L 	c #919191",
"M 	c #7C7C7C",
"N 	c #696969",
"O 	c #5F5F5F",
"P 	c #929292",
"Q 	c #969696",
"R 	c #818181",
"S 	c #595959",
"T 	c #575757",
"U 	c #545454",
"V 	c #6B6B6B",
"W 	c #8D8D8D",
"X 	c #616161",
"Y 	c #4F4F4F",
"Z 	c #4C4C4C",
"` 	c #494949",
" .	c #424242",
"..	c #3E3E3E",
"+.	c #2C2C2C",
"@.	c #171717",
"#.	c #333333",
"$.	c #454545",
"%.	c #5B5B5B",
"&.	c #525252",
"*.	c #393939",
"                                                ",
"                                                ",
"                                                ",
"    . + + + + + + @ @ #                         ",
"  $ % & * * * * * * = - ;                       ",
"  > , ' ) ) ) ! ! ! ) ~ { ]                     ",
"  ^ / ( ( ( ( ( ( ( ( ( _ : < [ [ < < < < } |   ",
"  1 < 2 3 3 3 3 3 3 3 3 3 2 2 2 2 2 2 2 4 ] 1   ",
"  5 6 < [ [ [ < < [ [ [ [ [ [ [ [ > > > > 6 7   ",
"  8 9 0 8 a a a 8 b b 0 c d e f f g h i j k l   ",
"  c 9 b a m m m m a b 9 c n e f l j o p q r s   ",
"  d d c 9 0 b b 0 9 t d u f h i j v p w s 1 r   ",
"  g f e n d t d n u f f h i j x y p z A r B |   ",
"  C D i h f f f g h i D k v y E F q G H 6 3 I   ",
"  o o x j C D C C k x v y p w G B } 2 J K : [   ",
"  p F E y o o v o y F L 1 M ] N : O _ _ _ _ 3   ",
"  q P w Q F Q q r R [ N O S T T U U U U U U V   ",
"  W G G r 5 I 2 X T Y Z Z Z Z ` Z ` ` ` ` Z :   ",
"  B ^ < K T `  ... . . ................... ._   ",
"  K Z +.@.@.+.+.+.+.+.+.+.+.+.+.+.+.+.+.+.#.T   ",
"  T Y $.` $.$.$.$.$.$.$.$.$.$.$.$.$.$.$. .Z %.  ",
"  #.&.Z ` ` ` $.$.$.$.$.$.$.$.$.$.$.$.` ` Y *.  ",
"                                                ",
"                                                "};
