/* XPM */
static char * icewm_xpm[] = {
"50 22 107 2",
"  	c None",
". 	c #020B0F",
"+ 	c #020C11",
"@ 	c #031016",
"# 	c #020E13",
"$ 	c #07222E",
"% 	c #115776",
"& 	c #156A90",
"* 	c #125979",
"= 	c #082735",
"- 	c #03131A",
"; 	c #031118",
"> 	c #04151D",
", 	c #15688C",
"' 	c #2AA7DF",
") 	c #60BDE7",
"! 	c #43B1E2",
"~ 	c #20A1DB",
"{ 	c #27A6DE",
"] 	c #52B8E5",
"^ 	c #35ABE0",
"/ 	c #136184",
"( 	c #051922",
"_ 	c #051D28",
": 	c #1D8FC2",
"< 	c #67C0E8",
"[ 	c #10506D",
"} 	c #0C3E55",
"| 	c #0F4E6A",
"1 	c #0E465F",
"2 	c #093042",
"3 	c #197DAA",
"4 	c #64BFE7",
"5 	c #1E97CD",
"6 	c #1B89BA",
"7 	c #1F9AD0",
"8 	c #48B3E3",
"9 	c #7CC9EB",
"0 	c #4BB5E4",
"a 	c #41B0E2",
"b 	c #166F97",
"c 	c #57BAE6",
"d 	c #1D92C6",
"e 	c #051A24",
"f 	c #167199",
"g 	c #54B8E5",
"h 	c #6CC2E9",
"i 	c #4DB5E4",
"j 	c #0F4A64",
"k 	c #17739C",
"l 	c #197CA8",
"m 	c #1A82B1",
"n 	c #2CA8DF",
"o 	c #136082",
"p 	c #04171F",
"q 	c #000305",
"r 	c #5DBCE6",
"s 	c #1A81AF",
"t 	c #50B7E5",
"u 	c #25A5DE",
"v 	c #0B384C",
"w 	c #2EA9DF",
"x 	c #78C7EB",
"y 	c #115674",
"z 	c #1B86B6",
"A 	c #1877A1",
"B 	c #59BAE6",
"C 	c #20A0D9",
"D 	c #000000",
"E 	c #0C3D53",
"F 	c #197FAC",
"G 	c #0A3549",
"H 	c #69C1E8",
"I 	c #146487",
"J 	c #3AAEE1",
"K 	c #49B4E4",
"L 	c #146589",
"M 	c #072634",
"N 	c #2FA9E0",
"O 	c #5EBDE7",
"P 	c #56B9E5",
"Q 	c #3DAFE2",
"R 	c #17729A",
"S 	c #01080C",
"T 	c #17749E",
"U 	c #38ADE1",
"V 	c #01070A",
"W 	c #0A3447",
"X 	c #31AAE0",
"Y 	c #010608",
"Z 	c #21A4DE",
"` 	c #44B2E3",
" .	c #23A4DE",
"..	c #156B92",
"+.	c #010506",
"@.	c #1F9DD6",
"#.	c #46B3E3",
"$.	c #1E98CF",
"%.	c #092E3E",
"&.	c #105371",
"*.	c #000101",
"=.	c #166D93",
"-.	c #000203",
";.	c #1B88B8",
">.	c #1C8ABB",
",.	c #06212D",
"'.	c #04141B",
"                                                                                                    ",
"                                          . + + + @ @ @                                             ",
"                                      . + # $ % & * = - ; -                                         ",
"                                    + > , ' ) ! ~ { ] ^ / ( >                                       ",
"                                  + _ : < ^ [ } | 1 2 3 4 5 _ (                                     ",
"                                + ; 6 < 7 , 8 9 4 0 a ' b c d _ (                                   ",
"                              . e f g ^ / h i / j k l m n : c o p -                                 ",
"                              q + 5 r s t u v w x a , y z A B C _ ;                                 ",
"                            D D E ^ r F 4 G c H , I J g 0 K t J [ ; .                               ",
"                            D D , J g B L ' < M N O B B P g t Q R @ S                               ",
"                            D D T U t g * < 3 7 < B B P g ] t Q F ; V                               ",
"                            D D k N 0 J 3 4 W g B B P g ] t 8 X l @ Y                               ",
"                            D D / Z ! ` : n E P g g g t i K !  ...+ +.                              ",
"                            D D = 5 Q t { @.j ] ] t t K #.! J $.E . q                               ",
"D D D D D D D D D D D D %.&.q D *.T ~ Q ` 0 v #.K 8 8 ` ! Q  .l @ + q &.%.D D D D D D D D D D D D D ",
"D D D D D D D D D D D D V &.%.D D 2 : { J P , ` ! ! a Q J ' : E + *.%.&.V D D D D D D D D D D D D D ",
"D D D D D D D D D D D D D %.&.q D D | : Z X U =.#.Q J ^  .d % . Y q &.%.D D D D D D D D D D D D D D ",
"D D D D D D D D D D D D D V &.&.-.D *.E m 7 Z  .u { ~ 7 ;.1 ; q q &.&.V D D D D D D D D D D D D D D ",
"D D D D D D D D D D D D D D V &.&.-.D D + * F ;.>.;.m o > +.q q &.&.V D D D D D D D D D D D D D D D ",
"D D D D D D D D D D D D D D D V &.&.,.D D *.V '.e '.+ q q *.,.&.&.V D D D D D D D D D D D D D D D D ",
"D D D D D D D D D D D D D D D D V %.&.&.,.-.D D D D D q ,.&.&.%.V D D D D D D D D D D D D D D D D D ",
"D D D D D D D D D D D D D D D D D D V %.&.&.%.%.%.%.%.&.&.%.V D D D D D D D D D D D D D D D D D D D "};
