/* XPM */
static char * closeA_xpm[] = {
"18 52 75 1",
" 	c None",
".	c #7E8285",
"+	c #7E8283",
"@	c #7C7D7F",
"#	c #7C7E7D",
"$	c #797B7A",
"%	c #727471",
"&	c #6E706D",
"*	c #6A6A68",
"=	c #646462",
"-	c #60605E",
";	c #5C5C5C",
">	c #5E5E5E",
",	c #626262",
"'	c #565656",
")	c #656565",
"!	c #595959",
"~	c #555555",
"{	c #696969",
"]	c #5D5D5D",
"^	c #5A5A58",
"/	c #535353",
"(	c #4D4D4D",
"_	c #515151",
":	c #5A5A5A",
"<	c #4F4F4F",
"[	c #4C4C4C",
"}	c #585858",
"|	c #FFFFFF",
"1	c #3C3C3C",
"2	c #616161",
"3	c #545454",
"4	c #959595",
"5	c #454545",
"6	c #505050",
"7	c #474747",
"8	c #4B4B4B",
"9	c #4E4E4E",
"0	c #484848",
"a	c #414141",
"b	c #4A4A4A",
"c	c #141414",
"d	c #1F1F1F",
"e	c #0D0D0D",
"f	c #000000",
"g	c #101010",
"h	c #151515",
"i	c #0F0F0F",
"j	c #131313",
"k	c #161616",
"l	c #0E0E0E",
"m	c #171717",
"n	c #272727",
"o	c #1E1E1E",
"p	c #181818",
"q	c #111111",
"r	c #060606",
"s	c #2B2B2B",
"t	c #222222",
"u	c #363636",
"v	c #191919",
"w	c #0C0C0C",
"x	c #070707",
"y	c #030303",
"z	c #0B0B0B",
"A	c #252525",
"B	c #1C1C1C",
"C	c #050505",
"D	c #1B1B1B",
"E	c #121212",
"F	c #010101",
"G	c #0A0A0A",
"H	c #CF7370",
"I	c #856766",
"J	c #C37371",
".+.+.+.+.+.+.+.+.+",
"@#@#@#@#@#@#@#@#@#",
"$$$$$$$$$$$$$$$$$$",
"%%%%%%%%%%%%%%%%%%",
"&&&&&&&&&&&&&&&&&&",
"******************",
"==================",
"---;>,'>>)!~{>]---",
"^^^/((_>:>'<:[!^^^",
"~~~_}||,<1{|2}3~~~",
"___<4|||53|||/6___",
"[[[78'||||||908[[[",
"5555[<(||||ab55555",
"cccdefg||||chijccc",
"kkklmn||||||gopkkk",
"qqqrs|||le|||tgqqq",
"kkkekn|ujcv|hepkkk",
"ggghlwxyhegznegggg",
"hhheqhhqABxvCDkhhh",
"EEEhcgqheFAGgcEEEE",
"hhhhhhhhhhhhhhhhhh",
"jjjjjjjjjjjjjjjjjj",
"jjjjjjjjjjjjjjjjjj",
"hhhhhhhhhhhhhhhhhh",
"jjjjjjjjjjjjjjjjjj",
"hhhhhhhhhhhhhhhhhh",
".+.+.+.+.+.+.+.+.+",
"@#@#@#@#@#@#@#@#@#",
"$$$$$$$$$$$$$$$$$$",
"%%%%%%%%%%%%%%%%%%",
"&&&&&&&&&&&&&&&&&&",
"******************",
"==================",
"---;>,'>>)!~{>]---",
"^^^/((_>:>'<:[!^^^",
"~~~_}HH,<1{H2}3~~~",
"___<IHHH53HHH/6___",
"[[[78'HHHHHH908[[[",
"5555[<(HHHHab55555",
"cccdefgHHHHchijccc",
"kkklmnHHJHHHgopkkk",
"qqqrsHHHleJHHtgqqq",
"kkkeknHujcvHhepkkk",
"ggghlwxyhegznegggg",
"hhheqhhqABxvCDkhhh",
"EEEhcgqheFAGgcEEEE",
"hhhhhhhhhhhhhhhhhh",
"jjjjjjjjjjjjjjjjjj",
"jjjjjjjjjjjjjjjjjj",
"hhhhhhhhhhhhhhhhhh",
"jjjjjjjjjjjjjjjjjj",
"hhhhhhhhhhhhhhhhhh"};
