/* XPM */
static char * closeO_xpm[] = {
"18 52 75 1",
" 	c None",
".	c #7E8285",
"+	c #7E8283",
"@	c #7C7D7F",
"#	c #7C7E7D",
"$	c #797B7A",
"%	c #727471",
"&	c #6E706D",
"*	c #6A6A68",
"=	c #646462",
"-	c #60605E",
";	c #5C5C5C",
">	c #5E5E5E",
",	c #626262",
"'	c #565656",
")	c #656565",
"!	c #595959",
"~	c #555555",
"{	c #696969",
"]	c #5D5D5D",
"^	c #5A5A58",
"/	c #535353",
"(	c #4D4D4D",
"_	c #515151",
":	c #5A5A5A",
"<	c #4F4F4F",
"[	c #4C4C4C",
"}	c #585858",
"|	c #CF7370",
"1	c #3C3C3C",
"2	c #616161",
"3	c #545454",
"4	c #856766",
"5	c #454545",
"6	c #505050",
"7	c #474747",
"8	c #4B4B4B",
"9	c #4E4E4E",
"0	c #484848",
"a	c #414141",
"b	c #4A4A4A",
"c	c #141414",
"d	c #1F1F1F",
"e	c #0D0D0D",
"f	c #000000",
"g	c #101010",
"h	c #151515",
"i	c #0F0F0F",
"j	c #131313",
"k	c #161616",
"l	c #0E0E0E",
"m	c #171717",
"n	c #272727",
"o	c #C37371",
"p	c #1E1E1E",
"q	c #181818",
"r	c #111111",
"s	c #060606",
"t	c #2B2B2B",
"u	c #222222",
"v	c #363636",
"w	c #191919",
"x	c #0C0C0C",
"y	c #070707",
"z	c #030303",
"A	c #0B0B0B",
"B	c #252525",
"C	c #1C1C1C",
"D	c #050505",
"E	c #1B1B1B",
"F	c #121212",
"G	c #010101",
"H	c #0A0A0A",
"I	c #29EF29",
"J	c #959595",
".+.+.+.+.+.+.+.+.+",
"@#@#@#@#@#@#@#@#@#",
"$$$$$$$$$$$$$$$$$$",
"%%%%%%%%%%%%%%%%%%",
"&&&&&&&&&&&&&&&&&&",
"******************",
"==================",
"---;>,'>>)!~{>]---",
"^^^/((_>:>'<:[!^^^",
"~~~_}||,<1{|2}3~~~",
"___<4|||53|||/6___",
"[[[78'||||||908[[[",
"5555[<(||||ab55555",
"cccdefg||||chijccc",
"kkklmn||o|||gpqkkk",
"rrrst|||leo||ugrrr",
"kkkekn|vjcw|heqkkk",
"ggghlxyzhegAnegggg",
"hhherhhrBCywDEkhhh",
"FFFhcgrheGBHgcFFFF",
"hhhhhhhhhhhhhhhhhh",
"jjjjjjjjjjjjjjjjjj",
"jjjjjjjjjjjjjjjjjj",
"hhhhhhhhhhhhhhhhhh",
"jjjjjjjjjjjjjjjjjj",
"hhhhhhhhhhhhhhhhhh",
".+.+.+.+.+.+.+.+.+",
"@#@#@#@#@#@#@#@#@#",
"$$$$$$$$$$$$$$$$$$",
"%%%%%%%%%%%%%%%%%%",
"&&&&&&&&&&&&&&&&&&",
"******************",
"==================",
"---;>,'>>)!~{>]---",
"^^^/((_>:>'<:[!^^^",
"~~~_}II,<1{I2}3~~~",
"___<JIII53III/6___",
"[[[78'IIIIII908[[[",
"5555[<(IIIIab55555",
"cccdefgIIIIchijccc",
"kkklmnIIIIIIgpqkkk",
"rrrstIIIleIIIugrrr",
"kkkeknIvjcwIheqkkk",
"ggghlxyzhegAnegggg",
"hhherhhrBCywDEkhhh",
"FFFhcgrheGBHgcFFFF",
"hhhhhhhhhhhhhhhhhh",
"jjjjjjjjjjjjjjjjjj",
"jjjjjjjjjjjjjjjjjj",
"hhhhhhhhhhhhhhhhhh",
"jjjjjjjjjjjjjjjjjj",
"hhhhhhhhhhhhhhhhhh"};
