/* XPM */
static char * frameAT_xpm[] = {
"5 5 5 1",
" 	c None",
".	c #202020",
"+	c #010101",
"@	c #7E8285",
"#	c #7E8283",
".+..+",
"@##@#",
".+..+",
".++.+",
".++.+"};
