/* XPM */
static char * frameIT_xpm[] = {
"5 5 4 1",
" 	c None",
".	c #202020",
"+	c #010101",
"@	c #7A7D7E",
".+..+",
"@@@@@",
".+..+",
".++.+",
".++.+"};
