/* XPM */
static char * frameAR_xpm[] = {
"5 5 3 1",
" 	c None",
".	c #202020",
"+	c #010101",
".+..+",
".+..+",
".+..+",
".++.+",
".++.+"};
