/* XPM */
static char * frameATL_xpm[] = {
"17 27 27 1",
" 	c None",
".	c #212121",
"+	c #202020",
"@	c #010101",
"#	c #7E8283",
"$	c #7E8285",
"%	c #7C7E7D",
"&	c #7C7D7F",
"*	c #797B7A",
"=	c #727471",
"-	c #6E706D",
";	c #6A6A68",
">	c #646462",
",	c #60605E",
"'	c #5A5A58",
")	c #555555",
"!	c #515151",
"~	c #4C4C4C",
"{	c #454545",
"]	c #131313",
"^	c #121212",
"/	c #141414",
"(	c #181818",
"_	c #161616",
":	c #101010",
"<	c #111111",
"[	c #151515",
"    .+++@+@++@+@+",
"  ...#$#$#$#$#$#$",
" ..%&%&%&%&%&%&%&",
" .***************",
"..===============",
".----------------",
"+;;;;;;;;;;;;;;;;",
"+>>>>>>>>>>>>>>>>",
".,,,,,,,,,,,,,,,,",
"+''''''''''''''''",
"+))))))))))))))))",
"+!!!!!!!!!!!!!!!!",
"+~~~~~~~~~~~~~~~~",
"+{{{{{{{{{{{{{{{{",
"+]]^]^]]]////////",
"+((((((((________",
"+:<::::::<<<<<<<<",
"+((((((((________",
"+::::::::::::::::",
"+________[[[[[[[[",
"+^^^^]^^^^^^^^^^^",
"+]]]//[[/[[[[[[[[",
"+[[[[[___]]]]]]]]",
".]]^]^^^^]]]]]]]]",
"+]]]^^^^^[[[[[[[[",
"+__[[[[[[]]]]]]]]",
"+^^]]////[[[[[[[["};
