/* XPM */
static char * frameITR_xpm[] = {
"17 27 22 1",
" 	c None",
".	c #202020",
"+	c #010101",
"@	c #212121",
"#	c #7A7D7E",
"$	c #787B7B",
"%	c #757776",
"&	c #717371",
"*	c #6D6E6C",
"=	c #686966",
"-	c #636361",
";	c #5E5E5C",
">	c #595957",
",	c #535352",
"'	c #4B4B4B",
")	c #414141",
"!	c #353535",
"~	c #282828",
"{	c #1D1D1D",
"]	c #161616",
"^	c #131313",
"/	c #121212",
".+.+..+.+...@    ",
"############@@@  ",
"$$$$$$$$$$$$$$@@ ",
"%%%%%%%%%%%%%%%@ ",
"&&&&&&&&&&&&&&&@@",
"****************@",
"================.",
"----------------.",
";;;;;;;;;;;;;;;;@",
">>>>>>>>>>>>>>>>.",
",,,,,,,,,,,,,,,,.",
"''''''''''''''''.",
")))))))))))))))).",
"!!!!!!!!!!!!!!!!.",
"~~~~~~~~~~~~~~~~.",
"{{{{{{{{{{{{{{{{.",
"]]]]]]]]]]]]]]]].",
"^^^^^^^^^^^^^^^^.",
"////////////////.",
"////////////////.",
"////////////////.",
"////////////////.",
"////////////////.",
"////////////////@",
"////////////////.",
"^^^^^^^^^^^^^^^^.",
"^^^^^^^^^^^^^^^^."};
