/* XPM */
static char * maximizeA_xpm[] = {
"18 52 76 1",
" 	c None",
".	c #7E8285",
"+	c #7E8283",
"@	c #7C7D7F",
"#	c #7C7E7D",
"$	c #797B7A",
"%	c #727471",
"&	c #6E706D",
"*	c #6A6A68",
"=	c #646462",
"-	c #60605E",
";	c #5A5A58",
">	c #595959",
",	c #505050",
"'	c #676767",
")	c #5B5B5B",
"!	c #5A5A5A",
"~	c #565656",
"{	c #616161",
"]	c #555555",
"^	c #535353",
"/	c #545454",
"(	c #606060",
"_	c #FFFFFF",
":	c #F4F4F4",
"<	c #525252",
"[	c #4F4F4F",
"}	c #515151",
"|	c #474747",
"1	c #6A6A6A",
"2	c #575757",
"3	c #4B4B4B",
"4	c #4C4C4C",
"5	c #4D4D4D",
"6	c #7E7E7E",
"7	c #717171",
"8	c #6E6E6E",
"9	c #6B6B6B",
"0	c #7D7D7D",
"a	c #444444",
"b	c #454545",
"c	c #3B3B3B",
"d	c #777777",
"e	c #424242",
"f	c #141414",
"g	c #131313",
"h	c #090909",
"i	c #E1E1E1",
"j	c #1C1C1C",
"k	c #0C0C0C",
"l	c #494949",
"m	c #111111",
"n	c #0E0E0E",
"o	c #151515",
"p	c #161616",
"q	c #181818",
"r	c #070707",
"s	c #0F0F0F",
"t	c #1B1B1B",
"u	c #121212",
"v	c #191919",
"w	c #101010",
"x	c #171717",
"y	c #F0F0F0",
"z	c #232323",
"A	c #3E3E3E",
"B	c #404040",
"C	c #414141",
"D	c #1A1A1A",
"E	c #0B0B0B",
"F	c #1D1D1D",
"G	c #0D0D0D",
"H	c #212121",
"I	c #202020",
"J	c #0A0A0A",
"K	c #CF7370",
".+.+.+.+.+.+.+.+.+",
"@#@#@#@#@#@#@#@#@#",
"$$$$$$$$$$$$$$$$$$",
"%%%%%%%%%%%%%%%%%%",
"&&&&&&&&&&&&&&&&&&",
"******************",
"==================",
"------------------",
";;>>,')!~~{>]^/!;;",
"]]//(___:___)<[]]]",
"}}[[|___:___123[}}",
"44335_67890_7>ab44",
"bbbb}_95cba_dea4bb",
"ffgghi<gjjk_lmnoff",
"ppqqo_>rsjq_~tuvpp",
"mmwwx______y5qngmm",
"ppqqozA<B2{<CtpDpp",
"wwwwkumowErnFEGGww",
"ooppnFouHpkIuuqsoo",
"uuuuxosJffguGpFkuu",
"oooooooooooooooooo",
"gggggggggggggggggg",
"gggggggggggggggggg",
"oooooooooooooooooo",
"gggggggggggggggggg",
"oooooooooooooooooo",
".+.+.+.+.+.+.+.+.+",
"@#@#@#@#@#@#@#@#@#",
"$$$$$$$$$$$$$$$$$$",
"%%%%%%%%%%%%%%%%%%",
"&&&&&&&&&&&&&&&&&&",
"******************",
"==================",
"------------------",
";;>>,')!~~{>]^/!;;",
"]]//(KKKKKKK)<[]]]",
"}}[[|KKKKKKK123[}}",
"44335K67890K7>ab44",
"bbbb}K95cbaKdea4bb",
"ffgghK<gjjkKlmnoff",
"ppqqoK>rsjqK~tuvpp",
"mmwwxKKKKKKK5qngmm",
"ppqqozA<B2{<CtpDpp",
"wwwwkumowErnFEGGww",
"ooppnFouHpkIuuqsoo",
"uuuuxosJffguGpFkuu",
"oooooooooooooooooo",
"gggggggggggggggggg",
"gggggggggggggggggg",
"oooooooooooooooooo",
"gggggggggggggggggg",
"oooooooooooooooooo"};
