/* XPM */
static char * menubg_xpm[] = {
"194 22 39 1",
" 	c None",
".	c #848584",
"+	c #767777",
"@	c #676868",
"#	c #656666",
"$	c #636363",
"%	c #606161",
"&	c #5E5F5F",
"*	c #5B5C5C",
"=	c #585959",
"-	c #555656",
";	c #525353",
">	c #4F5050",
",	c #4B4C4C",
"'	c #484848",
")	c #454545",
"!	c #414242",
"~	c #3D3E3F",
"{	c #3A3A3B",
"]	c #363637",
"^	c #323333",
"/	c #2E2F2F",
"(	c #2B2C2C",
"_	c #282929",
":	c #252626",
"<	c #232323",
"[	c #202020",
"}	c #1D1E1E",
"|	c #1B1B1B",
"1	c #181818",
"2	c #161717",
"3	c #121313",
"4	c #0A0A0A",
"5	c #060606",
"6	c #050505",
"7	c #040505",
"8	c #848585",
"9	c #121212",
"0	c #090909",
".+@#$%&*=-;>,')!~{]^/(_:<[}|1234566666666666666666666666666666666666666666666666666666666666777777777777777777777777777777777777777777777777777777777777777777777777777777777777777777777777777777",
".+@#$%&*=-;>,')!~{]^/(_:<[}|1234566666666666666666666666666666666666666666666666666666666666777777777777777777777777777777777777777777777777777777777777777777777777777777777777777777777777777777",
".+@#$%&*=-;>,')!~{]^/(_:<[}|1234566666666666666666666666666666666666666666666666666666666666777777777777777777777777777777777777777777777777777777777777777777777777777777777777777777777777777777",
".+@#$%&*=-;>,')!~{]^/(_:<[}|1234566666666666666666666666666666666666666666666666666666666666777777777777777777777777777777777777777777777777777777777777777777777777777777777777777777777777777777",
".+@#$%&*=-;>,')!~{]^/(_:<[}|1234566666666666666666666666666666666666666666666666666666666666777777777777777777777777777777777777777777777777777777777777777777777777777777777777777777777777777777",
".+@#$%&*=-;>,')!~{]^/(_:<[}|1234566666666666666666666666666666666666666666666666666666666666777777777777777777777777777777777777777777777777777777777777777777777777777777777777777777777777777777",
".+@#$%&*=-;>,')!~{]^/(_:<[}|1234566666666666666666666666666666666666666666666666666666666666777777777777777777777777777777777777777777777777777777777777777777777777777777777777777777777777777777",
".+@#$%&*=-;>,')!~{]^/(_:<[}|1234566666666666666666666666666666666666666666666666666666666666777777777777777777777777777777777777777777777777777777777777777777777777777777777777777777777777777777",
".+@#$%&*=-;>,')!~{]^/(_:<[}|1234566666666666666666666666666666666666666666666666666666666666777777777777777777777777777777777777777777777777777777777777777777777777777777777777777777777777777777",
".+@#$%&*=-;>,')!~{]^/(_:<[}|1234566666666666666666666666666666666666666666666666666666666666777777777777777777777777777777777777777777777777777777777777777777777777777777777777777777777777777777",
".+@#$%&*=-;>,')!~{]^/(_:<[}|1234566666666666666666666666666666666666666666666666666666666666777777777777777777777777777777777777777777777777777777777777777777777777777777777777777777777777777777",
".+@#$%&*=-;>,')!~{]^/(_:<[}|1234566666666666666666666666666666666666666666666666666666666666777777777777777777777777777777777777777777777777777777777777777777777777777777777777777777777777777777",
"8+@#$%&*=-;>,')!~{]^/(_:<[}|1290566666666666666666666666666666666666666666666666666666666666777777777777777777777777777777777777777777777777777777777777777777777777777777777777777777777777777777",
"8+@#$%&*=-;>,')!~{]^/(_:<[}|1290566666666666666666666666666666666666666666666666666666666666777777777777777777777777777777777777777777777777777777777777777777777777777777777777777777777777777777",
"8+@#$%&*=-;>,')!~{]^/(_:<[}|1290566666666666666666666666666666666666666666666666666666666666777777777777777777777777777777777777777777777777777777777777777777777777777777777777777777777777777777",
"8+@#$%&*=-;>,')!~{]^/(_:<[}|1290566666666666666666666666666666666666666666666666666666666666777777777777777777777777777777777777777777777777777777777777777777777777777777777777777777777777777777",
"8+@#$%&*=-;>,')!~{]^/(_:<[}|1290566666666666666666666666666666666666666666666666666666666666777777777777777777777777777777777777777777777777777777777777777777777777777777777777777777777777777777",
"8+@#$%&*=-;>,')!~{]^/(_:<[}|1290566666666666666666666666666666666666666666666666666666666666777777777777777777777777777777777777777777777777777777777777777777777777777777777777777777777777777777",
"8+@#$%&*=-;>,')!~{]^/(_:<[}|1290566666666666666666666666666666666666666666666666666666666666777777777777777777777777777777777777777777777777777777777777777777777777777777777777777777777777777777",
"8+@#$%&*=-;>,')!~{]^/(_:<[}|1290566666666666666666666666666666666666666666666666666666666666777777777777777777777777777777777777777777777777777777777777777777777777777777777777777777777777777777",
"8+@#$%&*=-;>,')!~{]^/(_:<[}|1290566666666666666666666666666666666666666666666666666666666666777777777777777777777777777777777777777777777777777777777777777777777777777777777777777777777777777777",
"8+@#$%&*=-;>,')!~{]^/(_:<[}|1290566666666666666666666666666666666666666666666666666666666666777777777777777777777777777777777777777777777777777777777777777777777777777777777777777777777777777777"};
