/* XPM */
static char * minimizeA_xpm[] = {
"18 52 50 1",
" 	c None",
".	c #7E8285",
"+	c #7E8283",
"@	c #7C7D7F",
"#	c #7C7E7D",
"$	c #797B7A",
"%	c #727471",
"&	c #6E706D",
"*	c #6A6A68",
"=	c #646462",
"-	c #60605E",
";	c #5A5A58",
">	c #555555",
",	c #515151",
"'	c #4C4C4C",
")	c #454545",
"!	c #141414",
"~	c #FFFFFF",
"{	c #2A2A2A",
"]	c #161616",
"^	c #232323",
"/	c #3F3F3F",
"(	c #4B4B4B",
"_	c #4F4F4F",
":	c #535353",
"<	c #393939",
"[	c #111111",
"}	c #151515",
"|	c #131313",
"1	c #0E0E0E",
"2	c #0B0B0B",
"3	c #1C1C1C",
"4	c #0D0D0D",
"5	c #0C0C0C",
"6	c #101010",
"7	c #171717",
"8	c #191919",
"9	c #1A1A1A",
"0	c #1E1E1E",
"a	c #000000",
"b	c #181818",
"c	c #212121",
"d	c #121212",
"e	c #070707",
"f	c #1D1D1D",
"g	c #1B1B1B",
"h	c #1F1F1F",
"i	c #0F0F0F",
"j	c #090909",
"k	c #CF7370",
".+.+.+.+.+.+.+.+.+",
"@#@#@#@#@#@#@#@#@#",
"$$$$$$$$$$$$$$$$$$",
"%%%%%%%%%%%%%%%%%%",
"&&&&&&&&&&&&&&&&&&",
"******************",
"==================",
"------------------",
";;;;;;;;;;;;;;;;;;",
">>>>>>>>>>>>>>>>>>",
",,,,,,,,,,,,,,,,,,",
"''''''''''''''''''",
"))))))))))))))))))",
"!!!!!~~~~~~~{!!!!!",
"]]]]]^/(_:<:)]]]]]",
"[[[[[[[[[[[[[[[[[[",
"]]]}]|121|33}45]]]",
"6667}89}]0a}b7c666",
"}}}}}5}}}}}}}}5}}}",
"dddddddddddddddddd",
"}}}e19f|6dghij8}}}",
"|||bb|14|8i[i5i|||",
"|||}!6|7}i[6]}i|||",
"}}}}}}}}}}}}}}}}}}",
"||||||||||||||||||",
"}}}}}}}}}}}}}}}}}}",
".+.+.+.+.+.+.+.+.+",
"@#@#@#@#@#@#@#@#@#",
"$$$$$$$$$$$$$$$$$$",
"%%%%%%%%%%%%%%%%%%",
"&&&&&&&&&&&&&&&&&&",
"******************",
"==================",
"------------------",
";;;;;;;;;;;;;;;;;;",
">>>>>>>>>>>>>>>>>>",
",,,,,,,,,,,,,,,,,,",
"''''''''''''''''''",
"))))))))))))))))))",
"!!!!!kkkkkkk{!!!!!",
"]]]]]^/(_:<:)]]]]]",
"[[[[[[[[[[[[[[[[[[",
"]]]}]|121|33}45]]]",
"6667}89}]0a}b7c666",
"}}}}}5}}}}}}}}5}}}",
"dddddddddddddddddd",
"}}}e19f|6dghij8}}}",
"|||bb|14|8i[i5i|||",
"|||}!6|7}i[6]}i|||",
"}}}}}}}}}}}}}}}}}}",
"||||||||||||||||||",
"}}}}}}}}}}}}}}}}}}"};
