/* XPM */
static char * maximizeO_xpm[] = {
"18 52 73 1",
" 	c None",
".	c #7E8285",
"+	c #7E8283",
"@	c #7C7D7F",
"#	c #7C7E7D",
"$	c #797B7A",
"%	c #727471",
"&	c #6E706D",
"*	c #6A6A68",
"=	c #646462",
"-	c #60605E",
";	c #5A5A58",
">	c #595959",
",	c #505050",
"'	c #676767",
")	c #5B5B5B",
"!	c #5A5A5A",
"~	c #565656",
"{	c #616161",
"]	c #555555",
"^	c #535353",
"/	c #545454",
"(	c #606060",
"_	c #CF7370",
":	c #525252",
"<	c #4F4F4F",
"[	c #515151",
"}	c #474747",
"|	c #6A6A6A",
"1	c #575757",
"2	c #4B4B4B",
"3	c #4C4C4C",
"4	c #4D4D4D",
"5	c #7E7E7E",
"6	c #717171",
"7	c #6E6E6E",
"8	c #6B6B6B",
"9	c #7D7D7D",
"0	c #444444",
"a	c #454545",
"b	c #3B3B3B",
"c	c #777777",
"d	c #424242",
"e	c #141414",
"f	c #131313",
"g	c #090909",
"h	c #1C1C1C",
"i	c #0C0C0C",
"j	c #494949",
"k	c #111111",
"l	c #0E0E0E",
"m	c #151515",
"n	c #161616",
"o	c #181818",
"p	c #070707",
"q	c #0F0F0F",
"r	c #1B1B1B",
"s	c #121212",
"t	c #191919",
"u	c #101010",
"v	c #171717",
"w	c #232323",
"x	c #3E3E3E",
"y	c #404040",
"z	c #414141",
"A	c #1A1A1A",
"B	c #0B0B0B",
"C	c #1D1D1D",
"D	c #0D0D0D",
"E	c #212121",
"F	c #202020",
"G	c #0A0A0A",
"H	c #29EF29",
".+.+.+.+.+.+.+.+.+",
"@#@#@#@#@#@#@#@#@#",
"$$$$$$$$$$$$$$$$$$",
"%%%%%%%%%%%%%%%%%%",
"&&&&&&&&&&&&&&&&&&",
"******************",
"==================",
"------------------",
";;>>,')!~~{>]^/!;;",
"]]//(_______):<]]]",
"[[<<}_______|12<[[",
"33224_56789_6>0a33",
"aaaa[_84ba0_cd03aa",
"eeffg_:fhhi_jklmee",
"nnoom_>pqho_~rstnn",
"kkuuv_______4olfkk",
"nnoomwx:y1{:zrnAnn",
"uuuuiskmuBplCBDDuu",
"mmnnlCmsEniFssoqmm",
"ssssvmqGeefsDnCiss",
"mmmmmmmmmmmmmmmmmm",
"ffffffffffffffffff",
"ffffffffffffffffff",
"mmmmmmmmmmmmmmmmmm",
"ffffffffffffffffff",
"mmmmmmmmmmmmmmmmmm",
".+.+.+.+.+.+.+.+.+",
"@#@#@#@#@#@#@#@#@#",
"$$$$$$$$$$$$$$$$$$",
"%%%%%%%%%%%%%%%%%%",
"&&&&&&&&&&&&&&&&&&",
"******************",
"==================",
"------------------",
";;>>,')!~~{>]^/!;;",
"]]//(HHHHHHH):<]]]",
"[[<<}HHHHHHH|12<[[",
"33224H56789H6>0a33",
"aaaa[H84ba0Hcd03aa",
"eeffgH:fhhiHjklmee",
"nnoomH>pqhoH~rstnn",
"kkuuvHHHHHHH4olfkk",
"nnoomwx:y1{:zrnAnn",
"uuuuiskmuBplCBDDuu",
"mmnnlCmsEniFssoqmm",
"ssssvmqGeefsDnCiss",
"mmmmmmmmmmmmmmmmmm",
"ffffffffffffffffff",
"ffffffffffffffffff",
"mmmmmmmmmmmmmmmmmm",
"ffffffffffffffffff",
"mmmmmmmmmmmmmmmmmm"};
