/* XPM */
static char * rollupI_xpm[] = {
"18 52 20 1",
" 	c None",
".	c #7A7D7E",
"+	c #787B7B",
"@	c #787B7A",
"#	c #757776",
"$	c #717371",
"%	c #6D6E6C",
"&	c #686966",
"*	c #636361",
"=	c #5E5E5C",
"-	c #595957",
";	c #535352",
">	c #4B4B4B",
",	c #414141",
"'	c #353535",
")	c #282828",
"!	c #1D1D1D",
"~	c #161616",
"{	c #131313",
"]	c #121212",
"..................",
"++++++++++++++@@@@",
"##################",
"$$$$$$$$$$$$$$$$$$",
"%%%%%%%%%%%%%%%%%%",
"&&&&&&&&&&&&&&&&&&",
"******************",
"==================",
"------------------",
";;;;;;;;;;;;;;;;;;",
">>>>>>>>>>>>>>>>>>",
",,,,,,,,,,,,,,,,,,",
"''''''''''''''''''",
"))))))))))))))))))",
"!!!!!!!!!!!!!!!!!!",
"~~~~~~~~~~~~~~~~~~",
"{{{{{{{{{{{{{{{{{{",
"]]]]]]]]]]]]]]]]]]",
"]]]]]]]]]]]]]]]]]]",
"]]]]]]]]]]]]]]]]]]",
"]]]]]]]]]]]]]]]]]]",
"]]]]]]]]]]]]]]]]]]",
"]]]]]]]]]]]]]]]]]]",
"]]]]]]]]]]]]]]]]]]",
"{{{{{{{{{{{{{{{{{{",
"{{{{{{{{{{{{{{{{{{",
"..................",
"++++++++++++++@@@@",
"##################",
"$$$$$$$$$$$$$$$$$$",
"%%%%%%%%%%%%%%%%%%",
"&&&&&&&&&&&&&&&&&&",
"******************",
"==================",
"------------------",
";;;;;;;;;;;;;;;;;;",
">>>>>>>>>>>>>>>>>>",
",,,,,,,,,,,,,,,,,,",
"''''''''''''''''''",
"))))))))))))))))))",
"!!!!!!!!!!!!!!!!!!",
"~~~~~~~~~~~~~~~~~~",
"{{{{{{{{{{{{{{{{{{",
"]]]]]]]]]]]]]]]]]]",
"]]]]]]]]]]]]]]]]]]",
"]]]]]]]]]]]]]]]]]]",
"]]]]]]]]]]]]]]]]]]",
"]]]]]]]]]]]]]]]]]]",
"]]]]]]]]]]]]]]]]]]",
"]]]]]]]]]]]]]]]]]]",
"{{{{{{{{{{{{{{{{{{",
"{{{{{{{{{{{{{{{{{{"};
