/* XPM */
static char * titleAJ_xpm[] = {
"11 26 22 1",
" 	c #7E8285",
".	c #7E8283",
"+	c #7C7D7F",
"@	c #7C7E7D",
"#	c #797B7A",
"$	c #727471",
"%	c #6E706D",
"&	c #6A6A68",
"*	c #646462",
"=	c #60605E",
"-	c #5A5A58",
";	c #555555",
">	c #515151",
",	c #4C4C4C",
"'	c #454545",
")	c #141414",
"!	c #161616",
"~	c #111111",
"{	c #101010",
"]	c #151515",
"^	c #121212",
"/	c #131313",
" . . . . . ",
"+@+@+@+@+@+",
"###########",
"$$$$$$$$$$$",
"%%%%%%%%%%%",
"&&&&&&&&&&&",
"***********",
"===========",
"-----------",
";;;;;;;;;;;",
">>>>>>>>>>>",
",,,,,,,,,,,",
"'''''''''''",
")))))))))))",
"!!!!!!!!!!!",
"~~~~~~~~~~~",
"!!!!!!!!!!!",
"{{{{{{{{{{{",
"]]]]]]]]]]]",
"^^^^^^^^^^^",
"]]]]]]]]]]]",
"///////////",
"///////////",
"]]]]]]]]]]]",
"///////////",
"]]]]]]]]]]]"};
