/* XPM */
static char * icewm_xpm[] = {
"57 30 508 2",
"  	c None",
". 	c #7D8184",
"+ 	c #7F8084",
"@ 	c #7E8285",
"# 	c #5D6266",
"$ 	c #5E6166",
"% 	c #5E6265",
"& 	c #5F6267",
"* 	c #5D6065",
"= 	c #5F6366",
"- 	c #5D6265",
"; 	c #5E6366",
"> 	c #5B6064",
", 	c #5D6164",
"' 	c #5C5F64",
") 	c #5B5F62",
"! 	c #020B0F",
"~ 	c #020C11",
"{ 	c #031016",
"] 	c #5C6063",
"^ 	c #2E3336",
"/ 	c #2E3235",
"( 	c #2E3233",
"_ 	c #2F3336",
": 	c #303435",
"< 	c #303437",
"[ 	c #020E13",
"} 	c #07222E",
"| 	c #115776",
"1 	c #156A90",
"2 	c #125979",
"3 	c #082735",
"4 	c #03131A",
"5 	c #031118",
"6 	c #2F3334",
"7 	c #373B3E",
"8 	c #3B3F42",
"9 	c #4E5255",
"0 	c #595D60",
"a 	c #595C61",
"b 	c #5A5D62",
"c 	c #595E62",
"d 	c #585B60",
"e 	c #52555A",
"f 	c #484B50",
"g 	c #3E4245",
"h 	c #61666C",
"i 	c #64696D",
"j 	c #676A71",
"k 	c #676C72",
"l 	c #696E72",
"m 	c #6B7076",
"n 	c #04151D",
"o 	c #15688C",
"p 	c #2AA7DF",
"q 	c #60BDE7",
"r 	c #43B1E2",
"s 	c #20A1DB",
"t 	c #27A6DE",
"u 	c #52B8E5",
"v 	c #35ABE0",
"w 	c #136184",
"x 	c #051922",
"y 	c #6D7278",
"z 	c #6A6F75",
"A 	c #686D73",
"B 	c #666970",
"C 	c #64676C",
"D 	c #616469",
"E 	c #5A5F63",
"F 	c #575C60",
"G 	c #515459",
"H 	c #494C51",
"I 	c #2B2E33",
"J 	c #4F5356",
"K 	c #565A5D",
"L 	c #56595E",
"M 	c #575A5F",
"N 	c #555A5E",
"O 	c #565B5F",
"P 	c #53565B",
"Q 	c #43464B",
"R 	c #2D3134",
"S 	c #232728",
"T 	c #232524",
"U 	c #0E1215",
"V 	c #4D5256",
"W 	c #4C4F54",
"X 	c #4F5458",
"Y 	c #51565A",
"Z 	c #52575B",
"` 	c #54595D",
" .	c #051D28",
"..	c #1D8FC2",
"+.	c #67C0E8",
"@.	c #10506D",
"#.	c #0C3E55",
"$.	c #0F4E6A",
"%.	c #0E465F",
"&.	c #093042",
"*.	c #197DAA",
"=.	c #64BFE7",
"-.	c #1E97CD",
";.	c #555A60",
">.	c #53585C",
",.	c #505559",
"'.	c #4E5357",
").	c #4A4D52",
"!.	c #484D51",
"~.	c #464B4F",
"{.	c #4C5155",
"].	c #5B5E63",
"^.	c #383B40",
"/.	c #44474C",
"(.	c #54575C",
"_.	c #4B4E53",
":.	c #3C3D41",
"<.	c #27282C",
"[.	c #262729",
"}.	c #27282A",
"|.	c #161719",
"1.	c #28292B",
"2.	c #292A2E",
"3.	c #4D5258",
"4.	c #51565C",
"5.	c #53585E",
"6.	c #1B89BA",
"7.	c #1F9AD0",
"8.	c #48B3E3",
"9.	c #7CC9EB",
"0.	c #4BB5E4",
"a.	c #41B0E2",
"b.	c #166F97",
"c.	c #57BAE6",
"d.	c #1D92C6",
"e.	c #44494D",
"f.	c #272A2F",
"g.	c #505358",
"h.	c #4F5257",
"i.	c #4E5156",
"j.	c #464A4D",
"k.	c #36373B",
"l.	c #222325",
"m.	c #282A29",
"n.	c #292B2A",
"o.	c #020403",
"p.	c #4D4E53",
"q.	c #25252A",
"r.	c #383B3F",
"s.	c #4B4F52",
"t.	c #4F5457",
"u.	c #051A24",
"v.	c #167199",
"w.	c #54B8E5",
"x.	c #6CC2E9",
"y.	c #4DB5E4",
"z.	c #0F4A64",
"A.	c #17739C",
"B.	c #197CA8",
"C.	c #1A82B1",
"D.	c #2CA8DF",
"E.	c #136082",
"F.	c #04171F",
"G.	c #474A4F",
"H.	c #46494E",
"I.	c #42454A",
"J.	c #33363B",
"K.	c #4D5055",
"L.	c #4B5054",
"M.	c #393D40",
"N.	c #25262A",
"O.	c #2B2C2E",
"P.	c #000000",
"Q.	c #373737",
"R.	c #2B2C2F",
"S.	c #1D1F21",
"T.	c #4F5154",
"U.	c #3C3E41",
"V.	c #010103",
"W.	c #000305",
"X.	c #5DBCE6",
"Y.	c #1A81AF",
"Z.	c #50B7E5",
"`.	c #25A5DE",
" +	c #0B384C",
".+	c #2EA9DF",
"++	c #78C7EB",
"@+	c #115674",
"#+	c #1B86B6",
"$+	c #1877A1",
"%+	c #59BAE6",
"&+	c #20A0D9",
"*+	c #45484D",
"=+	c #2E3136",
"-+	c #494E52",
";+	c #414449",
">+	c #34383B",
",+	c #28292D",
"'+	c #2D2E30",
")+	c #323232",
"!+	c #414143",
"~+	c #000003",
"{+	c #444547",
"]+	c #010104",
"^+	c #3F4144",
"/+	c #414447",
"(+	c #0C3D53",
"_+	c #197FAC",
":+	c #0A3549",
"<+	c #69C1E8",
"[+	c #146487",
"}+	c #3AAEE1",
"|+	c #49B4E4",
"1+	c #3B3E43",
"2+	c #34373C",
"3+	c #464B51",
"4+	c #282C2F",
"5+	c #000002",
"6+	c #2E2E2E",
"7+	c #333436",
"8+	c #424345",
"9+	c #3B3D40",
"0+	c #3E3F43",
"a+	c #3A3C3F",
"b+	c #060608",
"c+	c #434549",
"d+	c #146589",
"e+	c #072634",
"f+	c #2FA9E0",
"g+	c #5EBDE7",
"h+	c #56B9E5",
"i+	c #3DAFE2",
"j+	c #17729A",
"k+	c #01080C",
"l+	c #55595C",
"m+	c #3A3E41",
"n+	c #2F3237",
"o+	c #43484C",
"p+	c #262A2D",
"q+	c #08080A",
"r+	c #2C2D2F",
"s+	c #2E2F31",
"t+	c #494949",
"u+	c #434448",
"v+	c #010101",
"w+	c #47484A",
"x+	c #404245",
"y+	c #000001",
"z+	c #434547",
"A+	c #23282A",
"B+	c #17749E",
"C+	c #38ADE1",
"D+	c #01070A",
"E+	c #525659",
"F+	c #292E31",
"G+	c #32373B",
"H+	c #33383C",
"I+	c #32373D",
"J+	c #33373A",
"K+	c #212226",
"L+	c #232426",
"M+	c #000103",
"N+	c #373938",
"O+	c #494A4C",
"P+	c #4A4A4C",
"Q+	c #57585A",
"R+	c #414246",
"S+	c #3D3E42",
"T+	c #3C4045",
"U+	c #0A3447",
"V+	c #31AAE0",
"W+	c #010608",
"X+	c #373A3F",
"Y+	c #282D31",
"Z+	c #31363A",
"`+	c #303539",
" @	c #30353B",
".@	c #2E2F33",
"+@	c #25292C",
"@@	c #212224",
"#@	c #2E302F",
"$@	c #363837",
"%@	c #48494B",
"&@	c #48494D",
"*@	c #3D3E40",
"=@	c #000101",
"-@	c #4A4B4F",
";@	c #414245",
">@	c #0E0F12",
",@	c #3D4144",
"'@	c #3F4247",
")@	c #3F4045",
"!@	c #21A4DE",
"~@	c #44B2E3",
"{@	c #23A4DE",
"]@	c #156B92",
"^@	c #010506",
"/@	c #3D4045",
"(@	c #3C3F44",
"_@	c #404447",
":@	c #2A2F33",
"<@	c #31363C",
"[@	c #474948",
"}@	c #424649",
"|@	c #525355",
"1@	c #46474B",
"2@	c #444549",
"3@	c #393C40",
"4@	c #383B42",
"5@	c #38393E",
"6@	c #1F9DD6",
"7@	c #46B3E3",
"8@	c #1E98CF",
"9@	c #3A3D42",
"0@	c #36393E",
"a@	c #35383D",
"b@	c #2D3236",
"c@	c #33383E",
"d@	c #32353A",
"e@	c #15191A",
"f@	c #202123",
"g@	c #48484A",
"h@	c #4F5052",
"i@	c #3B3E40",
"j@	c #4C4D4F",
"k@	c #404143",
"l@	c #35363B",
"m@	c #2A353D",
"n@	c #144F6A",
"o@	c #164E68",
"p@	c #2D363E",
"q@	c #303338",
"r@	c #34393D",
"s@	c #1F2022",
"t@	c #2D2E32",
"u@	c #353638",
"v@	c #404145",
"w@	c #424347",
"x@	c #37383A",
"y@	c #090A0C",
"z@	c #323637",
"A@	c #323338",
"B@	c #272B2F",
"C@	c #092E3E",
"D@	c #0A2E3D",
"E@	c #1E495E",
"F@	c #383C41",
"G@	c #313439",
"H@	c #2E3337",
"I@	c #34393C",
"J@	c #363B41",
"K@	c #353A40",
"L@	c #363B3F",
"M@	c #272B2E",
"N@	c #2C2C2E",
"O@	c #4B4C4E",
"P@	c #000100",
"Q@	c #393B3E",
"R@	c #010102",
"S@	c #434447",
"T@	c #373A3E",
"U@	c #32323A",
"V@	c #35363A",
"W@	c #303337",
"X@	c #13303D",
"Y@	c #105371",
"Z@	c #166D93",
"`@	c #16506B",
" #	c #2B3942",
".#	c #2C3135",
"+#	c #353A3E",
"@#	c #292A2C",
"##	c #0B0B0D",
"$#	c #2B2C30",
"%#	c #343539",
"&#	c #3E3F44",
"*#	c #47484C",
"=#	c #35383B",
"-#	c #2F3034",
";#	c #383C3F",
">#	c #38393D",
",#	c #363A3D",
"'#	c #181E21",
")#	c #11516E",
"!#	c #11526F",
"~#	c #000203",
"{#	c #1B88B8",
"]#	c #10526F",
"^#	c #1A465B",
"/#	c #26272B",
"(#	c #383D41",
"_#	c #363D43",
":#	c #393C41",
"<#	c #373C42",
"[#	c #1B1F22",
"}#	c #313538",
"|#	c #3C3D3F",
"1#	c #3D3E43",
"2#	c #3A3E3F",
"3#	c #34363B",
"4#	c #3D3F43",
"5#	c #18191C",
"6#	c #2B2F32",
"7#	c #26292C",
"8#	c #14191D",
"9#	c #134E69",
"0#	c #1C8ABB",
"a#	c #1A495F",
"b#	c #23282C",
"c#	c #393E42",
"d#	c #3A3F43",
"e#	c #2C3033",
"f#	c #222629",
"g#	c #181C1F",
"h#	c #2A2B2D",
"i#	c #2A2E31",
"j#	c #434446",
"k#	c #36393C",
"l#	c #020302",
"m#	c #3B4044",
"n#	c #11171A",
"o#	c #06212D",
"p#	c #04141B",
"q#	c #105270",
"r#	c #14506C",
"s#	c #252A2E",
"t#	c #3B4046",
"u#	c #23272A",
"v#	c #1E1F21",
"w#	c #202125",
"x#	c #020001",
"y#	c #303135",
"z#	c #37383C",
"A#	c #404146",
"B#	c #35393C",
"C#	c #3F4044",
"D#	c #2F3335",
"E#	c #434548",
"F#	c #121214",
"G#	c #101114",
"H#	c #2A2C2B",
"I#	c #373C40",
"J#	c #0F1518",
"K#	c #0B2E3E",
"L#	c #161B1E",
"M#	c #2F3236",
"N#	c #222327",
"O#	c #1A1E21",
"P#	c #1C1E1D",
"Q#	c #1D2124",
"R#	c #010000",
"S#	c #2A2B2F",
"T#	c #323639",
"U#	c #010002",
"V#	c #2A2D31",
"W#	c #29282D",
"X#	c #1C2023",
"Y#	c #242527",
"Z#	c #1D1E22",
"`#	c #0F1113",
" $	c #020202",
".$	c #03090C",
"+$	c #0C0D0E",
"@$	c #1E1F23",
"#$	c #242529",
"$$	c #1F2024",
"%$	c #131418",
"&$	c #17181A",
"*$	c #1D1E20",
"=$	c #1D1D1D",
"-$	c #0A0B0C",
";$	c #2C2D30",
">$	c #191A1C",
",$	c #18181A",
"'$	c #171719",
")$	c #1A1B1D",
"!$	c #1B1C1E",
"~$	c #16171B",
"{$	c #1C1D1F",
"]$	c #191A1E",
"^$	c #272C30",
"/$	c #323337",
"($	c #292C31",
"_$	c #2A2D32",
":$	c #292D30",
"<$	c #323335",
"[$	c #010100",
"}$	c #333438",
"|$	c #262B2E",
"1$	c #28292E",
"2$	c #282C2D",
"3$	c #18191B",
"4$	c #171918",
"5$	c #19191B",
"6$	c #21262A",
"7$	c #22252A",
"8$	c #252628",
"9$	c #222627",
"0$	c #1D2025",
"a$	c #121413",
"b$	c #141517",
"c$	c #131416",
"d$	c #151618",
"e$	c #121315",
"f$	c #454A4E",
"g$	c #434B4E",
"h$	c #393E44",
"i$	c #383D43",
". + . . . @ . . . . . . . . . . . . . . . . . . . . . . . . . . . . . . . . . . . . . . . . . . . . . . . . . . . ",
"# $ # % & * = $ % % = % = % = % % = % % = % = = - - - - % % $ $ & $ $ $ $ $ $ $ # # # $ $ $ $ $ & $ $ $ # # ; % ; ",
"> , > , ' , ) * ' * * ! ~ ~ ~ { { { ' * ' * * ' > > > ' ' ' * ' ] ] ] , ] ] , ) ' ' ' ' ' ' ' ' ' * , ] > > ' * ' ",
"^ / ^ ( _ _ : _ < ! ~ [ } | 1 2 3 4 5 4 < _ / _ ^ ^ ^ 6 6 6 6 ( _ / < / < 7 8 9 0 0 0 a a b b a c c d b d b e f g ",
"h & h i j k l m ~ n o p q r s t u v w x n y y m m m m z A j B C D & ' E F G H I J K L L M L L L N O M P Q R S T U ",
"V W V X Y Z ` ~  ...+.v @.#.$.%.&.*.=.-. .x O F ;.N ` ` >.Y ,.'.W ).!.~.~.{.].^./.P (.(.P P (.P P _.:.<.[.}.|.1.2.",
"3._.3.,.4.5.~ 5 6.+.7.o 8.9.=.0.a.p b.c.d. .x >.` ` >.>.Y ,.X V W ).~.e.e.!.d f._.g.h.g.h.G i.j.k.l.m.n.o.[.p.q.r.",
"V s.V t.G ! u.v.w.v w x.y.w z.A.B.C.D...c.E.F.4 ` ` Z Z e G g.i._.H G.H.Q M I.J.W K.L.L.W W M.N.O.m.P.Q.R.S.T.U.V.",
"{._.{.'.e W.~ -.X.Y.Z.`. +.+++a.o @+#+$+%+&+ .5 (.(.e e G h.i._.H G.*+Q H (.=+/.).H -+!.;+>+,+'+P.)+!+~+r.{+]+^+/+",
"K.).K.g.P.P.(+v X._+=.:+c.<+o [+}+w.0.|+Z.}+@.5 ! e e g.g.i.W _.f H.Q G.(.1+2+j.3+~.H.:.4+[.5+6+7+P.8+9+V.0+a+b+c+",
"{.).{.h.P.P.o }+w.%+d+p +.e+f+g+%+%+h+w.Z.i+j+{ k+g.G g.i.W _.H G./.G.l+m+n+Q *+o+/.7 p+q+r+s+P.t+u+v+w+x+y+u+z+A+",
"-+f -+W P.P.B+C+Z.w.2 +.*.7.+.%+%+h+w.u Z.i+_+5 D+i.K.K.W ).f *+Q ).E+M.F+G+H+I+J+=+K+L+r+M+N+O+5+P+Q+y+x+R+y+S+T+",
"H./.H.f P.P.A.f+0.}+*.=.U+w.%+%+h+w.u Z.8.V+B.{ W+).H f H.*+I.;+i.W X+Y+Z+`+`+ @.@+@@@v+#@$@5+{+%@5+&@*@=@-@;@>@,@",
"'@)@'@;+P.P.w !@r ~@..D.(+h+w.w.w.Z.y.|+r {@]@~ ^@I.I.'@'@/@(@)._@J.:@<@I+Z+Z+R N.v+'+s+P.[@}@5+|@1@P.{+7 5+2@3@4@",
"^.5@^.m+P.P.3 -.i+Z.t 6@z.u u Z.Z.|+7@r }+8@(+! W.9@^.^.0@/@Q a@4+b@G+c@<@d@_ e@f@r+5+$@g@5+{+h@5+{+h@5+i@j@y+k@a@",
"a@l@m@n@W.P.=@B+s i+~@0. +7@|+8.8.~@r i+{@B.{ ~ W.o@p@^.;+(@q@I Z+r@H+H+d@/ L+s@P.t@u@P.v@v@P.w@R+5+R+x@y@R+v@b+z@",
"d@A@B@n@C@P.P.&...t }+h+o ~@r r a.i+}+p ..(+~ =@D@E@F@/@G@f.H@I@J@K@L@`+M@K+5+N@r+P.{+S+5+O@v@P@-@v@5+S+Q@R@S@T@U@",
"a@V@W@X@Y@W.P.P.$...!@V+C+Z@7@i+}+v {@d.| ! W+W.`@ #J+4+.#+#X+J@J@J@q@@###s@$#5+%#8+M+8 w+5+0+&@P@&#*#5+^+R+V.=#-#",
";#>#,#'#)#!#~#P.=@(+C.7.!@{@`.t s 7.{#%.5 W.W.]#^#/#H@K@9@(#_#:#<#q@l.[#s@P.r+}#P.9@M.V.S+(#5+|#1#P.2#3#=@-@4#5#s+",
"6#t@6#7#8#9#Y@~#P.P.~ 2 _+{#0#{#C.E.n ^@W.W.]#a#b#c#d#d#d#d#c#G+e#f#g#P.h#i#P.,@X+P.2@;#P.2@;#5+j#;#5+;#k#l#:.J+i#",
"m#/@m#m#_ n#Y@Y@o#P.P.=@D+p#u.p#~ W.W.=@o#q#r#s#9@t#m#/@d#a@s+u#v#P.w#h#x#y#c#5+z#A#P.B#,@P.z#C#P@2+A#P.D#E#F#G#H#",
"I#X+I#0@X+e#J#C@Y@Y@o#~#P.P.P.P.P.W.o#Y@Y@K#L#M#X+z#d@I ,+N#O#5+P#Q#R#S#I P.}#T#P.d@d@U#G@d@P.T#}#V.}#y#b+:.(#V#W#",
"X#N#X#Y#K+Z#`# $D+C@Y@Y@C@C@C@C@C@Y@Y@C@.$+$5#@$#$$$%$Z#&$5+*$=$5+h#h#5+k.y#5+a@=+P.0@_ V.5@/ V.>#-#M+>+t@-$;$%#y#",
">$|.>$5+,$>$5+'$)$5+|.)$5+&$>$5+|.)$5+|.!$5+|.>$5+~${$P.]$s@P.@@4+R#^$/$R#($< 5+_$/$P.:$<$[$_$}$5+i#< P.|$1$)$,+2$",
"3$5+3$4$5+5$4$5+&$3$5+3$&$5+3$3$5+&$3$5+&$3$5+&$&$v+3$!$P@v#s@5+L+6$P.Y#7$P.Y#Y#5+S u#5+#$7$P.8$9$5+Y#S 5+#$w#5+0$",
"M+a$M+b$c$5+d$c$5+d$c$5+d$c$5+d$e$5+d$e$5+b$e$5+d$e$5+&$b$5+3$d$5+)$&$5+>$&$5+)$&$5+>$&$5+)$&$5+>$|.M+)$|.5+)$&$5+",
"M@h#M@4+4+M@M@4+4+M@4+4+4+p+4+4+4+M@M@4+M@4+M@M@S#2.2.2.S#S#2.S#M@M@M@M@4+M@4+M@M@4+4+M@M@4+M@M@M@4+M@4+4+M@4+4+M@",
"f$H.f$f$g$g$g$g$f$f$e.f$f$f$e.f$f$f$f$f$f$e.e.f$e.f$f$f$f$f$e.f$f$f$f$f$e.f$f$f$f$e.f$f$f$f$f$f$f$f$f$f$f$f$e.f$f$",
"h$:#h$h$i$i$i$i$i$h$i$h$i$i$i$h$i$i$i$i$h$h$i$i$i$i$i$i$i$h$h$i$i$i$i$i$<#h$i$i$i$i$h$<#h$i$i$i$i$i$h$i$<#h$i$i$i$",
"                                                                                                                  "};
