/* XPM */
static char * closeA_xpm[] = {
"19 46 348 2",
"  	c None",
". 	c #343539",
"+ 	c #323639",
"@ 	c #343537",
"# 	c #333436",
"$ 	c #35363A",
"% 	c #5E5F63",
"& 	c #5C6063",
"* 	c #5D5E62",
"= 	c #767D85",
"- 	c #797E84",
"; 	c #797D86",
"> 	c #7A7E87",
", 	c #777E84",
"' 	c #777E86",
") 	c #767D83",
"! 	c #797D88",
"~ 	c #5A5D64",
"{ 	c #575E66",
"] 	c #595E64",
"^ 	c #4C5457",
"/ 	c #41494C",
"( 	c #3C3F44",
"_ 	c #3E3D43",
": 	c #3F4045",
"< 	c #45484D",
"[ 	c #54595D",
"} 	c #585D63",
"| 	c #585D61",
"1 	c #5A5F65",
"2 	c #565960",
"3 	c #555A60",
"4 	c #52555A",
"5 	c #3D4045",
"6 	c #2B2E33",
"7 	c #36393E",
"8 	c #43474A",
"9 	c #505358",
"0 	c #4B4E53",
"a 	c #464B51",
"b 	c #3B4044",
"c 	c #2B3033",
"d 	c #33373A",
"e 	c #4E5156",
"f 	c #55585F",
"g 	c #56595E",
"h 	c #55585D",
"i 	c #414246",
"j 	c #3C3D3F",
"k 	c #292C31",
"l 	c #484D51",
"m 	c #676C70",
"n 	c #73767D",
"o 	c #7D8288",
"p 	c #798086",
"q 	c #747C7F",
"r 	c #72777A",
"s 	c #66696E",
"t 	c #414548",
"u 	c #272B2E",
"v 	c #3E4146",
"w 	c #55555D",
"x 	c #53565B",
"y 	c #43484C",
"z 	c #4C5155",
"A 	c #787D81",
"B 	c #8C9197",
"C 	c #8E9399",
"D 	c #868B91",
"E 	c #7D848A",
"F 	c #757C82",
"G 	c #717880",
"H 	c #6F737C",
"I 	c #6C7175",
"J 	c #4D5154",
"K 	c #393D40",
"L 	c #35393C",
"M 	c #4F5356",
"N 	c #515257",
"O 	c #505156",
"P 	c #6C7177",
"Q 	c #697076",
"R 	c #82878B",
"S 	c #838A90",
"T 	c #757C84",
"U 	c #5E6369",
"V 	c #404145",
"W 	c #2D2E30",
"X 	c #242829",
"Y 	c #323136",
"Z 	c #555A5E",
"` 	c #5C6369",
" .	c #6A6F73",
"..	c #53575A",
"+.	c #3A3E41",
"@.	c #383C3F",
"#.	c #4D4E53",
"$.	c #4E4F54",
"%.	c #81898C",
"&.	c #81868A",
"*.	c #757A80",
"=.	c #333438",
"-.	c #151517",
";.	c #101012",
">.	c #0F0F0F",
",.	c #0E0E0C",
"'.	c #111113",
").	c #141414",
"!.	c #1B1B1D",
"~.	c #3B3E43",
"{.	c #505559",
"].	c #616767",
"^.	c #34353A",
"/.	c #424347",
"(.	c #4B4C51",
"_.	c #6D7276",
":.	c #636770",
"<.	c #252429",
"[.	c #130F0E",
"}.	c #0F1A1E",
"|.	c #395E78",
"1.	c #4A7DA8",
"2.	c #5385B6",
"3.	c #445E83",
"4.	c #263646",
"5.	c #0E1211",
"6.	c #181617",
"7.	c #313237",
"8.	c #494E54",
"9.	c #636B6E",
"0.	c #404447",
"a.	c #2D3132",
"b.	c #48494D",
"c.	c #686C75",
"d.	c #696C75",
"e.	c #2A2B2F",
"f.	c #0D1110",
"g.	c #1F313D",
"h.	c #5EBAEB",
"i.	c #5DCDFF",
"j.	c #32BCFA",
"k.	c #1EA9EC",
"l.	c #128AD6",
"m.	c #2673BB",
"n.	c #335078",
"o.	c #181A19",
"p.	c #37363B",
"q.	c #4A4F53",
"r.	c #4E5357",
"s.	c #393A3E",
"t.	c #646B71",
"u.	c #4C5053",
"v.	c #191917",
"w.	c #141D24",
"x.	c #61BBEF",
"y.	c #73E0FF",
"z.	c #82E9FC",
"A.	c #3AD8FD",
"B.	c #00B8F9",
"C.	c #009BE5",
"D.	c #0277C7",
"E.	c #0251A0",
"F.	c #163563",
"G.	c #1A1C1B",
"H.	c #22252A",
"I.	c #585C5F",
"J.	c #3F4346",
"K.	c #2C2D31",
"L.	c #5A6265",
"M.	c #33383B",
"N.	c #1A181B",
"O.	c #3C6581",
"P.	c #5CCCFC",
"Q.	c #80E8FF",
"R.	c #CBF8FE",
"S.	c #89E9FF",
"T.	c #00BEFF",
"U.	c #01A4E9",
"V.	c #0185CF",
"W.	c #0060AD",
"X.	c #004C9E",
"Y.	c #1C272D",
"Z.	c #28282A",
"`.	c #353B3B",
" +	c #45494C",
".+	c #292A2E",
"++	c #51565C",
"@+	c #2F3336",
"#+	c #191A1C",
"$+	c #5795C4",
"%+	c #30BFFB",
"&+	c #3BD9FC",
"*+	c #85EAFE",
"=+	c #3DD9FF",
"-+	c #01B9F9",
";+	c #00A0E4",
">+	c #0085CC",
",+	c #0168B7",
"'+	c #005BB6",
")+	c #122D58",
"!+	c #2F3034",
"~+	c #34393D",
"{+	c #47464C",
"]+	c #4A4E51",
"^+	c #4F5555",
"/+	c #3B3C40",
"(+	c #1F2022",
"_+	c #5B93C2",
":+	c #12A6EE",
"<+	c #00B7F9",
"[+	c #01BEFF",
"}+	c #00BBF8",
"|+	c #00AAF0",
"1+	c #0194D9",
"2+	c #0077C3",
"3+	c #0166B6",
"4+	c #0164CC",
"5+	c #103B72",
"6+	c #3B3B3D",
"7+	c #404548",
"8+	c #4B4F52",
"9+	c #28292D",
"0+	c #4A5254",
"a+	c #47484A",
"b+	c #2C2D2F",
"c+	c #5476A3",
"d+	c #0D86D5",
"e+	c #009CE9",
"f+	c #03A6EB",
"g+	c #019FE6",
"h+	c #0292D8",
"i+	c #0080C7",
"j+	c #016EB3",
"k+	c #0064BC",
"l+	c #0273F3",
"m+	c #1E4274",
"n+	c #48474C",
"o+	c #3E3F43",
"p+	c #474B4E",
"q+	c #484B52",
"r+	c #3E4444",
"s+	c #3B4C5E",
"t+	c #1B74C8",
"u+	c #0080D4",
"v+	c #0087D1",
"w+	c #0186CB",
"x+	c #007AC4",
"y+	c #016DB6",
"z+	c #0167BC",
"A+	c #0076EA",
"B+	c #027EEE",
"C+	c #3F4953",
"D+	c #55595A",
"E+	c #3F4044",
"F+	c #27282C",
"G+	c #43434B",
"H+	c #43464D",
"I+	c #3D3E42",
"J+	c #426DA0",
"K+	c #006BD0",
"L+	c #0075CF",
"M+	c #0274CA",
"N+	c #006EC5",
"O+	c #006CC9",
"P+	c #027EFC",
"Q+	c #008EFE",
"R+	c #28537E",
"S+	c #5A5E5F",
"T+	c #505155",
"U+	c #2E3235",
"V+	c #45464A",
"W+	c #3B3F42",
"X+	c #222327",
"Y+	c #3F3F47",
"Z+	c #5E6366",
"`+	c #285896",
" @	c #0174F5",
".@	c #0080FF",
"+@	c #008DFD",
"@@	c #0098FE",
"#@	c #037CED",
"$@	c #305687",
"%@	c #626665",
"&@	c #626A6C",
"*@	c #333335",
"=@	c #363B3E",
"-@	c #494A4E",
";@	c #1D1E23",
">@	c #393E42",
",@	c #52575B",
"'@	c #667071",
")@	c #5A6360",
"!@	c #495A6C",
"~@	c #265486",
"{@	c #24599B",
"]@	c #365983",
"^@	c #56646F",
"/@	c #6D7373",
"(@	c #656A6E",
"_@	c #313439",
":@	c #3C4043",
"<@	c #212226",
"[@	c #1B1C20",
"}@	c #4F5259",
"|@	c #4C4F54",
"1@	c #3C3D41",
"2@	c #3A3D42",
"3@	c #42474B",
"4@	c #687072",
"5@	c #767B7F",
"6@	c #707A7C",
"7@	c #71797C",
"8@	c #777F81",
"9@	c #737D7E",
"0@	c #54575C",
"a@	c #302F35",
"b@	c #303437",
"c@	c #434748",
"d@	c #404143",
"e@	c #262729",
"f@	c #18191D",
"g@	c #2E3136",
"h@	c #3E4245",
"i@	c #46464E",
"j@	c #3A3B40",
"k@	c #3D4144",
"l@	c #464749",
"m@	c #484B50",
"n@	c #424348",
"o@	c #35383D",
"p@	c #46494E",
"q@	c #262A2D",
"r@	c #151618",
"s@	c #16171B",
"t@	c #1C1D21",
"u@	c #27262B",
"v@	c #373C40",
"w@	c #4A5157",
"x@	c #4C4F56",
"y@	c #383E3E",
"z@	c #373C3F",
"A@	c #3A3B3F",
"B@	c #4E4F53",
"C@	c #26272B",
"D@	c #18171C",
"E@	c #131418",
"F@	c #131416",
"G@	c #141519",
". . + + . . + + . @ . . @ # . $ # @ . ",
"% & % % & & % % & * * % * % % % % * & ",
"= - - ; > ; > = , ' ' ) ' ' ; ; ! ; ; ",
"~ { ~ ~ ] ^ / ( _ : < [ ] ] } | | } 1 ",
"2 3 4 5 6 7 8 9 0 a b c d e f 2 g h g ",
"i j k l m n o p q r s 4 t u v 4 w x 4 ",
"y z m A B C D E p F G H I J K L M N O ",
"P Q R S T U V W X Y t Z `  ...+.@.#.$.",
"%.&.*. .=.-.;.>.,.'.).!.~.{.].J ^./.(.",
"_._.:.<.[.}.|.1.2.3.4.5.6.7.8.9.0.a.b.",
"c.d.e.f.g.h.i.j.k.l.m.n.-.o.p.q.r.+ s.",
"t.u.v.w.x.y.z.A.B.C.D.E.F.G.H.i I.J.K.",
"L.M.N.O.P.Q.R.S.T.U.V.W.X.Y.Z.`.q. +.+",
"++@+#+$+%+&+*+=+-+;+>+,+'+)+!+~+{+]+.+",
"^+/+(+_+:+<+[+}+|+1+2+3+4+5+6+/+7+8+9+",
"0+a+b+c+d+e+f+g+h+i+j+k+l+m+n+K o+p+.+",
"q+u.r+s+t+u+v+w+x+y+z+A+B+C+D+# E+ +F+",
"G+H+g I+J+K+L+M+N+O+P+Q+R+S+T+U+V+W+X+",
"( Y+]+Z+(.`+ @.@+@@@#@$@%@&@*@=@-@9+;@",
"( >@~.,@'@)@!@~@{@]@^@/@(@~+_@V+:@<@[@",
"}@|@1@2@3@4@5@6@7@8@9@0@a@b@c@d@e@#+f@",
"g@h@z i@j@j@k@l@m@n@7.Y o@p@d@q@#+r@s@",
"t@u@v@m@w@x@i y@z@A@:@ +B@E+C@D@E@F@G@",
". . + + . . + + . @ . . @ # . $ # @ . ",
"% & % % & & % % & * * % * % % % % * & ",
"= - - ; > ; > = , ' ' ) ' ' ; ; ! ; ; ",
"~ { ~ ~ ] ^ / ( _ : < [ ] ] } | | } 1 ",
"2 3 4 5 6 7 8 9 0 a b c d e f 2 g h g ",
"i j k l m n o p q r s 4 t u v 4 w x 4 ",
"y z m A B C D E p F G H I J K L M N O ",
"P Q R S T U V W X Y t Z `  ...+.@.#.$.",
"%.&.*. .=.-.;.>.,.'.).!.~.{.].J ^./.(.",
"_._.:.<.[.}.|.1.2.3.4.5.6.7.8.9.0.a.b.",
"c.d.e.f.g.h.i.j.k.l.m.n.-.o.p.q.r.+ s.",
"t.u.v.w.x.y.z.A.B.C.D.E.F.G.H.i I.J.K.",
"L.M.N.O.P.Q.R.S.T.U.V.W.X.Y.Z.`.q. +.+",
"++@+#+$+%+&+*+=+-+;+>+,+'+)+!+~+{+]+.+",
"^+/+(+_+:+<+[+}+|+1+2+3+4+5+6+/+7+8+9+",
"0+a+b+c+d+e+f+g+h+i+j+k+l+m+n+K o+p+.+",
"q+u.r+s+t+u+v+w+x+y+z+A+B+C+D+# E+ +F+",
"G+H+g I+J+K+L+M+N+O+P+Q+R+S+T+U+V+W+X+",
"( Y+]+Z+(.`+ @.@+@@@#@$@%@&@*@=@-@9+;@",
"( >@~.,@'@)@!@~@{@]@^@/@(@~+_@V+:@<@[@",
"}@|@1@2@3@4@5@6@7@8@9@0@a@b@c@d@e@#+f@",
"g@h@z i@j@j@k@l@m@n@7.Y o@p@d@q@#+r@s@",
"t@u@v@m@w@x@i y@z@A@:@ +B@E+C@D@E@F@G@"};
