/* XPM */
static char * closeO_xpm[] = {
"19 46 347 2",
"  	c None",
". 	c #343539",
"+ 	c #323639",
"@ 	c #343537",
"# 	c #333436",
"$ 	c #35363A",
"% 	c #5E5F63",
"& 	c #5C6063",
"* 	c #5D5E62",
"= 	c #767D85",
"- 	c #797E84",
"; 	c #797D86",
"> 	c #7A7E87",
", 	c #777E84",
"' 	c #777E86",
") 	c #767D83",
"! 	c #797D88",
"~ 	c #5A5D64",
"{ 	c #575E66",
"] 	c #595E64",
"^ 	c #4C5457",
"/ 	c #41494C",
"( 	c #3C3F44",
"_ 	c #3E3D43",
": 	c #3F4045",
"< 	c #45484D",
"[ 	c #54595D",
"} 	c #585D63",
"| 	c #585D61",
"1 	c #5A5F65",
"2 	c #565960",
"3 	c #555A60",
"4 	c #52555A",
"5 	c #3D4045",
"6 	c #2B2E33",
"7 	c #36393E",
"8 	c #43474A",
"9 	c #505358",
"0 	c #4B4E53",
"a 	c #464B51",
"b 	c #3B4044",
"c 	c #2B3033",
"d 	c #33373A",
"e 	c #4E5156",
"f 	c #55585F",
"g 	c #56595E",
"h 	c #55585D",
"i 	c #414246",
"j 	c #3C3D3F",
"k 	c #292C31",
"l 	c #484D51",
"m 	c #676C70",
"n 	c #73767D",
"o 	c #7D8288",
"p 	c #798086",
"q 	c #747C7F",
"r 	c #72777A",
"s 	c #66696E",
"t 	c #414548",
"u 	c #272B2E",
"v 	c #3E4146",
"w 	c #55555D",
"x 	c #53565B",
"y 	c #43484C",
"z 	c #4C5155",
"A 	c #787D81",
"B 	c #8C9197",
"C 	c #8E9399",
"D 	c #868B91",
"E 	c #7D848A",
"F 	c #757C82",
"G 	c #717880",
"H 	c #6F737C",
"I 	c #6C7175",
"J 	c #4D5154",
"K 	c #393D40",
"L 	c #35393C",
"M 	c #4F5356",
"N 	c #515257",
"O 	c #505156",
"P 	c #6C7177",
"Q 	c #697076",
"R 	c #82878B",
"S 	c #838A90",
"T 	c #757C84",
"U 	c #5E6369",
"V 	c #404145",
"W 	c #2D2E30",
"X 	c #242829",
"Y 	c #323136",
"Z 	c #555A5E",
"` 	c #5C6369",
" .	c #6A6F73",
"..	c #53575A",
"+.	c #3A3E41",
"@.	c #383C3F",
"#.	c #4D4E53",
"$.	c #4E4F54",
"%.	c #81898C",
"&.	c #81868A",
"*.	c #757A80",
"=.	c #333438",
"-.	c #151517",
";.	c #101012",
">.	c #0F0F0F",
",.	c #0E0E0C",
"'.	c #111113",
").	c #141414",
"!.	c #1B1B1D",
"~.	c #3B3E43",
"{.	c #505559",
"].	c #616767",
"^.	c #34353A",
"/.	c #424347",
"(.	c #4B4C51",
"_.	c #6D7276",
":.	c #636770",
"<.	c #252429",
"[.	c #130F0E",
"}.	c #0F1A1E",
"|.	c #395E78",
"1.	c #4A7DA8",
"2.	c #5385B6",
"3.	c #445E83",
"4.	c #263646",
"5.	c #0E1211",
"6.	c #181617",
"7.	c #313237",
"8.	c #494E54",
"9.	c #636B6E",
"0.	c #404447",
"a.	c #2D3132",
"b.	c #48494D",
"c.	c #686C75",
"d.	c #696C75",
"e.	c #2A2B2F",
"f.	c #0D1110",
"g.	c #1F313D",
"h.	c #5EBAEB",
"i.	c #5DCDFF",
"j.	c #32BCFA",
"k.	c #1EA9EC",
"l.	c #128AD6",
"m.	c #2673BB",
"n.	c #335078",
"o.	c #181A19",
"p.	c #37363B",
"q.	c #4A4F53",
"r.	c #4E5357",
"s.	c #393A3E",
"t.	c #646B71",
"u.	c #4C5053",
"v.	c #191917",
"w.	c #141D24",
"x.	c #61BBEF",
"y.	c #73E0FF",
"z.	c #57A0B6",
"A.	c #65CFEA",
"B.	c #5BD4FD",
"C.	c #41A1CD",
"D.	c #2679A8",
"E.	c #0251A0",
"F.	c #163563",
"G.	c #1A1C1B",
"H.	c #22252A",
"I.	c #585C5F",
"J.	c #3F4346",
"K.	c #2C2D31",
"L.	c #5A6265",
"M.	c #33383B",
"N.	c #1A181B",
"O.	c #3C6581",
"P.	c #5CCCFC",
"Q.	c #80E8FF",
"R.	c #2D6076",
"S.	c #1F546B",
"T.	c #81CBDF",
"U.	c #063751",
"V.	c #2E759D",
"W.	c #0060AD",
"X.	c #004C9E",
"Y.	c #1C272D",
"Z.	c #28282A",
"`.	c #353B3B",
" +	c #45494C",
".+	c #292A2E",
"++	c #51565C",
"@+	c #2F3336",
"#+	c #191A1C",
"$+	c #5795C4",
"%+	c #30BFFB",
"&+	c #3BD9FC",
"*+	c #8CDDEE",
"=+	c #10415A",
"-+	c #04344D",
";+	c #30667C",
">+	c #61BBEB",
",+	c #0168B7",
"'+	c #005BB6",
")+	c #122D58",
"!+	c #2F3034",
"~+	c #34393D",
"{+	c #47464C",
"]+	c #4A4E51",
"^+	c #4F5555",
"/+	c #3B3C40",
"(+	c #1F2022",
"_+	c #5B93C2",
":+	c #12A6EE",
"<+	c #00B7F9",
"[+	c #79E0FF",
"}+	c #3A7085",
"|+	c #002F49",
"1+	c #6BA7B8",
"2+	c #62B7E9",
"3+	c #0166B6",
"4+	c #0164CC",
"5+	c #103B72",
"6+	c #3B3B3D",
"7+	c #404548",
"8+	c #4B4F52",
"9+	c #28292D",
"0+	c #4A5254",
"a+	c #47484A",
"b+	c #2C2D2F",
"c+	c #5476A3",
"d+	c #0D86D5",
"e+	c #009CE9",
"f+	c #4393B4",
"g+	c #3E7489",
"h+	c #073851",
"i+	c #4D9ACB",
"j+	c #0064BC",
"k+	c #0273F3",
"l+	c #1E4274",
"m+	c #48474C",
"n+	c #3E3F43",
"o+	c #474B4E",
"p+	c #484B52",
"q+	c #3E4444",
"r+	c #3B4C5E",
"s+	c #1B74C8",
"t+	c #0080D4",
"u+	c #144F70",
"v+	c #4287A9",
"w+	c #79C9EF",
"x+	c #286283",
"y+	c #1B5882",
"z+	c #0076EA",
"A+	c #027EEE",
"B+	c #3F4953",
"C+	c #55595A",
"D+	c #3F4044",
"E+	c #27282C",
"F+	c #43434B",
"G+	c #43464D",
"H+	c #3D3E42",
"I+	c #426DA0",
"J+	c #006BD0",
"K+	c #0075CF",
"L+	c #0274CA",
"M+	c #006EC5",
"N+	c #006CC9",
"O+	c #027EFC",
"P+	c #008EFE",
"Q+	c #28537E",
"R+	c #5A5E5F",
"S+	c #505155",
"T+	c #2E3235",
"U+	c #45464A",
"V+	c #3B3F42",
"W+	c #222327",
"X+	c #3F3F47",
"Y+	c #5E6366",
"Z+	c #285896",
"`+	c #0174F5",
" @	c #0080FF",
".@	c #008DFD",
"+@	c #0098FE",
"@@	c #037CED",
"#@	c #305687",
"$@	c #626665",
"%@	c #626A6C",
"&@	c #333335",
"*@	c #363B3E",
"=@	c #494A4E",
"-@	c #1D1E23",
";@	c #393E42",
">@	c #52575B",
",@	c #667071",
"'@	c #5A6360",
")@	c #495A6C",
"!@	c #265486",
"~@	c #24599B",
"{@	c #365983",
"]@	c #56646F",
"^@	c #6D7373",
"/@	c #656A6E",
"(@	c #313439",
"_@	c #3C4043",
":@	c #212226",
"<@	c #1B1C20",
"[@	c #4F5259",
"}@	c #4C4F54",
"|@	c #3C3D41",
"1@	c #3A3D42",
"2@	c #42474B",
"3@	c #687072",
"4@	c #767B7F",
"5@	c #707A7C",
"6@	c #71797C",
"7@	c #777F81",
"8@	c #737D7E",
"9@	c #54575C",
"0@	c #302F35",
"a@	c #303437",
"b@	c #434748",
"c@	c #404143",
"d@	c #262729",
"e@	c #18191D",
"f@	c #2E3136",
"g@	c #3E4245",
"h@	c #46464E",
"i@	c #3A3B40",
"j@	c #3D4144",
"k@	c #464749",
"l@	c #484B50",
"m@	c #424348",
"n@	c #35383D",
"o@	c #46494E",
"p@	c #262A2D",
"q@	c #151618",
"r@	c #16171B",
"s@	c #1C1D21",
"t@	c #27262B",
"u@	c #373C40",
"v@	c #4A5157",
"w@	c #4C4F56",
"x@	c #383E3E",
"y@	c #373C3F",
"z@	c #3A3B3F",
"A@	c #4E4F53",
"B@	c #26272B",
"C@	c #18171C",
"D@	c #131418",
"E@	c #131416",
"F@	c #141519",
". . + + . . + + . @ . . @ # . $ # @ . ",
"% & % % & & % % & * * % * % % % % * & ",
"= - - ; > ; > = , ' ' ) ' ' ; ; ! ; ; ",
"~ { ~ ~ ] ^ / ( _ : < [ ] ] } | | } 1 ",
"2 3 4 5 6 7 8 9 0 a b c d e f 2 g h g ",
"i j k l m n o p q r s 4 t u v 4 w x 4 ",
"y z m A B C D E p F G H I J K L M N O ",
"P Q R S T U V W X Y t Z `  ...+.@.#.$.",
"%.&.*. .=.-.;.>.,.'.).!.~.{.].J ^./.(.",
"_._.:.<.[.}.|.1.2.3.4.5.6.7.8.9.0.a.b.",
"c.d.e.f.g.h.i.j.k.l.m.n.-.o.p.q.r.+ s.",
"t.u.v.w.x.y.z.A.B.C.D.E.F.G.H.i I.J.K.",
"L.M.N.O.P.Q.R.S.T.U.V.W.X.Y.Z.`.q. +.+",
"++@+#+$+%+&+*+=+-+;+>+,+'+)+!+~+{+]+.+",
"^+/+(+_+:+<+[+}+|+1+2+3+4+5+6+/+7+8+9+",
"0+a+b+c+d+e+f+-+g+h+i+j+k+l+m+K n+o+.+",
"p+u.q+r+s+t+u+v+w+x+y+z+A+B+C+# D+ +E+",
"F+G+g H+I+J+K+L+M+N+O+P+Q+R+S+T+U+V+W+",
"( X+]+Y+(.Z+`+ @.@+@@@#@$@%@&@*@=@9+-@",
"( ;@~.>@,@'@)@!@~@{@]@^@/@~+(@U+_@:@<@",
"[@}@|@1@2@3@4@5@6@7@8@9@0@a@b@c@d@#+e@",
"f@g@z h@i@i@j@k@l@m@7.Y n@o@c@p@#+q@r@",
"s@t@u@l@v@w@i x@y@z@_@ +A@D+B@C@D@E@F@",
". . + + . . + + . @ . . @ # . $ # @ . ",
". . + + . . + + . @ . . @ # . $ # @ . ",
"% & % % & & % % & * * % * % % % % * & ",
"= - - ; > ; > = , ' ' ) ' ' ; ; ! ; ; ",
"~ { ~ ~ ] ^ / ( _ : < [ ] ] } | | } 1 ",
"2 3 4 5 6 7 8 9 0 a b c d e f 2 g h g ",
"i j k l m n o p q r s 4 t u v 4 w x 4 ",
"y z m A B C D E p F G H I J K L M N O ",
"P Q R S T U V W X Y t Z `  ...+.@.#.$.",
"%.&.*. .=.-.;.>.,.'.).!.~.{.].J ^./.(.",
"_._.:.<.[.}.|.1.2.3.4.5.6.7.8.9.0.a.b.",
"c.d.e.f.g.h.i.j.k.l.m.n.-.o.p.q.r.+ s.",
"t.u.v.w.x.y.z.A.B.C.D.E.F.G.H.i I.J.K.",
"L.M.N.O.P.Q.R.S.T.U.V.W.X.Y.Z.`.q. +.+",
"++@+#+$+%+&+*+=+-+;+>+,+'+)+!+~+{+]+.+",
"^+/+(+_+:+<+[+}+|+1+2+3+4+5+6+/+7+8+9+",
"0+a+b+c+d+e+f+-+g+h+i+j+k+l+m+K n+o+.+",
"p+u.q+r+s+t+u+v+w+x+y+z+A+B+C+# D+ +E+",
"F+G+g H+I+J+K+L+M+N+O+P+Q+R+S+T+U+V+W+",
"( X+]+Y+(.Z+`+ @.@+@@@#@$@%@&@*@=@9+-@",
"( ;@~.>@,@'@)@!@~@{@]@^@/@~+(@U+_@:@<@",
"[@}@|@1@2@3@4@5@6@7@8@9@0@a@b@c@d@#+e@",
"f@g@z h@i@i@j@k@l@m@7.Y n@o@c@p@#+q@r@"};
