/* XPM */
static char * frameATR_xpm[] = {
"5 27 53 1",
" 	c None",
".	c #36393C",
"+	c #414346",
"@	c #676A6D",
"#	c #4C4E51",
"$	c #515356",
"%	c #595D62",
"&	c #6A6C70",
"*	c #303031",
"=	c #56595F",
"-	c #55585E",
";	c #626467",
">	c #555A66",
",	c #343638",
"'	c #53565A",
")	c #56585D",
"!	c #57595C",
"~	c #2A2D30",
"{	c #505257",
"]	c #4B4D52",
"^	c #5D5F62",
"/	c #2E3134",
"(	c #4D4F53",
"_	c #4C4E52",
":	c #5D5F61",
"<	c #343739",
"[	c #4A4C50",
"}	c #5D5E61",
"|	c #34373A",
"1	c #47494D",
"2	c #5E5F62",
"3	c #46484B",
"4	c #444549",
"5	c #404245",
"6	c #424447",
"7	c #34363A",
"8	c #313337",
"9	c #3B3D40",
"0	c #3E4043",
"a	c #37393C",
"b	c #3E4042",
"c	c #35373B",
"d	c #3D3F42",
"e	c #35373A",
"f	c #5E5F61",
"g	c #303336",
"h	c #333639",
"i	c #3B3E41",
"j	c #303236",
"k	c #333539",
"l	c #3B3D41",
"m	c #5D5D61",
"n	c #5C5D61",
"     ",
"     ",
"     ",
"     ",
".    ",
"+..  ",
"@#$. ",
"%&$$*",
"=-;>,",
"'')!~",
"{{]^/",
"((_:<",
"[[[}|",
"1112|",
"3332|",
"4442|",
"5662|",
"7552|",
"8902|",
"8ab2|",
"8cd2|",
"8ed2|",
"87df|",
"ghi:|",
"ghi:|",
"jklm|",
"jkln|"};
