/* XPM */
static char * frameABL_xpm[] = {
"26 26 48 1",
" 	c None",
".	c #333738",
"+	c #5B5C60",
"@	c #3A3B3F",
"#	c #2C2D31",
"$	c #1A1B1D",
"%	c #656A6D",
"&	c #5A5E61",
"*	c #383C3F",
"=	c #1C1D1F",
"-	c #35363A",
";	c #2C2D2F",
">	c #595D60",
",	c #393A3E",
"'	c #2B2C30",
")	c #1B1C1E",
"!	c #1A1B1F",
"~	c #33373A",
"{	c #5C5D61",
"]	c #373B3E",
"^	c #2A2E31",
"/	c #292D30",
"(	c #34383B",
"_	c #35363B",
":	c #55595C",
"<	c #272B2E",
"[	c #222629",
"}	c #55595A",
"|	c #282C2F",
"1	c #292A2C",
"2	c #54585B",
"3	c #2B2F32",
"4	c #2B2C2E",
"5	c #232426",
"6	c #474B4E",
"7	c #4B4A4F",
"8	c #3C3D41",
"9	c #3A3B3D",
"0	c #18191B",
"a	c #27282C",
"b	c #424347",
"c	c #45494C",
"d	c #4C5053",
"e	c #121315",
"f	c #141517",
"g	c #1D2122",
"h	c #222627",
"i	c #343839",
".+@#$%                    ",
".&*#=%                    ",
"-&*;=%                    ",
"->,')%                    ",
".+,#!%                    ",
"~{]^)%                    ",
".{*/)%                    ",
".{]/=%                    ",
"({]^$%                    ",
"({]^)%                    ",
".{]')%                    ",
"~{@#$%                    ",
"-+,#)%                    ",
"_{@#)%                    ",
".{@#)%                    ",
".{,#)%                    ",
"_{,#)%                    ",
"_{,#)%                    ",
".{,#)%                    ",
".{,#)%                    ",
"#:/<[%                    ",
"#}|||))))))))))))=$==)!))=",
"123|/4######'###;;##;'#^//",
"56:78@]@@@@@,@,@99@**,,]*]",
"0abcd{&{{{{{{{{>{{+&&>+{{{",
"ef=ghi~.--..--..--..--.~.."};
