/* XPM */
static char * frameATL_xpm[] = {
"5 27 53 1",
" 	c None",
".	c #36393C",
"+	c #414346",
"@	c #515356",
"#	c #4C4E51",
"$	c #676A6D",
"%	c #303031",
"&	c #6A6C70",
"*	c #595D62",
"=	c #343638",
"-	c #555A66",
";	c #626467",
">	c #55585E",
",	c #56595F",
"'	c #2A2D30",
")	c #57595C",
"!	c #56585D",
"~	c #53565A",
"{	c #2E3134",
"]	c #5D5F62",
"^	c #4B4D52",
"/	c #505257",
"(	c #343739",
"_	c #5D5F61",
":	c #4C4E52",
"<	c #4D4F53",
"[	c #34373A",
"}	c #5D5E61",
"|	c #4A4C50",
"1	c #5E5F62",
"2	c #47494D",
"3	c #46484B",
"4	c #444549",
"5	c #424447",
"6	c #404245",
"7	c #34363A",
"8	c #3E4043",
"9	c #3B3D40",
"0	c #313337",
"a	c #3E4042",
"b	c #37393C",
"c	c #3D3F42",
"d	c #35373B",
"e	c #35373A",
"f	c #5E5F61",
"g	c #3B3E41",
"h	c #333639",
"i	c #303336",
"j	c #5D5D61",
"k	c #3B3D41",
"l	c #333539",
"m	c #303236",
"n	c #5C5D61",
"     ",
"     ",
"     ",
"     ",
"    .",
"  ..+",
" .@#$",
"%@@&*",
"=-;>,",
"')!~~",
"{]^//",
"(_:<<",
"[}|||",
"[1222",
"[1333",
"[1444",
"[1556",
"[1667",
"[1890",
"[1ab0",
"[1cd0",
"[1ce0",
"[fc70",
"[_ghi",
"[_ghi",
"[jklm",
"[nklm"};
