/* XPM */
static char * frameABR_xpm[] = {
"26 26 48 1",
" 	c None",
".	c #656A6D",
"+	c #1A1B1D",
"@	c #2C2D31",
"#	c #3A3B3F",
"$	c #5B5C60",
"%	c #333738",
"&	c #1C1D1F",
"*	c #383C3F",
"=	c #5A5E61",
"-	c #2C2D2F",
";	c #35363A",
">	c #1B1C1E",
",	c #2B2C30",
"'	c #393A3E",
")	c #595D60",
"!	c #1A1B1F",
"~	c #2A2E31",
"{	c #373B3E",
"]	c #5C5D61",
"^	c #33373A",
"/	c #292D30",
"(	c #34383B",
"_	c #35363B",
":	c #222629",
"<	c #272B2E",
"[	c #55595C",
"}	c #282C2F",
"|	c #55595A",
"1	c #2B2C2E",
"2	c #2B2F32",
"3	c #54585B",
"4	c #292A2C",
"5	c #3A3B3D",
"6	c #3C3D41",
"7	c #4B4A4F",
"8	c #474B4E",
"9	c #232426",
"0	c #4C5053",
"a	c #45494C",
"b	c #424347",
"c	c #27282C",
"d	c #18191B",
"e	c #343839",
"f	c #222627",
"g	c #1D2122",
"h	c #141517",
"i	c #121315",
"                    .+@#$%",
"                    .&@*=%",
"                    .&-*=;",
"                    .>,');",
"                    .!@'$%",
"                    .>~{]^",
"                    .>/*]%",
"                    .&/{]%",
"                    .+~{](",
"                    .>~{](",
"                    .>,{]%",
"                    .+@#]^",
"                    .>@'$;",
"                    .>@#]_",
"                    .>@#]%",
"                    .>@']%",
"                    .>@']_",
"                    .>@']_",
"                    .>@']%",
"                    .>@']%",
"                    .:</[@",
"&>>!>&&+&>>>>>>>>>>>>}}}|@",
"//~@,-@@--@@@,@@@@@@1/}234",
"{*{''**#55#'#'#####{#67[89",
"]]]$)==$]])]]]]]]]]=]0abcd",
"%%^%;;%%;;%%;;%%;;%^efg&hi"};
