/* XPM */
static char * menubg_xpm[] = {
"16 12 11 1",
" 	c None",
".	c #191A1A",
"+	c #0C0D0D",
"@	c #1E1F1F",
"#	c #080808",
"$	c #272727",
"%	c #000000",
"&	c #222323",
"*	c #151616",
"=	c #111111",
"-	c #040404",
"........++++++++",
"@@@@@@@@########",
"$$$$$$$$%%%%%%%%",
"&&&&&&&&%%%%%%%%",
"@@@@@@@@%%%%%%%%",
"................",
"********@@@@@@@@",
"========$$$$$$$$",
"++++++++&&&&&&&&",
"########@@@@@@@@",
"--------........",
"%%%%%%%%********"};
