/* XPM */
static char * restoreO_xpm[] = {
"15 46 182 2",
"  	c None",
". 	c #343537",
"+ 	c #343539",
"@ 	c #5E5F63",
"# 	c #777E86",
"$ 	c #777E84",
"% 	c #767D85",
"& 	c #787F87",
"* 	c #595E64",
"= 	c #585D63",
"- 	c #595C63",
"; 	c #595C61",
"> 	c #5A5D62",
", 	c #5A5D64",
"' 	c #56595E",
") 	c #565960",
"! 	c #55585F",
"~ 	c #2D2F32",
"{ 	c #2E2F33",
"] 	c #2F3135",
"^ 	c #323438",
"/ 	c #45494E",
"( 	c #44494D",
"_ 	c #44494C",
": 	c #44484C",
"< 	c #43484C",
"[ 	c #43474B",
"} 	c #6D7279",
"| 	c #6C7177",
"1 	c #6B7076",
"2 	c #838A8E",
"3 	c #82898D",
"4 	c #4D5055",
"5 	c #4C4F54",
"6 	c #4A4D52",
"7 	c #494C51",
"8 	c #4A4D51",
"9 	c #5C6066",
"0 	c #6E737A",
"a 	c #1A1A1B",
"b 	c #19191A",
"c 	c #161617",
"d 	c #131314",
"e 	c #121213",
"f 	c #121212",
"g 	c #141415",
"h 	c #181819",
"i 	c #343639",
"j 	c #5C5F65",
"k 	c #686D74",
"l 	c #1B1B1C",
"m 	c #0E0E0E",
"n 	c #2A3A3D",
"o 	c #1D3B40",
"p 	c #0C2E38",
"q 	c #072935",
"r 	c #052B34",
"s 	c #052C32",
"t 	c #05272D",
"u 	c #0E1416",
"v 	c #181818",
"w 	c #1C1C1D",
"x 	c #494C50",
"y 	c #656B71",
"z 	c #222224",
"A 	c #32616C",
"B 	c #6BD3E2",
"C 	c #67D9EA",
"D 	c #48CFE6",
"E 	c #3ECAE5",
"F 	c #37CBE4",
"G 	c #0DC1DC",
"H 	c #00A8C2",
"I 	c #01566E",
"J 	c #151C20",
"K 	c #242426",
"L 	c #28282A",
"M 	c #555A5E",
"N 	c #2C2C30",
"O 	c #111921",
"P 	c #0099C5",
"Q 	c #83E8FE",
"R 	c #B5F2FF",
"S 	c #9EEEFF",
"T 	c #97EDFF",
"U 	c #8FECFF",
"V 	c #5EE3FF",
"W 	c #00C6F1",
"X 	c #0081AD",
"Y 	c #09223C",
"Z 	c #2F3033",
"` 	c #36373B",
" .	c #45494D",
"..	c #393A3F",
"+.	c #131C2E",
"@.	c #0090CC",
"#.	c #04C3FE",
"$.	c #25CFFF",
"%.	c #13CEFF",
"&.	c #18D2FF",
"*.	c #11CDFF",
"=.	c #09C7FF",
"-.	c #00B8F3",
";.	c #0078B4",
">.	c #091C47",
",.	c #3E3E44",
"'.	c #48494F",
").	c #4D4F55",
"!.	c #232630",
"~.	c #0063A8",
"{.	c #00A0E3",
"].	c #00ABE9",
"^.	c #00B3E9",
"/.	c #02B9E9",
"(.	c #00B2E9",
"_.	c #00A9E8",
":.	c #0094D8",
"<.	c #004C91",
"[.	c #131D45",
"}.	c #515359",
"|.	c #5A5C63",
"1.	c #51545A",
"2.	c #646670",
"3.	c #494A51",
"4.	c #0A484F",
"5.	c #00767F",
"6.	c #007A87",
"7.	c #007287",
"8.	c #006B87",
"9.	c #007487",
"0.	c #007A86",
"a.	c #007079",
"b.	c #014F58",
"c.	c #404F57",
"d.	c #676972",
"e.	c #64666F",
"f.	c #484B50",
"g.	c #777A85",
"h.	c #6F717D",
"i.	c #5D606C",
"j.	c #404E5C",
"k.	c #3D4B58",
"l.	c #3D4A58",
"m.	c #3D4958",
"n.	c #3D4B59",
"o.	c #42505D",
"p.	c #59606D",
"q.	c #71747F",
"r.	c #676A73",
"s.	c #46494E",
"t.	c #42454A",
"u.	c #747782",
"v.	c #727580",
"w.	c #6F727D",
"x.	c #6E717C",
"y.	c #6F717C",
"z.	c #6B6E78",
"A.	c #60636B",
"B.	c #4B4E54",
"C.	c #3D4045",
"D.	c #424549",
"E.	c #414449",
"F.	c #414448",
"G.	c #404348",
"H.	c #3F4247",
"I.	c #3F4246",
"J.	c #5C5E65",
"K.	c #5C5E63",
"L.	c #5A5E63",
"M.	c #5A5E62",
"N.	c #595D62",
"O.	c #595D61",
"P.	c #585C61",
"Q.	c #575B60",
"R.	c #575A60",
"S.	c #54575D",
"T.	c #282B2E",
"U.	c #27282C",
"V.	c #26272B",
"W.	c #28292D",
"X.	c #25262A",
"Y.	c #242529",
". + + . . + + . + + + + + + + ",
"@ @ @ @ @ @ @ @ @ @ @ @ @ @ @ ",
"# # # # # # # # $ $ # # % & # ",
"* * * * * * = = - ; ; > ; , - ",
"' ' ' ' ' ' ' ' ) ' ' ' ' ) ! ",
"~ ~ ~ { { { { { ~ { { { { ] ^ ",
"/ / / / / ( ( ( _ : : : < < [ ",
"} } } } } } | | | | | 1 1 1 1 ",
"2 2 2 2 2 2 2 2 3 3 3 3 3 3 3 ",
"4 4 5 6 7 7 7 7 8 9 } 0 0 0 0 ",
"a b c d e f f f e g h i j k k ",
"l c m n o p q r s t u v w x y ",
"z g A B C D E F G H I J K L M ",
"N O P Q R S T U V W X Y Z `  .",
"..+.@.#.$.%.&.*.=.-.;.>.,.'.5 ",
").!.~.{.].^./.(._.:.<.[.}.|.1.",
"2.3.4.5.6.7.8.9.0.a.b.c.d.e.f.",
"g.h.i.j.k.l.m.l.n.o.p.q.r.s.t.",
"u.u.v.w.x.x.x.x.y.z.A.B.C.C.C.",
"t.t.t.t.t.D.E.E.E.E.F.G.G.H.I.",
"J.J.J.J.K.L.L.L.M.N.O.P.Q.R.S.",
"T.T.T.T.T.T.T.T.T.T.T.T.T.T.T.",
"U.U.U.U.U.U.U.U.U.V.V.W.V.X.Y.",
". + + . . + + . + + + + + + + ",
"@ @ @ @ @ @ @ @ @ @ @ @ @ @ @ ",
"# # # # # # # # $ $ # # % & # ",
"* * * * * * = = - ; ; > ; , - ",
"' ' ' ' ' ' ' ' ) ' ' ' ' ) ! ",
"~ ~ ~ { { { { { ~ { { { { ] ^ ",
"/ / / / / ( ( ( _ : : : < < [ ",
"} } } } } } | | | | | 1 1 1 1 ",
"2 2 2 2 2 2 2 2 3 3 3 3 3 3 3 ",
"4 4 5 6 7 7 7 7 8 9 } 0 0 0 0 ",
"a b c d e f f f e g h i j k k ",
"l c m n o p q r s t u v w x y ",
"z g A B C D E F G H I J K L M ",
"N O P Q R S T U V W X Y Z `  .",
"..+.@.#.$.%.&.*.=.-.;.>.,.'.5 ",
").!.~.{.].^./.(._.:.<.[.}.|.1.",
"2.3.4.5.6.7.8.9.0.a.b.c.d.e.f.",
"g.h.i.j.k.l.m.l.n.o.p.q.r.s.t.",
"u.u.v.w.x.x.x.x.y.z.A.B.C.C.C.",
"t.t.t.t.t.D.E.E.E.E.F.G.G.H.I.",
"J.J.J.J.K.L.L.L.M.N.O.P.Q.R.S.",
"T.T.T.T.T.T.T.T.T.T.T.T.T.T.T.",
"U.U.U.U.U.U.U.U.U.V.V.W.V.X.Y."};
