/* XPM */
static char * restoreA_xpm[] = {
"15 46 190 2",
"  	c None",
". 	c #343537",
"+ 	c #343539",
"@ 	c #5E5F63",
"# 	c #777E86",
"$ 	c #777E84",
"% 	c #767D85",
"& 	c #787F87",
"* 	c #595E64",
"= 	c #585D63",
"- 	c #595C63",
"; 	c #595C61",
"> 	c #5A5D62",
", 	c #5A5D64",
"' 	c #56595E",
") 	c #565960",
"! 	c #55585F",
"~ 	c #313236",
"{ 	c #323337",
"] 	c #35363A",
"^ 	c #3A3B3F",
"/ 	c #44494D",
"( 	c #44494C",
"_ 	c #43484B",
": 	c #42474A",
"< 	c #6E7379",
"[ 	c #6D7278",
"} 	c #6C7177",
"| 	c #6B7076",
"1 	c #828A8D",
"2 	c #81898C",
"3 	c #81888E",
"4 	c #82898F",
"5 	c #80888B",
"6 	c #4D5055",
"7 	c #4C4F54",
"8 	c #4B4E53",
"9 	c #4A4D52",
"0 	c #494C51",
"a 	c #484B50",
"b 	c #484D51",
"c 	c #5C6165",
"d 	c #6F747A",
"e 	c #1A1A1A",
"f 	c #18191B",
"g 	c #171516",
"h 	c #131315",
"i 	c #131112",
"j 	c #131313",
"k 	c #12110F",
"l 	c #111214",
"m 	c #121214",
"n 	c #121413",
"o 	c #1A181B",
"p 	c #323639",
"q 	c #5C5F64",
"r 	c #666D73",
"s 	c #696C73",
"t 	c #1A1C1B",
"u 	c #171518",
"v 	c #0E100F",
"w 	c #29363E",
"x 	c #1D353F",
"y 	c #0C2836",
"z 	c #092634",
"A 	c #042433",
"B 	c #03232E",
"C 	c #071C2F",
"D 	c #0C1114",
"E 	c #181617",
"F 	c #1C1B20",
"G 	c #4B4C51",
"H 	c #646B71",
"I 	c #232124",
"J 	c #161415",
"K 	c #31536C",
"L 	c #6BBFE4",
"M 	c #67CAEA",
"N 	c #48BBE8",
"O 	c #3CB9E7",
"P 	c #36B6E3",
"Q 	c #0CA5DE",
"R 	c #0289C3",
"S 	c #003A6C",
"T 	c #14191F",
"U 	c #242527",
"V 	c #28272C",
"W 	c #555A5E",
"X 	c #2D2D2F",
"Y 	c #101420",
"Z 	c #0077C7",
"` 	c #84D6FC",
" .	c #B1E7FF",
"..	c #95E0FF",
"+.	c #8FDBFF",
"@.	c #87DBFF",
"#.	c #59CCFF",
"$.	c #00A2ED",
"%.	c #0060AC",
"&.	c #0A0E3D",
"*.	c #302F34",
"=.	c #38373D",
"-.	c #48474D",
";.	c #383B40",
">.	c #12142B",
",.	c #006BCD",
"'.	c #009DFA",
").	c #19A9FF",
"!.	c #009FFF",
"~.	c #00A1FF",
"{.	c #009EFF",
"].	c #0095F3",
"^.	c #0053B6",
"/.	c #090945",
"(.	c #3B3F42",
"_.	c #48494E",
":.	c #4C4F56",
"<.	c #4F4E56",
"[.	c #222433",
"}.	c #0040A8",
"|.	c #0278E4",
"1.	c #007FE8",
"2.	c #017EE8",
"3.	c #007EE7",
"4.	c #026EDA",
"5.	c #002793",
"6.	c #131345",
"7.	c #52525A",
"8.	c #50535A",
"9.	c #63666F",
"0.	c #4B4A50",
"a.	c #0B4550",
"b.	c #00727C",
"c.	c #017B8A",
"d.	c #007A89",
"e.	c #007B87",
"f.	c #017987",
"g.	c #006D78",
"h.	c #004C58",
"i.	c #424E5A",
"j.	c #696971",
"k.	c #64646E",
"l.	c #4A4A52",
"m.	c #797985",
"n.	c #6E727D",
"o.	c #5D5F6B",
"p.	c #42505D",
"q.	c #3D4B58",
"r.	c #3C4C59",
"s.	c #3B4C56",
"t.	c #3E4C59",
"u.	c #3B4D5B",
"v.	c #43515E",
"w.	c #595F6B",
"x.	c #71737F",
"y.	c #676A71",
"z.	c #454A4E",
"A.	c #414649",
"B.	c #757783",
"C.	c #747682",
"D.	c #727480",
"E.	c #70727E",
"F.	c #6E707C",
"G.	c #6F717D",
"H.	c #6F727B",
"I.	c #6B6E77",
"J.	c #60636A",
"K.	c #4A4D54",
"L.	c #3C3F44",
"M.	c #3D4045",
"N.	c #42454A",
"O.	c #414449",
"P.	c #41444B",
"Q.	c #404348",
"R.	c #3F4247",
"S.	c #3E4245",
"T.	c #3E4146",
"U.	c #5C5F66",
"V.	c #5B5E65",
"W.	c #585B60",
"X.	c #585B62",
"Y.	c #54575E",
"Z.	c #282C2F",
"`.	c #272B2E",
" +	c #282B30",
".+	c #27282C",
"++	c #26272B",
"@+	c #28292D",
"#+	c #25262A",
"$+	c #242529",
". + + . . + + . + + + + + + + ",
"@ @ @ @ @ @ @ @ @ @ @ @ @ @ @ ",
"# # # # # # # # $ $ # # % & # ",
"* * * * * * = = - ; ; > ; , - ",
"' ' ' ' ' ' ' ' ) ' ' ' ' ) ! ",
"~ ~ ~ { { { { { ~ { { { { ] ^ ",
"/ / / / / / / / ( _ _ _ _ _ : ",
"< < < < [ [ } } } } } | | | | ",
"1 1 1 1 1 1 1 1 2 2 2 3 4 3 5 ",
"6 7 8 9 0 0 a 0 b c [ d < < < ",
"e f g h i j k l m n o p q r s ",
"t u v w x y z A B C D E F G H ",
"I J K L M N O P Q R S T U V W ",
"X Y Z `  ...+.@.#.$.%.&.*.=.-.",
";.>.,.'.).!.~.{.{.].^./.(._.:.",
"<.[.}.|.1.1.1.2.3.4.5.6.7.* 8.",
"9.0.a.b.c.d.e.d.f.g.h.i.j.k.l.",
"m.n.o.p.q.r.s.t.u.v.w.x.y.z.A.",
"B.C.D.E.F.G.G.F.H.I.J.K.L.M.M.",
"N.N.N.N.N.O.O.O.P.O.Q.Q.R.S.T.",
"U.V.V.V.V., , V.> ; ; W.W.X.Y.",
"Z.`.`.`.`.`.`.Z.Z.Z.Z.`.Z.`. +",
".+.+.+.+.+.+.+.+.+++++@+++#+$+",
". + + . . + + . + + + + + + + ",
"@ @ @ @ @ @ @ @ @ @ @ @ @ @ @ ",
"# # # # # # # # $ $ # # % & # ",
"* * * * * * = = - ; ; > ; , - ",
"' ' ' ' ' ' ' ' ) ' ' ' ' ) ! ",
"~ ~ ~ { { { { { ~ { { { { ] ^ ",
"/ / / / / / / / ( _ _ _ _ _ : ",
"< < < < [ [ } } } } } | | | | ",
"1 1 1 1 1 1 1 1 2 2 2 3 4 3 5 ",
"6 7 8 9 0 0 a 0 b c [ d < < < ",
"e f g h i j k l m n o p q r s ",
"t u v w x y z A B C D E F G H ",
"I J K L M N O P Q R S T U V W ",
"X Y Z `  ...+.@.#.$.%.&.*.=.-.",
";.>.,.'.).!.~.{.{.].^./.(._.:.",
"<.[.}.|.1.1.1.2.3.4.5.6.7.* 8.",
"9.0.a.b.c.d.e.d.f.g.h.i.j.k.l.",
"m.n.o.p.q.r.s.t.u.v.w.x.y.z.A.",
"B.C.D.E.F.G.G.F.H.I.J.K.L.M.M.",
"N.N.N.N.N.O.O.O.P.O.Q.Q.R.S.T.",
"U.V.V.V.V., , V.> ; ; W.W.X.Y.",
"Z.`.`.`.`.`.`.Z.Z.Z.Z.`.Z.`. +",
".+.+.+.+.+.+.+.+.+++++@+++#+$+"};
