/* XPM */
static char * minimizeO_xpm[] = {
"18 46 285 2",
"  	c None",
". 	c #343539",
"+ 	c #333436",
"@ 	c #343537",
"# 	c #5E5F63",
"$ 	c #5C6063",
"% 	c #777E86",
"& 	c #797E84",
"* 	c #787D83",
"= 	c #777E84",
"- 	c #595C63",
"; 	c #5A5D64",
"> 	c #595E64",
", 	c #585D63",
"' 	c #56595E",
") 	c #565960",
"! 	c #54575E",
"~ 	c #575A61",
"{ 	c #55585D",
"] 	c #58595E",
"^ 	c #38393D",
"/ 	c #37383C",
"( 	c #38393B",
"_ 	c #37383A",
": 	c #393A3E",
"< 	c #333438",
"[ 	c #2D3033",
"} 	c #2C3033",
"| 	c #2E2F33",
"1 	c #2D2F32",
"2 	c #101010",
"3 	c #111111",
"4 	c #101113",
"5 	c #1D1F21",
"6 	c #272A2D",
"7 	c #2D3034",
"8 	c #393D41",
"9 	c #3C4144",
"0 	c #3E4246",
"a 	c #404448",
"b 	c #41464A",
"c 	c #42474A",
"d 	c #43474C",
"e 	c #44484C",
"f 	c #44494C",
"g 	c #44494D",
"h 	c #151517",
"i 	c #060608",
"j 	c #1D1D20",
"k 	c #26292C",
"l 	c #34373A",
"m 	c #44474A",
"n 	c #505459",
"o 	c #555A5F",
"p 	c #5A5F64",
"q 	c #5F6469",
"r 	c #63686D",
"s 	c #656B71",
"t 	c #686D73",
"u 	c #696E75",
"v 	c #6B7076",
"w 	c #6C7177",
"x 	c #6D7279",
"y 	c #2D2E32",
"z 	c #2E3033",
"A 	c #282A2D",
"B 	c #383B3F",
"C 	c #464A4D",
"D 	c #505559",
"E 	c #52585C",
"F 	c #5E6469",
"G 	c #696F74",
"H 	c #757D83",
"I 	c #7B8088",
"J 	c #7D838A",
"K 	c #7F868C",
"L 	c #80888D",
"M 	c #82898D",
"N 	c #838A8E",
"O 	c #15161A",
"P 	c #282A2E",
"Q 	c #494D50",
"R 	c #52555B",
"S 	c #5D6267",
"T 	c #60656B",
"U 	c #62676E",
"V 	c #55585E",
"W 	c #4F5258",
"X 	c #46484C",
"Y 	c #47494D",
"Z 	c #484B4E",
"` 	c #494C50",
" .	c #4A4D51",
"..	c #4B4E53",
"+.	c #4D5055",
"@.	c #2A2D32",
"#.	c #333539",
"$.	c #44484D",
"%.	c #494D52",
"&.	c #474B4F",
"*.	c #4A4E53",
"=.	c #333538",
"-.	c #1A1B1C",
";.	c #131314",
">.	c #121213",
",.	c #121212",
"'.	c #141415",
").	c #171718",
"!.	c #19191A",
"~.	c #1A1A1B",
"{.	c #282B2E",
"].	c #393D40",
"^.	c #434649",
"/.	c #3E4347",
"(.	c #3F4347",
"_.	c #202122",
":.	c #161617",
"<.	c #0E0E0E",
"[.	c #2A3A3D",
"}.	c #1D3B40",
"|.	c #0C2E38",
"1.	c #072935",
"2.	c #052B34",
"3.	c #052C32",
"4.	c #05272D",
"5.	c #0E1416",
"6.	c #181818",
"7.	c #1B1B1C",
"8.	c #3D4246",
"9.	c #383C40",
"0.	c #3C4044",
"a.	c #2F3032",
"b.	c #222224",
"c.	c #32616C",
"d.	c #6BD3E2",
"e.	c #67D9EA",
"f.	c #48CFE6",
"g.	c #3ECAE5",
"h.	c #37CBE4",
"i.	c #0DC1DC",
"j.	c #00A8C2",
"k.	c #01566E",
"l.	c #151C20",
"m.	c #242426",
"n.	c #2F3235",
"o.	c #3F4345",
"p.	c #36393C",
"q.	c #3A3E41",
"r.	c #35363A",
"s.	c #2C2C30",
"t.	c #111921",
"u.	c #0099C5",
"v.	c #83E8FE",
"w.	c #B5F2FF",
"x.	c #9EEEFF",
"y.	c #97EDFF",
"z.	c #8FECFF",
"A.	c #5EE3FF",
"B.	c #00C6F1",
"C.	c #0081AD",
"D.	c #09223C",
"E.	c #2E2F32",
"F.	c #2E3034",
"G.	c #3D3F43",
"H.	c #333639",
"I.	c #37393D",
"J.	c #47484D",
"K.	c #393A3F",
"L.	c #131C2E",
"M.	c #0090CC",
"N.	c #04C3FE",
"O.	c #25CFFF",
"P.	c #13CEFF",
"Q.	c #18D2FF",
"R.	c #11CDFF",
"S.	c #09C7FF",
"T.	c #00B8F3",
"U.	c #0078B4",
"V.	c #091C47",
"W.	c #3D3D43",
"X.	c #2B2E31",
"Y.	c #3B3D41",
"Z.	c #303236",
"`.	c #55575D",
" +	c #4D4F55",
".+	c #232630",
"++	c #0063A8",
"@+	c #00A0E3",
"#+	c #00ABE9",
"$+	c #00B3E9",
"%+	c #02B9E9",
"&+	c #00B2E9",
"*+	c #00A9E8",
"=+	c #0094D8",
"-+	c #004C91",
";+	c #131D45",
">+	c #505258",
",+	c #2A2D30",
"'+	c #35383A",
")+	c #373A3E",
"!+	c #2C2E31",
"~+	c #46484E",
"{+	c #646670",
"]+	c #494A51",
"^+	c #0A484F",
"/+	c #00767F",
"(+	c #007A87",
"_+	c #007287",
":+	c #006B87",
"<+	c #007487",
"[+	c #007A86",
"}+	c #007079",
"|+	c #014F58",
"1+	c #404F57",
"2+	c #676972",
"3+	c #3E4146",
"4+	c #2E3134",
"5+	c #2F3135",
"6+	c #4D4F56",
"7+	c #6A6D77",
"8+	c #5D606C",
"9+	c #404E5C",
"0+	c #3D4B58",
"a+	c #3D4A58",
"b+	c #3D4958",
"c+	c #3D4B59",
"d+	c #42505D",
"e+	c #59606D",
"f+	c #71747F",
"g+	c #797C87",
"h+	c #15191A",
"i+	c #2E3135",
"j+	c #3A3D40",
"k+	c #36383C",
"l+	c #2D2F33",
"m+	c #323538",
"n+	c #51535B",
"o+	c #5F626B",
"p+	c #6D707A",
"q+	c #6D707B",
"r+	c #6E717B",
"s+	c #6F717C",
"t+	c #70737E",
"u+	c #727580",
"v+	c #747782",
"w+	c #43434D",
"x+	c #141517",
"y+	c #3C3F42",
"z+	c #404346",
"A+	c #3E4044",
"B+	c #383A3E",
"C+	c #3A3D41",
"D+	c #3C3F43",
"E+	c #3E4145",
"F+	c #3F4247",
"G+	c #404348",
"H+	c #414449",
"I+	c #424549",
"J+	c #42454A",
"K+	c #232426",
"L+	c #252628",
"M+	c #191A1E",
"N+	c #25272A",
"O+	c #404347",
"P+	c #4F5155",
"Q+	c #515459",
"R+	c #54575C",
"S+	c #55595E",
"T+	c #575A60",
"U+	c #585C61",
"V+	c #595D62",
"W+	c #5A5E63",
"X+	c #5C5E63",
"Y+	c #4F5150",
"Z+	c #4F5052",
"`+	c #505155",
" @	c #4E4F53",
".@	c #4C4D51",
"+@	c #37393C",
"@@	c #27282C",
"#@	c #26272B",
"$@	c #28292D",
"%@	c #25292C",
"&@	c #24282B",
"*@	c #27282A",
". + + . . + + . . + @ . . @ @ . . @ ",
"# # # $ $ # # $ $ # # # # # # # # # ",
"% % & * & * & % % % = = = = = = = = ",
"- ; > > > , > , , > ; - - - - - ; ; ",
"' ' ) ) ! ~ ) ) { ] ' ' ' ' ' ' ' ' ",
"^ / ( _ : / < [ } } | | | 1 | | | | ",
"2 3 3 4 5 6 7 8 9 0 a b c d e f g g ",
"h i j k l m n o p q r s t u v w w x ",
"y z A B C D E F G H I J K L M M N N ",
"O P B Q R S T U V W X Y Z `  ...+.+.",
"@.#.$.%.&.*.=.-.;.>.,.,.,.>.'.).!.~.",
"{.].^./.(._.:.<.[.}.|.1.2.3.4.5.6.7.",
"[ 8.9.0.a.b.'.c.d.e.f.g.h.i.j.k.l.m.",
"n.o.p.q.r.s.t.u.v.w.x.y.z.A.B.C.D.E.",
"F.G.H.I.J.K.L.M.N.O.P.Q.R.S.T.U.V.W.",
"X.Y.z Z.`. +.+++@+#+$+%+&+*+=+-+;+>+",
",+'+)+!+~+{+]+^+/+(+_+:+<+[+}+|+1+2+",
"3+4+)+5+1 6+7+8+9+0+a+b+a+c+d+e+f+g+",
"h+i+=.j+k+l+m+n+o+p+q+r+r+s+t+u+v+v+",
"w+x+F.H.y+z+A+B+B+C+D+E+F+G+H+H+I+J+",
"K+L+M+N+A p.O+Q P+Q+R+S+T+U+V+W+W+X+",
"Y+Z+`+ @.@+@!+{.{.{.{.{.{.{.{.{.{.{.",
"@@@@#@$@@@#@$@#@%@&@*@*@*@*@*@*@*@*@",
". + + . . + + . . + @ . . @ @ . . @ ",
"# # # $ $ # # $ $ # # # # # # # # # ",
"% % & * & * & % % % = = = = = = = = ",
"- ; > > > , > , , > ; - - - - - ; ; ",
"' ' ) ) ! ~ ) ) { ] ' ' ' ' ' ' ' ' ",
"^ / ( _ : / < [ } } | | | 1 | | | | ",
"2 3 3 4 5 6 7 8 9 0 a b c d e f g g ",
"h i j k l m n o p q r s t u v w w x ",
"y z A B C D E F G H I J K L M M N N ",
"O P B Q R S T U V W X Y Z `  ...+.+.",
"@.#.$.%.&.*.=.-.;.>.,.,.,.>.'.).!.~.",
"{.].^./.(._.:.<.[.}.|.1.2.3.4.5.6.7.",
"[ 8.9.0.a.b.'.c.d.e.f.g.h.i.j.k.l.m.",
"n.o.p.q.r.s.t.u.v.w.x.y.z.A.B.C.D.E.",
"F.G.H.I.J.K.L.M.N.O.P.Q.R.S.T.U.V.W.",
"X.Y.z Z.`. +.+++@+#+$+%+&+*+=+-+;+>+",
",+'+)+!+~+{+]+^+/+(+_+:+<+[+}+|+1+2+",
"3+4+)+5+1 6+7+8+9+0+a+b+a+c+d+e+f+g+",
"h+i+=.j+k+l+m+n+o+p+q+r+r+s+t+u+v+v+",
"w+x+F.H.y+z+A+B+B+C+D+E+F+G+H+H+I+J+",
"K+L+M+N+A p.O+Q P+Q+R+S+T+U+V+W+W+X+",
"Y+Z+`+ @.@+@!+{.{.{.{.{.{.{.{.{.{.{.",
"@@@@#@$@@@#@$@#@%@&@*@*@*@*@*@*@*@*@"};
