/* XPM */
static char * minimizeA_xpm[] = {
"18 46 272 2",
"  	c None",
". 	c #343539",
"+ 	c #333436",
"@ 	c #343537",
"# 	c #5E5F63",
"$ 	c #5C6063",
"% 	c #777E86",
"& 	c #797E84",
"* 	c #787D83",
"= 	c #777E84",
"- 	c #595C63",
"; 	c #5A5D64",
"> 	c #595E64",
", 	c #585D63",
"' 	c #56595E",
") 	c #565960",
"! 	c #54575E",
"~ 	c #575A61",
"{ 	c #55585D",
"] 	c #58595E",
"^ 	c #38393D",
"/ 	c #37383C",
"( 	c #38393B",
"_ 	c #37383A",
": 	c #393A3E",
"< 	c #35363A",
"[ 	c #303437",
"} 	c #323337",
"| 	c #313236",
"1 	c #101010",
"2 	c #111111",
"3 	c #101113",
"4 	c #18191B",
"5 	c #23272A",
"6 	c #2D3134",
"7 	c #393D40",
"8 	c #3C4043",
"9 	c #3E4346",
"0 	c #3F4448",
"a 	c #41464A",
"b 	c #42474B",
"c 	c #43484C",
"d 	c #44494D",
"e 	c #454A4E",
"f 	c #151517",
"g 	c #060608",
"h 	c #1B1B1D",
"i 	c #232428",
"j 	c #36373B",
"k 	c #44474C",
"l 	c #4E5359",
"m 	c #565B61",
"n 	c #5B6066",
"o 	c #5F646A",
"p 	c #63686E",
"q 	c #666B71",
"r 	c #686D73",
"s 	c #696E74",
"t 	c #6B7076",
"u 	c #6C7177",
"v 	c #6D7278",
"w 	c #2D2E32",
"x 	c #28292B",
"y 	c #383C3F",
"z 	c #464A4D",
"A 	c #505559",
"B 	c #52575B",
"C 	c #5F6468",
"D 	c #696E72",
"E 	c #787D81",
"F 	c #7C8187",
"G 	c #7E8389",
"H 	c #80858B",
"I 	c #82878D",
"J 	c #83888E",
"K 	c #84898F",
"L 	c #131418",
"M 	c #292A2E",
"N 	c #373B3E",
"O 	c #494C51",
"P 	c #51565A",
"Q 	c #5D6268",
"R 	c #60656B",
"S 	c #62676D",
"T 	c #54595F",
"U 	c #45494C",
"V 	c #484C4F",
"W 	c #494D50",
"X 	c #4B4F52",
"Y 	c #4D5154",
"Z 	c #4C5053",
"` 	c #2F3239",
" .	c #34353A",
"..	c #494A4F",
"+.	c #485053",
"@.	c #353638",
"#.	c #191A1C",
"$.	c #131313",
"%.	c #131114",
"&.	c #121411",
"*.	c #111312",
"=.	c #121212",
"-.	c #151314",
";.	c #16171B",
">.	c #191919",
",.	c #1A1A1C",
"'.	c #2A2B2F",
").	c #393C41",
"!.	c #414649",
"~.	c #3B4546",
"{.	c #3F4247",
"].	c #202221",
"^.	c #171518",
"/.	c #100C0D",
"(.	c #29363C",
"_.	c #1E353D",
":.	c #0E2837",
"<.	c #072436",
"[.	c #062132",
"}.	c #061D2D",
"|.	c #0D1015",
"1.	c #181914",
"2.	c #2D3132",
"3.	c #3E4245",
"4.	c #383B44",
"5.	c #394144",
"6.	c #323035",
"7.	c #222224",
"8.	c #141412",
"9.	c #30566D",
"0.	c #6CBEE3",
"a.	c #66C8EB",
"b.	c #48BBE7",
"c.	c #3EB9E3",
"d.	c #36B6E5",
"e.	c #0BA6DC",
"f.	c #0188C0",
"g.	c #003871",
"h.	c #171721",
"i.	c #212524",
"j.	c #2E3136",
"k.	c #414246",
"l.	c #393E41",
"m.	c #2C2C2E",
"n.	c #111224",
"o.	c #0277C6",
"p.	c #82D5FD",
"q.	c #B1E8FD",
"r.	c #95E0FF",
"s.	c #8CDCFF",
"t.	c #86D9FB",
"u.	c #59CDFF",
"v.	c #00A4F0",
"w.	c #0060AC",
"x.	c #090D3D",
"y.	c #302F34",
"z.	c #3E3F43",
"A.	c #333439",
"B.	c #46474C",
"C.	c #3B3C41",
"D.	c #10112D",
"E.	c #006DCC",
"F.	c #019EFD",
"G.	c #1BA9FD",
"H.	c #009EFF",
"I.	c #019FFF",
"J.	c #00A0FF",
"K.	c #0092F1",
"L.	c #0055B4",
"M.	c #0B0948",
"N.	c #3C3D41",
"O.	c #2B2C30",
"P.	c #3A3E41",
"Q.	c #303133",
"R.	c #313035",
"S.	c #4E4E56",
"T.	c #242430",
"U.	c #003EA7",
"V.	c #0079E4",
"W.	c #007FEA",
"X.	c #007FE8",
"Y.	c #017EE8",
"Z.	c #007FE6",
"`.	c #037DEA",
" +	c #016DDA",
".+	c #002892",
"++	c #131345",
"@+	c #4F5257",
"#+	c #34383B",
"$+	c #363A3D",
"%+	c #2C3033",
"&+	c #47474F",
"*+	c #65656F",
"=+	c #4A4A52",
"-+	c #07464D",
";+	c #01717D",
">+	c #017B88",
",+	c #007A89",
"'+	c #007986",
")+	c #017C84",
"!+	c #007984",
"~+	c #006D78",
"{+	c #014B56",
"]+	c #415057",
"^+	c #666970",
"/+	c #46494E",
"(+	c #2F3034",
"_+	c #393A3C",
":+	c #2E3138",
"<+	c #2D2E30",
"[+	c #4D5055",
"}+	c #6A6D76",
"|+	c #5E606D",
"1+	c #3F4F5E",
"2+	c #3B4C56",
"3+	c #3D4B56",
"4+	c #3F4B57",
"5+	c #3B4B5A",
"6+	c #3B4D5B",
"7+	c #43515C",
"8+	c #595F6D",
"9+	c #717380",
"0+	c #7A7C88",
"a+	c #15191A",
"b+	c #36393E",
"c+	c #3C3D42",
"d+	c #35393C",
"e+	c #32353A",
"f+	c #515459",
"g+	c #5F6269",
"h+	c #6E717A",
"i+	c #6E707C",
"j+	c #6F717D",
"k+	c #70727E",
"l+	c #727480",
"m+	c #747682",
"n+	c #757783",
"o+	c #43434D",
"p+	c #141517",
"q+	c #3F4346",
"r+	c #373A3F",
"s+	c #383B42",
"t+	c #393C43",
"u+	c #3C3F44",
"v+	c #3D4045",
"w+	c #404348",
"x+	c #414449",
"y+	c #42454A",
"z+	c #232426",
"A+	c #252628",
"B+	c #191A1E",
"C+	c #242529",
"D+	c #28292D",
"E+	c #4E5255",
"F+	c #53565B",
"G+	c #575A5F",
"H+	c #585B60",
"I+	c #5A5D62",
"J+	c #5B5E63",
"K+	c #4F5150",
"L+	c #4F5052",
"M+	c #505155",
"N+	c #4E4F53",
"O+	c #4D4E52",
"P+	c #2A2E31",
"Q+	c #272B2E",
"R+	c #282C2F",
"S+	c #27282C",
"T+	c #26272B",
"U+	c #25292C",
"V+	c #24282B",
"W+	c #27282A",
". + + . . + + . . + @ . . @ @ . . @ ",
"# # # $ $ # # $ $ # # # # # # # # # ",
"% % & * & * & % % % = = = = = = = = ",
"- ; > > > , > , , > ; - - - - - ; ; ",
"' ' ) ) ! ~ ) ) { ] ' ' ' ' ' ' ' ' ",
"^ / ( _ : / < [ [ [ } } } | } } } } ",
"1 2 2 3 4 5 6 7 8 9 0 a b b c d d e ",
"f g h i j k l m n o p q r s t u u v ",
"w | x y z A B C D E F G H I J K K K ",
"L M N O P Q R S T l U z V W W X Y Z ",
"`  .U O ..+.@.#.$.%.&.*.=.=.-.;.>.,.",
"'.).!.~.{.].^./.(._.:.<.<.[.}.|.1.h ",
"2.3.4.5.6.7.8.9.0.a.b.c.d.e.f.g.h.i.",
"j.k.( l.@.m.n.o.p.q.r.s.t.u.v.w.x.y.",
"j.z.A.y B.C.D.E.F.G.H.I.H.J.K.L.M.N.",
"O.P.Q.R.! S.T.U.V.W.X.Y.Z.`. +.+++@+",
". #+$+%+&+*+=+-+;+>+,+'+)+!+~+{+]+^+",
"/+(+_+:+<+[+}+|+1+2+3+4+5+6+7+8+9+0+",
"a+b+A.c+d+%+e+f+g+h+i+i+i+j+k+l+m+n+",
"o+p+^ . z.q+8 r+s+t+u+v+{.w+x+x+y+y+",
"z+A+B+C+D+^ k.W E+f+F+{ G+H+I+I+J+J+",
"K+L+M+N+O+k.< P+Q+Q+Q+Q+Q+Q+R+R+R+Q+",
"S+S+T+D+S+T+D+T+U+V+W+W+W+W+W+W+W+W+",
". + + . . + + . . + @ . . @ @ . . @ ",
"# # # $ $ # # $ $ # # # # # # # # # ",
"% % & * & * & % % % = = = = = = = = ",
"- ; > > > , > , , > ; - - - - - ; ; ",
"' ' ) ) ! ~ ) ) { ] ' ' ' ' ' ' ' ' ",
"^ / ( _ : / < [ [ [ } } } | } } } } ",
"1 2 2 3 4 5 6 7 8 9 0 a b b c d d e ",
"f g h i j k l m n o p q r s t u u v ",
"w | x y z A B C D E F G H I J K K K ",
"L M N O P Q R S T l U z V W W X Y Z ",
"`  .U O ..+.@.#.$.%.&.*.=.=.-.;.>.,.",
"'.).!.~.{.].^./.(._.:.<.<.[.}.|.1.h ",
"2.3.4.5.6.7.8.9.0.a.b.c.d.e.f.g.h.i.",
"j.k.( l.@.m.n.o.p.q.r.s.t.u.v.w.x.y.",
"j.z.A.y B.C.D.E.F.G.H.I.H.J.K.L.M.N.",
"O.P.Q.R.! S.T.U.V.W.X.Y.Z.`. +.+++@+",
". #+$+%+&+*+=+-+;+>+,+'+)+!+~+{+]+^+",
"/+(+_+:+<+[+}+|+1+2+3+4+5+6+7+8+9+0+",
"a+b+A.c+d+%+e+f+g+h+i+i+i+j+k+l+m+n+",
"o+p+^ . z.q+8 r+s+t+u+v+{.w+x+x+y+y+",
"z+A+B+C+D+^ k.W E+f+F+{ G+H+I+I+J+J+",
"K+L+M+N+O+k.< P+Q+Q+Q+Q+Q+Q+R+R+R+Q+",
"S+S+T+D+S+T+D+T+U+V+W+W+W+W+W+W+W+W+"};
