/* XPM */
static char * titleAB_xpm[] = {
"469 23 46 1",
" 	c None",
".	c #333538",
"+	c #5D5F62",
"@	c #787E85",
"#	c #595D63",
"$	c #56595F",
"%	c #37393C",
"&	c #111112",
"*	c #141517",
"=	c #060607",
"-	c #171719",
";	c #2D2F33",
">	c #333439",
",	c #0E0E10",
"'	c #36393D",
")	c #3E4147",
"!	c #131316",
"~	c #45484E",
"{	c #47494F",
"]	c #4E5258",
"^	c #161718",
"/	c #18191B",
"(	c #4D5157",
"_	c #53575E",
":	c #191A1C",
"<	c #5C6068",
"[	c #575961",
"}	c #5F636C",
"|	c #1A1B1D",
"1	c #1A1B1E",
"2	c #565A61",
"3	c #55585E",
"4	c #1A1A1D",
"5	c #5E6268",
"6	c #50545A",
"7	c #595D64",
"8	c #18191C",
"9	c #17181A",
"0	c #4A4E54",
"a	c #42454B",
"b	c #4A4D55",
"c	c #222526",
"d	c #242628",
"e	c #191B1C",
"f	c #4E5052",
"g	c #26282B",
".....................................................................................................................................................................................................................................................................................................................................................................................................................................................................................",
"+++++++++++++++++++++++++++++++++++++++++++++++++++++++++++++++++++++++++++++++++++++++++++++++++++++++++++++++++++++++++++++++++++++++++++++++++++++++++++++++++++++++++++++++++++++++++++++++++++++++++++++++++++++++++++++++++++++++++++++++++++++++++++++++++++++++++++++++++++++++++++++++++++++++++++++++++++++++++++++++++++++++++++++++++++++++++++++++++++++++++++++++++++++++++++++++++++++++++++++++++++++++++++++++++++++++++++++++++++++++++++++++++++++++++++++++++++++",
"@@@@@@@@@@@@@@@@@@@@@@@@@@@@@@@@@@@@@@@@@@@@@@@@@@@@@@@@@@@@@@@@@@@@@@@@@@@@@@@@@@@@@@@@@@@@@@@@@@@@@@@@@@@@@@@@@@@@@@@@@@@@@@@@@@@@@@@@@@@@@@@@@@@@@@@@@@@@@@@@@@@@@@@@@@@@@@@@@@@@@@@@@@@@@@@@@@@@@@@@@@@@@@@@@@@@@@@@@@@@@@@@@@@@@@@@@@@@@@@@@@@@@@@@@@@@@@@@@@@@@@@@@@@@@@@@@@@@@@@@@@@@@@@@@@@@@@@@@@@@@@@@@@@@@@@@@@@@@@@@@@@@@@@@@@@@@@@@@@@@@@@@@@@@@@@@@@@@@@@@@@@@@@@@@@@@@@@@@@@@@@@@@@@@@@@@@@@@@@@@@@@@@@@@@@@@@@@@@@@@@@@@@@@@@@@@@@@@@@@@@@@@@@@@@@@@@@@@@@@@@@@@@@@@@",
"#####################################################################################################################################################################################################################################################################################################################################################################################################################################################################################",
"$$$$$$$$$$$$$$$$$$$$$$$$$$$$$$$$$$$$$$$$$$$$$$$$$$$$$$$$$$$$$$$$$$$$$$$$$$$$$$$$$$$$$$$$$$$$$$$$$$$$$$$$$$$$$$$$$$$$$$$$$$$$$$$$$$$$$$$$$$$$$$$$$$$$$$$$$$$$$$$$$$$$$$$$$$$$$$$$$$$$$$$$$$$$$$$$$$$$$$$$$$$$$$$$$$$$$$$$$$$$$$$$$$$$$$$$$$$$$$$$$$$$$$$$$$$$$$$$$$$$$$$$$$$$$$$$$$$$$$$$$$$$$$$$$$$$$$$$$$$$$$$$$$$$$$$$$$$$$$$$$$$$$$$$$$$$$$$$$$$$$$$$$$$$$$$$$$$$$$$$$$$$$$$$$$$$$$$$$$$$$$$$$$$$$$$$$$$$$$$$$$$$$$$$$$$$$$$$$$$$$$$$$$$$$$$$$$$$$$$$$$$$$$$$$$$$$$$$$$$$$$$$$$$$$",
"%%%%%%%%%%%%%%%%%%%%%%%%%%%%%%%%%%%%%%%%%%%%%%%%%%%%%%%%%%%%%%%%%%%%%%%%%%%%%%%%%%%%%%%%%%%%%%%%%%%%%%%%%%%%%%%%%%%%%%%%%%%%%%%%%%%%%%%%%%%%%%%%%%%%%%%%%%%%%%%%%%%%%%%%%%%%%%%%%%%%%%%%%%%%%%%%%%%%%%%%%%%%%%%%%%%%%%%%%%%%%%%%%%%%%%%%%%%%%%%%%%%%%%%%%%%%%%%%%%%%%%%%%%%%%%%%%%%%%%%%%%%%%%%%%%%%%%%%%%%%%%%%%%%%%%%%%%%%%%%%%%%%%%%%%%%%%%%%%%%%%%%%%%%%%%%%%%%%%%%%%%%%%%%%%%%%%%%%%%%%%%%%%%%%%%%%%%%%%%%%%%%%%%%%%%%%%%%%%%%%%%%%%%%%%%%%%%%%%%%%%%%%%%%%%%%%%%%%%%%%%%%%%%%%%",
"&&&&&&&&&&&&&&&&&&&&&&&&&&&&&&&&&&&&&&&&&&&&&&&&&&&&&&&&&&&&&&&&&&&&&&&&&&&&&&&&&&&&&&&&&&&&&&&&&&&&&&&&&&&&&&&&&&&&&&&&&&&&&&&&&&&&&&&&&&&&&&&&&&&&&&&&&&&&&&&&&&&&&&&&&&&&&&&&&&&&&&&&&&&&&&&&&&&&&&&&&&&&&&&&&&&&&&&&&&&&&&&&&&&&&&&&&&&&&&&&&&&&&&&&&&&&&&&&&&&&&&&&&&&&&&&&&&&&&&&&&&&&&&&&&&&&&&&&&&&&&&&&&&&&&&&&&&&&&&&&&&&&&&&&&&&&&&&&&&&&&&&&&&&&&&&&&&&&&&&&&&&&&&&&&&&&&&&&&&&&&&&&&&&&&&&&&&&&&&&&&&&&&&&&&&&&&&&&&&&&&&&&&&&&&&&&&&&&&&&&&&&&&&&&&&&&&&&&&&&&&&&&&&&&&",
"*=-*=-*=-*=-*=-*=-*=-*=-*=-*=-*=-*=-*=-*=-*=-*=-*=-*=-*=-*=-*=-*=-*=-*=-*=-*=-*=-*=-*=-*=-*=-*=-*=-*=-*=-*=-*=-*=-*=-*=-*=-*=-*=-*=-*=-*=-*=-*=-*=-*=-*=-*=-*=-*=-*=-*=-*=-*=-*=-*=-*=-*=-*=-*=-*=-*=-*=-*=-*=-*=-*=-*=-*=-*=-*=-*=-*=-*=-*=-*=-*=-*=-*=-*=-*=-*=-*=-*=-*=-*=-*=-*=-*=-*=-*=-*=-*=-*=-*=-*=-*=-*=-*=-*=-*=-*=-*=-*=-*=-*=-*=-*=-*=-*=-*=-*=-*=-*=-*=-*=-*=-*=-*=-*=-*=-*=-*=-*=-*=-*=-*=-*=-*=-*=-*=-*=-*=-*=-*=-*=-*=-*=-*=-*=-*=-*=-*=-*=-*=-*=-*=-*=-*=-*=-*=-*=-*",
";>,;>,;>,;>,;>,;>,;>,;>,;>,;>,;>,;>,;>,;>,;>,;>,;>,;>,;>,;>,;>,;>,;>,;>,;>,;>,;>,;>,;>,;>,;>,;>,;>,;>,;>,;>,;>,;>,;>,;>,;>,;>,;>,;>,;>,;>,;>,;>,;>,;>,;>,;>,;>,;>,;>,;>,;>,;>,;>,;>,;>,;>,;>,;>,;>,;>,;>,;>,;>,;>,;>,;>,;>,;>,;>,;>,;>,;>,;>,;>,;>,;>,;>,;>,;>,;>,;>,;>,;>,;>,;>,;>,;>,;>,;>,;>,;>,;>,;>,;>,;>,;>,;>,;>,;>,;>,;>,;>,;>,;>,;>,;>,;>,;>,;>,;>,;>,;>,;>,;>,;>,;>,;>,;>,;>,;>,;>,;>,;>,;>,;>,;>,;>,;>,;>,;>,;>,;>,;>,;>,;>,;>,;>,;>,;>,;>,;>,;>,;>,;>,;>,;>,;>,;>,;>,;>,;",
"&''&''&''&''&''&''&''&''&''&''&''&''&''&''&''&''&''&''&''&''&''&''&''&''&''&''&''&''&''&''&''&''&''&''&''&''&''&''&''&''&''&''&''&''&''&''&''&''&''&''&''&''&''&''&''&''&''&''&''&''&''&''&''&''&''&''&''&''&''&''&''&''&''&''&''&''&''&''&''&''&''&''&''&''&''&''&''&''&''&''&''&''&''&''&''&''&''&''&''&''&''&''&''&''&''&''&''&''&''&''&''&''&''&''&''&''&''&''&''&''&''&''&''&''&''&''&''&''&''&''&''&''&''&''&''&''&''&''&''&''&''&''&''&''&''&''&''&''&''&''&''&''&''&''&''&''&",
")!~)!~)!~)!~)!~)!~)!~)!~)!~)!~)!~)!~)!~)!~)!~)!~)!~)!~)!~)!~)!~)!~)!~)!~)!~)!~)!~)!~)!~)!~)!~)!~)!~)!~)!~)!~)!~)!~)!~)!~)!~)!~)!~)!~)!~)!~)!~)!~)!~)!~)!~)!~)!~)!~)!~)!~)!~)!~)!~)!~)!~)!~)!~)!~)!~)!~)!~)!~)!~)!~)!~)!~)!~)!~)!~)!~)!~)!~)!~)!~)!~)!~)!~)!~)!~)!~)!~)!~)!~)!~)!~)!~)!~)!~)!~)!~)!~)!~)!~)!~)!~)!~)!~)!~)!~)!~)!~)!~)!~)!~)!~)!~)!~)!~)!~)!~)!~)!~)!~)!~)!~)!~)!~)!~)!~)!~)!~)!~)!~)!~)!~)!~)!~)!~)!~)!~)!~)!~)!~)!~)!~)!~)!~)!~)!~)!~)!~)!~)!~)!~)!~)!~)!~)!~)!~)!~)",
"{]^{]^{]^{]^{]^{]^{]^{]^{]^{]^{]^{]^{]^{]^{]^{]^{]^{]^{]^{]^{]^{]^{]^{]^{]^{]^{]^{]^{]^{]^{]^{]^{]^{]^{]^{]^{]^{]^{]^{]^{]^{]^{]^{]^{]^{]^{]^{]^{]^{]^{]^{]^{]^{]^{]^{]^{]^{]^{]^{]^{]^{]^{]^{]^{]^{]^{]^{]^{]^{]^{]^{]^{]^{]^{]^{]^{]^{]^{]^{]^{]^{]^{]^{]^{]^{]^{]^{]^{]^{]^{]^{]^{]^{]^{]^{]^{]^{]^{]^{]^{]^{]^{]^{]^{]^{]^{]^{]^{]^{]^{]^{]^{]^{]^{]^{]^{]^{]^{]^{]^{]^{]^{]^{]^{]^{]^{]^{]^{]^{]^{]^{]^{]^{]^{]^{]^{]^{]^{]^{]^{]^{]^{]^{]^{]^{]^{]^{]^{]^{]^{]^{]^{]^{]^{]^{]^{",
"/((/((/((/((/((/((/((/((/((/((/((/((/((/((/((/((/((/((/((/((/((/((/((/((/((/((/((/((/((/((/((/((/((/((/((/((/((/((/((/((/((/((/((/((/((/((/((/((/((/((/((/((/((/((/((/((/((/((/((/((/((/((/((/((/((/((/((/((/((/((/((/((/((/((/((/((/((/((/((/((/((/((/((/((/((/((/((/((/((/((/((/((/((/((/((/((/((/((/((/((/((/((/((/((/((/((/((/((/((/((/((/((/((/((/((/((/((/((/((/((/((/((/((/((/((/((/((/((/((/((/((/((/((/((/((/((/((/((/((/((/((/((/((/((/((/((/((/((/((/((/((/((/((/((/((/((/",
"_:<_:<_:<_:<_:<_:<_:<_:<_:<_:<_:<_:<_:<_:<_:<_:<_:<_:<_:<_:<_:<_:<_:<_:<_:<_:<_:<_:<_:<_:<_:<_:<_:<_:<_:<_:<_:<_:<_:<_:<_:<_:<_:<_:<_:<_:<_:<_:<_:<_:<_:<_:<_:<_:<_:<_:<_:<_:<_:<_:<_:<_:<_:<_:<_:<_:<_:<_:<_:<_:<_:<_:<_:<_:<_:<_:<_:<_:<_:<_:<_:<_:<_:<_:<_:<_:<_:<_:<_:<_:<_:<_:<_:<_:<_:<_:<_:<_:<_:<_:<_:<_:<_:<_:<_:<_:<_:<_:<_:<_:<_:<_:<_:<_:<_:<_:<_:<_:<_:<_:<_:<_:<_:<_:<_:<_:<_:<_:<_:<_:<_:<_:<_:<_:<_:<_:<_:<_:<_:<_:<_:<_:<_:<_:<_:<_:<_:<_:<_:<_:<_:<_:<_:<_:<_:<_:<_",
"[}|[}|[}|[}|[}|[}|[}|[}|[}|[}|[}|[}|[}|[}|[}|[}|[}|[}|[}|[}|[}|[}|[}|[}|[}|[}|[}|[}|[}|[}|[}|[}|[}|[}|[}|[}|[}|[}|[}|[}|[}|[}|[}|[}|[}|[}|[}|[}|[}|[}|[}|[}|[}|[}|[}|[}|[}|[}|[}|[}|[}|[}|[}|[}|[}|[}|[}|[}|[}|[}|[}|[}|[}|[}|[}|[}|[}|[}|[}|[}|[}|[}|[}|[}|[}|[}|[}|[}|[}|[}|[}|[}|[}|[}|[}|[}|[}|[}|[}|[}|[}|[}|[}|[}|[}|[}|[}|[}|[}|[}|[}|[}|[}|[}|[}|[}|[}|[}|[}|[}|[}|[}|[}|[}|[}|[}|[}|[}|[}|[}|[}|[}|[}|[}|[}|[}|[}|[}|[}|[}|[}|[}|[}|[}|[}|[}|[}|[}|[}|[}|[}|[}|[}|[}|[}|[}|[",
"1221221221221221221221221221221221221221221221221221221221221221221221221221221221221221221221221221221221221221221221221221221221221221221221221221221221221221221221221221221221221221221221221221221221221221221221221221221221221221221221221221221221221221221221221221221221221221221221221221221221221221221221221221221221221221221221221221221221221221221221221221221221221221221221221221221221221221221221221221221221221221221221221221221221221221221221221221221221221",
"3453453453453453453453453453453453453453453453453453453453453453453453453453453453453453453453453453453453453453453453453453453453453453453453453453453453453453453453453453453453453453453453453453453453453453453453453453453453453453453453453453453453453453453453453453453453453453453453453453453453453453453453453453453453453453453453453453453453453453453453453453453453453453453453453453453453453453453453453453453453453453453453453453453453453453453453453453453453453",
"6786786786786786786786786786786786786786786786786786786786786786786786786786786786786786786786786786786786786786786786786786786786786786786786786786786786786786786786786786786786786786786786786786786786786786786786786786786786786786786786786786786786786786786786786786786786786786786786786786786786786786786786786786786786786786786786786786786786786786786786786786786786786786786786786786786786786786786786786786786786786786786786786786786786786786786786786786786786786",
"9009009009009009009009009009009009009009009009009009009009009009009009009009009009009009009009009009009009009009009009009009009009009009009009009009009009009009009009009009009009009009009009009009009009009009009009009009009009009009009009009009009009009009009009009009009009009009009009009009009009009009009009009009009009009009009009009009009009009009009009009009009009009009009009009009009009009009009009009009009009009009009009009009009009009009009009009009009009009",
"a*ba*ba*ba*ba*ba*ba*ba*ba*ba*ba*ba*ba*ba*ba*ba*ba*ba*ba*ba*ba*ba*ba*ba*ba*ba*ba*ba*ba*ba*ba*ba*ba*ba*ba*ba*ba*ba*ba*ba*ba*ba*ba*ba*ba*ba*ba*ba*ba*ba*ba*ba*ba*ba*ba*ba*ba*ba*ba*ba*ba*ba*ba*ba*ba*ba*ba*ba*ba*ba*ba*ba*ba*ba*ba*ba*ba*ba*ba*ba*ba*ba*ba*ba*ba*ba*ba*ba*ba*ba*ba*ba*ba*ba*ba*ba*ba*ba*ba*ba*ba*ba*ba*ba*ba*ba*ba*ba*ba*ba*ba*ba*ba*ba*ba*ba*ba*ba*ba*ba*ba*ba*ba*ba*ba*ba*ba*ba*ba*ba*ba*ba*ba*ba*ba*ba*ba*ba*ba*ba*ba*ba*ba*ba*ba*ba*ba*ba*ba*ba*ba*ba*ba*ba*ba*ba*ba",
"cdecdecdecdecdecdecdecdecdecdecdecdecdecdecdecdecdecdecdecdecdecdecdecdecdecdecdecdecdecdecdecdecdecdecdecdecdecdecdecdecdecdecdecdecdecdecdecdecdecdecdecdecdecdecdecdecdecdecdecdecdecdecdecdecdecdecdecdecdecdecdecdecdecdecdecdecdecdecdecdecdecdecdecdecdecdecdecdecdecdecdecdecdecdecdecdecdecdecdecdecdecdecdecdecdecdecdecdecdecdecdecdecdecdecdecdecdecdecdecdecdecdecdecdecdecdecdecdecdecdecdecdecdecdecdecdecdecdecdecdecdecdecdecdecdecdecdecdecdecdecdecdecdecdecdecdec",
"fffffffffffffffffffffffffffffffffffffffffffffffffffffffffffffffffffffffffffffffffffffffffffffffffffffffffffffffffffffffffffffffffffffffffffffffffffffffffffffffffffffffffffffffffffffffffffffffffffffffffffffffffffffffffffffffffffffffffffffffffffffffffffffffffffffffffffffffffffffffffffffffffffffffffffffffffffffffffffffffffffffffffffffffffffffffffffffffffffffffffffffffffffffffffffffffffffffffffffffffffffffffffffffffffffffffffffffffffffffffffffffffffffffffffffffffffffff",
"ggggggggggggggggggggggggggggggggggggggggggggggggggggggggggggggggggggggggggggggggggggggggggggggggggggggggggggggggggggggggggggggggggggggggggggggggggggggggggggggggggggggggggggggggggggggggggggggggggggggggggggggggggggggggggggggggggggggggggggggggggggggggggggggggggggggggggggggggggggggggggggggggggggggggggggggggggggggggggggggggggggggggggggggggggggggggggggggggggggggggggggggggggggggggggggggggggggggggggggggggggggggggggggggggggggggggggggggggggggggggggggggggggggggggggggggggggggg"};
