/* XPM */
static char * titleAP_xpm[] = {
"37 23 235 2",
"  	c None",
". 	c #242729",
"+ 	c #2F3235",
"@ 	c #333538",
"# 	c #46484A",
"$ 	c #707276",
"% 	c #5D5F62",
"& 	c #53565B",
"* 	c #7F858E",
"= 	c #71767D",
"- 	c #787E85",
"; 	c #787E84",
"> 	c #767C83",
", 	c #757B81",
"' 	c #747A80",
") 	c #73797F",
"! 	c #72787F",
"~ 	c #72787E",
"{ 	c #737980",
"] 	c #777D83",
"^ 	c #474A4F",
"/ 	c #6B7077",
"( 	c #595D63",
"_ 	c #4B4F54",
": 	c #313437",
"< 	c #202123",
"[ 	c #121314",
"} 	c #050606",
"| 	c #060707",
"1 	c #131414",
"2 	c #191B1D",
"3 	c #232528",
"4 	c #373A3D",
"5 	c #4D5055",
"6 	c #51555A",
"7 	c #55595F",
"8 	c #585C61",
"9 	c #45474C",
"0 	c #676B72",
"a 	c #56595F",
"b 	c #3B3D40",
"c 	c #191A1C",
"d 	c #080809",
"e 	c #0B0B0B",
"f 	c #0E0E10",
"g 	c #111112",
"h 	c #101112",
"i 	c #0C0C0D",
"j 	c #070708",
"k 	c #0A0A0B",
"l 	c #1D1E20",
"m 	c #383A3E",
"n 	c #4F5157",
"o 	c #53565C",
"p 	c #55585E",
"q 	c #424548",
"r 	c #64676C",
"s 	c #53565A",
"t 	c #484B4E",
"u 	c #111113",
"v 	c #161719",
"w 	c #212225",
"x 	c #33353A",
"y 	c #36383C",
"z 	c #424449",
"A 	c #2F3135",
"B 	c #1C1D20",
"C 	c #0F1011",
"D 	c #080808",
"E 	c #090909",
"F 	c #222324",
"G 	c #28292B",
"H 	c #37393C",
"I 	c #404246",
"J 	c #606268",
"K 	c #505257",
"L 	c #424348",
"M 	c #151617",
"N 	c #131315",
"O 	c #191A1D",
"P 	c #34363A",
"Q 	c #51545B",
"R 	c #5B5E66",
"S 	c #575A62",
"T 	c #333539",
"U 	c #121214",
"V 	c #0D0D0E",
"W 	c #101011",
"X 	c #3E3F42",
"Y 	c #5C5F64",
"Z 	c #4D4F53",
"` 	c #424448",
" .	c #171718",
"..	c #161618",
"+.	c #4D5057",
"@.	c #585B63",
"#.	c #494C53",
"$.	c #1E1F22",
"%.	c #0C0D0E",
"&.	c #121213",
"*.	c #131415",
"=.	c #050506",
"-.	c #595B60",
";.	c #4A4C50",
">.	c #494B4F",
",.	c #202022",
"'.	c #18191B",
").	c #1E1F21",
"!.	c #505258",
"~.	c #55575E",
"{.	c #4A4C52",
"].	c #1A1B1D",
"^.	c #1D1E21",
"/.	c #2B2B30",
"(.	c #393A3E",
"_.	c #55585C",
":.	c #47494D",
"<.	c #35373A",
"[.	c #1C1D1E",
"}.	c #1C1D1F",
"|.	c #42444A",
"1.	c #50535A",
"2.	c #35373C",
"3.	c #161718",
"4.	c #09090A",
"5.	c #292B2E",
"6.	c #383A3C",
"7.	c #54565A",
"8.	c #46484B",
"9.	c #434548",
"0.	c #414346",
"a.	c #242427",
"b.	c #1B1C1E",
"c.	c #232427",
"d.	c #4C4E54",
"e.	c #4A4B51",
"f.	c #0D0D0F",
"g.	c #36373A",
"h.	c #47494E",
"i.	c #313337",
"j.	c #303236",
"k.	c #47494F",
"l.	c #25262A",
"m.	c #323438",
"n.	c #2A2B2E",
"o.	c #3B3D42",
"p.	c #303235",
"q.	c #2D2F33",
"r.	c #191B1C",
"s.	c #34353A",
"t.	c #414349",
"u.	c #2E2F33",
"v.	c #111213",
"w.	c #27292C",
"x.	c #383B40",
"y.	c #292A2E",
"z.	c #26272A",
"A.	c #1B1C1F",
"B.	c #3C3E43",
"C.	c #2F3034",
"D.	c #282A2D",
"E.	c #323537",
"F.	c #27282C",
"G.	c #242629",
"H.	c #37383D",
"I.	c #2B2C30",
"J.	c #3D3F45",
"K.	c #282A2C",
"L.	c #2F3035",
"M.	c #242529",
"N.	c #1F2023",
"O.	c #27282B",
"P.	c #323337",
"Q.	c #3B3E43",
"R.	c #26282A",
"S.	c #2B2E30",
"T.	c #1F1F22",
"U.	c #1E1E21",
"V.	c #2C2D31",
"W.	c #141416",
"X.	c #26292C",
"Y.	c #1F2124",
"Z.	c #1E2023",
"`.	c #26272B",
" +	c #34373B",
".+	c #4B4F55",
"++	c #222226",
"@+	c #24252A",
"#+	c #1D1E22",
"$+	c #1E1F23",
"%+	c #232326",
"&+	c #222427",
"*+	c #121315",
"=+	c #44484E",
"-+	c #202122",
";+	c #202325",
">+	c #1A1C1E",
",+	c #1B1E20",
"'+	c #1E2123",
")+	c #17181A",
"!+	c #131416",
"~+	c #3A3C43",
"{+	c #3C3E44",
"]+	c #1E2022",
"^+	c #1C1E1F",
"/+	c #1A1A1C",
"(+	c #1B1B1D",
"_+	c #303336",
":+	c #232527",
"<+	c #242628",
"[+	c #1A1D1F",
"}+	c #151719",
"|+	c #151718",
"1+	c #171A1C",
"2+	c #222527",
"3+	c #1D1F21",
"4+	c #18181A",
"5+	c #2B2D31",
"6+	c #2B2D2F",
"7+	c #383B3C",
"8+	c #45484A",
"9+	c #4D4F51",
"0+	c #4E5052",
"a+	c #141417",
"b+	c #131417",
"c+	c #313235",
"d+	c #292A2D",
"e+	c #1C1D21",
"f+	c #171719",
"g+	c #393A3D",
"h+	c #515255",
"i+	c #444548",
"j+	c #37383B",
"k+	c #2C2D30",
"l+	c #26282B",
". + @ @ @ @ @ @ @ @ @ @ @ @ @ @ @ @ @ @ @ @ @ @ @ @ @ @ @ @ @ @ @ @ @ @ @ ",
"# $ % % % % % % % % % % % % % % % % % % % % % % % % % % % % % % % % % % % ",
"& * = - - - - - - - - - - - ; > , ' ) ! ~ ~ ~ ~ ~ ~ ~ ~ ! { , ] ; - - - - ",
"^ / ( ( ( ( ( ( ( ( ( ( _ : < [ } } } } } } } } | 1 1 2 3 4 5 6 7 8 ( ( ( ",
"9 0 a a a a a a a a b c d e f f g h h h h h h h h h h h i j k l m n o p a ",
"q r s s s s s s t l i u v w x y z z z z z z z z z z z z A B C D E g F G H ",
"I J K K K K K L M N O P Q R R R R R R R R R R R R R R R R S T v U e V W W ",
"X Y Z Z Z Z `  ...w +.@.@.@.@.@.@.@.@.@.@.@.@.@.@.@.@.@.@.@.@.#.$.%.&.*.=.",
"b -.;.;.;.>.,.'.).!.~.~.~.~.~.~.~.~.~.~.~.~.~.~.~.~.~.~.~.~.~.~.{.].d ^./.",
"(._.:.:.:.<.[.}.|.1.1.1.1.1.1.1.1.1.1.1.1.1.1.1.1.1.1.1.1.1.1.1.1.2.3.4.5.",
"6.7.8.9.0.a.b.c.d.d.d.d.d.d.d.d.d.d.d.d.d.d.d.d.d.d.d.d.d.d.d.d.d.e.c ^.f.",
"g.h.P i.j.].c A k.k.k.k.k.k.k.k.k.k.k.k.k.k.k.k.k.k.k.k.k.k.k.k.k.k.l.B m.",
"n.o.p.q.5.r.B s.t.t.t.t.t.t.t.t.t.t.t.t.t.t.t.t.t.t.t.t.t.t.t.t.t.t.u.v.A ",
"w.x.y.y.z.A.^.m.B.B.B.B.B.B.B.B.B.B.B.B.B.B.B.B.B.B.B.B.B.B.B.B.B.B.C.b.C ",
"D.E.F.F.G.B $.u.H.H.H.H.H.H.H.H.H.H.H.H.H.H.H.H.H.H.H.H.H.H.H.H.H.H.I.}.J.",
"K.L.l.l.M.$.N.O.P.P.P.P.P.P.P.P.P.P.P.P.P.P.P.P.P.P.P.P.P.P.P.P.P.P.z.[ Q.",
"R.S.c.c.c.T.U.$.V.V.V.V.V.V.V.V.V.V.V.V.V.V.V.V.V.V.V.V.V.V.V.V.V.V.^.K.W.",
"3 X.Y.Y.Y.Z.$.'.F.F.F.F.F.F.F.F.F.F.F.F.F.F.F.F.F.F.F.F.F.F.F.F.F.`.'. +.+",
"++@+#+#+#+#+$+`.l %+%+%+%+%+%+%+%+%+%+%+%+%+%+%+%+%+%+%+%+%+%+%+%+}.&+*+=+",
"-+;+>+>+>+>+,+'+)+l $.$.$.$.$.$.$.$.$.$.$.$.$.$.$.$.$.$.$.$.$.$.}.!+~+{+!+",
"]+$.'.'.'.'.c }.^+)+/+(+(+(+(+(+(+(+(+(+(+(+(+(+(+(+(+(+(+(+(+c )+_+:+w.<+",
"l [+}+}+|+|+}+1+2+3+z.)+4+4+4+4+4+4+4+4+4+4+4+4+4+4+4+4+4+4+)+5+6+7+8+9+0+",
"[.O a+a+b+b+a+a+).c+d+e+3 O )+f+f+f+f+f+f+f+f+f+f+f+f+f+)+5+m.g+h+i+j+k+l+"};
